<svg xmlns="http://www.w3.org/2000/svg" width="156.817" height="150.449" viewBox="0 0 156.817 150.449"><defs><style>.a{fill:#ffc3c3;opacity:0.3;}.b{fill:#fff;}.b,.c,.d,.f,.g{fill-rule:evenodd;}.d{fill:#f5f5f5;}.e,.g{stroke:#fff;}.f{fill:#ffc400;}</style></defs><g transform="translate(-811.287 -202.496)"><path class="a" d="M74.494,18c39.124,0,55.858,50.561,55.858,91.082S99.361,153.52,60.237,153.52s-78.092-11.837-78.092-52.357S35.37,18,74.494,18Z" transform="translate(837.751 198.96)"/><g transform="translate(811.815 203)"><path class="b" d="M2289.472,882.838h1.989l7.343,3.776h2.636l3.919-.79,5.13-.706,2.921,1.853,3.948,6.956-14.4,15.144-2.733-2.7-3.42-4.79-.64-3.776,1.21-3.776.214-1.791-2.352-2.911-6.206-4.417S2287.761,882.126,2289.472,882.838Z" transform="translate(-2253.751 -831.256)"/><path class="b" d="M2064.6,604.641l-6.313-13.8,2.961-10.679L2056.5,564.34l-7.952-5.456-5.456,1.559s-5.814,7.843-4.287,16.213,2.592,14.428,3.664,22.84,3.316,27.5,14.187,31.024,18.5.347,25.724-5.223,20.268-15.824,20.268-15.824l5.222,41.782h63.219s-.961-14,.39-21.125,2.1-13.72,2.1-13.72,13.25-21.913,13.642-27.751-3.179-16.24-11.925-20.735-24.171-11.414-26.5-13.953-4.792-8.534-3.9-10.367,6.985-12.043,6.236-23.464-3.555-15.434-14.5-16.914a41.932,41.932,0,0,0-16.292,1.169,17.907,17.907,0,0,0-7.639,4.443l-5.847-1.481,1.247,4.677-4.755-.546a15.413,15.413,0,0,0,2.65,3.742,6.75,6.75,0,0,0,3.665,1.949,12.478,12.478,0,0,0-2.339,8.262c.51,4.626,2.23,8.043,1.092,9.822s-2.438,3.685-2.417,4.755,3.088,1.818,3.509,3.118,3.082,8.939,9.354,8.886,7.094-2.728,7.094-2.728,2.677,5.192,1.014,6.548-21.566,3.1-29.389,11.3S2064.6,604.641,2064.6,604.641Z" transform="translate(-2036.981 -501.972)"/><path class="b" d="M2325.179,943.7s-.269,8.174,2.261,13.642c3.074,6.644,13.018,9.9,13.018,9.9l14.732-10.212,4.677,42.951h59.167s.414-28.455,2.728-32.739c16.26-30.11,20.166-38.512-3.586-53.008a83.558,83.558,0,0,0-18.241-7.873s-4.63-.884-14.5.313c-8.689,1.053-29.888,4.861-37.339,11.693A183.474,183.474,0,0,0,2325.179,943.7Z" transform="translate(-2285.475 -851.48)"/><path class="c" d="M2567.528,536.85s1.278,7.228,3.409,7.653a16.144,16.144,0,0,0,4.649.158c1.8-.036,5.278-.443,5.278-.443a3.553,3.553,0,0,1,.7-2.729,28.425,28.425,0,0,0,5.335-11.06c1.723-6.516,3.41-19.3-1.627-23.409s-17.088-6.627-24.61-5.121a29.915,29.915,0,0,0-8.829,2.906c-2.648,1.608-3.619,3.479-4.2,3.346a26.516,26.516,0,0,1-4.229-2.273l4.649,5.882-5.919-1.144s3.262,2.437,4.593,2.6,2.153.725,4.7.4c3.558-.454,5.716-.766,6.65.375.9,1.1,1.154,6.918,1.724,11.484.554,4.44-1.562,7.834-.373,7.513,1.326-.358,2.654-2.649,2.654-2.649s.734-4.777,3.505-4.742,4.694,2.9,4.661,5.428S2567.528,536.85,2567.528,536.85Z" transform="translate(-2473.577 -500.714)"/><g transform="translate(0 40.383)"><path class="d" d="M2036.188,804.446l19.232.591a5.112,5.112,0,0,1,4.407,3.264l10.637,32.547a2.2,2.2,0,0,1-2.341,3.056l-19.233-.592a5.114,5.114,0,0,1-4.407-3.263L2033.848,807.5A2.2,2.2,0,0,1,2036.188,804.446Z" transform="translate(-2032.773 -803.775)"/><g transform="translate(0 0)"><path class="e" d="M2061.479,840.6c-.032,0-.063,0-.1,0l-18.86-.576a5.893,5.893,0,0,1-5.146-3.8l-10.43-31.72a3.961,3.961,0,0,1,.7-3.521,3.582,3.582,0,0,1,2.972-1.569l19.131.4a5.9,5.9,0,0,1,5.154,3.8l10.337,31.986a3.7,3.7,0,0,1-.682,3.321A3.937,3.937,0,0,1,2061.479,840.6Zm-30.943-39.392a1.907,1.907,0,0,0-1.449.85,2.191,2.191,0,0,0-.436,1.888l10.43,31.719a4.117,4.117,0,0,0,3.5,2.565l18.86.576a2.191,2.191,0,0,0,1.686-.957,1.951,1.951,0,0,0,.414-1.692L2053.2,804.171a4.112,4.112,0,0,0-3.5-2.56l-19.127-.4A.234.234,0,0,0,2030.536,801.208Z" transform="translate(-2026.789 -799.414)"/></g><path class="f" d="M2068.972,817.018l14.9.456a4.344,4.344,0,0,1,3.748,2.762l9.049,27.554a1.865,1.865,0,0,1-1.992,2.588l-14.9-.455a4.346,4.346,0,0,1-3.749-2.763l-9.048-27.554A1.865,1.865,0,0,1,2068.972,817.018Z" transform="translate(-2061.518 -814.675)"/></g><path class="b" d="M2080.214,1003.745s2.968-11.356,7.681-9.33-2.4,4.77-1.744,9.553,3.063,6.515.659,10.661-7.511-2.5-7.511-2.5Z" transform="translate(-2072.314 -927.88)"/><g transform="translate(0.742 0)"><path class="g" d="M2175.542,565.165c-6.975-6.7-17.191-10.227-26.656-14.809-2.2-1.065-4.671-2.183-6.079-4.287a14.412,14.412,0,0,1-1.558-3.663c-.433-1.362-1.107-3.182-.858-4.676.208-1.239,1.232-2.528,1.871-3.819a44.079,44.079,0,0,0,3.974-13.017c1.105-6.96,1.074-14.495-2.728-18.55a18.2,18.2,0,0,0-7.092-4.286,30.815,30.815,0,0,0-9.2-2.1,35.04,35.04,0,0,0-10.366.857c-3.117.719-6.44,1.763-8.651,3.351a6.945,6.945,0,0,0-1.092.936c-.3.348-.443.889-1.012.936-.693.056-1.555-.638-2.183-.936a4.1,4.1,0,0,0-2.416-.623c-1.585.657-.553,3.194-.156,4.365-1.107-.055-3.765-2.053-4.443-.39-.585,1.439,1.655,3.686,2.494,4.521a19.883,19.883,0,0,0,4.131,2.962,16.4,16.4,0,0,0-2.1,12.315c.351,1.567,1.3,3.32.857,4.909-.418,1.506-2.584,2.693-2.417,4.443.177,1.851,2.445,2.476,3.352,3.82.665.982,1.111,2.19,1.715,3.273,1.552,2.784,4.289,6.345,8.5,6.392,2.91.032,4.1-1.249,6.313-2.416.268.64.515,1.2.78,2.026.194.607.65,1.666.39,2.26-.414.941-3.619,1.408-5.223,1.715-5.862,1.123-11.64,2.34-16.134,4.6-9.311,4.681-15.474,12.207-21.667,19.876-5.158,6.383-10.119,12.822-15.433,19.1-.523.619-1.121,1.184-1.637,1.792a6.6,6.6,0,0,1-1.559,1.715c-.881-1.989-1.826-4.227-2.806-6.547-.916-2.171-2.278-4.482-2.573-6.7-.139-1.055.672-2.771,1.17-4.054.2-.527,1.734-3.171.234-3.429-1.337-.23-1.792,2.318-2.183,3.352a11.009,11.009,0,0,0-1.168,4.286,13.614,13.614,0,0,0,1.324,3.9c1.011,2.537,1.971,4.885,3.04,7.326a14.2,14.2,0,0,0,1.793,3.352c-.811,1.055-2.125,2.5-3.2,3.741-.415.48-1.1,1.664-.079,2.025.926.329,1.859-1.171,2.338-1.715,4.462-5.052,8.482-10.157,12.939-15.2.063-.072.162-.551.39-.312-2.1,13.535,4.891,20.647,14.106,23.851a3.06,3.06,0,0,1-1.012,1.014c-2.782,2.143-5.755,4.381-8.73,6.469-3.382,2.375-7.115,4.82-11.769,5.612-11.609,1.975-18.231-5.033-21.2-12.938a57.246,57.246,0,0,1-2.962-14.42,131.279,131.279,0,0,0-2.338-15.042c-.977-4.549-2.517-9.488-2.26-15.121a19.9,19.9,0,0,1,3.2-9.9,11.919,11.919,0,0,0,.777-1.341,7.534,7.534,0,0,1-.732-1.324c-.953.023-1.693,1.618-2.073,2.276a20.71,20.71,0,0,0-3.039,10.522c.012.091-.017.139-.078.156v.935c.19,5.554,1.6,10.476,2.65,15.354,1.093,5.1,1.534,10.108,2.182,15.822,1.2,10.6,4.352,19.92,11.613,24.4a21.548,21.548,0,0,0,14.81,2.416c4.959-.931,8.79-3.355,12.237-5.768,5.3-3.709,10.429-7.713,15.354-11.691a54.114,54.114,0,0,1,4.91-3.976c1.769,11.872,3.391,23.623,4.678,35.931.115,1.116-.053,4.591,1.557,4.287.659-.124.731-1.181.624-2.183-1.352-12.748-2.909-24.839-4.754-36.866a13.791,13.791,0,0,1-.39-2.651c.182-.813,2.927-1.641,2.026-3.039-.611-.951-1.675.039-2.26.545-3.833,3.312-7.326,6.276-11.224,9.2-4.862-1.973-9.244-4.087-11.925-8.262-2.61-4.065-2.96-11.144-1.636-17.225.178-.823,1.66-2.194,2.339-3.04,2.343-2.925,4.757-6.165,6.936-8.729,6.38-7.5,13.235-15.061,23.617-18.161,4.054-1.211,8.67-1.717,12.86-2.806,1.43-.371,2.524-1.081,3.741-1.481a46.208,46.208,0,0,1,15.432-1.871,21.787,21.787,0,0,1,5.3.546,15.747,15.747,0,0,1,1.948,1.325c.722.42,1.545.74,2.26,1.091,10.268,5.039,22.354,8.915,29.15,17.3a16.545,16.545,0,0,1,4.131,9.119c.389,3.892-1.031,7.59-2.338,10.756a113.037,113.037,0,0,1-9.041,17.537c.505-4.264.761-8.507,1.013-13.016.082-1.467.417-3.663-.857-3.663-1.1,0-.963,1.707-1.014,2.806a237.683,237.683,0,0,1-2.494,24.63,142.575,142.575,0,0,0-1.48,25.486,7.522,7.522,0,0,0,.076,1.871,1.282,1.282,0,0,0,1.17.779c1.056-.147.636-2.707.624-3.9-.016-1.576-.02-3.736,0-4.287.124-3.463.086-6.363.312-9.2.471-5.906,1.371-11.276,2.1-16.914a127.758,127.758,0,0,0,8.183-14.42c2.423-5.032,5.142-10.168,5.768-16.835v-.858C2182.018,572.709,2179.018,568.5,2175.542,565.165Zm-52.687-16.757a11.824,11.824,0,0,0-1.637-4.91c.372-.2,1.352-1.962,0-2.183-.932-.152-2.236,1.5-3.118,2.1a7.882,7.882,0,0,1-4.988,1.715c-2.8-.2-4.079-2.261-5.689-3.976.354-.621,1.126-1.177,1.635-2.026.537-.892,1.575-3.438,0-3.507-.93-.041-1.1,1.158-1.4,1.871a3.553,3.553,0,0,1-1.325,1.792,12.706,12.706,0,0,0-4.521-5.846c.741-1.592,2.384-2.659,2.495-4.832.076-1.506-.575-2.968-.936-4.521a14.836,14.836,0,0,1,2.729-12.548c2.332.4,4.349-.148,6.625-.234,2.231,2.262,1.559,8.5,1.559,13.094,0,1.981-.086,4.8,1.481,5.145,1.411.308,2.486-.958,3.118-1.637a18.793,18.793,0,0,0,2.1-2.65c0-2.359,1.018-4.789,3.352-3.663a4.931,4.931,0,0,1,2.338,5.378,6.082,6.082,0,0,1-1.948,2.806c-.783.7-2.494,1.419-2.494,2.261,0,1.23,1.672.915,2.1.545.722,2.668,1.392,5.339,3.508,6.782,1.71,1.166,3.977.311,6.781.311,1.463,0,2.962.156,2.962-.935,0-1.13-1.907-1.073-3.508-1.014-2.023.076-3.358.661-4.6.312-1.512-.426-2.456-2.913-2.962-4.6a5.842,5.842,0,0,1-.468-2.026c.076-.5,1.321-1.689,1.637-2.183a5.712,5.712,0,0,0,1.013-2.728,7.049,7.049,0,0,0-1.87-5.456c-.811-.834-2.8-2.18-4.754-1.559-2.114.673-2.652,2.884-3.117,5.378-.819.845-1.557,2.185-2.572,2.572-.654-5.616.8-12.606-1.325-16.367a3.121,3.121,0,0,0-3.274-1.715c-.732.05-1.621.326-2.572.39-2.314.155-4.263-.871-5.611.078a20.293,20.293,0,0,1-3.041-2.572c-.239-.246-.781-.488-.623-.857.962.308,3.547,1.074,3.9-.155.376-1.318-1.148-2.157-1.091-3.508,1.324.474,2.583,1.568,4.208,1.091,1.1-.323,1.269-1.185,1.949-1.792,1.373-1.229,3.906-2.113,6.235-2.806a32.849,32.849,0,0,1,17.85-.312,34.05,34.05,0,0,1,3.974,1.482,24.026,24.026,0,0,1,3.664,1.793c6.911,4.758,4.28,18.908,1.792,26.422a30.33,30.33,0,0,1-1.637,3.9c-.829,1.676-2.4,3.415-2.416,5.69a16.711,16.711,0,0,0,1.013,4.832,19.933,19.933,0,0,0,1.793,4.053A52.328,52.328,0,0,0,2122.854,548.407Z" transform="translate(-2032.364 -495.867)"/><path class="g" d="M2086.384,985.35c1.9-.334,3.462.855,3.273,3.274-.171,2.2-2.326,3.634-2.571,5.689a9.475,9.475,0,0,0,.857,4.053,11.514,11.514,0,0,1,1.013,4.91,8.546,8.546,0,0,1-1.091,3.43c-.417.75-1.18,2.405-2.261,2.181-1.6-.331.1-2.2.468-2.883a8.13,8.13,0,0,0,.935-2.573c.365-3.258-2.013-5.1-1.87-8.885a8.45,8.45,0,0,1,1.637-4.131c.321-.526.638-.633.857-1.481.557-2.151-1.05-1.811-2.027-1.091-2.334,1.722-3.416,4.479-4.052,7.872-.213,1.128-.267,3.443-1.248,3.507-1.333.088-1.045-2.1-.779-3.585C2080.239,991.656,2082.516,986.031,2086.384,985.35Z" transform="translate(-2073.055 -920.182)"/></g><g transform="translate(34.162 50.155)"><path class="g" d="M2295.02,877.572a4.373,4.373,0,0,1,2.339-.468,7.5,7.5,0,0,0,1.325.155c.328-.068.512-.459.856-.623a5.682,5.682,0,0,1,3.274-.155,4.825,4.825,0,0,1,3.273-.779c3.3.2,5.359,3.45,6.625,6.235.466,1.025,1.932,3.977,0,3.9-1.083-.044-1.515-2.624-2.026-3.663-1.012-2.058-2.374-4.568-5.457-4.521.087.461,1.015,1,.936,1.793a.963.963,0,0,1-1.013.857c-1.133-.046-1.72-2.752-4.053-2.027.062.574,1.4,1.264,1.4,2.183a1,1,0,0,1-1.092,1.014c-.9-.077-1.17-1.514-2.183-2.027a4.3,4.3,0,0,0-2.573-.312c0,.693,3.025,2.627,2.1,3.9-.813,1.125-1.832-.373-2.338-1.014a27.393,27.393,0,0,0-3.819-3.975c-2.152-1.791-4.041-3.174-7.091-3.117.365,2.505,3.3,2.859,5.143,4.365,3.014,2.464,4.107,6.9,6.08,10.444.419.752,1.687,2.345,1.481,3.2a.952.952,0,0,1-1.013.623c-.961-.066-1.879-2.277-2.261-2.962-.7-1.263-1.149-2.336-1.715-3.507-2.219,6,3.173,9.686,6.08,12.548-.352.558-.873.946-1.247,1.481-2.485-2.56-6.912-5.527-7.327-10.288a11.045,11.045,0,0,1,1.4-6.157,18.857,18.857,0,0,0-1.714-2.884c-1.6-1.916-4.65-2.573-6-4.287-1.569-1.99-1.044-4.945,2.338-4.6C2290.166,873.244,2293.048,875.841,2295.02,877.572Z" transform="translate(-2283.575 -872.867)"/></g></g></g></svg>