<svg xmlns="http://www.w3.org/2000/svg" xmlns:xlink="http://www.w3.org/1999/xlink" width="234.434" height="228.176" viewBox="0 0 234.434 228.176">
  <defs>
    <clipPath id="clip-path">
      <path id="Path_151767" data-name="Path 151767" d="M104.921,18c52.015,0,74.262,70.4,74.262,126.814s-41.2,61.873-93.217,61.873-103.822-16.481-103.822-72.9S52.906,18,104.921,18Z" transform="translate(648.651 177.513) rotate(-13)" fill="#e8eaff"/>
    </clipPath>
  </defs>
  <g id="Group_99905" data-name="Group 99905" transform="translate(-635.302 -154.744)">
    <path id="Path_150988" data-name="Path 150988" d="M73.714,18c38.794,0,55.387,50.134,55.387,90.312s-30.729,44.063-69.523,44.063-77.433-11.737-77.433-51.915S34.92,18,73.714,18Z" transform="translate(671.855 210.8)" fill="#e8eaff"/>
    <g id="Mask_Group_28" data-name="Mask Group 28" clip-path="url(#clip-path)">
      <g id="Group_99904" data-name="Group 99904" transform="translate(-9.893 1.485)">
        <g id="Group_99899" data-name="Group 99899" transform="translate(683 180.588)">
          <g id="Group_99870" data-name="Group 99870" transform="translate(143.097 38.285)">
            <g id="Group_99866" data-name="Group 99866" transform="translate(0)">
              <path id="Path_150989" data-name="Path 150989" d="M2818.018,1251.447a.223.223,0,0,1-.109-.416l11.327-6.371a3.652,3.652,0,0,0,1.737-3.1v-5.955a3.341,3.341,0,0,0-3.337-3.337h-4.25a.221.221,0,0,1-.222-.236,10.666,10.666,0,0,0-.807-5.142,2.131,2.131,0,0,0-1.307-1.159,2.189,2.189,0,0,0-1.762.19,1.466,1.466,0,0,0-.727,1.152l-.591,7.513a.225.225,0,0,1-.062.139l-4.8,4.872a.222.222,0,1,1-.317-.312l4.741-4.815.586-7.432a1.908,1.908,0,0,1,.947-1.5,2.639,2.639,0,0,1,2.12-.229,2.607,2.607,0,0,1,1.576,1.4,10.949,10.949,0,0,1,.859,5.119h4.015a3.786,3.786,0,0,1,3.782,3.781v5.955a4.1,4.1,0,0,1-1.956,3.482l-11.334,6.375A.225.225,0,0,1,2818.018,1251.447Z" transform="translate(-2812.728 -1225.183)"/>
            </g>
            <g id="Group_99867" data-name="Group 99867" transform="translate(7.471 14.741)">
              <path id="Path_150990" data-name="Path 150990" d="M2837.552,1263.381h-5.494a2.244,2.244,0,1,1,0-4.488h4.354a.222.222,0,0,1,0,.445h-4.354a1.8,1.8,0,0,0,0,3.6h5.494a.222.222,0,0,1,0,.445Z" transform="translate(-2829.813 -1258.893)"/>
            </g>
            <g id="Group_99868" data-name="Group 99868" transform="translate(7.471 10.698)">
              <path id="Path_150991" data-name="Path 150991" d="M2837.552,1254.135h-5.494a2.244,2.244,0,1,1,0-4.488h4.354a.222.222,0,0,1,0,.445h-4.354a1.8,1.8,0,1,0,0,3.6h5.494a.222.222,0,0,1,0,.445Z" transform="translate(-2829.813 -1249.647)"/>
            </g>
            <g id="Group_99869" data-name="Group 99869" transform="translate(7.471 6.655)">
              <path id="Path_150992" data-name="Path 150992" d="M2837.552,1244.89h-5.494a2.244,2.244,0,1,1,0-4.487.222.222,0,0,1,0,.445,1.8,1.8,0,1,0,0,3.6h5.494a.222.222,0,0,1,0,.445Z" transform="translate(-2829.813 -1240.402)"/>
            </g>
          </g>
          <g id="Group_99898" data-name="Group 99898" transform="translate(0 0)">
            <path id="Path_150993" data-name="Path 150993" d="M387.847,614.064s-28.849-39.518-40.67,0c-5.58,18.652-6.281,55.383-6.616,88.909-.366,36.582,0,69.163,0,69.163h25.3l4.4-120.875,16.864,50.084L381,766.647l22.61,1.322,14.219-64.995-19.4-73.44a25.283,25.283,0,0,1-7.863-5.632l-1.589-3.074Z" transform="translate(-300.413 -459.791)" fill="#6876f7"/>
            <g id="Group_99871" data-name="Group 99871" transform="translate(75.018 12.907)">
              <path id="Path_150994" data-name="Path 150994" d="M2658.14,1175.246a.216.216,0,0,1-.082-.016.22.22,0,0,1-.14-.191c-.285-4.218-.752-10.635-.868-11.028a.227.227,0,0,1,.14-.279.218.218,0,0,1,.278.126c.153.4.7,8.3.866,10.746a4.771,4.771,0,0,1,1.992-.577h.336v.27a4.257,4.257,0,0,0-2.371.891A.221.221,0,0,1,2658.14,1175.246Z" transform="translate(-2657.042 -1163.72)"/>
            </g>
            <path id="Path_150995" data-name="Path 150995" d="M472.233,273.545a8.374,8.374,0,0,0-12.616-10.715,101.262,101.262,0,0,1-14.162,2.09,5.211,5.211,0,0,0-3.929,7.051,19.455,19.455,0,0,1,1.422,5.749c.18,2.45.79,6.467.79,6.467a8.09,8.09,0,0,1,2.946.636l1.465-5.3c.241-2.949,1.688-4.988,4.553-4.252,1.427.366,2.8,1.11,4.315,1.519a61.5,61.5,0,0,0,8.074.769,8.356,8.356,0,0,0,6.365-2.937A4.162,4.162,0,0,0,472.233,273.545Z" transform="translate(-391.04 -260.788)" fill="#404040"/>
            <path id="Path_150996" data-name="Path 150996" d="M2534.159,1245.349s-41.675,8.791-47.951,44.979c-6.55,37.769,33.392,42.411,33.392,42.411s-.889-8.623,2.057-13.792c0,0-14.955-8.5-11.43-26.154,2.556-12.806,12.626-15.846,12.626-15.846l-1.032,41.906-.9,1.891h13.477s4,.8,1.608,4.793c0,0,2.446-.382,2.4,2.4s-4.239,2.538-4.239,2.538,2.117.758,1.59,2.254a4.97,4.97,0,0,1-1.59,2.255s-6.7.532-8.816-.082c-2.49-.723-3.315-4.756-3.315-4.756l-.24,22.247,59.946.086s-1.164-56.844-3.007-67.909c0,0,3.344,9.731,15.2,8.226s31.163-17.842,39.942-29.665l-5.706-13.844-33.346,21.254s-10.6-20.367-28.789-25.523l-13.3,21.67Z" transform="translate(-2485.482 -1198.058)" fill="#fff"/>
            <path id="Path_150997" data-name="Path 150997" d="M2579.414,1867.806l-2.805,8.269h21.324l-1.683-8.269Z" transform="translate(-2536.763 -1548.517)"/>
            <g id="Group_99872" data-name="Group 99872" transform="translate(0.03 45.36)">
              <path id="Path_150998" data-name="Path 150998" d="M2518.5,1330.906l-.031,0a47.526,47.526,0,0,1-16.451-6.214c-7.513-4.645-16.47-13.615-16.47-29.974,0-13.595,6.177-26,17.861-35.875,9.957-8.414,23.408-14.62,37.875-17.474a.222.222,0,1,1,.086.436c-14.395,2.84-27.774,9.011-37.674,17.377-11.582,9.787-17.7,22.075-17.7,35.535,0,16.147,8.834,25,16.246,29.588a47.023,47.023,0,0,0,16.292,6.159.222.222,0,0,1-.03.443Z" transform="translate(-2485.551 -1241.363)"/>
            </g>
            <g id="Group_99873" data-name="Group 99873" transform="translate(24.19 77.142)">
              <path id="Path_150999" data-name="Path 150999" d="M2550.632,1368.105a.223.223,0,0,1-.222-.2,19.33,19.33,0,0,1,2.221-10.092c-1.9-.832-11.833-6.057-11.833-22.195,0-13.466,10.931-20.376,17.821-21.568a.222.222,0,0,1,.076.438c-4.528.783-17.453,6.346-17.453,21.13,0,16.51,10.858,21.5,11.729,21.861a.24.24,0,0,1,.068.019.261.261,0,0,1,.152.281.22.22,0,0,1-.107.132,18.906,18.906,0,0,0-2.23,9.954.222.222,0,0,1-.2.241Z" transform="translate(-2540.798 -1314.045)"/>
            </g>
            <g id="Group_99877" data-name="Group 99877" transform="translate(36.092 122.464)">
              <g id="Group_99874" data-name="Group 99874" transform="translate(4.024)">
                <path id="Path_151000" data-name="Path 151000" d="M2586.016,1422.928h-5.926a.222.222,0,0,1,0-.444h5.926a2.174,2.174,0,1,0,0-4.348h-8.574a.222.222,0,1,1,0-.444h8.574a2.618,2.618,0,1,1,0,5.237Z" transform="translate(-2577.219 -1417.691)"/>
              </g>
              <g id="Group_99875" data-name="Group 99875" transform="translate(6.672 4.793)">
                <path id="Path_151001" data-name="Path 151001" d="M2591.032,1433.888H2583.5a.222.222,0,0,1,0-.444h7.534a2.174,2.174,0,1,0,0-4.348H2583.5a.222.222,0,1,1,0-.444h7.534a2.618,2.618,0,1,1,0,5.236Z" transform="translate(-2583.276 -1428.651)"/>
              </g>
              <g id="Group_99876" data-name="Group 99876" transform="translate(0 4.417)">
                <path id="Path_151002" data-name="Path 151002" d="M2579.8,1438.2h-6.636a4.071,4.071,0,0,1-3.445-1.861c-1.887-2.65-1.865-7.377-1.514-8.393a.222.222,0,1,1,.42.145c-.334.964-.347,5.459,1.456,7.991a3.648,3.648,0,0,0,3.083,1.674h6.636a2.174,2.174,0,0,0,0-4.348h-4.886a.222.222,0,1,1,0-.445h4.886a2.619,2.619,0,0,1,0,5.237Z" transform="translate(-2568.017 -1427.793)"/>
              </g>
            </g>
            <g id="Group_99878" data-name="Group 99878" transform="translate(36.082 77.142)">
              <path id="Path_151003" data-name="Path 151003" d="M2628.168,1391.543h0l-59.946-.086a.222.222,0,0,1-.223-.224l.187-17.268a.215.215,0,0,1,.225-.22.223.223,0,0,1,.22.224l-.185,17.043,59.5.085c-.008-3.722-.2-52.314-4.4-76.793a.223.223,0,0,1,.439-.075c4.359,25.372,4.41,76.576,4.41,77.09a.222.222,0,0,1-.223.222Z" transform="translate(-2568 -1314.046)"/>
            </g>
            <g id="Group_99879" data-name="Group 99879" transform="translate(36.115 78.667)">
              <path id="Path_151004" data-name="Path 151004" d="M2568.3,1359.883h-.006a.222.222,0,0,1-.217-.227c.009-.393.864-39.363,1.033-41.916a.222.222,0,1,1,.444.029c-.168,2.543-1.024,41.5-1.032,41.9A.222.222,0,0,1,2568.3,1359.883Z" transform="translate(-2568.074 -1317.532)"/>
            </g>
            <path id="Path_151005" data-name="Path 151005" d="M2687.377,1854.309l21.253,14.172h-33.886l1.052-14.172Z" transform="translate(-2591.985 -1540.922)"/>
            <g id="Group_99880" data-name="Group 99880" transform="translate(35.276 154.195)">
              <path id="Path_151006" data-name="Path 151006" d="M2596.128,1655.573h-29.753a.222.222,0,0,1-.222-.224l.839-164.872a.223.223,0,0,1,.223-.221h0a.223.223,0,0,1,.221.223l-.839,164.649h29.313l4.312-139.093a.221.221,0,0,1,.055-.139l8.636-9.869a.222.222,0,0,1,.335.293l-8.583,9.81-4.316,139.228A.223.223,0,0,1,2596.128,1655.573Z" transform="translate(-2566.154 -1490.256)"/>
            </g>
            <g id="Group_99881" data-name="Group 99881" transform="translate(68.984 154.195)">
              <path id="Path_151007" data-name="Path 151007" d="M2677.751,1649.67H2652.46a.223.223,0,0,1-.221-.246l8.013-72.288-17-49.3a.223.223,0,0,1,.421-.145l17.018,49.35a.233.233,0,0,1,.01.1l-7.992,72.091h24.857l13.109-71.747-20.383-86.95a.222.222,0,0,1,.433-.1l20.394,87a.23.23,0,0,1,0,.09l-13.15,71.975A.223.223,0,0,1,2677.751,1649.67Z" transform="translate(-2643.239 -1490.256)"/>
            </g>
            <g id="Group_99882" data-name="Group 99882" transform="translate(36.049 154.13)">
              <path id="Path_151008" data-name="Path 151008" d="M2568.143,1503.844a.222.222,0,0,1-.021-.444c.12-.011,12.046-1.271,13.8-13.105a.225.225,0,0,1,.252-.187.222.222,0,0,1,.187.252c-1.8,12.184-14.072,13.471-14.2,13.483Z" transform="translate(-2567.921 -1490.106)"/>
            </g>
            <g id="Group_99883" data-name="Group 99883" transform="translate(88.75 154.129)">
              <path id="Path_151009" data-name="Path 151009" d="M2699.048,1503.843a.222.222,0,0,1-.04,0c-11.536-2.093-10.547-13.42-10.536-13.534a.218.218,0,0,1,.243-.2.222.222,0,0,1,.2.243c-.011.11-.955,11.034,10.173,13.053a.222.222,0,0,1-.039.441Z" transform="translate(-2688.446 -1490.105)"/>
            </g>
            <path id="Path_151010" data-name="Path 151010" d="M2647.651,1191.6c0,.576.289,1.042.644,1.042s.644-.466.644-1.042-.289-1.042-.644-1.042S2647.651,1191.026,2647.651,1191.6Z" transform="translate(-2576.737 -1167.415)"/>
            <path id="Path_151011" data-name="Path 151011" d="M2624.147,1191.6c0,.576.288,1.042.644,1.042s.644-.466.644-1.042-.288-1.042-.644-1.042S2624.147,1191.026,2624.147,1191.6Z" transform="translate(-2563.513 -1167.415)"/>
            <g id="Group_99884" data-name="Group 99884" transform="translate(64.883 29.38)">
              <path id="Path_151012" data-name="Path 151012" d="M2636.314,1218.538h-2.231a.222.222,0,0,1,0-.445h2.231a9.178,9.178,0,0,0,9.168-9.167v-3.886a.222.222,0,0,1,.222-.222h0a.222.222,0,0,1,.222.222v3.886A9.622,9.622,0,0,1,2636.314,1218.538Z" transform="translate(-2633.862 -1204.818)"/>
            </g>
            <g id="Group_99885" data-name="Group 99885" transform="translate(55.305 31.048)">
              <path id="Path_151013" data-name="Path 151013" d="M2623.49,1236.486a.223.223,0,0,1-.17-.079l-11.026-13.1a.22.22,0,0,1-.052-.139l-.282-14.312a.223.223,0,0,1,.218-.226.216.216,0,0,1,.227.218l.28,14.233,10.74,12.755,5.208-12.716v-4.018a.223.223,0,0,1,.445,0v4.062a.214.214,0,0,1-.017.084l-5.364,13.1a.221.221,0,0,1-.171.136Z" transform="translate(-2611.959 -1208.634)"/>
            </g>
            <g id="Group_99886" data-name="Group 99886" transform="translate(51.085 23.092)">
              <path id="Path_151014" data-name="Path 151014" d="M2605.912,1199.555a3.474,3.474,0,0,1-2.226-.738c-1.008-.828-1.467-2.29-1.363-4.344s.652-3.33,1.634-3.819a3.252,3.252,0,0,1,2.92.426.222.222,0,0,1-.25.368,2.867,2.867,0,0,0-2.473-.395c-.827.412-1.292,1.57-1.386,3.442-.1,1.9.308,3.241,1.2,3.976a3.438,3.438,0,0,0,2.732.558.222.222,0,0,1,.107.432A4.023,4.023,0,0,1,2605.912,1199.555Z" transform="translate(-2602.308 -1190.44)"/>
            </g>
            <g id="Group_99887" data-name="Group 99887" transform="translate(59.748 19.942)">
              <path id="Path_151015" data-name="Path 151015" d="M2625.7,1184.485a.223.223,0,0,1-.168-.077,2.357,2.357,0,0,0-3.077-.3.223.223,0,1,1-.227-.383,2.829,2.829,0,0,1,3.642.4.222.222,0,0,1-.024.313A.219.219,0,0,1,2625.7,1184.485Z" transform="translate(-2622.121 -1183.235)"/>
            </g>
            <g id="Group_99888" data-name="Group 99888" transform="translate(69.442 19.552)">
              <path id="Path_151016" data-name="Path 151016" d="M2644.512,1183.894a.222.222,0,0,1-.173-.362,2.828,2.828,0,0,1,3.551-.9.222.222,0,0,1-.215.389,2.355,2.355,0,0,0-2.99.789A.222.222,0,0,1,2644.512,1183.894Z" transform="translate(-2644.29 -1182.343)"/>
            </g>
            <g id="Group_99889" data-name="Group 99889" transform="translate(52.197 24.647)">
              <path id="Path_151017" data-name="Path 151017" d="M2605.076,1197.632h-.016a.222.222,0,0,1-.207-.236c.117-1.8.517-2.9,1.191-3.269a1.037,1.037,0,0,1,.958-.026.222.222,0,0,1-.212.391.588.588,0,0,0-.539.028c-.3.167-.815.768-.953,2.9A.223.223,0,0,1,2605.076,1197.632Z" transform="translate(-2604.853 -1193.996)"/>
            </g>
            <g id="Group_99890" data-name="Group 99890" transform="translate(52.559 25.768)">
              <path id="Path_151018" data-name="Path 151018" d="M2607.268,1200.324a.222.222,0,0,1-.22-.2,5.231,5.231,0,0,0-1.294-3.181.222.222,0,0,1,.292-.335,5.527,5.527,0,0,1,1.443,3.462.222.222,0,0,1-.194.248Z" transform="translate(-2605.678 -1196.559)"/>
            </g>
            <g id="Group_99891" data-name="Group 99891" transform="translate(76.545 23.02)">
              <path id="Path_151019" data-name="Path 151019" d="M2661.594,1199.463a4.018,4.018,0,0,1-.893-.094.222.222,0,0,1,.107-.432,3.44,3.44,0,0,0,2.734-.558c.891-.734,1.294-2.072,1.2-3.975-.095-1.889-.569-3.066-1.41-3.5a2.837,2.837,0,0,0-2.455.322.222.222,0,0,1-.241-.374,3.229,3.229,0,0,1,2.9-.345c.994.509,1.55,1.812,1.654,3.872s-.356,3.516-1.364,4.343A3.475,3.475,0,0,1,2661.594,1199.463Z" transform="translate(-2660.532 -1190.275)"/>
            </g>
            <g id="Group_99892" data-name="Group 99892" transform="translate(77.832 24.648)">
              <path id="Path_151020" data-name="Path 151020" d="M2665.52,1197.632a.222.222,0,0,1-.222-.208c-.138-2.136-.657-2.736-.954-2.9a.593.593,0,0,0-.541-.029.222.222,0,0,1-.211-.391,1.038,1.038,0,0,1,.958.025c.673.37,1.075,1.469,1.191,3.269a.222.222,0,0,1-.208.236Z" transform="translate(-2663.478 -1193.997)"/>
            </g>
            <g id="Group_99893" data-name="Group 99893" transform="translate(77.924 25.768)">
              <path id="Path_151021" data-name="Path 151021" d="M2663.909,1200.324l-.027,0a.223.223,0,0,1-.194-.247,5.531,5.531,0,0,1,1.443-3.462.222.222,0,1,1,.291.335,5.249,5.249,0,0,0-1.293,3.181A.221.221,0,0,1,2663.909,1200.324Z" transform="translate(-2663.686 -1196.558)"/>
            </g>
            <g id="Group_99894" data-name="Group 99894" transform="translate(48.455 46.735)">
              <path id="Path_151022" data-name="Path 151022" d="M2615.081,1266.622a.222.222,0,0,1-.168-.076l-18.566-21.336a.222.222,0,0,1,.336-.292l18.367,21.107,13.144-21.412a.222.222,0,1,1,.379.233l-13.3,21.67a.221.221,0,0,1-.171.1Z" transform="translate(-2596.292 -1244.507)"/>
            </g>
            <g id="Group_99895" data-name="Group 99895" transform="translate(65.68 27.74)">
              <path id="Path_151023" data-name="Path 151023" d="M2637.931,1204.792H2635.9a.222.222,0,0,1,0-.445h1.732l-.864-2.995a.223.223,0,1,1,.428-.123l.945,3.279a.223.223,0,0,1-.214.284Z" transform="translate(-2635.681 -1201.069)"/>
            </g>
            <g id="Group_99896" data-name="Group 99896" transform="translate(71.976 45.356)">
              <path id="Path_151024" data-name="Path 151024" d="M2684.055,1290.953c-.48,0-.952-.021-1.42-.065-4.83-.451-8.691-3.235-11.476-8.274a.222.222,0,0,1,.39-.215c2.709,4.9,6.454,7.609,11.128,8.047,9.2.857,20.569-7.2,28.487-14.117a152.207,152.207,0,0,0,15.075-15.3l-5.554-13.474-33.123,21.111a.223.223,0,0,1-.313-.077c-8.205-14.381-17.809-20.9-24.421-23.832-7.163-3.179-12.456-2.959-12.508-2.955a.222.222,0,1,1-.022-.444c.053,0,5.431-.232,12.684,2.98,6.65,2.945,16.291,9.47,24.538,23.827l33.15-21.129a.22.22,0,0,1,.187-.024.223.223,0,0,1,.139.127l5.706,13.844a.221.221,0,0,1-.034.227C2726.414,1261.515,2701.843,1290.951,2684.055,1290.953Z" transform="translate(-2650.087 -1241.354)"/>
            </g>
            <g id="Group_99897" data-name="Group 99897" transform="translate(109.112 72.259)">
              <path id="Path_151025" data-name="Path 151025" d="M2736.188,1312.282a.221.221,0,0,1-.22-.2l-.96-8.962a.221.221,0,0,1,.2-.244.226.226,0,0,1,.246.2l.96,8.961a.223.223,0,0,1-.2.245Z" transform="translate(-2735.007 -1302.877)"/>
            </g>
            <path id="Path_151026" data-name="Path 151026" d="M-17951.289,687.687s4.744,3.087,7.951-.523" transform="translate(18014.842 -652.751)" fill="none" stroke="#000" stroke-width="0.3"/>
          </g>
        </g>
      </g>
    </g>
  </g>
</svg>
