<svg xmlns="http://www.w3.org/2000/svg" width="132.082" height="134.849" viewBox="0 0 132.082 134.849"><defs><style>.a{fill:#ffc400;opacity:0.426;}.b{fill:#e7e6fd;opacity:0.65;}.c{fill:#fdb4b4;}.d{fill:#fff;}.e,.h{fill:#1a1a1a;}.f{fill:#b6f4b4;}.g{fill:#ffe692;}.i,.j{stroke:none;}.j{fill:#edecfd;}</style></defs><g transform="translate(-853 -201.897)"><circle class="a" cx="18" cy="18" r="18" transform="translate(857 205)"/><path class="b" d="M57.565,18c31.952,0,45.619,41.293,45.619,74.385s-25.31,36.293-57.263,36.293-63.777-9.667-63.777-42.76S25.613,18,57.565,18Z" transform="translate(870.855 208.068)"/><path class="c" d="M4,0H54.2a4,4,0,0,1,4,4V34.9a4,4,0,0,1-4,4H4a4,4,0,0,1-4-4V4A4,4,0,0,1,4,0Z" transform="translate(912.226 295.815)"/><path class="d" d="M956.827,554.9l3.379,16.359-21.035.1s-3.275.451-3.682,3.218V578.1a37.684,37.684,0,0,1-15.516-2c-7.832-2.882-12.489-6.659-15.922-11.573a46.279,46.279,0,0,1-5.653-11.569c-.476-1.412-2.766-9.018-2.766-9.018s2.383,1.91,9.286.534,7.935-3.425,7.935-3.425.774,8.189,4.97,12.689,8.975,7.061,18.215,5.833c0,0,8.246-2.134,11.883-2.889S956.827,554.9,956.827,554.9Z" transform="translate(-23.264 -275.444)"/><path class="d" d="M1079.06,502.469s-.193,7.764-.144,9.51-.571,5.993,4.017,6.923l-.01,4.49,5.46,8.055,5.538-8.055-.543-10.739s4.665,1.551,4.755-3.558c0,0,.267-2.356-3.379-2.921a3.382,3.382,0,0,0-2.478,1.157s-1.616-.623-3.021-3.449-1.2-4.169-1.2-4.169a7.91,7.91,0,0,1-4.32,2.67A21.547,21.547,0,0,1,1079.06,502.469Z" transform="translate(-144.612 -248.032)"/><path class="e" d="M1074.371,489.566l.113-3.654a10.3,10.3,0,0,0,4.436,0,24.235,24.235,0,0,0,4.575-2.548s.736,5.675,4.2,7.411a2.28,2.28,0,0,1,2.3-1.115,10.664,10.664,0,0,1,2.62.8,9.652,9.652,0,0,0,1.47-4.792c.158-2.971-.768-4.864-2.157-5.312a37.773,37.773,0,0,0-5.791-.65s-2.644-4.415-5.429-4.841a7.493,7.493,0,0,0-6.343,1.6,5.66,5.66,0,0,0-.98,6.882,2.2,2.2,0,0,0-1.39,2.2C1071.9,487.4,1073.92,489.559,1074.371,489.566Z" transform="translate(-140.036 -231.475)"/><path class="f" d="M898.208,541.678l.632,3.692s-3.362-.088-3.408-1.263S898.208,541.678,898.208,541.678Z" transform="translate(-23.13 -275.862)"/><path class="f" d="M939.4,536.6v3.318s2.722-1.622,2.407-2.363S939.4,536.6,939.4,536.6Z" transform="translate(-52.242 -272.493)"/><path class="d" d="M908.026,478.206s-.476-5.1-1.362-6.784-1.248-2.63-2.131-2.249a2.772,2.772,0,0,0-2.024,2.6c.083,1.49.959,5.98.959,5.98s-1.346-1.581-2.792-1.148-1.758,2.73-1.758,2.73-1.494-2.026-3.123-1.738-1.629,3.28-1.255,5.026.328,2.857,1.1,3.276l1.494,5.909.978,5.419a32.982,32.982,0,0,0,5.617-.433c2.237-.465,5.831-1.653,5.831-1.653l-.264-5.836s1.546-5.649,1.48-7.079S911.547,479.971,908.026,478.206Z" transform="translate(-22.406 -227.722)"/><path class="d" d="M1087.084,578.274l-5.6-8.257-4.747,4.1,3.379,16.359h4.455l.567-2.34-1.5-3Z" transform="translate(-143.176 -294.656)"/><path class="d" d="M1112.755,570.017l-5.4,8.257,3.488,7-1.219,2.849.708,2.349h3.775l3.458-16.831Z" transform="translate(-163.446 -294.656)"/><path class="f" d="M1097.162,601.394l1.5,3-.567,2.34h5.488l-.708-2.349,1.219-2.849-3.488-7Z" transform="translate(-156.698 -310.915)"/><ellipse class="d" cx="4.107" cy="4.094" rx="4.107" ry="4.094" transform="translate(939.13 312.747)"/><path class="d" d="M1130.794,580.777l-3.458,16.831h15.76a3.791,3.791,0,0,1,4.008,4.144c0,4.376-.078,31.554-.078,31.554s-.877,2.805-2.824,3.147l9.025-.1s3.027-.1,4.616-1.982a14.847,14.847,0,0,0,3.6-9.854c-.152-4.437-.967-13.3-3.985-20.687s-5.293-12.778-7.719-15.226a24.659,24.659,0,0,0-8.827-5.557C1138.207,582.174,1130.794,580.777,1130.794,580.777Z" transform="translate(-176.677 -301.792)"/><path class="d" d="M1076.1,485.5c-3.04-1.849-.942-7.294-.815-7.616a6.818,6.818,0,0,0-.915.665,5.66,5.66,0,0,0-.98,6.882,2.2,2.2,0,0,0-1.39,2.2c-.1,1.854,1.919,4.011,2.371,4.018l.113-3.654a10.3,10.3,0,0,0,4.436,0,18.653,18.653,0,0,0,3.539-1.86l.222-.261A7.668,7.668,0,0,1,1076.1,485.5Z" transform="translate(-140.036 -233.557)"/><path class="d" d="M1111.677,506.008c-3.465-.99-5.713-6.609-5.713-6.609l-.075.346c.046-.032.782,5.643,4.251,7.379a2.42,2.42,0,0,1,1.538-1.115Z" transform="translate(-162.476 -247.824)"/><path class="d" d="M1101.588,596.5l-2.408,3.906,1.506,3.973-.057,2.349H1098.1l.567-2.34-1.5-3.265,3.444-6.593Z" transform="translate(-156.698 -310.915)"/><g transform="translate(889.274 265.009)"><path d="M964.471,559.033a18.866,18.866,0,0,1-3.319-.281c-8.622-1.533-14.411-8.7-15.486-19.16a.281.281,0,0,1,.559-.057c1.047,10.2,6.665,17.18,15.027,18.667,4.707.834,9.5-.412,14.135-1.623,1.493-.39,3.037-.794,4.537-1.113,2.719-.581,6.31-1.333,9.979-2.008a.289.289,0,0,1,.327.225.28.28,0,0,1-.225.326c-3.661.674-7.249,1.425-9.964,2-1.486.317-3.024.719-4.511,1.107A44.346,44.346,0,0,1,964.471,559.033Z" transform="translate(-945.665 -539.285)"/></g><g transform="translate(953.836 278.706)"><path d="M1157.809,636.183q-.592,0-1.218-.048a.279.279,0,0,1-.258-.3.266.266,0,0,1,.3-.257c4.727.35,7.949-1.424,9.562-5.3,4.766-11.458-5.895-38.229-11.066-42.662-6.115-5.241-11.817-6.127-16.849-6.907-.44-.068-.875-.136-1.306-.205a.281.281,0,0,1-.233-.321.285.285,0,0,1,.322-.232q.644.1,1.3.205c5.1.793,10.892,1.69,17.128,7.036,5.394,4.624,16.178,31.378,11.218,43.3C1165.14,634.273,1162.147,636.183,1157.809,636.183Z" transform="translate(-1136.738 -579.947)"/></g><g transform="translate(933.283 275.08)"><path d="M1093.286,590.2a.29.29,0,0,1-.275-.335l3.422-16.658-4.428-3.338-5.237,8.006a.281.281,0,0,1-.232.127.284.284,0,0,1-.235-.123l-5.419-8-4.384,3.783,3.347,16.2a.28.28,0,0,1-.219.33.284.284,0,0,1-.331-.218l-3.38-16.359a.276.276,0,0,1,.092-.267l4.747-4.1a.269.269,0,0,1,.22-.067.284.284,0,0,1,.2.121l5.359,7.908,5.17-7.905a.281.281,0,0,1,.186-.122.276.276,0,0,1,.218.053l4.809,3.624a.28.28,0,0,1,.106.279l-3.457,16.831A.28.28,0,0,1,1093.286,590.2Z" transform="translate(-1075.909 -569.185)"/></g><g transform="translate(937.506 283.338)"><path d="M1088.688,606.46a.28.28,0,0,1-.251-.4l6.121-12.2a.282.282,0,0,1,.251-.154.278.278,0,0,1,.25.155l6.079,12.2a.28.28,0,0,1-.5.249l-5.829-11.7-5.869,11.7A.281.281,0,0,1,1088.688,606.46Z" transform="translate(-1088.408 -593.703)"/></g><g transform="translate(940.318 289.93)"><path d="M1098.378,617.1a.281.281,0,0,1-.259-.172l-1.365-3.265a.281.281,0,0,1,.518-.215l1.293,3.093,3.838-.008,1.127-2.717a.283.283,0,0,1,.366-.152.279.279,0,0,1,.152.365l-1.2,2.89a.28.28,0,0,1-.258.172l-4.212.008Z" transform="translate(-1096.732 -613.273)"/></g><g transform="translate(934.006 254.158)"><path d="M1084.862,524.357c-3,0-6.017-1.143-6.595-3.914a23.87,23.87,0,0,1-.189-3.124l-.024-.917c-.037-1.177.15-8.743.157-9.065a.28.28,0,0,1,.561.014c0,.078-.193,7.871-.157,9.033l.024.921a24.314,24.314,0,0,0,.176,3.023c.6,2.872,4.267,3.772,7.417,3.386a12.167,12.167,0,0,0,2.6-.549.282.282,0,0,1,.357.171.279.279,0,0,1-.171.356,12.826,12.826,0,0,1-2.714.577A12.02,12.02,0,0,1,1084.862,524.357Z" transform="translate(-1078.049 -507.065)"/></g><g transform="translate(948.485 264.342)"><path d="M1121.724,548.6a.281.281,0,0,1-.28-.266L1120.9,537.6a.28.28,0,0,1,.266-.293.274.274,0,0,1,.294.265l.543,10.739a.281.281,0,0,1-.267.293Z" transform="translate(-1120.901 -537.302)"/></g><g transform="translate(946.732 257.904)"><path d="M1119.155,525.5a3.657,3.657,0,0,1-2.227-.758.278.278,0,0,1-.052-.391.282.282,0,0,1,.393-.052,3.086,3.086,0,1,0-1.014-3.554.275.275,0,0,1-.361.162.279.279,0,0,1-.163-.361,3.661,3.661,0,1,1,3.425,4.953Z" transform="translate(-1115.712 -518.188)"/></g><g transform="translate(906.391 334.441)"><path d="M1006.166,745.986H996.6a.279.279,0,1,1,0-.558h9.562a.279.279,0,1,1,0,.558Z" transform="translate(-996.323 -745.428)"/></g><g transform="translate(911.946 295.536)"><path d="M1067.212,669.383h-50.14a4.309,4.309,0,0,1-4.311-4.3V634.216a4.308,4.308,0,0,1,4.311-4.3h50.14a4.309,4.309,0,0,1,4.311,4.3v30.869A4.309,4.309,0,0,1,1067.212,669.383Zm-50.14-38.9a3.749,3.749,0,0,0-3.75,3.738v30.869a3.749,3.749,0,0,0,3.75,3.739h50.14a3.749,3.749,0,0,0,3.751-3.739V634.216a3.749,3.749,0,0,0-3.751-3.738Z" transform="translate(-1012.761 -629.919)"/></g><g transform="translate(937.01 311.15)"><path d="M1091.329,685.021a4.373,4.373,0,1,1,4.387-4.372A4.385,4.385,0,0,1,1091.329,685.021Zm0-8.187a3.814,3.814,0,1,0,3.826,3.814A3.824,3.824,0,0,0,1091.329,676.835Z" transform="translate(-1086.942 -676.276)"/></g><g transform="translate(938.031 270.591)"><path d="M1090.24,560.906a.28.28,0,0,1-.28-.281l.01-4.49a.28.28,0,0,1,.561,0l-.01,4.49A.28.28,0,0,1,1090.24,560.906Z" transform="translate(-1089.96 -555.857)"/></g><g transform="translate(941.117 293.195)"><path d="M1099.376,625.867c-.216-.044-.309-.2-.273-.345l.567-2.341a.276.276,0,0,1,.338-.206.281.281,0,0,1,.207.337l-.567,2.341A.28.28,0,0,1,1099.376,625.867Z" transform="translate(-1099.096 -622.966)"/></g><g transform="translate(945.896 293.188)"><path d="M1114.228,625.854a.282.282,0,0,1-.269-.2l-.708-2.349a.28.28,0,0,1,.537-.16l.708,2.349a.279.279,0,0,1-.188.348A.29.29,0,0,1,1114.228,625.854Z" transform="translate(-1113.239 -622.946)"/></g><g transform="translate(934.168 251.398)"><path d="M1092.025,507.054a.286.286,0,0,1-.156-.048,10.306,10.306,0,0,1-4.281-7.188,9.171,9.171,0,0,1-8.841,2.365.279.279,0,0,1-.21-.335.283.283,0,0,1,.337-.209,8.478,8.478,0,0,0,8.707-2.651.28.28,0,0,1,.506.155,10.072,10.072,0,0,0,4.095,7.4.279.279,0,0,1-.156.511Z" transform="translate(-1078.529 -498.873)"/></g><g transform="translate(931.681 242.858)"><path d="M1092.072,489.927a.279.279,0,0,1-.1-.54c-.006,0,.849-.593,1.357-5.08a4.236,4.236,0,0,0-2.575-4.73,15.252,15.252,0,0,0-5.287-.39.286.286,0,0,1-.282-.151c-1.587-3.13-3.64-4.291-5.083-4.712a6.035,6.035,0,0,0-4.8.6,5.581,5.581,0,0,0-2.821,3.4,6.14,6.14,0,0,0,.69,4.224.28.28,0,0,1-.028.33.285.285,0,0,1-.323.073c-.394-.172-.707.375-.794.547a3.945,3.945,0,0,0,1.935,5.011.279.279,0,0,1,.107.381.283.283,0,0,1-.382.106,4.505,4.505,0,0,1-2.162-5.746,1.511,1.511,0,0,1,.927-.869,6.427,6.427,0,0,1-.514-4.186,6.108,6.108,0,0,1,3.082-3.751,6.6,6.6,0,0,1,5.238-.654,8.959,8.959,0,0,1,5.339,4.826,15.177,15.177,0,0,1,5.323.43,4.8,4.8,0,0,1,2.965,5.327c-.548,4.848-1.519,5.463-1.708,5.538A.29.29,0,0,1,1092.072,489.927Z" transform="translate(-1071.168 -473.517)"/></g><g transform="translate(879.776 249.465)"><path d="M924.984,511.194a.281.281,0,0,1-.28-.262c-.07-1.185-.346-5.515-.346-5.515.006-.082,1.068-4.531,1.068-4.531.061-.222.116-.433.169-.647.328-1.345.624-2.874-.023-3.994a3.488,3.488,0,0,0-1.561-1.252,14.616,14.616,0,0,0-2.717-1.073,5.054,5.054,0,0,0-1.31-.226,1.77,1.77,0,0,0-1.864,1.514,2.288,2.288,0,0,0,.656,1.653,8.053,8.053,0,0,0,2.025,1.5,7.581,7.581,0,0,0,3.6.987.279.279,0,0,1,0,.558,8.144,8.144,0,0,1-3.872-1.058,8.587,8.587,0,0,1-2.169-1.611,2.8,2.8,0,0,1-.8-2.07,2.318,2.318,0,0,1,2.413-2.028,5.576,5.576,0,0,1,1.472.248,15.135,15.135,0,0,1,2.823,1.116,3.939,3.939,0,0,1,1.789,1.47c.75,1.3.435,2.955.081,4.406-.054.218-.111.435-.17.652l-1.05,4.4c.028.447.278,4.358.345,5.475a.28.28,0,0,1-.263.3Z" transform="translate(-917.554 -493.134)"/></g><g transform="translate(872.957 257.902)"><path d="M900.124,530.045a.28.28,0,0,1-.276-.232l-.869-5.047a63.26,63.26,0,0,1-1.6-6.249.281.281,0,0,1,.55-.112c.7,3.448,1.586,6.2,1.595,6.228l.879,5.086a.28.28,0,0,1-.228.323A.252.252,0,0,1,900.124,530.045Z" transform="translate(-897.371 -518.182)"/></g><g transform="translate(871.63 249.599)"><path d="M896.425,502.885a2.317,2.317,0,0,1-1.562-.567,2.126,2.126,0,0,1-.4-.49,3.28,3.28,0,0,1-.363-.942,15.57,15.57,0,0,1-.619-5.042,2.826,2.826,0,0,1,.72-1.67,2.244,2.244,0,0,1,2.379-.493,3.513,3.513,0,0,1,1.694,1.982,8.705,8.705,0,0,1,.379,1.149c.037.138.072.276.1.415a9.763,9.763,0,0,1,.311,2.888,3.254,3.254,0,0,1-.874,2.072A2.54,2.54,0,0,1,896.425,502.885Zm-.638-8.8a1.66,1.66,0,0,0-1.179.475,2.281,2.281,0,0,0-.566,1.341,15.077,15.077,0,0,0,.6,4.823,2.8,2.8,0,0,0,.307.814,1.507,1.507,0,0,0,.291.364,1.945,1.945,0,0,0,2.565-.116,2.709,2.709,0,0,0,.711-1.719,9.271,9.271,0,0,0-.3-2.718q-.047-.2-.1-.4a8.231,8.231,0,0,0-.356-1.077,3.072,3.072,0,0,0-1.384-1.678A1.606,1.606,0,0,0,895.787,494.089Z" transform="translate(-893.443 -493.53)"/></g><g transform="translate(879.762 241.367)"><path d="M923.443,478.189a.279.279,0,0,1-.277-.244,31.13,31.13,0,0,0-1.692-7.508,2.907,2.907,0,0,0-.7-1.159,1.274,1.274,0,0,0-1.808.334c-1.059,1.16-.791,2.579-.506,4.082l.06.32c.186,1.01.37,2.02.542,3.033a.277.277,0,0,1-.228.321.274.274,0,0,1-.321-.228c-.171-1.008-.356-2.016-.542-3.024l-.059-.316c-.3-1.571-.6-3.2.642-4.563a1.808,1.808,0,0,1,2.584-.379,3.4,3.4,0,0,1,.858,1.377,31.653,31.653,0,0,1,1.727,7.642.279.279,0,0,1-.242.312Z" transform="translate(-917.643 -468.456)"/></g><g transform="translate(876.227 248.494)"><path d="M910.767,499.521a3.3,3.3,0,0,1-1.53-.384,3.174,3.174,0,0,1-1.388-1.905c-.157-.507-.267-1.034-.373-1.542-.06-.289-.121-.577-.19-.861a4.956,4.956,0,0,1-.079-2.7,2.728,2.728,0,0,1,3.041-1.817,1.977,1.977,0,0,1,1.659,1.6.28.28,0,0,1-.243.312.287.287,0,0,1-.313-.243c-.092-.737-.816-1.025-1.24-1.131a2.171,2.171,0,0,0-2.372,1.45,4.441,4.441,0,0,0,.092,2.393c.07.29.131.584.192.877.1.5.211,1.011.36,1.493a2.637,2.637,0,0,0,1.12,1.578,2.385,2.385,0,0,0,2.343.019,2.431,2.431,0,0,0,.843-2.4.279.279,0,0,1,.256-.3.269.269,0,0,1,.3.255,2.882,2.882,0,0,1-1.095,2.911A2.515,2.515,0,0,1,910.767,499.521Z" transform="translate(-907.049 -490.248)"/></g><g transform="translate(906.55 302.372)"><path d="M1001.57,650.946c-1.55,0-3.067-.058-4.52-.175a.279.279,0,1,1,.045-.557c1.716.137,3.525.191,5.369.167a.279.279,0,1,1,.008.559C1002.171,650.944,1001.87,650.946,1001.57,650.946Z" transform="translate(-996.792 -650.213)"/></g><g transform="translate(872.03 268.01)"><path d="M921.929,581.889a33.311,33.311,0,0,1-15.591-8.693c-6.416-6.4-8.95-15.152-11.4-23.617l-.3-1.032a.281.281,0,0,1,.539-.156l.3,1.033c2.43,8.4,4.944,17.081,11.258,23.378A32.784,32.784,0,0,0,922,581.339a.28.28,0,0,1-.07.55Z" transform="translate(-894.627 -548.191)"/></g><g transform="translate(872.009 263.81)"><path d="M899.169,541.7c-2.476,0-4.4-.44-4.585-1.49-.158-.913.813-1.767,2.971-2.611a.285.285,0,0,1,.364.158.281.281,0,0,1-.159.363c-1.767.692-2.723,1.419-2.624,2,.147.847,3.529,1.487,8.7.6a24.759,24.759,0,0,0,5.914-1.7c1.633-.751,2.149-1.4,2.086-1.763-.11-.636-1.309-.878-2.295-.969a.281.281,0,0,1-.254-.3.288.288,0,0,1,.3-.253c1.744.161,2.658.629,2.8,1.431.132.763-.7,1.581-2.4,2.365a25.293,25.293,0,0,1-6.054,1.743A28.929,28.929,0,0,1,899.169,541.7Z" transform="translate(-894.568 -535.722)"/></g><g transform="translate(945.859 244.186)"><path d="M1114.614,481.337a.279.279,0,0,1-.245-.411c.079-.147,1.972-3.63,3.714-4.077a.283.283,0,0,1,.34.2.28.28,0,0,1-.2.34c-1.252.321-2.852,2.852-3.363,3.8A.278.278,0,0,1,1114.614,481.337Z" transform="translate(-1114.335 -476.843)"/></g><g transform="translate(944.805 245.185)"><path d="M1111.474,482.532a.275.275,0,0,1-.121-.027.28.28,0,0,1-.131-.373,11.041,11.041,0,0,0,.769-2.084.273.273,0,0,1,.326-.223.28.28,0,0,1,.223.326,11.484,11.484,0,0,1-.815,2.225A.28.28,0,0,1,1111.474,482.532Z" transform="translate(-1111.195 -479.819)"/></g><g transform="translate(948.34 259.301)"><path d="M1123.379,526.626a.282.282,0,0,1-.125-.029l-2.628-1.3a.278.278,0,0,1-.075-.445l2.389-2.434a.279.279,0,1,1,.4.39l-2.118,2.159,2.282,1.128a.279.279,0,0,1-.125.529Z" transform="translate(-1120.471 -522.335)"/></g><g transform="translate(961.509 293.276)"><path d="M1159.727,625.947a.28.28,0,0,1-.28-.28v-2.179a.28.28,0,0,1,.56,0v2.179A.281.281,0,0,1,1159.727,625.947Z" transform="translate(-1159.447 -623.209)"/></g><g transform="translate(943.894 248.17)"><path d="M1108.765,490.956a.278.278,0,0,1-.217-.453l1.367-1.7a.278.278,0,0,1,.433.349l-1.368,1.7A.277.277,0,0,1,1108.765,490.956Z" transform="translate(-1108.486 -488.701)"/></g><g transform="translate(878.952 257.205)"><path d="M915.5,520.824a.279.279,0,0,1-.275-.228,6.279,6.279,0,0,1,.762-4.356.28.28,0,0,1,.468.307,5.825,5.825,0,0,0-.681,3.946.278.278,0,0,1-.223.326A.214.214,0,0,1,915.5,520.824Z" transform="translate(-915.114 -516.114)"/></g><path class="d" d="M2243.961,364.425l-5.122-1.815a3.058,3.058,0,0,0-2.039,0l-5.121,1.815a2.871,2.871,0,0,0-1.939,2.682v8.465a7.589,7.589,0,0,0,2.7,5.472,17.758,17.758,0,0,0,3.979,2.784,3.053,3.053,0,0,0,1.195.335s.162.006.264.006c.057,0,.11,0,.153-.006a3.053,3.053,0,0,0,1.2-.335,17.768,17.768,0,0,0,3.979-2.784,7.59,7.59,0,0,0,2.7-5.472v-8.465A2.872,2.872,0,0,0,2243.961,364.425Z" transform="translate(-1360.741 -151.435)"/><g transform="translate(0.644 0.697)"><path class="g" d="M2295.634,563.842s1.347,1.7,1.925,1.7,1.268-.57,2.34-1.605a16.9,16.9,0,0,0,1.806-2.061l1.283.35a28.054,28.054,0,0,1-2.3,3.4c-1.169,1.41-2.318,2.454-3.112,2.433a2.7,2.7,0,0,1-2.3-1.721,8.18,8.18,0,0,1-.829-2.242A6.865,6.865,0,0,1,2295.634,563.842Z" transform="translate(-1422.091 -343.57)"/><g transform="translate(872.618 218.302)"><path class="e" d="M2310.231,550.482a1.742,1.742,0,0,1-.721-.167,3.024,3.024,0,0,1-1.158-.964,6.42,6.42,0,0,1-.971-1.94c-.067-.2-.123-.4-.182-.618q-.04-.142-.081-.287a.043.043,0,0,1,0-.035.046.046,0,0,1,.027-.022l.838-.231.261-.072a.112.112,0,0,1,.137.046,8.178,8.178,0,0,0,1.531,1.541.607.607,0,0,0,.558.115,1.974,1.974,0,0,0,.6-.273,7.745,7.745,0,0,0,1.261-1.047,23.364,23.364,0,0,0,1.99-2.257.146.146,0,0,1,.174-.058c.283.081.566.159.85.238l.309.085.042.014.021.007a.047.047,0,0,1,.028.025.046.046,0,0,1,0,.037l-.009.019a.4.4,0,0,1-.02.04,27.523,27.523,0,0,1-2.524,3.655,9.187,9.187,0,0,1-1.6,1.578,4.934,4.934,0,0,1-.625.382A1.572,1.572,0,0,1,2310.231,550.482Zm-3.014-3.957c.024.082.046.163.069.244.059.212.115.413.181.614a6.337,6.337,0,0,0,.958,1.914,2.932,2.932,0,0,0,1.123.936,1.5,1.5,0,0,0,1.375-.019,4.809,4.809,0,0,0,.613-.375,9.109,9.109,0,0,0,1.587-1.563,27.5,27.5,0,0,0,2.515-3.643.009.009,0,0,0-.008-.009l-.308-.085c-.284-.078-.568-.157-.851-.238-.031-.009-.038-.024-.078.027a23.473,23.473,0,0,1-2,2.266,7.883,7.883,0,0,1-1.277,1.059,2.06,2.06,0,0,1-.623.285.7.7,0,0,1-.636-.133,8.261,8.261,0,0,1-1.547-1.558c-.012-.016-.017-.016-.021-.016l-.019,0-.262.073Z" transform="translate(-2307.116 -544.206)"/></g></g><g transform="translate(895.557 201.897) rotate(90)"><g transform="translate(0 0)"><g class="h"><path class="i" d="M 20.3394947052002 36.30686187744141 C 15.52380561828613 36.30686187744141 10.99644565582275 34.43157958984375 7.591395378112793 31.02646064758301 C 4.186305522918701 27.62130165100098 2.311045408248901 23.09397125244141 2.311045408248901 18.27844047546387 L 2.311045408248901 17.38486099243164 L 2.311045408248901 16.78125 L 1.884255528450012 17.20809173583984 L 1.179935455322266 17.91250038146973 C 1.077035427093506 18.01533126831055 0.9401954412460327 18.07200050354004 0.7946954965591431 18.07200050354004 C 0.6492054462432861 18.07200050354004 0.512395441532135 18.01533126831055 0.4094554781913757 17.91245079040527 C 0.1971654742956161 17.70005035400391 0.197145476937294 17.35440063476562 0.4095054566860199 17.14205169677734 L 2.470375537872314 15.08088111877441 C 2.573275566101074 14.97806072235107 2.710115432739258 14.92139053344727 2.855615377426147 14.92139053344727 C 3.001095533370972 14.92139053344727 3.137905359268188 14.97805118560791 3.240835428237915 15.08094120025635 L 5.301885604858398 17.14198112487793 C 5.514225482940674 17.35442161560059 5.514245510101318 17.70005035400391 5.301885604858398 17.91241073608398 C 5.199045658111572 18.01531028747559 5.062275409698486 18.07195091247559 4.916745662689209 18.07195091247559 C 4.771265506744385 18.07195091247559 4.634475708007812 18.01529121398926 4.531585693359375 17.91241073608398 L 3.827285528182983 17.20802116394043 L 3.400495529174805 16.78119087219238 L 3.400495529174805 17.38479042053223 L 3.400495529174805 18.27844047546387 C 3.400495529174805 27.61858177185059 10.99926567077637 35.21734237670898 20.33941459655762 35.21734237670898 C 29.67961502075195 35.21734237670898 37.27841567993164 27.6185417175293 37.27841567993164 18.27835083007812 C 37.27841567993164 8.93816089630127 29.67961502075195 1.339370965957642 20.33941459655762 1.339370965957642 C 20.03907585144043 1.339370965957642 19.79473495483398 1.095030903816223 19.79473495483398 0.7946909666061401 C 19.79473495483398 0.49435093998909 20.03907585144043 0.250000923871994 20.33941459655762 0.250000923871994 C 25.15495491027832 0.250000923871994 29.68232536315918 2.125290870666504 33.0875244140625 5.530420780181885 C 36.49265670776367 8.935541152954102 38.36794662475586 13.46288108825684 38.36794662475586 18.27844047546387 C 38.36794662475586 23.09390068054199 36.4926872253418 27.62123107910156 33.08759689331055 31.02646064758301 C 29.68239593505859 34.43157196044922 25.1550350189209 36.30686187744141 20.3394947052002 36.30686187744141 Z"/><path class="j" d="M 20.33941459655762 0.5 C 20.17692565917969 0.5 20.04473495483398 0.6321907043457031 20.04473495483398 0.7946815490722656 C 20.04473495483398 0.9571723937988281 20.17692565917969 1.089370727539062 20.33941459655762 1.089370727539062 C 29.81746673583984 1.089370727539062 37.52841567993164 8.800310134887695 37.52841567993164 18.27835083007812 C 37.52841567993164 27.75638961791992 29.81746673583984 35.46734237670898 20.33941459655762 35.46734237670898 C 10.86141586303711 35.46734237670898 3.150493621826172 27.75643157958984 3.150493621826172 18.27844047546387 L 3.150493621826172 17.38479042053223 L 3.150493621826172 16.17759132385254 L 4.004066467285156 17.0312614440918 L 4.708354949951172 17.73563003540039 C 4.764026641845703 17.79129028320312 4.838035583496094 17.82195091247559 4.916736602783203 17.82195091247559 C 4.995475769042969 17.82195091247559 5.069446563720703 17.79132080078125 5.125114440917969 17.73564147949219 C 5.240016937255859 17.62073135375977 5.239986419677734 17.43368148803711 5.125114440917969 17.31875038146973 L 3.064105987548828 15.25775146484375 C 3.008384704589844 15.20206069946289 2.934333801269531 15.17139053344727 2.855606079101562 15.17139053344727 C 2.776844024658203 15.17139053344727 2.702774047851562 15.20207023620605 2.647167205810547 15.25765037536621 L 0.5862770080566406 17.31882095336914 C 0.47137451171875 17.43373107910156 0.4714164733886719 17.62079048156738 0.5861968994140625 17.73564147949219 C 0.64190673828125 17.79132080078125 0.7159538269042969 17.82199096679688 0.7946968078613281 17.82199096679688 C 0.8734550476074219 17.82199096679688 0.9475364685058594 17.79131126403809 1.003147125244141 17.73574066162109 L 1.707473754882812 17.03133010864258 L 2.561046600341797 16.17765998840332 L 2.561046600341797 17.38486099243164 L 2.561046600341797 18.27844047546387 C 2.561046600341797 23.02719116210938 4.410305023193359 27.49175071716309 7.76817512512207 30.84968185424805 C 11.12601470947266 34.20758056640625 15.59059524536133 36.05686187744141 20.3394947052002 36.05686187744141 C 25.08823585510254 36.05686187744141 29.55282592773438 34.20758056640625 32.91081619262695 30.84968185424805 C 36.26868438720703 27.49168014526367 38.11794662475586 23.02712059020996 38.11794662475586 18.27844047546387 C 38.11794662475586 13.5296516418457 36.26865386962891 9.065101623535156 32.91074371337891 5.70720100402832 C 29.55275535583496 2.349292755126953 25.08817672729492 0.5 20.33941459655762 0.5 M 20.33941459655762 0 C 25.22180557250977 0 29.81190490722656 1.901329040527344 33.26429748535156 5.353641510009766 C 36.71661376953125 8.805950164794922 38.61794662475586 13.39613151550293 38.61794662475586 18.27844047546387 C 38.61794662475586 23.16073989868164 36.71661376953125 27.75085067749023 33.26437377929688 31.20323181152344 C 29.81190490722656 34.65560150146484 25.22195434570312 36.55686187744141 20.3394947052002 36.55686187744141 C 15.45703506469727 36.55686187744141 10.8669261932373 34.65560150146484 7.414615631103516 31.20323181152344 C 3.962306976318359 27.75085067749023 2.061046600341797 23.16073989868164 2.061046600341797 18.27844047546387 L 2.061046600341797 17.38486099243164 L 1.356716156005859 18.08927154541016 C 1.201454162597656 18.24442100524902 0.9980697631835938 18.32199668884277 0.7946929931640625 18.32199668884277 C 0.5913162231445312 18.32199668884277 0.3879508972167969 18.24442100524902 0.23272705078125 18.08927154541016 C -0.07757568359375 17.77881050109863 -0.07757568359375 17.27557182312012 0.23272705078125 16.96527099609375 L 2.293586730957031 14.90412139892578 C 2.448844909667969 14.74896621704102 2.652229309082031 14.67138862609863 2.855606079101562 14.67138862609863 C 3.058982849121094 14.67138862609863 3.262351989746094 14.74896621704102 3.417575836181641 14.90412139892578 L 5.478664398193359 16.96520042419434 C 5.788967132568359 17.27565002441406 5.788967132568359 17.77889060974121 5.478664398193359 18.08919143676758 C 5.323516845703125 18.24441146850586 5.120086669921875 18.32195091247559 4.916736602783203 18.32195091247559 C 4.713386535644531 18.32195091247559 4.510044097900391 18.24441146850586 4.354816436767578 18.08919143676758 L 3.650493621826172 17.38479042053223 L 3.650493621826172 18.27844047546387 C 3.650493621826172 27.48073959350586 11.1370964050293 34.96734237670898 20.33941459655762 34.96734237670898 C 29.5417366027832 34.96734237670898 37.02841567993164 27.48067092895508 37.02841567993164 18.27835083007812 C 37.02841567993164 9.076051712036133 29.5417366027832 1.589370727539062 20.33941459655762 1.589370727539062 C 19.90058517456055 1.589370727539062 19.54473495483398 1.233589172363281 19.54473495483398 0.7946815490722656 C 19.54473495483398 0.3557815551757812 19.90059471130371 0 20.33941459655762 0 Z"/></g></g></g></g></svg>