<svg xmlns="http://www.w3.org/2000/svg" xmlns:xlink="http://www.w3.org/1999/xlink" width="57" height="153.502" viewBox="0 0 57 153.502">
  <defs>
    <clipPath id="clip-path">
      <rect id="Rectangle_8293" data-name="Rectangle 8293" width="57" height="153.502" transform="translate(0 0)" fill="none"/>
    </clipPath>
  </defs>
  <g id="Group_102499" data-name="Group 102499" transform="translate(0 0)">
    <g id="Group_102494" data-name="Group 102494" transform="translate(0 0)" clip-path="url(#clip-path)">
      <path id="Path_152062" data-name="Path 152062" d="M91.341,188.166s-12.663-1.425-19.424,13.6l9.217,4.324s-1.924,9.052-1.573,15.933H81.8s.976.368.933,1.217a1,1,0,0,1-.721,1,5.844,5.844,0,0,1,.889.217,1.161,1.161,0,0,1,.6,1.179,1.1,1.1,0,0,1-.884.947c-.263.031-1.208.031-1.208.031s.891.466.824,1.147a1.312,1.312,0,0,1-.891,1.147,9.882,9.882,0,0,1-1.791,0l.475,8.275,26.006-.006s3.471-18.769,1.235-26.879l11.234.437s.416-18.577-19.791-23.952c0,0-1.532,4.175-4.887,3.615a3.59,3.59,0,0,1-2.491-2.232" transform="translate(-69.288 -166.584)" fill="#95bfff"/>
      <path id="Path_152063" data-name="Path 152063" d="M248.782,8.331l.137,1.851a1.9,1.9,0,0,1,1.319-.454s.3-3.1.257-4.324c-.066-1.947-.273-4.017-5.988-4.4-6.668-.445-5.894,4.38-5.036,5.6.741,1.056,3.441.55,4.87.124.651-.194,1.286-.28,1.9-.454a2.107,2.107,0,0,1,2.543,2.051" transform="translate(-219.336 -0.872)" fill="#1a1a1a"/>
      <path id="Path_152064" data-name="Path 152064" d="M10.069,1382.84,8.726,1386.8H18.933l-.806-3.958Z" transform="translate(37.123 -1233.296)"/>
      <path id="Path_152065" data-name="Path 152065" d="M398.3,535.422h-3.606a.106.106,0,1,1,0-.213H398.3a1.04,1.04,0,1,0,0-2.081h-3.606a.106.106,0,1,1,0-.213H398.3a1.253,1.253,0,1,1,0,2.507" transform="translate(-385.223 -475.284)"/>
      <path id="Path_152066" data-name="Path 152066" d="M186.782,583.855a.106.106,0,0,1-.106-.1c0-.034-.3-3.49-.434-8.312a.106.106,0,0,1,.1-.109h0a.106.106,0,0,1,.106.1c.12,4.366.376,7.609.425,8.2l25.9-.037h0a.106.106,0,0,1,0,.213l-26,.037Z" transform="translate(-176.032 -513.118)"/>
      <path id="Path_152067" data-name="Path 152067" d="M259.081,1356.718l-10.172,6.783h16.219l-.5-6.783Z" transform="translate(-235.046 -1209.999)"/>
      <path id="Path_152070" data-name="Path 152070" d="M304.8,64.662h-1.068a4.606,4.606,0,0,1-4.6-4.6V52.188a.106.106,0,1,1,.213,0v7.873a4.393,4.393,0,0,0,4.388,4.388H304.8a.106.106,0,0,1,0,.213" transform="translate(-280.258 -46.45)"/>
      <path id="Path_152071" data-name="Path 152071" d="M252.2,122.426a3.37,3.37,0,0,1-3.321-2.817v-3.27a.106.106,0,1,1,.213,0v3.252a3.15,3.15,0,0,0,4.939,2.029,6.954,6.954,0,0,0,2.9-5.659l-.014-5.4a.106.106,0,0,1,.106-.107h0a.106.106,0,0,1,.106.106l.014,5.4a7.167,7.167,0,0,1-2.985,5.832,3.346,3.346,0,0,1-1.954.632" transform="translate(-227.049 -98.507)"/>
      <path id="Path_152072" data-name="Path 152072" d="M222.493,85.318a4.02,4.02,0,0,1-.793-.076.106.106,0,0,1,.046-.208,3.031,3.031,0,0,0,2.26-.385,1.907,1.907,0,0,0,.567-1.641,1.934,1.934,0,0,0-.734-1.612,2.7,2.7,0,0,0-2.082-.123.106.106,0,0,1-.07-.2,2.867,2.867,0,0,1,2.271.148A2.13,2.13,0,0,1,224.786,83a2.107,2.107,0,0,1-.643,1.815,2.559,2.559,0,0,1-1.651.507" transform="translate(-191.757 -72.149)"/>
      <path id="Path_152076" data-name="Path 152076" d="M229.041,89.763a.106.106,0,0,1-.105-.093,1.664,1.664,0,0,0-.63-1.243,1.312,1.312,0,0,0-.979-.158.106.106,0,1,1-.056-.205,1.518,1.518,0,0,1,1.154.186,1.863,1.863,0,0,1,.723,1.393.107.107,0,0,1-.092.119h-.014" transform="translate(-196.717 -78.503)"/>
      <path id="Path_152077" data-name="Path 152077" d="M230.489,94.786a.1.1,0,0,1-.025,0,.106.106,0,0,1-.078-.129,2.571,2.571,0,0,1,1.371-1.662.106.106,0,0,1,.085.2,2.4,2.4,0,0,0-1.249,1.518.106.106,0,0,1-.1.081" transform="translate(-199.82 -82.928)"/>
      <path id="Path_152078" data-name="Path 152078" d="M402.2,517.291a.107.107,0,0,1-.1-.061,5.363,5.363,0,0,1,.28-4.645,1.816,1.816,0,0,1,1.566-.882h2.456a1.253,1.253,0,1,1,0,2.507h-2.836a.106.106,0,0,1,0-.213h2.836a1.04,1.04,0,1,0,0-2.081h-2.456a1.6,1.6,0,0,0-1.382.777,5.133,5.133,0,0,0-.271,4.447.106.106,0,0,1-.1.152" transform="translate(-394.103 -456.366)"/>
      <path id="Path_152079" data-name="Path 152079" d="M255.735,728.443H240.541a.107.107,0,0,1-.106-.1l-5.548-76.089a.106.106,0,0,1,.1-.114.11.11,0,0,1,.114.1l5.54,75.99H255.62l-4.349-58.314-4.428-5.241a.106.106,0,0,1,.163-.137l4.45,5.267a.106.106,0,0,1,.025.061l4.36,58.463a.107.107,0,0,1-.106.114" transform="translate(-224.243 -581.617)"/>
      <path id="Path_152080" data-name="Path 152080" d="M29.868,774.942H17.006a.107.107,0,0,1-.1-.078L0,713.576a.106.106,0,1,1,.205-.057l16.878,61.21H29.735L13.469,701.24a.106.106,0,1,1,.208-.046l16.295,73.618a.108.108,0,0,1-.021.09.106.106,0,0,1-.083.04" transform="translate(27.026 -625.291)"/>
      <path id="Path_152082" data-name="Path 152082" d="M249.146,9.4a2.134,2.134,0,0,1,1.379-.431.106.106,0,0,0,.117-.095c.013-.127.33-3.125.285-4.339-.068-1.828-.152-4.1-6.714-4.5-3.958-.24-5.433,1.112-5.973,2.288a3.532,3.532,0,0,0,.327,3.5c.979,1.009,4.076.812,5.535.419a9.581,9.581,0,0,0,1.041-.368,8.376,8.376,0,0,1,1-.352,2.112,2.112,0,0,1,1.752.332,2.212,2.212,0,0,1,.924,1.624l.151,1.851a.106.106,0,0,0,.173.074M246.093,5.31a8.667,8.667,0,0,0-1.028.36,9.376,9.376,0,0,1-1.018.36c-1.608.434-4.483.509-5.327-.361a3.35,3.35,0,0,1-.287-3.259c.512-1.115,1.929-2.4,5.766-2.165,5.9.356,6.432,2.08,6.514,4.3.04,1.074-.216,3.659-.273,4.206a2.244,2.244,0,0,0-1.271.375l-.136-1.666h0a2.424,2.424,0,0,0-1.013-1.78,2.34,2.34,0,0,0-1.357-.437,2.294,2.294,0,0,0-.571.072" transform="translate(-219.662 -0.004)"/>
      <path id="Path_152083" data-name="Path 152083" d="M425.883,328.926a.105.105,0,0,1-.045-.01l-9.217-4.324a.106.106,0,1,1,.09-.193l9.217,4.324a.106.106,0,0,1-.045.2" transform="translate(-414.038 -289.309)"/>
      <path id="Path_152084" data-name="Path 152084" d="M154.323,659.353a7.473,7.473,0,0,1-5.342-1.863,8.225,8.225,0,0,1-2.251-5.535.111.111,0,0,1,.108-.1.106.106,0,0,1,.1.108,8,8,0,0,0,2.187,5.378,7.727,7.727,0,0,0,6.112,1.77.106.106,0,1,1,.015.212q-.479.034-.933.034" transform="translate(-114.223 -581.358)"/>
      <path id="Path_152085" data-name="Path 152085" d="M387.3,659.275a.106.106,0,0,1-.049-.2c3.811-2,3.692-7.062,3.69-7.113a.106.106,0,0,1,.1-.11.1.1,0,0,1,.11.1,10.353,10.353,0,0,1-.41,2.867,7.1,7.1,0,0,1-3.394,4.442.105.105,0,0,1-.049.012" transform="translate(-376.026 -581.358)"/>
      <path id="Path_152086" data-name="Path 152086" d="M82.279,403.891h0l-11.234-.437a.106.106,0,0,1,0-.213h0l11.234.437a.106.106,0,0,1,0,.213" transform="translate(-33.057 -359.634)"/>
      <path id="Path_152087" data-name="Path 152087" d="M83.91,387.112h0l-11.389-.125a.107.107,0,0,1-.105-.108.1.1,0,0,1,.108-.105l11.389.125a.106.106,0,0,1,0,.213" transform="translate(-34.848 -344.947)" fill="#fff"/>
      <path id="Path_152088" data-name="Path 152088" d="M168.945,389.649l1.412-1.947a.1.1,0,0,0,.017-.034c.055-.2,5.4-20.14.746-35.737a.107.107,0,0,0-.2.061c4.576,15.329-.551,34.888-.742,35.6l-1.4,1.931a.106.106,0,1,0,.172.125m1.328-2.009h0Z" transform="translate(-134.271 -313.805)"/>
      <path id="Path_152089" data-name="Path 152089" d="M81.781,242.978a.1.1,0,0,1-.05-.013.106.106,0,0,1-.043-.144,88.787,88.787,0,0,0,5.607-13.564c2.265-7.092,4.412-17.275,1.782-25.516A23.948,23.948,0,0,0,78.483,190.5a26.152,26.152,0,0,0-7.357-3.1.106.106,0,0,1,.043-.208,26.4,26.4,0,0,1,7.424,3.128A24.159,24.159,0,0,1,89.28,203.675c2.647,8.3.491,18.527-1.783,25.649a89.044,89.044,0,0,1-5.622,13.6.107.107,0,0,1-.094.056" transform="translate(-41.182 -166.945)"/>
      <path id="Path_152090" data-name="Path 152090" d="M420.347,310.819a.108.108,0,0,1-.044-.01l-8.9-4.1a.106.106,0,1,1,.089-.193l8.9,4.1a.106.106,0,0,1-.045.2" transform="translate(-407.937 -273.364)" fill="#fff"/>
      <path id="Path_152091" data-name="Path 152091" d="M406.363,349.112h0a.106.106,0,0,1-.1-.108c.142-8.738,1.048-15.392,2.694-19.777a.106.106,0,1,1,.2.075c-1.637,4.362-2.539,10.992-2.681,19.706a.107.107,0,0,1-.106.1" transform="translate(-396.091 -293.562)"/>
      <path id="Path_152092" data-name="Path 152092" d="M336.659,239.556h-1.629a8.5,8.5,0,0,1-4.511-1.487c-4.236-2.647-7.239-10.6-4.781-20.692,1.4-5.747,4.667-13.35,12.28-16.937a18.556,18.556,0,0,1,8.608-1.818.106.106,0,0,1,.1.115.1.1,0,0,1-.115.1,18.346,18.346,0,0,0-8.508,1.8c-7.53,3.553-10.765,11.092-12.154,16.79-2.434,9.99.516,17.855,4.687,20.462a8.3,8.3,0,0,0,4.4,1.454h1.629a1.041,1.041,0,0,0,0-2.081H334.32a.106.106,0,1,1,0-.213h2.338a1.253,1.253,0,0,1,0,2.507" transform="translate(-324.851 -177.126)"/>
    </g>
  </g>
</svg>
