<svg xmlns="http://www.w3.org/2000/svg" xmlns:xlink="http://www.w3.org/1999/xlink" width="102.751" height="167.138" viewBox="0 0 102.751 167.138">
  <defs>
    <clipPath id="clip-path">
      <rect id="Rectangle_8293" data-name="Rectangle 8293" width="56.27" height="151.537" transform="translate(0 0)" fill="none"/>
    </clipPath>
  </defs>
  <g id="Group_102506" data-name="Group 102506" transform="translate(-567.968 -458.154)">
    <g id="Group_102504" data-name="Group 102504" transform="translate(568.051 490.588)">
      <path id="Path_152098" data-name="Path 152098" d="M1984.2,654.946h0a5.7,5.7,0,0,1,6.141-2.845l7.131,1.74a4.383,4.383,0,0,0,4.339-1.374l9.342-10.691.005.006.992-1.35a.866.866,0,0,1,1.278-.13l1.178,1.064a.864.864,0,0,1,.18,1.053l-.935,2.359c-1,2.216-5.784,13.453-12.231,16.081-3.722,1.517-10.22-.121-14.306-1.04a4.108,4.108,0,0,1-3.115-4.874" transform="translate(-1957.163 -631.986)" fill="#fff" stroke="#fff" stroke-width="0.1"/>
      <path id="Path_152099" data-name="Path 152099" d="M1995.8,659.679a10.529,10.529,0,0,0,3.915-.626c4.144-1.689,8.241-7.022,12.18-15.851l.142-.318.935-2.358a1.03,1.03,0,0,0-.22-1.251l-1.179-1.064a1.036,1.036,0,0,0-1.529.155l-.963,1.309a.176.176,0,0,0-.026.023l-9.342,10.691a4.2,4.2,0,0,1-4.172,1.321l-7.131-1.74a5.865,5.865,0,0,0-6.333,2.934.172.172,0,0,0-.014.04,4.292,4.292,0,0,0,3.244,5.075l.8.181a46.631,46.631,0,0,0,9.7,1.477m15.08-21.395a.687.687,0,0,1,.464.18l1.178,1.064a.692.692,0,0,1,.145.846.151.151,0,0,0-.009.018l-.935,2.359-.14.313c-3.9,8.746-7.938,14.019-12,15.674-3.439,1.4-9.438.036-13.407-.868l-.8-.181a3.951,3.951,0,0,1-2.99-4.651,5.513,5.513,0,0,1,5.939-2.737l7.131,1.74a4.538,4.538,0,0,0,4.508-1.427l9.311-10.656a.162.162,0,0,0,.045-.04l.992-1.35a.686.686,0,0,1,.49-.28.713.713,0,0,1,.073,0" transform="translate(-1955.189 -630.023)" fill="#404040" stroke="#fff" stroke-width="0.1"/>
      <path id="Path_152100" data-name="Path 152100" d="M2165.652,811.855a.17.17,0,0,0,.158-.232l-.544-1.38a.17.17,0,0,0-.316.125l.544,1.38a.169.169,0,0,0,.158.108" transform="translate(-2122.485 -788.511)" fill="#404040" stroke="#fff" stroke-width="0.1"/>
      <path id="Path_152101" data-name="Path 152101" d="M2197.562,784.245c2.126,1.807,6.614,4.1,13.393,3.891l.3-9.18s-8.6-2.127-12.6-1.942c-3.213.149-3.87,4.877-1.1,7.231" transform="translate(-2170.379 -758.015)" fill="#fad1cc" stroke="#fff" stroke-width="0.1"/>
      <path id="Path_152102" data-name="Path 152102" d="M2208.128,786.353q.434,0,.873-.013a.171.171,0,0,0,.165-.164l.3-9.18a.17.17,0,0,0-.129-.171c-.086-.021-8.667-2.134-12.645-1.947a3,3,0,0,0-2.771,2.172,5.064,5.064,0,0,0,1.569,5.358l.11-.129-.11.129a15.949,15.949,0,0,0,5.006,2.733,23.28,23.28,0,0,0,7.629,1.212m.7-.349c-2.163.051-8.742-.136-13.119-3.856a4.718,4.718,0,0,1-1.467-4.989,2.674,2.674,0,0,1,2.466-1.942c3.662-.17,11.308,1.638,12.413,1.9Z" transform="translate(-2168.419 -756.047)" fill="#404040" stroke="#fff" stroke-width="0.1"/>
      <path id="Path_152103" data-name="Path 152103" d="M2264.579,781.343s5.575-1.1,6.1-.989c2.064-.538,5.866,7.676,6.115,8.472,0,0,3.683,4.6-.171,7.781-.309,4.261-.948,11.037-2.034,14.184h-11.534l-.314-1.272s-2.611-15.978-3.935-25.569c0,0,5.629-2.582,5.777-2.606" transform="translate(-2242.51 -761.076)" fill="#fad1cc" stroke="#fff" stroke-width="0.1"/>
      <path id="Path_152104" data-name="Path 152104" d="M2261.2,809.008h11.535a.171.171,0,0,0,.161-.115c1.106-3.2,1.749-10.212,2.037-14.155,3.7-3.129.443-7.574.158-7.947-.281-.791-4.023-9.063-6.276-8.562-.725-.056-5.558.884-6.119.995h0c-.214.056-3.726,1.66-5.815,2.618a.169.169,0,0,0-.1.178c1.309,9.484,3.909,25.414,3.936,25.573l.316,1.286a.17.17,0,0,0,.165.129m11.413-.34h-11.279l-.282-1.143c-.023-.146-2.6-15.932-3.914-25.427,2.188-1,5.4-2.466,5.629-2.543a59.482,59.482,0,0,1,6.024-.988.17.17,0,0,0,.077,0c1.816-.472,5.554,7.218,5.91,8.358a.18.18,0,0,0,.03.056c.146.182,3.533,4.5-.146,7.544a.17.17,0,0,0-.062.119c-.28,3.867-.909,10.788-1.986,14.026m-9.843-29.114h0Z" transform="translate(-2240.657 -759.123)" fill="#404040" stroke="#fff" stroke-width="0.1"/>
      <path id="Path_152105" data-name="Path 152105" d="M2272.839,2092.393l-2.026-1.955a.172.172,0,0,1-.051-.145l.849-6.574-4.934-.7,1.14,7.742,1.474,2.621,3.372.437Z" transform="translate(-2237.598 -1960.096)" fill="#fff" stroke="#fff" stroke-width="0.1"/>
      <path id="Path_152106" data-name="Path 152106" d="M2264.831,2080.9l1.1,7.487,1.417,2.519,3.118.4.144-1.171-1.965-1.9a.339.339,0,0,1-.1-.288l.828-6.408Zm-.4-.4h0Zm0,0,5.326.757-.871,6.741,2.087,2.014-.207,1.679-3.626-.47-1.532-2.722Z" transform="translate(-2235.551 -1957.781)" fill="#404040" stroke="#fff" stroke-width="0.1"/>
      <path id="Path_152107" data-name="Path 152107" d="M2223.363,2182.526c-2.085,1.131-5.365-1.513-5.365-1.513l-1.177,3.732,10.331.2Z" transform="translate(-2187.943 -2050.293)" fill="#404040" stroke="#fff" stroke-width="0.1"/>
      <path id="Path_152108" data-name="Path 152108" d="M2592.893,2040.676l-.675-2.76a.17.17,0,0,1,.017-.125l3.7-6.488-4.526-1.891-1.979,7.3-.68,1.764,3.256,3.118Z" transform="translate(-2586.322 -1910.756)" fill="#fff" stroke="#fff" stroke-width="0.1"/>
      <path id="Path_152109" data-name="Path 152109" d="M2588.669,2026.966l-1.928,7.11c0,.011-.007.022-.011.033l-.634,1.642,3.052,2.923.706-.727-.652-2.668a.34.34,0,0,1,.035-.249l3.6-6.322Zm-.227-.463,4.882,2.041-3.792,6.655.7,2.851-1.073,1.1-3.459-3.313.716-1.854Z" transform="translate(-2583.471 -1908.079)" fill="#404040" stroke="#fff" stroke-width="0.1"/>
      <path id="Path_152110" data-name="Path 152110" d="M2606.317,2123.559c-2.37-.106-3.817-4.063-3.817-4.063l-2.934,2.591,8.749,5.5Z" transform="translate(-2599.567 -1993.672)" fill="#404040" stroke="#fff" stroke-width="0.1"/>
      <path id="Path_152111" data-name="Path 152111" d="M2341.182,616.635l-.3-3.184,3.472-2.488,6.2,2.766.974,4.688a3.963,3.963,0,0,1-1.31,3.918l-.007-.008.606,3.271c-.576,2.052-2.7,2.733-4.816,2.445-1.825-.249-2.237-2.505-2.237-2.505l-1.8-5.493s-2.529,1.2-2.962-1.254,2.182-2.156,2.182-2.156" transform="translate(-2322.139 -605.188)" fill="#fff" stroke="#fff" stroke-width="0.1"/>
      <path id="Path_152112" data-name="Path 152112" d="M2344.953,626.314c2.047,0,3.595-.978,4.06-2.633a.164.164,0,0,0,0-.077l-.586-3.163a4.121,4.121,0,0,0,1.3-4.025l-.973-4.685a.17.17,0,0,0-.1-.121l-6.2-2.766a.172.172,0,0,0-.169.017l-3.472,2.488a.17.17,0,0,0-.07.154l.283,2.987a2.437,2.437,0,0,0-1.781.61,1.95,1.95,0,0,0-.381,1.757,1.929,1.929,0,0,0,.95,1.488,2.708,2.708,0,0,0,2.076-.036l1.741,5.308c.039.2.5,2.376,2.378,2.631a7,7,0,0,0,.943.066m3.722-2.688c-.4,1.362-1.82,2.667-4.619,2.285-1.679-.229-2.089-2.346-2.093-2.367a.179.179,0,0,0-.006-.022l-1.8-5.493a.169.169,0,0,0-.094-.1.171.171,0,0,0-.14,0,2.6,2.6,0,0,1-1.952.115,1.614,1.614,0,0,1-.771-1.245,1.637,1.637,0,0,1,.293-1.464,2.308,2.308,0,0,1,1.7-.494.166.166,0,0,0,.138-.048.171.171,0,0,0,.051-.137l-.292-3.087,3.313-2.375,6.034,2.691.956,4.6a3.785,3.785,0,0,1-1.222,3.727.167.167,0,0,0-.1.179Z" transform="translate(-2320.172 -603.225)" fill="#404040" stroke="#fff" stroke-width="0.1"/>
      <path id="Path_152116" data-name="Path 152116" d="M2354.7,753.1a.162.162,0,0,0,.038,0l.919-.21a4.145,4.145,0,0,0,1.74-.867.17.17,0,0,0-.219-.26,3.754,3.754,0,0,1-1.6.8l-.917.21a.17.17,0,0,0,.037.335" transform="translate(-2329.213 -734.745)" fill="#404040" stroke="#fff" stroke-width="0.1"/>
      <path id="Path_152117" data-name="Path 152117" d="M2476.719,693.1a.169.169,0,0,0,.086-.023.171.171,0,0,0,.061-.233,1.242,1.242,0,0,1-.2-1.031,1.1,1.1,0,0,1,.579-.593.17.17,0,0,0-.126-.316,1.442,1.442,0,0,0-.775.8,1.562,1.562,0,0,0,.228,1.314.169.169,0,0,0,.147.084" transform="translate(-2458.792 -678.758)" fill="#404040" stroke="#fff" stroke-width="0.1"/>
      <path id="Path_152118" data-name="Path 152118" d="M2469.438,702.242a.17.17,0,0,0,.12-.29,2.67,2.67,0,0,0-1.34-.711.17.17,0,0,0-.053.336,2.365,2.365,0,0,1,1.153.616.171.171,0,0,0,.12.049" transform="translate(-2450.39 -688.28)" fill="#404040" stroke="#fff" stroke-width="0.1"/>
      <path id="Path_152122" data-name="Path 152122" d="M2245.834,1163.114s5.752,5.488,6.731,28.715.122,45.536.122,45.536l-10.391.342-2.054-48.984-13.754,47.2-10.5-2.875s10.751-47.743,14.585-60.928a37.713,37.713,0,0,1,3.729-9Z" transform="translate(-2213.759 -1113.399)" fill="#e6e6e6" stroke="#fff" stroke-width="0.1"/>
      <path id="Path_152123" data-name="Path 152123" d="M2240.366,1235.912h.006l10.391-.342a.17.17,0,0,0,.164-.163c.009-.223.846-22.581-.122-45.55-.279-6.635-1.156-16.032-3.742-23.119-1.557-4.264-2.981-5.655-3.041-5.712a.168.168,0,0,0-.117-.047h-11.534a.17.17,0,0,0-.143.078,38.312,38.312,0,0,0-3.749,9.048c-3.792,13.039-14.481,60.46-14.589,60.938a.17.17,0,0,0,.121.2l10.5,2.875a.169.169,0,0,0,.208-.116l13.464-46.2,2.01,47.95a.169.169,0,0,0,.169.163m10.228-.676-10.065.331-2.047-48.816a.17.17,0,0,0-.333-.041l-13.707,47.037-10.186-2.789c.687-3.044,10.868-48.108,14.547-60.759a38.98,38.98,0,0,1,3.661-8.882h11.367c.539.587,5.717,6.785,6.634,28.553.924,21.938.2,43.318.128,45.365" transform="translate(-2211.83 -1111.434)" fill="#404040" stroke="#fff" stroke-width="0.1"/>
      <path id="Path_152124" data-name="Path 152124" d="M2365.277,544.379a4.014,4.014,0,0,0-3.213-3.05,8.481,8.481,0,0,0-4.2.323,4.5,4.5,0,1,0-4.32,5.736c.053,0,.106,0,.159,0l.787,3.441c.563-.934,2.018-.77,2.018-.77,2.632-2.255,2.63-4.488,2.63-4.488s3.7,2.358,6.959,1.612Z" transform="translate(-2337.405 -538.398)" fill="#404040" stroke="#fff" stroke-width="0.1"/>
      <path id="Path_152125" data-name="Path 152125" d="M2309.607,1312.638a.17.17,0,0,0,.164-.126l3.772-14.251,1.3-.371a.17.17,0,0,0-.094-.327l-1.388.4a.171.171,0,0,0-.118.12l-3.8,14.344a.169.169,0,0,0,.121.208.164.164,0,0,0,.043.005" transform="translate(-2283.124 -1237.143)" fill="#404040" stroke="#fff" stroke-width="0.1"/>
      <path id="Path_152126" data-name="Path 152126" d="M2364.214,588.249c.431-1.368,1.7-4.465,4.574-5.557a9.4,9.4,0,0,1,3.348-.574,11.9,11.9,0,0,1,2.6.286,4.1,4.1,0,0,0-1.728-1.981,7.423,7.423,0,0,0-1.682-.176,8.451,8.451,0,0,0-3.61.791c-2.949,1.38-4.03,3.645-4.041,4.846Z" transform="translate(-2347.211 -576.917)" fill="#6c75f4" stroke="#fff" stroke-width="0.1"/>
      <path id="Path_152127" data-name="Path 152127" d="M2367.925,578.451h0a8.285,8.285,0,0,0-3.537.775c-2.862,1.339-3.921,3.512-3.943,4.674l.4,1.766c.577-1.55,1.889-4.115,4.48-5.1a9.579,9.579,0,0,1,3.408-.585,12.255,12.255,0,0,1,2.291.218,3.676,3.676,0,0,0-1.481-1.582,7.347,7.347,0,0,0-1.623-.167m0-.34a7.33,7.33,0,0,1,1.74.186,4.508,4.508,0,0,1,1.953,2.388,11.2,11.2,0,0,0-2.881-.364,9.3,9.3,0,0,0-3.288.563c-3.612,1.372-4.649,6.092-4.649,6.092l-.7-3.039c0-1.134.962-3.533,4.138-5.019a8.7,8.7,0,0,1,3.682-.807" transform="translate(-2343.813 -574.951)" fill="#404040" stroke="#fff" stroke-width="0.1"/>
      <path id="Path_152128" data-name="Path 152128" d="M2381.043,558.01c.151,0-.272-2.694-3.555-2.694,0,0,.185,2.747,3.555,2.694" transform="translate(-2354.646 -553.97)" fill="#6c75f4" stroke="#fff" stroke-width="0.1"/>
      <path id="Path_152129" data-name="Path 152129" d="M2378.982,556.216h.1c.046,0,.195-.022.193-.264,0-.456-.67-2.771-3.751-2.771a.171.171,0,0,0-.124.054.167.167,0,0,0-.045.127c0,.029.231,2.854,3.63,2.854m-3.264-2.692a3.41,3.41,0,0,1,2.618,1.129,2.587,2.587,0,0,1,.592,1.222,3.148,3.148,0,0,1-2.752-1.254,2.957,2.957,0,0,1-.457-1.1m3.356,2.351Z" transform="translate(-2352.68 -552.005)" fill="#404040" stroke="#fff" stroke-width="0.1"/>
      <path id="Path_152130" data-name="Path 152130" d="M2331.237,575.333c-.1.09,1.763,1.622,3.935-.306,0,0-1.736-1.709-3.935.306" transform="translate(-2305.069 -571.489)" fill="#6c75f4" stroke="#fff" stroke-width="0.1"/>
      <path id="Path_152131" data-name="Path 152131" d="M2330.931,574.242a3.576,3.576,0,0,0,2.389-1.008.169.169,0,0,0,.006-.248c-.019-.018-1.878-1.8-4.169.3-.024.022-.134.139.026.315a2.5,2.5,0,0,0,1.748.638m2.015-1.135a3,3,0,0,1-2.335.776,2.324,2.324,0,0,1-1.11-.446,2.557,2.557,0,0,1,3.445-.33m-3.559.432Z" transform="translate(-2303.104 -569.57)" fill="#404040" stroke="#fff" stroke-width="0.1"/>
      <path id="Path_152132" data-name="Path 152132" d="M2374.487,581.336a.544.544,0,1,0-.544-.544.545.545,0,0,0,.544.544" transform="translate(-2348.327 -576.917)" fill="#6c75f4" stroke="#fff" stroke-width="0.1"/>
      <path id="Path_152133" data-name="Path 152133" d="M2372.524,578.451a.374.374,0,1,0,.375.374.375.375,0,0,0-.375-.374m0-.34a.714.714,0,1,1-.714.714.714.714,0,0,1,.714-.714" transform="translate(-2346.364 -574.951)" fill="#404040" stroke="#fff" stroke-width="0.1"/>
      <path id="Path_152147" data-name="Path 152147" d="M1999.3,624.584l1.306-2.238a.38.38,0,0,1,.708.185,4.216,4.216,0,0,1-.459,2.192,2.38,2.38,0,0,1,.016,1.588Z" transform="translate(-1944.796 -615.492)" fill="#fff" stroke="#fff" stroke-width="0.1"/>
      <path id="Path_152148" data-name="Path 152148" d="M1998.908,624.516a.17.17,0,0,0,.159-.11,2.525,2.525,0,0,0,.012-1.629,4.362,4.362,0,0,0,.442-2.213.55.55,0,0,0-1.024-.269l-1.306,2.238a.17.17,0,1,0,.294.171l1.305-2.238a.2.2,0,0,1,.236-.1.2.2,0,0,1,.155.2,4.106,4.106,0,0,1-.433,2.1.171.171,0,0,0-.014.155,2.227,2.227,0,0,1,.015,1.464.17.17,0,0,0,.159.23" transform="translate(-1942.832 -613.526)" fill="#404040" stroke="#fff" stroke-width="0.1"/>
      <path id="Path_152149" data-name="Path 152149" d="M2278.932,983.085h2.9a.17.17,0,1,0,0-.34h-2.9a.17.17,0,0,0,0,.34" transform="translate(-2247.727 -947.384)" fill="#404040" stroke="#fff" stroke-width="0.1"/>
      <path id="Path_152150" data-name="Path 152150" d="M2453.341,873.087c2.007-5.436,5.3-5.359,7.664-4.39a3.488,3.488,0,0,1,1.931,4.472,46,46,0,0,1-4.168,8.109c-3.5,5.508-5.1,15.105-5.492,17.751.365.469.911,1.159,1.243,1.533,1.065,1.2.322,1.658-.133,1.41a8.523,8.523,0,0,0-1.146-.568l.355,3.6a1.684,1.684,0,0,0-1.936.914h0c-.593.01-.646-.448-.749-.742-.035.339-.256.5-.624.5-.577,0-.692-.686-.733-1.029l-.128-3.7c-2.744-14.126,3.916-27.865,3.916-27.865" transform="translate(-2442.416 -841.946)" fill="#fff" stroke="#fff" stroke-width="0.1"/>
      <path id="Path_152151" data-name="Path 152151" d="M2449.712,904.106h.023a.858.858,0,0,0,.647-.412.85.85,0,0,0,1.455-.691l-.326-3.315c.169.08.443.217.866.448a.642.642,0,0,0,.8-.128c.128-.162.341-.636-.462-1.543-.31-.35-.81-.98-1.191-1.468.423-2.859,2.02-12.21,5.456-17.612a46.345,46.345,0,0,0,4.184-8.14,3.676,3.676,0,0,0-2.025-4.69,5.3,5.3,0,0,0-4.251-.141c-1.525.67-2.747,2.224-3.634,4.622-.19.4-6.62,14.071-3.929,27.95l.128,3.687c.093.8.4,1.193.9,1.193h0a.813.813,0,0,0,.6-.214.757.757,0,0,0,.748.456m.618-1.029h-.02a.171.171,0,0,0-.15.172.507.507,0,0,1-.448.517h-.014c-.341,0-.419-.192-.514-.5-.013-.044-.027-.087-.04-.127a.17.17,0,0,0-.33.039c-.017.162-.084.348-.455.348h0c-.314,0-.493-.279-.564-.879l-.127-3.686a.109.109,0,0,0,0-.027c-2.7-13.909,3.835-27.621,3.9-27.758l.007-.015c.852-2.311,2.015-3.8,3.454-4.435a4.974,4.974,0,0,1,3.986.144,3.335,3.335,0,0,1,1.837,4.254,45.979,45.979,0,0,1-4.153,8.079c-3.5,5.506-5.108,15.029-5.517,17.817a.173.173,0,0,0,.034.129c.389.5.921,1.17,1.25,1.541.517.584.566.961.45,1.106a.3.3,0,0,1-.375.042,8.486,8.486,0,0,0-1.177-.581.17.17,0,0,0-.219.179l.355,3.6a.512.512,0,0,1-.447.571.507.507,0,0,1-.556-.4.17.17,0,0,0-.166-.133" transform="translate(-2440.49 -839.958)" fill="#404040" stroke="#fff" stroke-width="0.1"/>
      <path id="Path_152152" data-name="Path 152152" d="M2583.951,1309.085h0a.171.171,0,0,0,.166-.174l-.049-1.971a.177.177,0,0,0-.175-.166.17.17,0,0,0-.165.174l.049,1.971a.171.171,0,0,0,.17.166" transform="translate(-2574.112 -1245.626)" fill="#404040" stroke="#fff" stroke-width="0.1"/>
      <path id="Path_152153" data-name="Path 152153" d="M2600.7,1310.593h0a.17.17,0,0,0,.166-.174l-.049-1.971a.177.177,0,0,0-.174-.166.171.171,0,0,0-.166.174l.049,1.971a.171.171,0,0,0,.17.166" transform="translate(-2592.191 -1247.014)" fill="#404040" stroke="#fff" stroke-width="0.1"/>
      <path id="Path_152154" data-name="Path 152154" d="M2415.533,809.709c-2.462,1.314-5.512,3.934-7.806,10.317l9.195,4.407s4.746-6.025,4.961-10.015c.173-3.211-3.143-6.422-6.35-4.71" transform="translate(-2397.874 -787.679)" fill="#fad1cc" stroke="#fff" stroke-width="0.1"/>
      <path id="Path_152155" data-name="Path 152155" d="M2414.957,822.6a.171.171,0,0,0,.134-.065c.2-.248,4.782-6.113,5-10.111a5.388,5.388,0,0,0-2.446-4.687,3.973,3.973,0,0,0-4.155-.182c-3.451,1.843-6.031,5.248-7.886,10.409a.169.169,0,0,0,.086.211l9.195,4.407a.174.174,0,0,0,.074.017m.455-15.2a3.792,3.792,0,0,1,2.049.627,5.04,5.04,0,0,1,2.289,4.382c-.195,3.6-4.211,8.985-4.843,9.811l-8.932-4.282c1.821-5,4.332-8.3,7.674-10.081a3.723,3.723,0,0,1,1.763-.458" transform="translate(-2395.909 -785.673)" fill="#404040" stroke="#fff" stroke-width="0.1"/>
      <path id="Path_152156" data-name="Path 152156" d="M2297.178,1133.741h12.495a.17.17,0,0,0,0-.34h-12.495a.17.17,0,1,0,0,.34" transform="translate(-2277.016 -1086.05)" fill="#404040" stroke="#fff" stroke-width="0.1"/>
      <path id="Path_152157" data-name="Path 152157" d="M2417.727,1166.428a3.578,3.578,0,0,0,2.458-.851c1.671-1.48,1.474-4.323,1.465-4.443a.17.17,0,1,0-.338.026c0,.028.191,2.8-1.352,4.164a3.818,3.818,0,0,1-3.424.638.17.17,0,1,0-.066.333,6.435,6.435,0,0,0,1.258.133" transform="translate(-2398.33 -1111.432)" fill="#404040" stroke="#fff" stroke-width="0.1"/>
    </g>
    <g id="Group_102505" data-name="Group 102505">
      <path id="Path_152340" data-name="Path 152340" d="M-4812.077,3600.462l9.222,4.311-1.249,8.418-.241,7.228,2.388.234.692.345v.861l-.692.759,1.018.278.4,1.127-.4.843h-1.887l1.064,1.292-.464.819-2.276.3-4.461-1.544-3.02-3.119-1.6-3.716-.676-3.521-.151-4.127.331-3.327.771-3.8Z" transform="translate(5429 -3094)" fill="#fff"/>
      <g id="Group_102494" data-name="Group 102494" transform="translate(614.448 471.701)" clip-path="url(#clip-path)">
        <path id="Path_152062" data-name="Path 152062" d="M91.093,188.148s-12.5-1.407-19.176,13.431l9.1,4.269s-1.9,8.936-1.553,15.729h2.215s.963.364.921,1.2a.991.991,0,0,1-.711.982,5.765,5.765,0,0,1,.877.215,1.146,1.146,0,0,1,.6,1.164,1.089,1.089,0,0,1-.873.935c-.259.031-1.192.031-1.192.031s.879.46.814,1.132a1.3,1.3,0,0,1-.88,1.132,9.758,9.758,0,0,1-1.768,0l.469,8.169,25.673-.006S109.031,218,106.823,210l11.09.432s.411-18.339-19.538-23.645c0,0-1.512,4.122-4.824,3.568a3.544,3.544,0,0,1-2.459-2.2" transform="translate(-69.322 -166.843)" fill="#95bfff"/>
        <path id="Path_152063" data-name="Path 152063" d="M248.655,8.237l.135,1.827a1.876,1.876,0,0,1,1.3-.449s.294-3.064.254-4.268c-.065-1.923-.269-3.965-5.912-4.342-6.583-.439-5.819,4.324-4.971,5.532.732,1.043,3.4.543,4.807.123.642-.191,1.27-.277,1.874-.448a2.08,2.08,0,0,1,2.51,2.025" transform="translate(-219.586 -0.873)" fill="#1a1a1a"/>
        <path id="Path_152064" data-name="Path 152064" d="M10.052,1382.84l-1.326,3.907H18.8l-.8-3.907Z" transform="translate(36.536 -1235.211)"/>
        <path id="Path_152065" data-name="Path 152065" d="M398.251,535.389h-3.56a.105.105,0,1,1,0-.21h3.56a1.027,1.027,0,1,0,0-2.054h-3.56a.105.105,0,1,1,0-.21h3.56a1.237,1.237,0,1,1,0,2.474" transform="translate(-385.343 -476.022)"/>
        <path id="Path_152066" data-name="Path 152066" d="M186.776,583.746a.105.105,0,0,1-.1-.1c0-.034-.3-3.445-.429-8.206a.105.105,0,0,1,.1-.108h0a.105.105,0,0,1,.105.1c.118,4.31.371,7.512.42,8.1l25.573-.037h0a.105.105,0,0,1,0,.21l-25.67.037Z" transform="translate(-176.163 -513.914)"/>
        <path id="Path_152067" data-name="Path 152067" d="M258.951,1356.719l-10.042,6.7H264.92l-.5-6.7Z" transform="translate(-235.223 -1211.877)"/>
        <path id="Path_152070" data-name="Path 152070" d="M304.73,64.5h-1.054a4.547,4.547,0,0,1-4.542-4.542V52.187a.105.105,0,1,1,.21,0v7.772a4.337,4.337,0,0,0,4.332,4.332h1.054a.105.105,0,0,1,0,.21" transform="translate(-280.5 -46.522)"/>
        <path id="Path_152071" data-name="Path 152071" d="M252.153,122.273a3.327,3.327,0,0,1-3.278-2.781v-3.228a.105.105,0,1,1,.21,0v3.211a3.109,3.109,0,0,0,4.876,2,6.865,6.865,0,0,0,2.859-5.586l-.014-5.336a.105.105,0,0,1,.1-.105h0a.105.105,0,0,1,.105.1l.014,5.336a7.075,7.075,0,0,1-2.947,5.757,3.3,3.3,0,0,1-1.929.624" transform="translate(-227.328 -98.66)"/>
        <path id="Path_152072" data-name="Path 152072" d="M222.482,85.261a3.97,3.97,0,0,1-.783-.075.105.105,0,0,1,.045-.205,2.992,2.992,0,0,0,2.232-.38,1.883,1.883,0,0,0,.56-1.62,1.909,1.909,0,0,0-.724-1.591,2.665,2.665,0,0,0-2.055-.122.105.105,0,0,1-.069-.2,2.83,2.83,0,0,1,2.242.146,2.1,2.1,0,0,1,.817,1.755,2.08,2.08,0,0,1-.635,1.792,2.526,2.526,0,0,1-1.629.5" transform="translate(-192.14 -72.261)"/>
        <path id="Path_152076" data-name="Path 152076" d="M229.017,89.74a.105.105,0,0,1-.1-.091,1.642,1.642,0,0,0-.621-1.227,1.3,1.3,0,0,0-.967-.156.105.105,0,1,1-.056-.2,1.5,1.5,0,0,1,1.139.184,1.839,1.839,0,0,1,.714,1.375.105.105,0,0,1-.091.118h-.014" transform="translate(-197.107 -78.625)"/>
        <path id="Path_152077" data-name="Path 152077" d="M230.488,94.763a.1.1,0,0,1-.025,0,.1.1,0,0,1-.077-.127,2.538,2.538,0,0,1,1.353-1.641.105.105,0,0,1,.084.193,2.368,2.368,0,0,0-1.233,1.5.105.105,0,0,1-.1.08" transform="translate(-200.211 -83.057)"/>
        <path id="Path_152078" data-name="Path 152078" d="M402.2,517.22a.105.105,0,0,1-.1-.061,5.3,5.3,0,0,1,.276-4.585,1.792,1.792,0,0,1,1.546-.871h2.424a1.237,1.237,0,1,1,0,2.475h-2.8a.105.105,0,0,1,0-.21h2.8a1.027,1.027,0,1,0,0-2.054h-2.424a1.58,1.58,0,0,0-1.364.767,5.067,5.067,0,0,0-.267,4.39.105.105,0,0,1-.051.14.107.107,0,0,1-.045.01" transform="translate(-394.2 -457.075)"/>
        <path id="Path_152079" data-name="Path 152079" d="M255.468,727.466h-15a.105.105,0,0,1-.1-.1l-5.477-75.115a.105.105,0,0,1,.1-.112.109.109,0,0,1,.112.1l5.469,75.017h14.789l-4.294-57.568-4.371-5.174a.1.1,0,0,1,.16-.135l4.393,5.2a.105.105,0,0,1,.025.06l4.3,57.715a.105.105,0,0,1-.1.113" transform="translate(-224.379 -582.52)"/>
        <path id="Path_152080" data-name="Path 152080" d="M29.486,774h-12.7a.105.105,0,0,1-.1-.077L0,713.416a.105.105,0,1,1,.2-.056l16.662,60.426H29.355L13.3,701.239a.105.105,0,1,1,.205-.045l16.086,72.676a.106.106,0,0,1-.021.089.1.1,0,0,1-.082.039" transform="translate(26.68 -626.262)"/>
        <path id="Path_152082" data-name="Path 152082" d="M249,9.277a2.107,2.107,0,0,1,1.362-.426.1.1,0,0,0,.077-.023.1.1,0,0,0,.038-.071c.013-.125.325-3.085.281-4.283-.067-1.805-.151-4.051-6.628-4.443-3.907-.237-5.363,1.1-5.9,2.259a3.487,3.487,0,0,0,.323,3.451c.966,1,4.024.8,5.464.413a9.462,9.462,0,0,0,1.028-.363,8.268,8.268,0,0,1,.989-.347,2.085,2.085,0,0,1,1.73.328,2.184,2.184,0,0,1,.912,1.6l.149,1.827a.1.1,0,0,0,.171.073m-3.014-4.035a8.554,8.554,0,0,0-1.015.355,9.257,9.257,0,0,1-1,.355c-1.588.429-4.425.5-5.259-.357a3.307,3.307,0,0,1-.283-3.217c.506-1.1,1.9-2.366,5.692-2.137,5.825.352,6.35,2.053,6.431,4.241.04,1.06-.214,3.612-.269,4.152a2.215,2.215,0,0,0-1.255.37l-.135-1.645h0a2.393,2.393,0,0,0-1-1.757,2.31,2.31,0,0,0-1.34-.432,2.265,2.265,0,0,0-.564.071" transform="translate(-219.896 -0.004)"/>
        <path id="Path_152083" data-name="Path 152083" d="M425.764,328.868a.1.1,0,0,1-.045-.01l-9.1-4.269a.105.105,0,1,1,.089-.19l9.1,4.269a.105.105,0,0,1-.045.2" transform="translate(-414.07 -289.758)"/>
        <path id="Path_152084" data-name="Path 152084" d="M154.226,659.257a7.377,7.377,0,0,1-5.273-1.839,8.119,8.119,0,0,1-2.223-5.464.11.11,0,0,1,.107-.1.105.105,0,0,1,.1.107,7.9,7.9,0,0,0,2.159,5.309,7.628,7.628,0,0,0,6.034,1.747.105.105,0,1,1,.015.21q-.473.034-.921.034" transform="translate(-114.639 -582.261)"/>
        <path id="Path_152085" data-name="Path 152085" d="M387.3,659.18a.1.1,0,0,1-.049-.2c3.762-1.978,3.645-6.972,3.643-7.022a.105.105,0,0,1,.1-.108.1.1,0,0,1,.108.1,10.221,10.221,0,0,1-.4,2.83,7.005,7.005,0,0,1-3.351,4.385.1.1,0,0,1-.049.012" transform="translate(-376.169 -582.261)"/>
        <path id="Path_152086" data-name="Path 152086" d="M82.134,403.883h0l-11.09-.432a.105.105,0,0,1,0-.21h0l11.09.432a.105.105,0,0,1,0,.21" transform="translate(-33.542 -360.192)"/>
        <path id="Path_152087" data-name="Path 152087" d="M83.763,387.107h0l-11.243-.123a.105.105,0,0,1-.1-.106.1.1,0,0,1,.106-.1l11.243.123a.105.105,0,0,1,0,.21" transform="translate(-35.329 -345.483)" fill="#fff"/>
        <path id="Path_152088" data-name="Path 152088" d="M168.942,389.165l1.394-1.922a.1.1,0,0,0,.016-.034c.054-.2,5.332-19.882.736-35.279a.105.105,0,0,0-.2.06c4.517,15.133-.544,34.441-.732,35.146l-1.382,1.906a.1.1,0,1,0,.17.123m1.311-1.984h0Z" transform="translate(-134.712 -314.292)"/>
        <path id="Path_152089" data-name="Path 152089" d="M81.643,242.263a.1.1,0,0,1-.05-.013.1.1,0,0,1-.042-.142,87.651,87.651,0,0,0,5.536-13.391c2.236-7,4.355-17.054,1.759-25.19a23.642,23.642,0,0,0-10.458-13.071,25.819,25.819,0,0,0-7.263-3.061.105.105,0,0,1,.043-.206,26.061,26.061,0,0,1,7.329,3.087,23.85,23.85,0,0,1,10.55,13.187c2.613,8.189.485,18.29-1.761,25.321a87.9,87.9,0,0,1-5.55,13.423.105.105,0,0,1-.093.055" transform="translate(-41.564 -167.204)"/>
        <path id="Path_152090" data-name="Path 152090" d="M420.232,310.764a.107.107,0,0,1-.044-.01l-8.785-4.043a.1.1,0,1,1,.088-.191l8.785,4.043a.105.105,0,0,1-.044.2" transform="translate(-407.981 -273.788)" fill="#fff"/>
        <path id="Path_152091" data-name="Path 152091" d="M406.362,348.856h0a.1.1,0,0,1-.1-.107c.14-8.626,1.035-15.195,2.66-19.524a.1.1,0,1,1,.2.074c-1.616,4.307-2.507,10.852-2.646,19.453a.105.105,0,0,1-.105.1" transform="translate(-396.221 -294.018)"/>
        <path id="Path_152092" data-name="Path 152092" d="M336.507,239.032H334.9a8.389,8.389,0,0,1-4.454-1.468c-4.182-2.613-7.147-10.469-4.72-20.428,1.382-5.673,4.608-13.179,12.122-16.72a18.319,18.319,0,0,1,8.5-1.795.1.1,0,0,1,.1.114.1.1,0,0,1-.114.1,18.112,18.112,0,0,0-8.4,1.78c-7.433,3.508-10.628,10.95-12,16.575-2.4,9.862.509,17.627,4.627,20.2a8.189,8.189,0,0,0,4.342,1.436h1.608a1.027,1.027,0,0,0,0-2.054H334.2a.105.105,0,1,1,0-.21h2.309a1.237,1.237,0,0,1,0,2.475" transform="translate(-324.851 -177.4)"/>
      </g>
      <g id="Group_102503" data-name="Group 102503" transform="translate(639.142 458.154)">
        <path id="Path_152194" data-name="Path 152194" d="M700.674,267.133l-1.18-.527a.321.321,0,1,0-.262.586l1.18.527c.395,1.155.8,2.244,1.22,3.269l2.378-1.517q-.737-1.317-1.456-2.809s.147-.427.351-.935a.417.417,0,0,0-.736-.383,2.075,2.075,0,0,0-.283.723l-.758-1.33a.4.4,0,1,0-.687.4l.836,1.467-.024-.007-1.1-1.16a.4.4,0,0,0-.576.544l1.1,1.159Z" transform="translate(-694.012 -262.316)" fill="#fff"/>
        <path id="Path_152195" data-name="Path 152195" d="M699.662,269.187a.166.166,0,0,0,.089-.026l2.378-1.517a.165.165,0,0,0,.055-.219c-.494-.883-.972-1.8-1.422-2.738.049-.137.171-.478.326-.864a.582.582,0,0,0-1.028-.533,2.091,2.091,0,0,0-.195.39l-.564-.99a.561.561,0,1,0-.973.559l.184.322-.206-.217a.557.557,0,0,0-.392-.175.561.561,0,0,0-.424.946l.526.556-.426-.19a.486.486,0,0,0-.4.887l1.115.5c.374,1.088.777,2.168,1.2,3.21a.164.164,0,0,0,.153.1m2.158-1.737-2.08,1.327c-.4-1-.786-2.035-1.143-3.077a.165.165,0,0,0-.089-.1l-1.18-.527a.156.156,0,1,1,.127-.285l1.164.52a.165.165,0,0,0,.206-.254l-1.1-1.159a.232.232,0,0,1,.009-.327.223.223,0,0,1,.166-.063.23.23,0,0,1,.162.072l1.1,1.159a.166.166,0,0,0,.074.045l.024.007a.165.165,0,0,0,.188-.24l-.836-1.467a.232.232,0,0,1,.085-.317.232.232,0,0,1,.316.085l.757,1.33a.165.165,0,0,0,.3-.049,1.918,1.918,0,0,1,.26-.666.236.236,0,0,1,.325-.087.242.242,0,0,1,.12.32c-.2.506-.352.938-.354.942a.166.166,0,0,0,.007.125c.438.914.9,1.816,1.385,2.682" transform="translate(-692.042 -260.349)" fill="#404040"/>
        <path id="Path_152196" data-name="Path 152196" d="M621.443,313.548c-3.843-3.06-7.39-8.99-7.39-8.99l-2.681,1.155c1.157,4.315,6.133,10.547,7.026,11.457Z" transform="translate(-604.68 -299.247)" fill="#e6e6e6"/>
        <path id="Path_152197" data-name="Path 152197" d="M616.428,315.366h.006a.165.165,0,0,0,.12-.059l3.044-3.622a.165.165,0,0,0-.024-.235c-3.775-3.006-7.316-8.887-7.351-8.946a.165.165,0,0,0-.207-.067l-2.681,1.156a.165.165,0,0,0-.094.194c1.162,4.333,6.139,10.584,7.068,11.53a.165.165,0,0,0,.118.049m2.81-3.764-2.817,3.352c-1.157-1.266-5.658-7.016-6.822-11.115l2.417-1.042c.529.859,3.756,5.982,7.222,8.805" transform="translate(-602.709 -297.278)" fill="#404040"/>
        <path id="Path_152198" data-name="Path 152198" d="M751.025,450.876l-1.191.5a.321.321,0,0,0,.249.591l1.191-.5q1.67.75,3.221,1.341l.515-2.773q-1.465-.361-3.046-.855s-.211-.4-.443-.895a.417.417,0,0,0-.783.276,2.071,2.071,0,0,0,.335.7l-1.489-.355a.4.4,0,1,0-.18.772l1.643.391-.022.013-1.6.009a.4.4,0,1,0,0,.792l1.6-.009Z" transform="translate(-748.871 -431.66)" fill="#fff"/>
        <path id="Path_152199" data-name="Path 152199" d="M752.526,451a.165.165,0,0,0,.162-.135l.515-2.773a.165.165,0,0,0-.122-.19c-.983-.242-1.982-.522-2.971-.831-.067-.129-.232-.452-.408-.828a.582.582,0,0,0-1.092.387,2.1,2.1,0,0,0,.151.408l-1.108-.264a.561.561,0,1,0-.256,1.092l.361.086-.3,0a.561.561,0,0,0-.391.96.575.575,0,0,0,.4.162l.765,0-.43.181a.486.486,0,0,0,.377.9l1.125-.474c1.049.47,2.113.912,3.165,1.316a.167.167,0,0,0,.059.011m.325-2.816-.451,2.426c-1.007-.391-2.025-.816-3.028-1.267a.165.165,0,0,0-.132,0l-1.191.5a.156.156,0,0,1-.122-.288l1.174-.5a.165.165,0,0,0-.043-.324h0l-1.6.009h0a.231.231,0,0,1,0-.463l1.6-.009a.165.165,0,0,0,.084-.024l.022-.013a.165.165,0,0,0-.047-.3l-1.643-.391a.231.231,0,1,1,.1-.451l1.489.355a.165.165,0,0,0,.172-.256,1.921,1.921,0,0,1-.309-.644.236.236,0,0,1,.159-.3.242.242,0,0,1,.315.131c.231.494.445.9.447.9a.165.165,0,0,0,.1.08c.967.3,1.943.579,2.905.82" transform="translate(-746.901 -429.692)" fill="#404040"/>
        <path id="Path_152200" data-name="Path 152200" d="M553.59,407.413a2.267,2.267,0,0,1,.876.006l2.31.357a3.935,3.935,0,0,1,3.282,3.253,14.559,14.559,0,0,1,.039,3.986l-.405,11.425-11.531-.845a48.948,48.948,0,0,1-.126-8.867,34.536,34.536,0,0,1-6.669-1.939l.8-3.153a33.885,33.885,0,0,0,7.666.2,12.285,12.285,0,0,1,3.758-4.422" transform="translate(-538.051 -394.128)" fill="#e6e6e6"/>
        <path id="Path_152201" data-name="Path 152201" d="M557.712,424.633a.165.165,0,0,0,.164-.159l.406-11.425a14.665,14.665,0,0,0-.041-4.019,4.09,4.09,0,0,0-3.42-3.389l-2.31-.357a2.421,2.421,0,0,0-.936,0,.163.163,0,0,0-.051.02,12.681,12.681,0,0,0-3.788,4.408,34.04,34.04,0,0,1-7.524-.207.165.165,0,0,0-.186.122l-.8,3.153a.165.165,0,0,0,.1.193,35.586,35.586,0,0,0,6.545,1.926,50.955,50.955,0,0,0,.148,8.745.165.165,0,0,0,.152.147l11.531.845h.012m-5.705-19.068a2.682,2.682,0,0,1,.452.044l2.312.358a3.762,3.762,0,0,1,3.145,3.116,14.379,14.379,0,0,1,.038,3.94l-.4,11.268-11.223-.822a47.841,47.841,0,0,1-.113-8.689.165.165,0,0,0-.14-.187,33.837,33.837,0,0,1-6.5-1.876l.728-2.869a34.755,34.755,0,0,0,7.558.179.165.165,0,0,0,.147-.134,12.457,12.457,0,0,1,3.657-4.3,1.752,1.752,0,0,1,.336-.031" transform="translate(-536.07 -392.156)" fill="#404040"/>
        <path id="Path_152202" data-name="Path 152202" d="M738.782,854.961l-2.489,2.954,5.52-.861-.441-2.312Z" transform="translate(-734.69 -806.975)" fill="#404040"/>
        <path id="Path_152203" data-name="Path 152203" d="M612.761,454.253h.008a25.012,25.012,0,0,0,4.758-.771.165.165,0,1,0-.087-.318,24.65,24.65,0,0,1-4.686.759.165.165,0,0,0,.008.329" transform="translate(-600.979 -436.381)" fill="#404040"/>
        <path id="Path_152204" data-name="Path 152204" d="M617.941,525.674a7.736,7.736,0,0,0,3.005-.5.165.165,0,1,0-.132-.3c-2.216.972-6.245.123-6.285.115a.165.165,0,0,0-.069.322,18.466,18.466,0,0,0,3.481.363" transform="translate(-604.51 -502.549)" fill="#404040"/>
        <path id="Path_152205" data-name="Path 152205" d="M724.6,284.025a.165.165,0,0,0,.164-.157,1.492,1.492,0,0,1,.768-1.333.165.165,0,1,0-.13-.3,1.8,1.8,0,0,0-.966,1.619.165.165,0,0,0,.157.173h.008" transform="translate(-717.593 -278.633)" fill="#404040"/>
        <path id="Path_152206" data-name="Path 152206" d="M555.184,643.528l-3.766.943a3.489,3.489,0,0,0-2.638,3.243l-.629,12.368,4.1.14,1.662-9.931,8.457.635a4.6,4.6,0,0,0,4.265-4.412l.08-2.141Z" transform="translate(-545.074 -612.06)" fill="#ffc400"/>
        <path id="Path_152207" data-name="Path 152207" d="M550.282,658.417a.165.165,0,0,0,.162-.137l1.638-9.783,8.306.623h.024a4.753,4.753,0,0,0,4.418-4.57l.08-2.141a.165.165,0,0,0-.153-.17l-11.531-.845a.16.16,0,0,0-.052,0l-3.766.943a3.674,3.674,0,0,0-2.763,3.4l-.629,12.367a.165.165,0,0,0,.159.173l4.1.14h.006m1.662-10.261a.165.165,0,0,0-.162.138l-1.638,9.789-3.79-.13.62-12.2a3.343,3.343,0,0,1,2.514-3.091l3.741-.936,11.346.831-.074,1.982a4.424,4.424,0,0,1-4.1,4.253l-8.444-.634h-.012" transform="translate(-543.104 -610.09)" fill="#404040"/>
        <path id="Path_152208" data-name="Path 152208" d="M514.756,298.352c.048-.652-.518-1.005-1.05-1.193.353-1.969.143-3.618-1.856-4.82a4.6,4.6,0,0,0-2.766-.633c-2.04.179-3.324,1.921-3.91,4.319-.782,3.2.344,5.856,2.862,6.16a4.74,4.74,0,0,0,4.311-2.8c.708.159,2.286.625,2.408-1.031" transform="translate(-489.782 -287.37)" fill="#fff"/>
        <path id="Path_152209" data-name="Path 152209" d="M506.328,300.394a5.009,5.009,0,0,0,4.136-2.792,2.5,2.5,0,0,0,1.963-.094,1.436,1.436,0,0,0,.521-1.114c.042-.573-.313-1.024-1.028-1.311.281-1.674.233-3.538-1.957-4.855a4.783,4.783,0,0,0-2.865-.656c-1.957.172-3.4,1.75-4.055,4.444a6.142,6.142,0,0,0,.56,4.905,3.38,3.38,0,0,0,2.442,1.457,2.386,2.386,0,0,0,.284.016m4.047-3.146a.165.165,0,0,0-.148.092,4.547,4.547,0,0,1-4.144,2.711,3.059,3.059,0,0,1-2.211-1.318,5.821,5.821,0,0,1-.511-4.64c.622-2.546,1.959-4.035,3.764-4.193a4.457,4.457,0,0,1,2.667.611c2.072,1.246,2.08,2.972,1.779,4.65a.165.165,0,0,0,.107.184c.657.232.973.576.94,1.025a1.129,1.129,0,0,1-.388.873c-.447.328-1.227.147-1.694.038l-.126-.029a.155.155,0,0,0-.036,0" transform="translate(-487.81 -285.4)" fill="#404040"/>
        <path id="Path_152214" data-name="Path 152214" d="M509.5,367.664a.141.141,0,0,0,.133-.093,1.14,1.14,0,0,0-.007-.952.993.993,0,0,0-.6-.46.141.141,0,0,0-.066.275.715.715,0,0,1,.417.322.877.877,0,0,1-.011.719.141.141,0,0,0,.085.181.14.14,0,0,0,.048.009" transform="translate(-485.061 -356.091)" fill="#404040"/>
        <path id="Path_152215" data-name="Path 152215" d="M509.71,373.109a.141.141,0,0,0,.1-.047,2.127,2.127,0,0,1,.89-.6.141.141,0,1,0-.05-.278,2.365,2.365,0,0,0-1.05.688.141.141,0,0,0,.105.236" transform="translate(-486.202 -361.654)" fill="#404040"/>
        <path id="Path_152216" data-name="Path 152216" d="M476.311,238.328a2.119,2.119,0,0,0-2.135,1.127,5.386,5.386,0,0,0-2.385-1.18c.011-.054.021-.107.028-.163a2.12,2.12,0,1,0-3.916.843,3.238,3.238,0,0,0-1.292,3.029c1.947,1.665,7.008.475,7.008.475a3.194,3.194,0,0,0,.311,3.071l.705.152a11.478,11.478,0,0,0,.862-3.206,2.119,2.119,0,1,0,.812-4.148" transform="translate(-450.238 -235.736)" fill="#404040"/>
      </g>
    </g>
  </g>
</svg>
