<svg xmlns="http://www.w3.org/2000/svg" width="33.008" height="23.473" viewBox="0 0 33.008 23.473">
  <g id="Group_221383" data-name="Group 221383" transform="translate(-194.992 -536)">
    <g id="Group_221382" data-name="Group 221382" transform="translate(195 547.373)">
      <path id="Path_170441" data-name="Path 170441" d="M1158.017,1838.941l9.711,5.5,9.666-5.5-9.666-5.667-9.711,5.311" transform="translate(-1157.688 -1833.05)" fill="#fff"/>
      <g id="Path_150202" data-name="Path 150202" transform="translate(-177.761 -107.668)" fill="#fff" stroke-linecap="round" stroke-linejoin="round">
        <path d="M 187.8399200439453 119.3438568115234 L 187.5918121337891 119.2020492553711 L 182.8773651123047 116.507438659668 L 178.5046844482422 114.0081787109375 L 177.7429504394531 113.5727996826172 L 178.5057830810547 113.1393585205078 L 187.5923461914062 107.9763488769531 L 187.8393402099609 107.8359985351562 L 188.0863494873047 107.9763259887695 L 197.1740112304688 113.1393356323242 L 197.9369049072266 113.5727691650391 L 197.1751251220703 114.0081787109375 L 188.0880279541016 119.2020492553711 L 187.8399200439453 119.3438568115234 Z" stroke="none"/>
        <path d="M 187.83935546875 108.4110717773438 L 178.7527923583984 113.5740814208984 L 187.8399200439453 118.7679443359375 L 196.9270172119141 113.5740814208984 L 187.83935546875 108.4110717773438 M 187.83935546875 107.4110641479492 C 188.009765625 107.4110641479492 188.1801605224609 107.4545745849609 188.3333282470703 107.5415954589844 L 197.4209899902344 112.7046051025391 C 197.7333831787109 112.882080078125 197.9265441894531 113.2135009765625 197.9270172119141 113.5727767944336 C 197.9274749755859 113.9320678710938 197.7351684570312 114.2639846801758 197.4232482910156 114.442268371582 L 188.3361511230469 119.6361389160156 C 188.0287017822266 119.811882019043 187.6511993408203 119.811897277832 187.3436889648438 119.6361389160156 L 178.2565612792969 114.442268371582 C 177.9446411132812 114.2639846801758 177.7523498535156 113.9320907592773 177.7527923583984 113.5728073120117 C 177.7532501220703 113.2135391235352 177.9464111328125 112.8821182250977 178.2587738037109 112.7046279907227 L 187.3453369140625 107.541618347168 C 187.4985046386719 107.45458984375 187.6689300537109 107.4110641479492 187.83935546875 107.4110641479492 Z" stroke="none" fill="#000"/>
      </g>
    </g>
    <g id="Group_221380" data-name="Group 221380" transform="translate(-16 20)">
      <g id="Ellipse_1556" data-name="Ellipse 1556" transform="translate(224 516)" fill="#ffe281" stroke="#000" stroke-width="1">
        <circle cx="10" cy="10" r="10" stroke="none"/>
        <circle cx="10" cy="10" r="9.5" fill="none"/>
      </g>
      <g id="Group_221374" data-name="Group 221374" transform="translate(229.689 519.453)">
        <g id="Group_221379" data-name="Group 221379">
          <path id="Path_150203" data-name="Path 150203" d="M197.287,59.527h-7.924a.642.642,0,1,1,0-1.283h7.924a.642.642,0,1,1,0,1.283Z" transform="translate(-188.72 -58.228)" stroke="#ffe281" stroke-width="0.2"/>
          <path id="Path_150204" data-name="Path 150204" d="M197.287,171.527h-7.924a.642.642,0,1,1,0-1.283h7.924a.642.642,0,1,1,0,1.283Z" transform="translate(-188.72 -167.02)" stroke="#ffe281" stroke-width="0.2"/>
          <path id="Path_150205" data-name="Path 150205" d="M191.69,64.872h-2.326a.642.642,0,1,1,0-1.283h2.326a2.31,2.31,0,0,0,0-4.62h-2.326a.642.642,0,1,1,0-1.283h2.326a3.593,3.593,0,1,1,0,7.186Z" transform="translate(-188.721 -57.686)" stroke="#ffe281" stroke-width="0.2"/>
          <path id="Path_150206" data-name="Path 150206" d="M195.034,270.5a.689.689,0,0,1-.449-.176l-5.742-5.534a.647.647,0,1,1,.9-.93l5.742,5.518a.654.654,0,0,1,.016.914.722.722,0,0,1-.465.209Z" transform="translate(-188.648 -257.785)" stroke="#ffe281" stroke-width="0.2"/>
        </g>
      </g>
    </g>
  </g>
</svg>
