<svg xmlns="http://www.w3.org/2000/svg" width="33.224" height="23.73" viewBox="0 0 33.224 23.73"><defs><style>.a,.b{fill:#b6f4b4;}.b,.c{stroke:#253858;stroke-width:0.3px;}.c{fill:#253858;}</style></defs><g transform="translate(-299.847 -214.848)"><path class="a" d="M17484.7-4939.431l1.039,6.041.9,3.3,2.344,2.791,5.783,3.2,3.432,1.58,1.158.307-.76-6.577-.906-2.208-3.139-3.8-5.568-3.141Z" transform="translate(-17184 5158)"/><g transform="translate(-17228.633 5591.203)"><path class="b" d="M17540.215-5356.451v-3.144l.711-2.889,2.891-5.056,4.719-4.077,6.016-2.886,2.715-1.059-.633,7.282-1.156,4.628-2.281,3.425-4.105,3.292-6.852,3.39-2.023-1.8" transform="translate(3.663 0.202)"/><g transform="translate(17528.631 -5376.203)"><path class="c" d="M27.377,43.436a.482.482,0,1,1-.939.22,12.146,12.146,0,0,1-.165-2.154.457.457,0,0,1-.166-.441,11.321,11.321,0,0,0-3.258-8.836c-3.259-3.314-8.394-4.972-10.218-5.469.221,1.878.884,7.29,2.983,10,2.044,2.595,6.9,4.584,8.947,5.3-2.541-6.572-5.026-7.566-9.334-11.486-.442-.443.221-1.161.663-.72,4.529,4.143,6.793,5.028,9.222,10.993a7.057,7.057,0,0,1,.719,2.153.476.476,0,0,1-.607.332S17.658,40.951,14.9,37.36c-2.706-3.48-3.258-10.713-3.258-11.156a.5.5,0,0,1,.552-.553c.055,0,7.18,1.6,11.377,5.91a12.216,12.216,0,0,1,3.2,5.855,15.833,15.833,0,0,1,3.259-6.24c4.915-5.8,13.862-8.45,13.862-8.45a.5.5,0,0,1,.663.5s.055,9.665-3.148,14.47c-3.258,4.8-12.647,8.395-12.647,8.395a.5.5,0,0,1-.663-.608c2.374-8.063,4.252-9.886,8.008-13.586,1.049-.993,2.154-2.154,3.535-3.535a.489.489,0,1,1,.718.663c-1.38,1.382-2.541,2.54-3.534,3.536-3.535,3.422-5.357,5.19-7.511,12.261,2.43-1.052,8.781-4.032,11.267-7.678,2.6-3.811,2.927-11.044,2.982-13.255-2.1.718-8.781,3.259-12.757,7.9a14.665,14.665,0,0,0-3.425,11.655Z" transform="translate(-11.632 -22.703)"/></g></g></g></svg>