<svg xmlns="http://www.w3.org/2000/svg" xmlns:xlink="http://www.w3.org/1999/xlink" width="281.973" height="262.97" viewBox="0 0 281.973 262.97"><defs><style>.a{opacity:0.46;}.b{fill:#ffdad1;opacity:0.5;}.c{fill:#ffe380;}.d{fill:url(#a);}.e{fill:url(#b);}.f{fill:url(#c);}.g{fill:url(#d);}.h{fill:url(#e);}.i{fill:url(#f);}.j{fill:url(#g);}.k{fill:url(#h);}.l{fill:url(#i);}.m{fill:url(#j);}.n{fill:url(#k);}.o{fill:url(#l);}.p{fill:url(#m);}.q{fill:url(#n);}.r{fill:url(#o);}.s{fill:url(#p);}.t{fill:url(#q);}.u{fill:url(#r);}.v{fill:url(#s);}.w{fill:url(#t);}.x{fill:url(#u);}.y{fill:url(#v);}.z{fill:url(#w);}.aa{fill:url(#x);}.ab{fill:url(#y);}.ac{fill:url(#z);}.ad{fill:url(#aa);}.ae{fill:url(#ab);}.af{fill:url(#ac);}.ag{fill:url(#ad);}.ah{fill:url(#ae);}.ai{fill:url(#af);}.aj{fill:url(#ag);}.ak{fill:url(#ah);}.al{fill:url(#ai);}.am{fill:url(#aj);}.an{fill:url(#ak);}.ao{fill:url(#al);}.ap{fill:url(#am);}.aq{fill:url(#an);}.ar{fill:url(#ao);}.as{fill:url(#ap);}.at{fill:url(#aq);}.au{fill:url(#ar);}.av{fill:url(#as);}.aw{fill:url(#at);}.ax{fill:url(#au);}.ay{fill:url(#av);}.az{fill:url(#aw);}.ba{fill:url(#ax);}.bb{fill:url(#ay);}.bc{fill:url(#az);}.bd{fill:url(#ba);}.be{fill:url(#bb);}.bf{fill:url(#bc);}.bg{fill:url(#bd);}.bh{fill:url(#be);}.bi{fill:url(#bf);}.bj{fill:url(#bg);}.bk{fill:url(#bh);}.bl{fill:url(#bi);}.bm{fill:url(#bj);}.bn{fill:url(#bk);}.bo{fill:url(#bl);}.bp{fill:url(#bm);}.bq{fill:url(#bn);}.br{fill:url(#bo);}.bs{fill:url(#bp);}.bt{fill:url(#bq);}.bu{fill:url(#br);}.bv{fill:url(#bs);}.bw{fill:url(#bt);}.bx{fill:url(#bu);}.by{fill:url(#bv);}.bz{fill:url(#bw);}.ca{fill:url(#bx);}.cb{fill:url(#by);}.cc{fill:url(#bz);}.cd{fill:url(#ca);}.ce{fill:url(#cb);}.cf{fill:url(#cc);}.cg{fill:url(#cd);}.ch{fill:url(#ce);}.ci{fill:url(#cf);}.cj{fill:url(#cg);}.ck{fill:url(#ch);}.cl{fill:url(#ci);}.cm{fill:url(#cj);}.cn{fill:url(#ck);}.co{fill:url(#cl);}.cp{fill:url(#cm);}.cq{fill:url(#cn);}.cr{fill:url(#co);}.cs{fill:url(#cp);}.ct{fill:url(#cq);}.cu{fill:url(#cr);}.cv{fill:url(#cs);}.cw{fill:url(#ct);}.cx{fill:url(#cu);}.cy{fill:url(#cv);}.cz{fill:url(#cw);}.da{fill:url(#cx);}.db{fill:url(#cy);}.dc{fill:url(#cz);}.dd{fill:url(#da);}.de{fill:url(#db);}.df{fill:url(#dc);}.dg{fill:url(#dd);}.dh{fill:url(#de);}.di{fill:url(#df);}.dj{fill:url(#dg);}.dk{fill:url(#dh);}.dl{fill:url(#di);}.dm{fill:url(#dj);}.dn{fill:url(#dk);}.do{fill:url(#dl);}.dp{fill:url(#dm);}.dq{fill:url(#dn);}.dr{fill:url(#do);}.ds{fill:url(#dp);}.dt{fill:url(#dq);}.du{fill:url(#dr);}.dv{fill:url(#ds);}.dw{fill:url(#dt);}.dx{fill:url(#du);}.dy{fill:url(#dv);}.dz{fill:url(#dw);}.ea{fill:url(#dx);}.eb{fill:url(#dy);}.ec{fill:url(#dz);}.ed{fill:url(#ea);}.ee{fill:url(#eb);}.ef{fill:url(#ec);}.eg{fill:url(#ed);}.eh{fill:url(#ee);}.ei{fill:url(#ef);}.ej{fill:url(#eg);}.ek{fill:url(#eh);}.el{fill:url(#ei);}.em{fill:url(#ej);}.en{fill:url(#ek);}.eo{fill:url(#el);}.ep{fill:url(#em);}.eq{fill:url(#en);}.er{fill:url(#eo);}.es{fill:url(#ep);}.et{fill:url(#eq);}.eu{fill:url(#er);}.ev{fill:url(#es);}.ew{fill:url(#et);}.ex{fill:url(#eu);}.ey{fill:url(#ev);}.ez{fill:url(#ew);}.fa{fill:url(#ex);}.fb{fill:url(#ey);}.fc{fill:url(#ez);}.fd{fill:url(#fa);}.fe{fill:url(#fb);}.ff{fill:url(#fc);}.fg{fill:url(#fd);}.fh{fill:url(#fe);}.fi{fill:url(#ff);}.fj{fill:url(#fg);}.fk{fill:url(#fh);}.fl{fill:url(#fi);}.fm{fill:url(#fj);}.fn{fill:url(#fk);}.fo{fill:url(#fl);}.fp{fill:url(#fm);}.fq{fill:url(#fn);}.fr{fill:url(#fo);}.fs{fill:url(#fp);}.ft{fill:url(#fq);}.fu{fill:url(#fr);}.fv{fill:url(#fs);}.fw{fill:url(#ft);}.fx{fill:url(#fu);}.fy{fill:url(#fv);}.fz{fill:url(#fw);}.ga{fill:url(#fx);}.gb{fill:url(#fy);}.gc{fill:url(#fz);}.gd{fill:url(#ga);}.ge{fill:url(#gb);}.gf{fill:url(#gc);}.gg{fill:url(#gd);}.gh{fill:url(#ge);}.gi{fill:url(#gf);}.gj{fill:url(#gg);}.gk{fill:url(#gh);}.gl{fill:url(#gi);}.gm{fill:url(#gj);}.gn{fill:url(#gk);}.go{fill:url(#gl);}.gp{fill:url(#gm);}.gq{fill:url(#gn);}.gr{fill:url(#go);}.gs{fill:url(#gp);}.gt{fill:url(#gq);}.gu{fill:url(#gr);}.gv{fill:url(#gs);}.gw{fill:url(#gt);}.gx{fill:url(#gu);}.gy{fill:url(#gv);}.gz{fill:url(#gw);}.ha{fill:url(#gx);}.hb{fill:url(#gy);}.hc{fill:url(#gz);}.hd{fill:url(#ha);}.he{fill:url(#hb);}.hf{fill:url(#hc);}.hg{fill:url(#hd);}.hh{fill:url(#he);}.hi{fill:url(#hf);}.hj{fill:url(#hg);}.hk{fill:url(#hh);}.hl{fill:url(#hi);}.hm{fill:url(#hj);}.hn{fill:url(#hk);}.ho{fill:url(#hl);}.hp{fill:url(#hm);}.hq{fill:url(#hn);}.hr{fill:url(#ho);}.hs{fill:url(#hp);}.ht{fill:url(#hq);}.hu{fill:url(#hr);}.hv{fill:url(#hs);}.hw{fill:url(#ht);}.hx{fill:url(#hu);}.hy{fill:url(#hv);}.hz{fill:url(#hw);}.ia{fill:url(#hx);}.ib{fill:url(#hy);}.ic{fill:url(#hz);}.id{fill:url(#ia);}.ie{fill:url(#ib);}.if{fill:url(#ic);}.ig{fill:url(#id);}.ih{fill:url(#ie);}.ii{fill:url(#if);}.ij{fill:url(#ig);}.ik{fill:url(#ih);}.il{fill:url(#ii);}.im{fill:url(#ij);}.in{fill:url(#ik);}.io{fill:url(#il);}.ip{fill:url(#im);}.iq{fill:url(#in);}.ir{fill:url(#io);}.is{fill:url(#ip);}.it{fill:url(#iq);}.iu{fill:url(#ir);}.iv{fill:url(#is);}.iw{fill:url(#it);}.ix{fill:url(#iu);}.iy{fill:url(#iv);}.iz{fill:url(#iw);}.ja{fill:url(#ix);}.jb{fill:url(#iy);}.jc{fill:url(#iz);}.jd{fill:url(#ja);}.je{fill:url(#jb);}.jf{fill:url(#jc);}.jg{fill:url(#jd);}.jh{fill:url(#je);}.ji{fill:url(#jf);}.jj{fill:url(#jg);}.jk{fill:url(#jh);}.jl{fill:url(#ji);}.jm{fill:url(#jj);}.jn{fill:url(#jk);}.jo{fill:url(#jl);}.jp{fill:url(#jm);}.jq{fill:url(#jn);}.jr{fill:url(#jo);}.js{fill:url(#jp);}.jt{fill:url(#jq);}.ju{fill:url(#jr);}.jv{fill:url(#js);}.jw{fill:url(#jt);}.jx{fill:url(#ju);}.jy{fill:url(#jv);}.jz{fill:url(#jw);}.ka{fill:url(#jx);}.kb{fill:url(#jy);}.kc{fill:url(#jz);}.kd{fill:#8279f2;opacity:0.411;}</style><linearGradient id="a" x1="19.39" y1="19.53" x2="128.654" y2="129.601" gradientUnits="objectBoundingBox"><stop offset="0" stop-color="#ff40a0"/><stop offset="1" stop-color="#5f42aa"/></linearGradient><linearGradient id="b" x1="19.411" y1="19.564" x2="128.674" y2="129.713" xlink:href="#a"/><linearGradient id="c" x1="19.427" y1="19.571" x2="128.666" y2="129.641" xlink:href="#a"/><linearGradient id="d" x1="19.449" y1="19.597" x2="128.688" y2="129.695" xlink:href="#a"/><linearGradient id="e" x1="19.472" y1="19.618" x2="128.73" y2="129.711" xlink:href="#a"/><linearGradient id="f" x1="19.49" y1="19.634" x2="128.728" y2="129.704" xlink:href="#a"/><linearGradient id="g" x1="19.514" y1="19.66" x2="128.772" y2="129.753" xlink:href="#a"/><linearGradient id="h" x1="19.536" y1="19.677" x2="128.8" y2="129.748" xlink:href="#a"/><linearGradient id="i" x1="19.557" y1="19.712" x2="128.821" y2="129.861" xlink:href="#a"/><linearGradient id="j" x1="19.575" y1="19.721" x2="128.823" y2="129.807" xlink:href="#a"/><linearGradient id="k" x1="19.594" y1="19.745" x2="128.831" y2="129.842" xlink:href="#a"/><linearGradient id="l" x1="13.872" y1="13.973" x2="123.134" y2="124.067" xlink:href="#a"/><linearGradient id="m" x1="13.892" y1="13.995" x2="123.15" y2="124.088" xlink:href="#a"/><linearGradient id="n" x1="13.911" y1="14.022" x2="123.149" y2="124.172" xlink:href="#a"/><linearGradient id="o" x1="13.935" y1="14.037" x2="123.198" y2="124.132" xlink:href="#a"/><linearGradient id="p" x1="13.952" y1="14.058" x2="123.191" y2="124.153" xlink:href="#a"/><linearGradient id="q" x1="13.983" y1="14.076" x2="123.297" y2="124.145" xlink:href="#a"/><linearGradient id="r" x1="13.997" y1="14.097" x2="123.261" y2="124.166" xlink:href="#a"/><linearGradient id="s" x1="14.018" y1="14.121" x2="123.28" y2="124.214" xlink:href="#a"/><linearGradient id="t" x1="14.038" y1="14.142" x2="123.299" y2="124.235" xlink:href="#a"/><linearGradient id="u" x1="14.056" y1="14.17" x2="123.292" y2="124.319" xlink:href="#a"/><linearGradient id="v" x1="14.081" y1="14.184" x2="123.344" y2="124.279" xlink:href="#a"/><linearGradient id="w" x1="8.352" y1="8.412" x2="117.59" y2="118.481" xlink:href="#a"/><linearGradient id="x" x1="8.373" y1="8.435" x2="117.612" y2="118.531" xlink:href="#a"/><linearGradient id="y" x1="8.396" y1="8.454" x2="117.659" y2="118.525" xlink:href="#a"/><linearGradient id="z" x1="8.416" y1="8.477" x2="117.673" y2="118.57" xlink:href="#a"/><linearGradient id="aa" x1="8.442" y1="8.498" x2="117.764" y2="118.596" xlink:href="#a"/><linearGradient id="ab" x1="8.458" y1="8.519" x2="117.715" y2="118.612" xlink:href="#a"/><linearGradient id="ac" x1="8.479" y1="8.538" x2="117.747" y2="118.605" xlink:href="#a"/><linearGradient id="ad" x1="8.497" y1="8.559" x2="117.73" y2="118.628" xlink:href="#a"/><linearGradient id="ae" x1="8.519" y1="8.582" x2="117.758" y2="118.678" xlink:href="#a"/><linearGradient id="af" x1="8.541" y1="8.603" x2="117.802" y2="118.696" xlink:href="#a"/><linearGradient id="ag" x1="8.562" y1="8.624" x2="117.823" y2="118.717" xlink:href="#a"/><linearGradient id="ah" x1="2.835" y1="2.855" x2="112.073" y2="113.003" xlink:href="#a"/><linearGradient id="ai" x1="2.857" y1="2.875" x2="112.114" y2="112.968" xlink:href="#a"/><linearGradient id="aj" x1="2.877" y1="2.896" x2="112.136" y2="112.988" xlink:href="#a"/><linearGradient id="ak" x1="2.9" y1="2.916" x2="112.222" y2="112.987" xlink:href="#a"/><linearGradient id="al" x1="2.919" y1="2.937" x2="112.157" y2="113.006" xlink:href="#a"/><linearGradient id="am" x1="2.94" y1="2.959" x2="112.202" y2="113.052" xlink:href="#a"/><linearGradient id="an" x1="2.961" y1="2.98" x2="112.222" y2="113.073" xlink:href="#a"/><linearGradient id="ao" x1="2.981" y1="3.002" x2="112.219" y2="113.15" xlink:href="#a"/><linearGradient id="ap" x1="3.003" y1="3.022" x2="112.261" y2="113.114" xlink:href="#a"/><linearGradient id="aq" x1="3.023" y1="3.043" x2="112.288" y2="113.139" xlink:href="#a"/><linearGradient id="ar" x1="3.046" y1="3.064" x2="112.358" y2="113.134" xlink:href="#a"/><linearGradient id="as" x1="-2.682" y1="-2.706" x2="106.582" y2="107.388" xlink:href="#a"/><linearGradient id="at" x1="-2.662" y1="-2.687" x2="106.601" y2="107.461" xlink:href="#a"/><linearGradient id="au" x1="-2.642" y1="-2.664" x2="106.674" y2="107.408" xlink:href="#a"/><linearGradient id="av" x1="-2.619" y1="-2.643" x2="106.621" y2="107.452" xlink:href="#a"/><linearGradient id="aw" x1="-2.599" y1="-2.622" x2="106.657" y2="107.471" xlink:href="#a"/><linearGradient id="ax" x1="-2.578" y1="-2.601" x2="106.681" y2="107.491" xlink:href="#a"/><linearGradient id="ay" x1="-2.557" y1="-2.58" x2="106.704" y2="107.513" xlink:href="#a"/><linearGradient id="az" x1="-2.536" y1="-2.559" x2="106.728" y2="107.536" xlink:href="#a"/><linearGradient id="ba" x1="-2.516" y1="-2.54" x2="106.747" y2="107.608" xlink:href="#a"/><linearGradient id="bb" x1="-2.496" y1="-2.517" x2="106.817" y2="107.555" xlink:href="#a"/><linearGradient id="bc" x1="-2.473" y1="-2.496" x2="106.76" y2="107.6" xlink:href="#a"/><linearGradient id="bd" x1="-8.2" y1="-8.266" x2="101.058" y2="101.827" xlink:href="#a"/><linearGradient id="be" x1="-8.178" y1="-8.244" x2="101.063" y2="101.836" xlink:href="#a"/><linearGradient id="bf" x1="-8.157" y1="-8.229" x2="101.088" y2="101.925" xlink:href="#a"/><linearGradient id="bg" x1="-8.137" y1="-8.203" x2="101.12" y2="101.89" xlink:href="#a"/><linearGradient id="bh" x1="-8.115" y1="-8.183" x2="101.124" y2="101.915" xlink:href="#a"/><linearGradient id="bi" x1="-8.096" y1="-8.161" x2="101.165" y2="101.932" xlink:href="#a"/><linearGradient id="bj" x1="-8.075" y1="-8.139" x2="101.186" y2="101.931" xlink:href="#a"/><linearGradient id="bk" x1="-8.054" y1="-8.119" x2="101.206" y2="101.975" xlink:href="#a"/><linearGradient id="bl" x1="-8.037" y1="-8.096" x2="101.275" y2="101.976" xlink:href="#a"/><linearGradient id="bm" x1="-8.01" y1="-8.081" x2="101.224" y2="102.067" xlink:href="#a"/><linearGradient id="bn" x1="-7.991" y1="-8.056" x2="101.269" y2="102.037" xlink:href="#a"/><linearGradient id="bo" x1="-13.715" y1="-13.823" x2="95.523" y2="96.246" xlink:href="#a"/><linearGradient id="bp" x1="-13.694" y1="-13.806" x2="95.544" y2="96.289" xlink:href="#a"/><linearGradient id="bq" x1="-13.676" y1="-13.784" x2="95.581" y2="96.309" xlink:href="#a"/><linearGradient id="br" x1="-13.656" y1="-13.763" x2="95.605" y2="96.33" xlink:href="#a"/><linearGradient id="bs" x1="-13.642" y1="-13.739" x2="95.673" y2="96.33" xlink:href="#a"/><linearGradient id="bt" x1="-13.614" y1="-13.722" x2="95.648" y2="96.374" xlink:href="#a"/><linearGradient id="bu" x1="-13.593" y1="-13.697" x2="95.665" y2="96.372" xlink:href="#a"/><linearGradient id="bv" x1="-13.57" y1="-13.677" x2="95.671" y2="96.4" xlink:href="#a"/><linearGradient id="bw" x1="-13.548" y1="-13.658" x2="95.688" y2="96.436" xlink:href="#a"/><linearGradient id="bx" x1="-13.53" y1="-13.637" x2="95.73" y2="96.456" xlink:href="#a"/><linearGradient id="by" x1="-13.507" y1="-13.623" x2="95.732" y2="96.526" xlink:href="#a"/><linearGradient id="bz" x1="-19.232" y1="-19.382" x2="90.007" y2="90.688" xlink:href="#a"/><linearGradient id="ca" x1="-19.216" y1="-19.362" x2="90.048" y2="90.709" xlink:href="#a"/><linearGradient id="cb" x1="-19.194" y1="-19.344" x2="90.066" y2="90.749" xlink:href="#a"/><linearGradient id="cc" x1="-19.173" y1="-19.323" x2="90.087" y2="90.77" xlink:href="#a"/><linearGradient id="cd" x1="-19.149" y1="-19.313" x2="90.091" y2="90.841" xlink:href="#a"/><linearGradient id="ce" x1="-19.131" y1="-19.282" x2="90.125" y2="90.813" xlink:href="#a"/><linearGradient id="cf" x1="-19.106" y1="-19.261" x2="90.126" y2="90.836" xlink:href="#a"/><linearGradient id="cg" x1="-19.085" y1="-19.235" x2="90.15" y2="90.835" xlink:href="#a"/><linearGradient id="ch" x1="-19.07" y1="-19.214" x2="90.194" y2="90.855" xlink:href="#a"/><linearGradient id="ci" x1="-19.048" y1="-19.197" x2="90.212" y2="90.896" xlink:href="#a"/><linearGradient id="cj" x1="-19.027" y1="-19.176" x2="90.233" y2="90.917" xlink:href="#a"/><linearGradient id="ck" x1="-24.753" y1="-24.946" x2="84.504" y2="85.147" xlink:href="#a"/><linearGradient id="cl" x1="-24.729" y1="-24.921" x2="84.513" y2="85.156" xlink:href="#a"/><linearGradient id="cm" x1="-24.726" y1="-24.901" x2="84.594" y2="85.177" xlink:href="#a"/><linearGradient id="cn" x1="-24.691" y1="-24.883" x2="84.569" y2="85.21" xlink:href="#a"/><linearGradient id="co" x1="-24.67" y1="-24.857" x2="84.589" y2="85.213" xlink:href="#a"/><linearGradient id="cp" x1="-24.65" y1="-24.841" x2="84.611" y2="85.252" xlink:href="#a"/><linearGradient id="cq" x1="-24.623" y1="-24.821" x2="84.615" y2="85.274" xlink:href="#a"/><linearGradient id="cr" x1="-24.608" y1="-24.799" x2="84.653" y2="85.294" xlink:href="#a"/><linearGradient id="cs" x1="-24.581" y1="-24.791" x2="84.653" y2="85.357" xlink:href="#a"/><linearGradient id="ct" x1="-24.578" y1="-24.752" x2="84.734" y2="85.319" xlink:href="#a"/><linearGradient id="cu" x1="-24.539" y1="-24.736" x2="84.694" y2="85.358" xlink:href="#a"/><linearGradient id="cv" x1="-30.273" y1="-30.507" x2="78.991" y2="79.588" xlink:href="#a"/><linearGradient id="cw" x1="-30.266" y1="-30.486" x2="79.047" y2="79.61" xlink:href="#a"/><linearGradient id="cx" x1="-30.222" y1="-30.48" x2="79.009" y2="79.668" xlink:href="#a"/><linearGradient id="cy" x1="-30.21" y1="-30.437" x2="79.053" y2="79.633" xlink:href="#a"/><linearGradient id="cz" x1="-30.188" y1="-30.422" x2="79.071" y2="79.671" xlink:href="#a"/><linearGradient id="da" x1="-30.167" y1="-30.401" x2="79.092" y2="79.692" xlink:href="#a"/><linearGradient id="db" x1="-30.147" y1="-30.38" x2="79.114" y2="79.713" xlink:href="#a"/><linearGradient id="dc" x1="-30.127" y1="-30.36" x2="79.137" y2="79.735" xlink:href="#a"/><linearGradient id="dd" x1="-30.12" y1="-30.339" x2="79.193" y2="79.757" xlink:href="#a"/><linearGradient id="de" x1="-30.076" y1="-30.332" x2="79.155" y2="79.816" xlink:href="#a"/><linearGradient id="df" x1="-30.064" y1="-30.29" x2="79.199" y2="79.78" xlink:href="#a"/><linearGradient id="dg" x1="-35.807" y1="-36.059" x2="73.506" y2="74.012" xlink:href="#a"/><linearGradient id="dh" x1="-35.769" y1="-36.045" x2="73.492" y2="74.048" xlink:href="#a"/><linearGradient id="di" x1="-35.748" y1="-36.024" x2="73.512" y2="74.069" xlink:href="#a"/><linearGradient id="dj" x1="-35.72" y1="-36.021" x2="73.518" y2="74.126" xlink:href="#a"/><linearGradient id="dk" x1="-35.699" y1="-35.974" x2="73.54" y2="74.095" xlink:href="#a"/><linearGradient id="dl" x1="-35.687" y1="-35.963" x2="73.578" y2="74.135" xlink:href="#a"/><linearGradient id="dm" x1="-35.665" y1="-35.94" x2="73.596" y2="74.153" xlink:href="#a"/><linearGradient id="dn" x1="-35.661" y1="-35.912" x2="73.652" y2="74.159" xlink:href="#a"/><linearGradient id="do" x1="-35.622" y1="-35.898" x2="73.636" y2="74.195" xlink:href="#a"/><linearGradient id="dp" x1="-35.603" y1="-35.878" x2="73.66" y2="74.218" xlink:href="#a"/><linearGradient id="dq" x1="-35.574" y1="-35.874" x2="73.664" y2="74.273" xlink:href="#a"/><linearGradient id="dr" x1="-41.301" y1="-41.62" x2="67.942" y2="68.457" xlink:href="#a"/><linearGradient id="ds" x1="-41.288" y1="-41.596" x2="67.976" y2="68.473" xlink:href="#a"/><linearGradient id="dt" x1="-41.258" y1="-41.585" x2="67.981" y2="68.51" xlink:href="#a"/><linearGradient id="du" x1="-41.244" y1="-41.563" x2="68.014" y2="68.53" xlink:href="#a"/><linearGradient id="dv" x1="-41.224" y1="-41.563" x2="68.036" y2="68.585" xlink:href="#a"/><linearGradient id="dw" x1="-41.203" y1="-41.521" x2="68.057" y2="68.572" xlink:href="#a"/><linearGradient id="dx" x1="-41.203" y1="-41.502" x2="68.111" y2="68.595" xlink:href="#a"/><linearGradient id="dy" x1="-41.152" y1="-41.47" x2="68.083" y2="68.6" xlink:href="#a"/><linearGradient id="dz" x1="-41.142" y1="-41.449" x2="68.122" y2="68.62" xlink:href="#a"/><linearGradient id="ea" x1="-41.12" y1="-41.437" x2="68.141" y2="68.656" xlink:href="#a"/><linearGradient id="eb" x1="-41.099" y1="-41.416" x2="68.162" y2="68.677" xlink:href="#a"/><linearGradient id="ec" x1="-46.827" y1="-47.189" x2="62.437" y2="62.91" xlink:href="#a"/><linearGradient id="ed" x1="-46.805" y1="-47.166" x2="62.456" y2="62.929" xlink:href="#a"/><linearGradient id="ee" x1="-46.806" y1="-47.135" x2="62.505" y2="62.936" xlink:href="#a"/><linearGradient id="ef" x1="-46.762" y1="-47.125" x2="62.496" y2="62.972" xlink:href="#a"/><linearGradient id="eg" x1="-46.741" y1="-47.092" x2="62.516" y2="62.978" xlink:href="#a"/><linearGradient id="eh" x1="-46.709" y1="-47.105" x2="62.523" y2="63.043" xlink:href="#a"/><linearGradient id="ei" x1="-46.693" y1="-47.054" x2="62.55" y2="63.025" xlink:href="#a"/><linearGradient id="ej" x1="-46.681" y1="-47.041" x2="62.583" y2="63.057" xlink:href="#a"/><linearGradient id="ek" x1="-46.659" y1="-47.018" x2="62.602" y2="63.075" xlink:href="#a"/><linearGradient id="el" x1="-46.66" y1="-46.988" x2="62.651" y2="63.083" xlink:href="#a"/><linearGradient id="em" x1="-46.615" y1="-46.977" x2="62.642" y2="63.119" xlink:href="#a"/><linearGradient id="en" x1="-52.332" y1="-52.749" x2="56.904" y2="57.349" xlink:href="#a"/><linearGradient id="eo" x1="-52.347" y1="-52.727" x2="56.964" y2="57.371" xlink:href="#a"/><linearGradient id="ep" x1="-52.288" y1="-52.694" x2="56.944" y2="57.379" xlink:href="#a"/><linearGradient id="eq" x1="-52.28" y1="-52.671" x2="56.979" y2="57.397" xlink:href="#a"/><linearGradient id="er" x1="-52.26" y1="-52.662" x2="57" y2="57.431" xlink:href="#a"/><linearGradient id="es" x1="-52.228" y1="-52.63" x2="57.01" y2="57.441" xlink:href="#a"/><linearGradient id="et" x1="-52.218" y1="-52.62" x2="57.042" y2="57.473" xlink:href="#a"/><linearGradient id="eu" x1="-52.185" y1="-52.6" x2="57.05" y2="57.495" xlink:href="#a"/><linearGradient id="ev" x1="-52.201" y1="-52.579" x2="57.11" y2="57.516" xlink:href="#a"/><linearGradient id="ew" x1="-52.157" y1="-52.549" x2="57.107" y2="57.528" xlink:href="#a"/><linearGradient id="ex" x1="-52.134" y1="-52.524" x2="57.125" y2="57.544" xlink:href="#a"/><linearGradient id="ey" x1="-57.889" y1="-58.335" x2="51.423" y2="51.812" xlink:href="#a"/><linearGradient id="ez" x1="-57.825" y1="-58.286" x2="51.407" y2="51.809" xlink:href="#a"/><linearGradient id="fa" x1="-57.821" y1="-58.266" x2="51.442" y2="51.831" xlink:href="#a"/><linearGradient id="fb" x1="-57.787" y1="-58.231" x2="51.451" y2="51.84" xlink:href="#a"/><linearGradient id="fc" x1="-57.766" y1="-58.21" x2="51.472" y2="51.86" xlink:href="#a"/><linearGradient id="fd" x1="-57.759" y1="-58.202" x2="51.505" y2="51.893" xlink:href="#a"/><linearGradient id="fe" x1="-57.736" y1="-58.18" x2="51.524" y2="51.913" xlink:href="#a"/><linearGradient id="ff" x1="-57.714" y1="-58.159" x2="51.544" y2="51.934" xlink:href="#a"/><linearGradient id="fg" x1="-57.679" y1="-58.139" x2="51.553" y2="51.956" xlink:href="#a"/><linearGradient id="fh" x1="-57.675" y1="-58.117" x2="51.588" y2="51.977" xlink:href="#a"/><linearGradient id="fi" x1="-57.641" y1="-58.125" x2="51.597" y2="52.023" xlink:href="#a"/><linearGradient id="fj" x1="-63.38" y1="-63.867" x2="45.881" y2="46.228" xlink:href="#a"/><linearGradient id="fk" x1="-63.36" y1="-63.829" x2="45.903" y2="46.236" xlink:href="#a"/><linearGradient id="fl" x1="-63.325" y1="-63.825" x2="45.913" y2="46.27" xlink:href="#a"/><linearGradient id="fm" x1="-63.317" y1="-63.804" x2="45.944" y2="46.291" xlink:href="#a"/><linearGradient id="fn" x1="-63.297" y1="-63.814" x2="45.966" y2="46.334" xlink:href="#a"/><linearGradient id="fo" x1="-63.275" y1="-63.761" x2="45.985" y2="46.332" xlink:href="#a"/><linearGradient id="fp" x1="-63.285" y1="-63.743" x2="46.028" y2="46.355" xlink:href="#a"/><linearGradient id="fq" x1="-63.232" y1="-63.719" x2="46.026" y2="46.374" xlink:href="#a"/><linearGradient id="fr" x1="-63.214" y1="-63.684" x2="46.049" y2="46.384" xlink:href="#a"/><linearGradient id="fs" x1="-63.179" y1="-63.679" x2="46.059" y2="46.417" xlink:href="#a"/><linearGradient id="ft" x1="-63.171" y1="-63.656" x2="46.09" y2="46.437" xlink:href="#a"/><linearGradient id="fu" x1="-68.899" y1="-69.429" x2="40.364" y2="40.669" xlink:href="#a"/><linearGradient id="fv" x1="-68.863" y1="-69.39" x2="40.376" y2="40.679" xlink:href="#a"/><linearGradient id="fw" x1="-68.839" y1="-69.367" x2="40.396" y2="40.699" xlink:href="#a"/><linearGradient id="fx" x1="-68.835" y1="-69.362" x2="40.426" y2="40.729" xlink:href="#a"/><linearGradient id="fy" x1="-68.814" y1="-69.343" x2="40.447" y2="40.752" xlink:href="#a"/><linearGradient id="fz" x1="-68.825" y1="-69.355" x2="40.486" y2="40.791" xlink:href="#a"/><linearGradient id="ga" x1="-68.772" y1="-69.3" x2="40.488" y2="40.793" xlink:href="#a"/><linearGradient id="gb" x1="-68.753" y1="-69.28" x2="40.51" y2="40.815" xlink:href="#a"/><linearGradient id="gc" x1="-68.729" y1="-69.258" x2="40.529" y2="40.835" xlink:href="#a"/><linearGradient id="gd" x1="-68.71" y1="-69.237" x2="40.551" y2="40.856" xlink:href="#a"/><linearGradient id="ge" x1="-68.693" y1="-69.222" x2="40.575" y2="40.881" xlink:href="#a"/><linearGradient id="gf" x1="-74.415" y1="-74.987" x2="34.845" y2="35.107" xlink:href="#a"/><linearGradient id="gg" x1="-74.43" y1="-74.969" x2="34.882" y2="35.13" xlink:href="#a"/><linearGradient id="gh" x1="-74.371" y1="-74.93" x2="34.886" y2="35.143" xlink:href="#a"/><linearGradient id="gi" x1="-74.351" y1="-74.907" x2="34.907" y2="35.162" xlink:href="#a"/><linearGradient id="gj" x1="-74.314" y1="-74.902" x2="34.92" y2="35.191" xlink:href="#a"/><linearGradient id="gk" x1="-74.294" y1="-74.862" x2="34.942" y2="35.204" xlink:href="#a"/><linearGradient id="gl" x1="-74.29" y1="-74.861" x2="34.97" y2="35.233" xlink:href="#a"/><linearGradient id="gm" x1="-74.269" y1="-74.839" x2="34.991" y2="35.254" xlink:href="#a"/><linearGradient id="gn" x1="-74.284" y1="-74.821" x2="35.028" y2="35.277" xlink:href="#a"/><linearGradient id="go" x1="-74.225" y1="-74.78" x2="35.032" y2="35.289" xlink:href="#a"/><linearGradient id="gp" x1="-74.205" y1="-74.761" x2="35.053" y2="35.31" xlink:href="#a"/><linearGradient id="gq" x1="-79.933" y1="-80.547" x2="29.327" y2="29.547" xlink:href="#a"/><linearGradient id="gr" x1="-79.91" y1="-80.508" x2="29.347" y2="29.562" xlink:href="#a"/><linearGradient id="gs" x1="-79.892" y1="-80.508" x2="29.369" y2="29.591" xlink:href="#a"/><linearGradient id="gt" x1="-79.852" y1="-80.468" x2="29.383" y2="29.605" xlink:href="#a"/><linearGradient id="gu" x1="-79.833" y1="-80.447" x2="29.405" y2="29.625" xlink:href="#a"/><linearGradient id="gv" x1="-79.829" y1="-80.442" x2="29.432" y2="29.653" xlink:href="#a"/><linearGradient id="gw" x1="-79.808" y1="-80.421" x2="29.453" y2="29.674" xlink:href="#a"/><linearGradient id="gx" x1="-79.825" y1="-80.438" x2="29.487" y2="29.708" xlink:href="#a"/><linearGradient id="gy" x1="-79.764" y1="-80.379" x2="29.494" y2="29.716" xlink:href="#a"/><linearGradient id="gz" x1="-79.746" y1="-80.359" x2="29.515" y2="29.737" xlink:href="#a"/><linearGradient id="ha" x1="-79.712" y1="-80.325" x2="29.531" y2="29.754" xlink:href="#a"/><linearGradient id="hb" x1="-85.429" y1="-86.087" x2="23.803" y2="23.982" xlink:href="#a"/><linearGradient id="hc" x1="-85.432" y1="-86.126" x2="23.831" y2="24.019" xlink:href="#a"/><linearGradient id="hd" x1="-85.392" y1="-86.068" x2="23.846" y2="24.03" xlink:href="#a"/><linearGradient id="he" x1="-85.371" y1="-86.047" x2="23.867" y2="24.051" xlink:href="#a"/><linearGradient id="hf" x1="-85.37" y1="-86.006" x2="23.894" y2="24.067" xlink:href="#a"/><linearGradient id="hg" x1="-85.327" y1="-85.985" x2="23.908" y2="24.088" xlink:href="#a"/><linearGradient id="hh" x1="-85.326" y1="-85.981" x2="23.935" y2="24.114" xlink:href="#a"/><linearGradient id="hi" x1="-85.288" y1="-85.946" x2="23.951" y2="24.131" xlink:href="#a"/><linearGradient id="hj" x1="-85.283" y1="-85.978" x2="23.976" y2="24.166" xlink:href="#a"/><linearGradient id="hk" x1="-85.246" y1="-85.918" x2="23.992" y2="24.176" xlink:href="#a"/><linearGradient id="hl" x1="-85.225" y1="-85.897" x2="24.013" y2="24.198" xlink:href="#a"/><linearGradient id="hm" x1="-90.971" y1="-91.669" x2="18.292" y2="18.428" xlink:href="#a"/><linearGradient id="hn" x1="-90.948" y1="-91.647" x2="18.312" y2="18.448" xlink:href="#a"/><linearGradient id="ho" x1="-90.909" y1="-91.668" x2="18.33" y2="18.478" xlink:href="#a"/><linearGradient id="hp" x1="-90.909" y1="-91.604" x2="18.355" y2="18.49" xlink:href="#a"/><linearGradient id="hq" x1="-90.884" y1="-91.582" x2="18.375" y2="18.511" xlink:href="#a"/><linearGradient id="hr" x1="-90.907" y1="-91.608" x2="18.404" y2="18.541" xlink:href="#a"/><linearGradient id="hs" x1="-90.823" y1="-91.523" x2="18.413" y2="18.55" xlink:href="#a"/><linearGradient id="ht" x1="-90.825" y1="-91.522" x2="18.438" y2="18.575" xlink:href="#a"/><linearGradient id="hu" x1="-90.784" y1="-91.478" x2="18.455" y2="18.591" xlink:href="#a"/><linearGradient id="hv" x1="-90.763" y1="-91.521" x2="18.476" y2="18.625" xlink:href="#a"/><linearGradient id="hw" x1="-90.763" y1="-91.459" x2="18.501" y2="18.638" xlink:href="#a"/><linearGradient id="hx" x1="-96.468" y1="-97.208" x2="12.771" y2="12.865" xlink:href="#a"/><linearGradient id="hy" x1="-96.465" y1="-97.205" x2="12.794" y2="12.888" xlink:href="#a"/><linearGradient id="hz" x1="-96.443" y1="-97.184" x2="12.815" y2="12.909" xlink:href="#a"/><linearGradient id="ia" x1="-96.422" y1="-97.139" x2="12.836" y2="12.927" xlink:href="#a"/><linearGradient id="ib" x1="-96.45" y1="-97.142" x2="12.863" y2="12.951" xlink:href="#a"/><linearGradient id="ic" x1="-96.383" y1="-97.123" x2="12.878" y2="12.972" xlink:href="#a"/><linearGradient id="id" x1="-96.363" y1="-97.145" x2="12.899" y2="12.999" xlink:href="#a"/><linearGradient id="ie" x1="-96.341" y1="-97.08" x2="12.92" y2="13.014" xlink:href="#a"/><linearGradient id="if" x1="-96.298" y1="-97.063" x2="12.938" y2="13.036" xlink:href="#a"/><linearGradient id="ig" x1="-96.299" y1="-97.038" x2="12.961" y2="13.057" xlink:href="#a"/><linearGradient id="ih" x1="-96.279" y1="-96.992" x2="12.982" y2="13.074" xlink:href="#a"/><linearGradient id="ii" x1="-102.052" y1="-102.835" x2="7.259" y2="7.31" xlink:href="#a"/><linearGradient id="ij" x1="-101.981" y1="-102.743" x2="7.276" y2="7.327" xlink:href="#a"/><linearGradient id="ik" x1="-101.961" y1="-102.749" x2="7.297" y2="7.35" xlink:href="#a"/><linearGradient id="il" x1="-101.991" y1="-102.705" x2="7.321" y2="7.369" xlink:href="#a"/><linearGradient id="im" x1="-101.922" y1="-102.704" x2="7.339" y2="7.391" xlink:href="#a"/><linearGradient id="in" x1="-101.9" y1="-102.681" x2="7.36" y2="7.412" xlink:href="#a"/><linearGradient id="io" x1="-101.866" y1="-102.665" x2="7.38" y2="7.434" xlink:href="#a"/><linearGradient id="ip" x1="-101.831" y1="-102.688" x2="7.4" y2="7.457" xlink:href="#a"/><linearGradient id="iq" x1="-101.835" y1="-102.596" x2="7.422" y2="7.474" xlink:href="#a"/><linearGradient id="ir" x1="-101.815" y1="-102.602" x2="7.443" y2="7.497" xlink:href="#a"/><linearGradient id="is" x1="-101.845" y1="-102.557" x2="7.468" y2="7.516" xlink:href="#a"/><linearGradient id="it" x1="-107.527" y1="-108.327" x2="1.738" y2="1.747" xlink:href="#a"/><linearGradient id="iu" x1="-107.501" y1="-108.326" x2="1.759" y2="1.768" xlink:href="#a"/><linearGradient id="iv" x1="-107.458" y1="-108.282" x2="1.779" y2="1.789" xlink:href="#a"/><linearGradient id="iw" x1="-107.446" y1="-108.296" x2="1.8" y2="1.81" xlink:href="#a"/><linearGradient id="ix" x1="-107.439" y1="-108.264" x2="1.821" y2="1.831" xlink:href="#a"/><linearGradient id="iy" x1="-107.394" y1="-108.221" x2="1.842" y2="1.852" xlink:href="#a"/><linearGradient id="iz" x1="-107.398" y1="-108.222" x2="1.863" y2="1.873" xlink:href="#a"/><linearGradient id="ja" x1="-107.374" y1="-108.172" x2="1.884" y2="1.894" xlink:href="#a"/><linearGradient id="jb" x1="-107.355" y1="-108.179" x2="1.905" y2="1.915" xlink:href="#a"/><linearGradient id="jc" x1="-107.389" y1="-108.135" x2="1.926" y2="1.936" xlink:href="#a"/><linearGradient id="jd" x1="-107.293" y1="-108.141" x2="1.946" y2="1.957" xlink:href="#a"/><linearGradient id="je" x1="-113.047" y1="-113.917" x2="-3.781" y2="-3.813" xlink:href="#a"/><linearGradient id="jf" x1="-112.997" y1="-113.86" x2="-3.759" y2="-3.791" xlink:href="#a"/><linearGradient id="jg" x1="-112.976" y1="-113.919" x2="-3.738" y2="-3.773" xlink:href="#a"/><linearGradient id="jh" x1="-112.989" y1="-113.826" x2="-3.718" y2="-3.749" xlink:href="#a"/><linearGradient id="ji" x1="-112.932" y1="-113.828" x2="-3.696" y2="-3.729" xlink:href="#a"/><linearGradient id="jj" x1="-112.937" y1="-113.803" x2="-3.676" y2="-3.708" xlink:href="#a"/><linearGradient id="jk" x1="-112.916" y1="-113.759" x2="-3.655" y2="-3.686" xlink:href="#a"/><linearGradient id="jl" x1="-112.895" y1="-113.764" x2="-3.634" y2="-3.666" xlink:href="#a"/><linearGradient id="jm" x1="-112.851" y1="-113.713" x2="-3.613" y2="-3.644" xlink:href="#a"/><linearGradient id="jn" x1="-112.83" y1="-113.771" x2="-3.591" y2="-3.626" xlink:href="#a"/><linearGradient id="jo" x1="-112.836" y1="-113.701" x2="-3.572" y2="-3.603" xlink:href="#a"/><linearGradient id="jp" x1="-118.535" y1="-119.444" x2="-9.296" y2="-9.371" xlink:href="#a"/><linearGradient id="jq" x1="-118.514" y1="-119.45" x2="-9.275" y2="-9.352" xlink:href="#a"/><linearGradient id="jr" x1="-118.517" y1="-119.426" x2="-9.256" y2="-9.331" xlink:href="#a"/><linearGradient id="js" x1="-118.496" y1="-119.405" x2="-9.236" y2="-9.31" xlink:href="#a"/><linearGradient id="jt" x1="-118.531" y1="-119.384" x2="-9.219" y2="-9.289" xlink:href="#a"/><linearGradient id="ju" x1="-118.427" y1="-119.363" x2="-9.192" y2="-9.268" xlink:href="#a"/><linearGradient id="jv" x1="-118.443" y1="-119.32" x2="-9.174" y2="-9.245" xlink:href="#a"/><linearGradient id="jw" x1="-118.389" y1="-119.297" x2="-9.15" y2="-9.224" xlink:href="#a"/><linearGradient id="jx" x1="-118.368" y1="-119.303" x2="-9.129" y2="-9.205" xlink:href="#a"/><linearGradient id="jy" x1="-118.371" y1="-119.279" x2="-9.11" y2="-9.184" xlink:href="#a"/><linearGradient id="jz" x1="-118.35" y1="-119.258" x2="-9.09" y2="-9.163" xlink:href="#a"/></defs><g class="a" transform="translate(0 0)"><circle class="b" cx="39.207" cy="39.207" r="39.207" transform="translate(202.941 104.606)"/><circle class="c" cx="15.577" cy="15.577" r="15.577" transform="translate(61.428 52.219)"/><g transform="translate(19.004 0)"><g transform="translate(0 0)"><path class="d" d="M561.482,194.39a.676.676,0,1,0-.955,0A.676.676,0,0,0,561.482,194.39Z" transform="translate(-560.328 -118.772)"/><path class="e" d="M555.68,188.588a.676.676,0,1,0-.955,0A.675.675,0,0,0,555.68,188.588Z" transform="translate(-547.08 -120.417)"/><path class="f" d="M549.878,182.786a.676.676,0,1,0-.956,0A.675.675,0,0,0,549.878,182.786Z" transform="translate(-533.831 -122.061)"/><path class="g" d="M544.078,176.984a.676.676,0,1,0-.956,0A.676.676,0,0,0,544.078,176.984Z" transform="translate(-520.584 -123.706)"/><ellipse class="h" cx="0.676" cy="0.676" rx="0.676" ry="0.676" transform="translate(29.786 44.678)"/><path class="i" d="M532.473,165.381a.676.676,0,1,0-.956,0A.676.676,0,0,0,532.473,165.381Z" transform="translate(-494.088 -126.995)"/><ellipse class="j" cx="0.676" cy="0.676" rx="0.676" ry="0.676" transform="translate(44.678 29.786)"/><path class="k" d="M520.87,153.778a.676.676,0,1,0-.955,0A.675.675,0,0,0,520.87,153.778Z" transform="translate(-467.592 -130.285)"/><path class="l" d="M515.068,147.976a.676.676,0,1,0-.955,0A.676.676,0,0,0,515.068,147.976Z" transform="translate(-454.343 -131.929)"/><path class="m" d="M509.266,142.174a.676.676,0,1,0-.956,0A.675.675,0,0,0,509.266,142.174Z" transform="translate(-441.095 -133.574)"/><path class="n" d="M503.466,136.372a.676.676,0,1,0-.956,0A.676.676,0,0,0,503.466,136.372Z" transform="translate(-427.848 -135.219)"/></g><g transform="translate(7.486 7.486)"><path class="o" d="M555.648,200.222a.675.675,0,1,0-.955,0A.674.674,0,0,0,555.648,200.222Z" transform="translate(-554.495 -124.605)"/><ellipse class="p" cx="0.676" cy="0.676" rx="0.676" ry="0.676" transform="translate(7.446 67.017)"/><path class="q" d="M544.047,188.619a.676.676,0,1,0-.956,0A.678.678,0,0,0,544.047,188.619Z" transform="translate(-528 -127.894)"/><path class="r" d="M538.244,182.817a.675.675,0,1,0-.955,0A.674.674,0,0,0,538.244,182.817Z" transform="translate(-514.752 -129.539)"/><path class="s" d="M532.442,177.015a.676.676,0,1,0-.956,0A.674.674,0,0,0,532.442,177.015Z" transform="translate(-501.503 -131.184)"/><path class="t" d="M526.641,171.214a.676.676,0,1,0-.956,0A.678.678,0,0,0,526.641,171.214Z" transform="translate(-488.255 -132.828)"/><path class="u" d="M520.839,165.412a.676.676,0,1,0-.955,0A.675.675,0,0,0,520.839,165.412Z" transform="translate(-475.008 -134.473)"/><path class="v" d="M515.036,159.61a.675.675,0,1,0-.955,0A.674.674,0,0,0,515.036,159.61Z" transform="translate(-461.759 -136.118)"/><ellipse class="w" cx="0.676" cy="0.676" rx="0.676" ry="0.676" transform="translate(59.571 14.893)"/><path class="x" d="M503.435,148.007a.676.676,0,1,0-.956,0A.678.678,0,0,0,503.435,148.007Z" transform="translate(-435.264 -139.407)"/><path class="y" d="M497.632,142.2a.675.675,0,1,0-.955,0A.674.674,0,0,0,497.632,142.2Z" transform="translate(-422.015 -141.051)"/></g><g transform="translate(14.973 14.972)"><path class="z" d="M549.816,206.055a.676.676,0,1,0-.956,0A.676.676,0,0,0,549.816,206.055Z" transform="translate(-548.662 -130.438)"/><path class="aa" d="M544.016,200.253a.676.676,0,1,0-.956,0A.676.676,0,0,0,544.016,200.253Z" transform="translate(-535.415 -132.082)"/><path class="ab" d="M538.213,194.452a.676.676,0,1,0-.955,0A.676.676,0,0,0,538.213,194.452Z" transform="translate(-522.167 -133.727)"/><ellipse class="ac" cx="0.676" cy="0.676" rx="0.676" ry="0.676" transform="translate(22.339 52.124)"/><path class="ad" d="M526.61,182.848a.676.676,0,1,0-.956,0A.676.676,0,0,0,526.61,182.848Z" transform="translate(-495.671 -137.016)"/><ellipse class="ae" cx="0.676" cy="0.676" rx="0.676" ry="0.676" transform="translate(37.232 37.232)"/><path class="af" d="M515.006,171.245a.676.676,0,1,0-.955,0A.676.676,0,0,0,515.006,171.245Z" transform="translate(-469.174 -140.306)"/><path class="ag" d="M509.2,165.443a.676.676,0,1,0-.956,0A.676.676,0,0,0,509.2,165.443Z" transform="translate(-455.926 -141.95)"/><path class="ah" d="M503.4,159.641a.676.676,0,1,0-.956,0A.676.676,0,0,0,503.4,159.641Z" transform="translate(-442.679 -143.595)"/><ellipse class="ai" cx="0.676" cy="0.676" rx="0.676" ry="0.676" transform="translate(67.017 7.446)"/><ellipse class="aj" cx="0.676" cy="0.676" rx="0.676" ry="0.676" transform="translate(74.463 0)"/></g><g transform="translate(22.458 22.458)"><path class="ak" d="M543.985,211.888a.676.676,0,1,0-.956,0A.678.678,0,0,0,543.985,211.888Z" transform="translate(-542.83 -136.27)"/><ellipse class="al" cx="0.676" cy="0.676" rx="0.676" ry="0.676" transform="translate(7.447 67.018)"/><ellipse class="am" cx="0.676" cy="0.676" rx="0.676" ry="0.676" transform="translate(14.893 59.571)"/><path class="an" d="M526.579,194.483a.676.676,0,1,0-.956,0A.678.678,0,0,0,526.579,194.483Z" transform="translate(-503.085 -141.204)"/><path class="ao" d="M520.778,188.681a.676.676,0,1,0-.956,0A.678.678,0,0,0,520.778,188.681Z" transform="translate(-489.838 -142.848)"/><path class="ap" d="M514.975,182.879a.675.675,0,1,0-.955,0A.674.674,0,0,0,514.975,182.879Z" transform="translate(-476.589 -144.493)"/><ellipse class="aq" cx="0.676" cy="0.676" rx="0.676" ry="0.676" transform="translate(44.679 29.786)"/><path class="ar" d="M503.373,171.276a.676.676,0,1,0-.956,0A.678.678,0,0,0,503.373,171.276Z" transform="translate(-450.094 -147.782)"/><ellipse class="as" cx="0.676" cy="0.676" rx="0.676" ry="0.676" transform="translate(59.571 14.893)"/><path class="at" d="M491.768,159.672a.675.675,0,1,0-.955,0A.674.674,0,0,0,491.768,159.672Z" transform="translate(-423.597 -151.072)"/><path class="au" d="M485.967,153.871a.676.676,0,1,0-.956,0A.678.678,0,0,0,485.967,153.871Z" transform="translate(-410.349 -152.716)"/></g><g transform="translate(29.945 29.945)"><path class="av" d="M538.151,217.72a.675.675,0,1,0-.955,0A.674.674,0,0,0,538.151,217.72Z" transform="translate(-536.997 -142.103)"/><path class="aw" d="M532.349,211.919a.676.676,0,1,0-.955,0A.676.676,0,0,0,532.349,211.919Z" transform="translate(-523.749 -143.748)"/><path class="ax" d="M526.548,206.117a.676.676,0,1,0-.956,0A.678.678,0,0,0,526.548,206.117Z" transform="translate(-510.501 -145.392)"/><path class="ay" d="M520.747,200.315a.676.676,0,1,0-.956,0A.676.676,0,0,0,520.747,200.315Z" transform="translate(-497.253 -147.037)"/><ellipse class="az" cx="0.676" cy="0.676" rx="0.676" ry="0.676" transform="translate(29.785 44.678)"/><ellipse class="ba" cx="0.676" cy="0.676" rx="0.676" ry="0.676" transform="translate(37.232 37.232)"/><ellipse class="bb" cx="0.676" cy="0.676" rx="0.676" ry="0.676" transform="translate(44.678 29.785)"/><path class="bc" d="M497.539,177.108a.675.675,0,1,0-.955,0A.674.674,0,0,0,497.539,177.108Z" transform="translate(-444.261 -153.616)"/><path class="bd" d="M491.737,171.307a.676.676,0,1,0-.955,0A.675.675,0,0,0,491.737,171.307Z" transform="translate(-431.012 -155.26)"/><path class="be" d="M485.936,165.5a.676.676,0,1,0-.956,0A.678.678,0,0,0,485.936,165.5Z" transform="translate(-417.765 -156.905)"/><path class="bf" d="M480.135,159.7a.676.676,0,1,0-.956,0A.676.676,0,0,0,480.135,159.7Z" transform="translate(-404.517 -158.549)"/></g><g transform="translate(37.431 37.431)"><ellipse class="bg" cx="0.676" cy="0.676" rx="0.676" ry="0.676" transform="translate(0 74.464)"/><path class="bh" d="M526.516,217.752a.676.676,0,1,0-.956,0A.675.675,0,0,0,526.516,217.752Z" transform="translate(-517.916 -149.581)"/><path class="bi" d="M520.716,211.95a.676.676,0,1,0-.956,0A.678.678,0,0,0,520.716,211.95Z" transform="translate(-504.669 -151.225)"/><ellipse class="bj" cx="0.676" cy="0.676" rx="0.676" ry="0.676" transform="translate(22.339 52.124)"/><path class="bk" d="M509.111,200.346a.676.676,0,1,0-.956,0A.674.674,0,0,0,509.111,200.346Z" transform="translate(-478.172 -154.514)"/><ellipse class="bl" cx="0.676" cy="0.676" rx="0.676" ry="0.676" transform="translate(37.232 37.232)"/><path class="bm" d="M497.508,188.743a.676.676,0,1,0-.955,0A.676.676,0,0,0,497.508,188.743Z" transform="translate(-451.676 -157.804)"/><path class="bn" d="M491.706,182.941a.675.675,0,1,0-.955,0A.674.674,0,0,0,491.706,182.941Z" transform="translate(-438.428 -159.448)"/><path class="bo" d="M485.9,177.14a.676.676,0,1,0-.956,0A.678.678,0,0,0,485.9,177.14Z" transform="translate(-425.18 -161.093)"/><path class="bp" d="M480.1,171.338a.676.676,0,1,0-.956,0A.678.678,0,0,0,480.1,171.338Z" transform="translate(-411.932 -162.738)"/><ellipse class="bq" cx="0.676" cy="0.676" rx="0.676" ry="0.676" transform="translate(74.464 0)"/></g><g transform="translate(44.917 44.917)"><path class="br" d="M526.485,229.386a.676.676,0,1,0-.956,0A.675.675,0,0,0,526.485,229.386Z" transform="translate(-525.331 -153.769)"/><path class="bs" d="M520.685,223.584a.676.676,0,1,0-.956,0A.676.676,0,0,0,520.685,223.584Z" transform="translate(-512.084 -155.414)"/><ellipse class="bt" cx="0.676" cy="0.676" rx="0.676" ry="0.676" transform="translate(14.893 59.571)"/><ellipse class="bu" cx="0.676" cy="0.676" rx="0.676" ry="0.676" transform="translate(22.339 52.124)"/><path class="bv" d="M503.279,206.179a.676.676,0,1,0-.956,0A.678.678,0,0,0,503.279,206.179Z" transform="translate(-472.34 -160.347)"/><path class="bw" d="M497.477,200.377a.675.675,0,1,0-.955,0A.674.674,0,0,0,497.477,200.377Z" transform="translate(-459.092 -161.992)"/><path class="bx" d="M491.675,194.576a.676.676,0,1,0-.955,0A.675.675,0,0,0,491.675,194.576Z" transform="translate(-445.843 -163.637)"/><path class="by" d="M485.873,188.774a.676.676,0,1,0-.956,0A.675.675,0,0,0,485.873,188.774Z" transform="translate(-432.595 -165.281)"/><path class="bz" d="M480.073,182.972a.676.676,0,1,0-.956,0A.676.676,0,0,0,480.073,182.972Z" transform="translate(-419.348 -166.926)"/><ellipse class="ca" cx="0.676" cy="0.676" rx="0.676" ry="0.676" transform="translate(67.017 7.446)"/><path class="cb" d="M468.468,171.369a.676.676,0,1,0-.956,0A.675.675,0,0,0,468.468,171.369Z" transform="translate(-392.851 -170.215)"/></g><g transform="translate(52.403 52.403)"><path class="cc" d="M520.654,235.219a.676.676,0,1,0-.956,0A.678.678,0,0,0,520.654,235.219Z" transform="translate(-519.499 -159.601)"/><path class="cd" d="M514.851,229.417a.676.676,0,1,0-.955,0A.675.675,0,0,0,514.851,229.417Z" transform="translate(-506.251 -161.246)"/><ellipse class="ce" cx="0.676" cy="0.676" rx="0.676" ry="0.676" transform="translate(14.893 59.571)"/><ellipse class="cf" cx="0.676" cy="0.676" rx="0.676" ry="0.676" transform="translate(22.339 52.124)"/><path class="cg" d="M497.447,212.012a.676.676,0,1,0-.956,0A.678.678,0,0,0,497.447,212.012Z" transform="translate(-466.506 -166.18)"/><path class="ch" d="M491.644,206.21a.675.675,0,1,0-.955,0A.674.674,0,0,0,491.644,206.21Z" transform="translate(-453.258 -167.825)"/><path class="ci" d="M485.842,200.408a.676.676,0,1,0-.956,0A.674.674,0,0,0,485.842,200.408Z" transform="translate(-440.01 -169.469)"/><path class="cj" d="M480.042,194.607a.676.676,0,1,0-.956,0A.678.678,0,0,0,480.042,194.607Z" transform="translate(-426.763 -171.114)"/><path class="ck" d="M474.239,188.8a.676.676,0,1,0-.955,0A.675.675,0,0,0,474.239,188.8Z" transform="translate(-413.514 -172.758)"/><ellipse class="cl" cx="0.676" cy="0.676" rx="0.676" ry="0.676" transform="translate(67.018 7.446)"/><ellipse class="cm" cx="0.676" cy="0.676" rx="0.676" ry="0.676" transform="translate(74.464 0)"/></g><g transform="translate(59.889 59.889)"><ellipse class="cn" cx="0.676" cy="0.676" rx="0.676" ry="0.676" transform="translate(0 74.464)"/><path class="co" d="M509.018,235.25a.676.676,0,1,0-.956,0A.675.675,0,0,0,509.018,235.25Z" transform="translate(-500.418 -167.079)"/><path class="cp" d="M503.217,229.448a.676.676,0,1,0-.956,0A.678.678,0,0,0,503.217,229.448Z" transform="translate(-487.17 -168.723)"/><ellipse class="cq" cx="0.676" cy="0.676" rx="0.676" ry="0.676" transform="translate(22.339 52.124)"/><path class="cr" d="M491.613,217.845a.676.676,0,1,0-.955,0A.675.675,0,0,0,491.613,217.845Z" transform="translate(-460.674 -172.013)"/><ellipse class="cs" cx="0.676" cy="0.676" rx="0.676" ry="0.676" transform="translate(37.232 37.232)"/><path class="ct" d="M480.011,206.241a.676.676,0,1,0-.956,0A.676.676,0,0,0,480.011,206.241Z" transform="translate(-434.178 -175.302)"/><ellipse class="cu" cx="0.676" cy="0.676" rx="0.676" ry="0.676" transform="translate(52.125 22.339)"/><path class="cv" d="M468.406,194.638a.676.676,0,1,0-.956,0A.675.675,0,0,0,468.406,194.638Z" transform="translate(-407.682 -178.591)"/><path class="cw" d="M462.6,188.836a.676.676,0,1,0-.956,0A.678.678,0,0,0,462.6,188.836Z" transform="translate(-394.434 -180.236)"/><path class="cx" d="M456.8,183.034a.676.676,0,1,0-.956,0A.676.676,0,0,0,456.8,183.034Z" transform="translate(-381.186 -181.88)"/></g><g transform="translate(67.376 67.376)"><path class="cy" d="M508.987,246.884a.675.675,0,1,0-.955,0A.674.674,0,0,0,508.987,246.884Z" transform="translate(-507.833 -171.267)"/><path class="cz" d="M503.186,241.082a.676.676,0,1,0-.956,0A.676.676,0,0,0,503.186,241.082Z" transform="translate(-494.586 -172.911)"/><path class="da" d="M497.385,235.281a.676.676,0,1,0-.956,0A.678.678,0,0,0,497.385,235.281Z" transform="translate(-481.338 -174.556)"/><path class="db" d="M491.582,229.479a.676.676,0,1,0-.955,0A.675.675,0,0,0,491.582,229.479Z" transform="translate(-468.09 -176.201)"/><ellipse class="dc" cx="0.676" cy="0.676" rx="0.676" ry="0.676" transform="translate(29.785 44.678)"/><ellipse class="dd" cx="0.676" cy="0.676" rx="0.676" ry="0.676" transform="translate(37.231 37.232)"/><ellipse class="de" cx="0.676" cy="0.676" rx="0.676" ry="0.676" transform="translate(44.678 29.785)"/><path class="df" d="M468.375,206.272a.675.675,0,1,0-.955,0A.674.674,0,0,0,468.375,206.272Z" transform="translate(-415.097 -182.779)"/><path class="dg" d="M462.574,200.47a.676.676,0,1,0-.956,0A.676.676,0,0,0,462.574,200.47Z" transform="translate(-401.849 -184.424)"/><path class="dh" d="M456.773,194.669a.676.676,0,1,0-.956,0A.678.678,0,0,0,456.773,194.669Z" transform="translate(-388.602 -186.069)"/><path class="di" d="M450.97,188.867a.676.676,0,1,0-.955,0A.676.676,0,0,0,450.97,188.867Z" transform="translate(-375.353 -187.713)"/></g><g transform="translate(74.862 74.862)"><path class="dj" d="M503.155,252.717a.676.676,0,1,0-.956,0A.678.678,0,0,0,503.155,252.717Z" transform="translate(-502.001 -177.1)"/><ellipse class="dk" cx="0.676" cy="0.676" rx="0.676" ry="0.676" transform="translate(7.446 67.017)"/><ellipse class="dl" cx="0.676" cy="0.676" rx="0.676" ry="0.676" transform="translate(14.892 59.57)"/><path class="dm" d="M485.749,235.312a.676.676,0,1,0-.956,0A.676.676,0,0,0,485.749,235.312Z" transform="translate(-462.257 -182.034)"/><path class="dn" d="M479.949,229.51a.676.676,0,1,0-.956,0A.678.678,0,0,0,479.949,229.51Z" transform="translate(-449.01 -183.678)"/><path class="do" d="M474.146,223.708a.675.675,0,1,0-.955,0A.674.674,0,0,0,474.146,223.708Z" transform="translate(-435.761 -185.323)"/><ellipse class="dp" cx="0.676" cy="0.676" rx="0.676" ry="0.676" transform="translate(44.678 29.785)"/><path class="dq" d="M462.543,212.1a.676.676,0,1,0-.956,0A.678.678,0,0,0,462.543,212.1Z" transform="translate(-409.265 -188.612)"/><ellipse class="dr" cx="0.676" cy="0.676" rx="0.676" ry="0.676" transform="translate(59.57 14.892)"/><path class="ds" d="M450.939,200.5a.675.675,0,1,0-.955,0A.674.674,0,0,0,450.939,200.5Z" transform="translate(-382.769 -191.902)"/><path class="dt" d="M445.137,194.7a.676.676,0,1,0-.956,0A.676.676,0,0,0,445.137,194.7Z" transform="translate(-369.52 -193.546)"/></g><g transform="translate(82.348 82.348)"><path class="du" d="M497.323,258.55a.676.676,0,1,0-.956,0A.678.678,0,0,0,497.323,258.55Z" transform="translate(-496.168 -182.932)"/><path class="dv" d="M491.52,252.748a.676.676,0,1,0-.955,0A.675.675,0,0,0,491.52,252.748Z" transform="translate(-482.92 -184.577)"/><path class="dw" d="M485.718,246.946a.676.676,0,1,0-.956,0A.674.674,0,0,0,485.718,246.946Z" transform="translate(-469.671 -186.222)"/><ellipse class="dx" cx="0.676" cy="0.676" rx="0.676" ry="0.676" transform="translate(22.339 52.124)"/><path class="dy" d="M474.115,235.343a.676.676,0,1,0-.955,0A.675.675,0,0,0,474.115,235.343Z" transform="translate(-443.176 -189.511)"/><ellipse class="dz" cx="0.676" cy="0.676" rx="0.676" ry="0.676" transform="translate(37.232 37.232)"/><path class="ea" d="M462.512,223.739a.676.676,0,1,0-.956,0A.676.676,0,0,0,462.512,223.739Z" transform="translate(-416.68 -192.8)"/><path class="eb" d="M456.711,217.938a.676.676,0,1,0-.956,0A.678.678,0,0,0,456.711,217.938Z" transform="translate(-403.432 -194.445)"/><path class="ec" d="M450.908,212.136a.676.676,0,1,0-.955,0A.675.675,0,0,0,450.908,212.136Z" transform="translate(-390.183 -196.089)"/><ellipse class="ed" cx="0.676" cy="0.676" rx="0.676" ry="0.676" transform="translate(67.018 7.446)"/><ellipse class="ee" cx="0.676" cy="0.676" rx="0.676" ry="0.676" transform="translate(74.464 0)"/></g><g transform="translate(89.834 89.834)"><path class="ef" d="M491.489,264.382a.675.675,0,1,0-.955,0A.674.674,0,0,0,491.489,264.382Z" transform="translate(-490.335 -188.765)"/><ellipse class="eg" cx="0.676" cy="0.676" rx="0.676" ry="0.676" transform="translate(7.446 67.017)"/><path class="eh" d="M479.886,252.779a.676.676,0,1,0-.956,0A.678.678,0,0,0,479.886,252.779Z" transform="translate(-463.839 -192.054)"/><path class="ei" d="M474.084,246.977a.675.675,0,1,0-.955,0A.674.674,0,0,0,474.084,246.977Z" transform="translate(-450.592 -193.699)"/><path class="ej" d="M468.282,241.176a.676.676,0,1,0-.955,0A.676.676,0,0,0,468.282,241.176Z" transform="translate(-437.343 -195.344)"/><path class="ek" d="M462.48,235.374a.676.676,0,1,0-.956,0A.676.676,0,0,0,462.48,235.374Z" transform="translate(-424.095 -196.988)"/><path class="el" d="M456.68,229.572a.676.676,0,1,0-.956,0A.678.678,0,0,0,456.68,229.572Z" transform="translate(-410.847 -198.633)"/><path class="em" d="M450.877,223.77a.675.675,0,1,0-.955,0A.674.674,0,0,0,450.877,223.77Z" transform="translate(-397.599 -200.278)"/><ellipse class="en" cx="0.676" cy="0.676" rx="0.676" ry="0.676" transform="translate(59.571 14.893)"/><path class="eo" d="M439.274,212.167a.676.676,0,1,0-.956,0A.678.678,0,0,0,439.274,212.167Z" transform="translate(-371.103 -203.567)"/><path class="ep" d="M433.472,206.365a.675.675,0,1,0-.955,0A.674.674,0,0,0,433.472,206.365Z" transform="translate(-357.855 -205.211)"/></g><g transform="translate(97.32 97.32)"><path class="eq" d="M485.656,270.215a.676.676,0,1,0-.956,0A.674.674,0,0,0,485.656,270.215Z" transform="translate(-484.502 -194.598)"/><path class="er" d="M479.855,264.413a.676.676,0,1,0-.956,0A.676.676,0,0,0,479.855,264.413Z" transform="translate(-471.255 -196.243)"/><path class="es" d="M474.054,258.612a.676.676,0,1,0-.956,0A.678.678,0,0,0,474.054,258.612Z" transform="translate(-458.007 -197.887)"/><path class="et" d="M468.251,252.81a.676.676,0,1,0-.955,0A.675.675,0,0,0,468.251,252.81Z" transform="translate(-444.758 -199.532)"/><ellipse class="eu" cx="0.676" cy="0.676" rx="0.676" ry="0.676" transform="translate(29.785 44.678)"/><path class="ev" d="M456.649,241.207a.676.676,0,1,0-.956,0A.678.678,0,0,0,456.649,241.207Z" transform="translate(-418.263 -202.821)"/><ellipse class="ew" cx="0.676" cy="0.676" rx="0.676" ry="0.676" transform="translate(44.678 29.785)"/><path class="ex" d="M445.044,229.6a.676.676,0,1,0-.956,0A.674.674,0,0,0,445.044,229.6Z" transform="translate(-391.766 -206.11)"/><path class="ey" d="M439.243,223.8a.676.676,0,1,0-.956,0A.676.676,0,0,0,439.243,223.8Z" transform="translate(-378.518 -207.755)"/><path class="ez" d="M433.441,218a.676.676,0,1,0-.955,0A.675.675,0,0,0,433.441,218Z" transform="translate(-365.27 -209.4)"/><path class="fa" d="M427.639,212.2a.676.676,0,1,0-.955,0A.675.675,0,0,0,427.639,212.2Z" transform="translate(-352.022 -211.044)"/></g><g transform="translate(104.807 104.807)"><path class="fb" d="M479.824,276.048a.676.676,0,1,0-.956,0A.678.678,0,0,0,479.824,276.048Z" transform="translate(-478.67 -200.431)"/><path class="fc" d="M474.023,270.246a.676.676,0,1,0-.956,0A.676.676,0,0,0,474.023,270.246Z" transform="translate(-465.422 -202.076)"/><path class="fd" d="M468.22,264.444a.675.675,0,1,0-.955,0A.674.674,0,0,0,468.22,264.444Z" transform="translate(-452.174 -203.72)"/><path class="fe" d="M462.418,258.643a.676.676,0,1,0-.956,0A.676.676,0,0,0,462.418,258.643Z" transform="translate(-438.926 -205.365)"/><path class="ff" d="M456.618,252.841a.676.676,0,1,0-.956,0A.678.678,0,0,0,456.618,252.841Z" transform="translate(-425.679 -207.01)"/><path class="fg" d="M450.815,247.039a.675.675,0,1,0-.955,0A.674.674,0,0,0,450.815,247.039Z" transform="translate(-412.43 -208.654)"/><ellipse class="fh" cx="0.676" cy="0.676" rx="0.676" ry="0.676" transform="translate(44.678 29.785)"/><ellipse class="fi" cx="0.676" cy="0.676" rx="0.676" ry="0.676" transform="translate(52.124 22.339)"/><path class="fj" d="M433.411,229.634a.676.676,0,1,0-.956,0A.676.676,0,0,0,433.411,229.634Z" transform="translate(-372.686 -213.588)"/><path class="fk" d="M427.608,223.832a.675.675,0,1,0-.955,0A.674.674,0,0,0,427.608,223.832Z" transform="translate(-359.438 -215.233)"/><path class="fl" d="M421.806,218.031a.676.676,0,1,0-.956,0A.675.675,0,0,0,421.806,218.031Z" transform="translate(-346.189 -216.877)"/></g><g transform="translate(112.293 112.293)"><ellipse class="fm" cx="0.676" cy="0.676" rx="0.676" ry="0.676" transform="translate(0 74.463)"/><path class="fn" d="M468.189,276.079a.676.676,0,1,0-.955,0A.675.675,0,0,0,468.189,276.079Z" transform="translate(-459.589 -207.908)"/><path class="fo" d="M462.387,270.277a.676.676,0,1,0-.956,0A.674.674,0,0,0,462.387,270.277Z" transform="translate(-446.341 -209.552)"/><ellipse class="fp" cx="0.676" cy="0.676" rx="0.676" ry="0.676" transform="translate(22.339 52.124)"/><path class="fq" d="M450.784,258.674a.676.676,0,1,0-.955,0A.675.675,0,0,0,450.784,258.674Z" transform="translate(-419.845 -212.842)"/><ellipse class="fr" cx="0.676" cy="0.676" rx="0.676" ry="0.676" transform="translate(37.232 37.232)"/><path class="fs" d="M439.181,247.07a.676.676,0,1,0-.956,0A.676.676,0,0,0,439.181,247.07Z" transform="translate(-393.349 -216.131)"/><ellipse class="ft" cx="0.676" cy="0.676" rx="0.676" ry="0.676" transform="translate(52.124 22.339)"/><path class="fu" d="M427.577,235.467a.676.676,0,1,0-.955,0A.675.675,0,0,0,427.577,235.467Z" transform="translate(-366.852 -219.42)"/><path class="fv" d="M421.775,229.665a.676.676,0,1,0-.956,0A.674.674,0,0,0,421.775,229.665Z" transform="translate(-353.604 -221.065)"/><ellipse class="fw" cx="0.676" cy="0.676" rx="0.676" ry="0.676" transform="translate(74.464 0)"/></g><g transform="translate(119.779 119.779)"><path class="fx" d="M468.158,287.713a.675.675,0,1,0-.955,0A.674.674,0,0,0,468.158,287.713Z" transform="translate(-467.005 -212.096)"/><path class="fy" d="M462.356,281.912a.676.676,0,1,0-.956,0A.676.676,0,0,0,462.356,281.912Z" transform="translate(-453.756 -213.741)"/><path class="fz" d="M456.556,276.11a.676.676,0,1,0-.956,0A.678.678,0,0,0,456.556,276.11Z" transform="translate(-440.509 -215.385)"/><path class="ga" d="M450.753,270.308a.675.675,0,1,0-.955,0A.674.674,0,0,0,450.753,270.308Z" transform="translate(-427.261 -217.03)"/><ellipse class="gb" cx="0.676" cy="0.676" rx="0.676" ry="0.676" transform="translate(29.785 44.678)"/><path class="gc" d="M439.15,258.7a.676.676,0,1,0-.956,0A.678.678,0,0,0,439.15,258.7Z" transform="translate(-400.764 -220.319)"/><ellipse class="gd" cx="0.676" cy="0.676" rx="0.676" ry="0.676" transform="translate(44.678 29.785)"/><path class="ge" d="M427.546,247.1a.675.675,0,1,0-.955,0A.674.674,0,0,0,427.546,247.1Z" transform="translate(-374.268 -223.609)"/><ellipse class="gf" cx="0.676" cy="0.676" rx="0.676" ry="0.676" transform="translate(59.571 14.893)"/><ellipse class="gg" cx="0.676" cy="0.676" rx="0.676" ry="0.676" transform="translate(67.017 7.446)"/><path class="gh" d="M410.141,229.7a.675.675,0,1,0-.955,0A.674.674,0,0,0,410.141,229.7Z" transform="translate(-334.524 -228.543)"/></g><g transform="translate(127.265 127.265)"><ellipse class="gi" cx="0.676" cy="0.676" rx="0.676" ry="0.676" transform="translate(0 74.463)"/><path class="gj" d="M456.524,287.744a.676.676,0,1,0-.956,0A.676.676,0,0,0,456.524,287.744Z" transform="translate(-447.923 -219.573)"/><path class="gk" d="M450.722,281.943a.676.676,0,1,0-.955,0A.675.675,0,0,0,450.722,281.943Z" transform="translate(-434.676 -221.218)"/><path class="gl" d="M444.92,276.141a.676.676,0,1,0-.955,0A.675.675,0,0,0,444.92,276.141Z" transform="translate(-421.427 -222.863)"/><path class="gm" d="M439.118,270.339a.676.676,0,1,0-.956,0A.674.674,0,0,0,439.118,270.339Z" transform="translate(-408.179 -224.507)"/><path class="gn" d="M433.318,264.538a.676.676,0,1,0-.956,0A.678.678,0,0,0,433.318,264.538Z" transform="translate(-394.932 -226.152)"/><circle class="go" cx="0.676" cy="0.676" r="0.676" transform="translate(44.678 29.785)"/><ellipse class="gp" cx="0.676" cy="0.676" rx="0.676" ry="0.676" transform="translate(52.124 22.339)"/><path class="gq" d="M415.912,247.132a.676.676,0,1,0-.956,0A.676.676,0,0,0,415.912,247.132Z" transform="translate(-355.187 -231.086)"/><path class="gr" d="M410.11,241.331a.676.676,0,1,0-.955,0A.676.676,0,0,0,410.11,241.331Z" transform="translate(-341.939 -232.731)"/><path class="gs" d="M404.308,235.529a.676.676,0,1,0-.955,0A.676.676,0,0,0,404.308,235.529Z" transform="translate(-328.691 -234.375)"/></g><g transform="translate(134.751 134.751)"><ellipse class="gt" cx="0.676" cy="0.676" rx="0.676" ry="0.676" transform="translate(0 74.464)"/><path class="gu" d="M450.691,293.577a.676.676,0,1,0-.955,0A.676.676,0,0,0,450.691,293.577Z" transform="translate(-442.091 -225.406)"/><path class="gv" d="M444.889,287.775a.675.675,0,1,0-.955,0A.674.674,0,0,0,444.889,287.775Z" transform="translate(-428.842 -227.05)"/><path class="gw" d="M439.087,281.974a.676.676,0,1,0-.956,0A.675.675,0,0,0,439.087,281.974Z" transform="translate(-415.594 -228.695)"/><path class="gx" d="M433.287,276.172a.676.676,0,1,0-.956,0A.678.678,0,0,0,433.287,276.172Z" transform="translate(-402.347 -230.34)"/><ellipse class="gy" cx="0.676" cy="0.676" rx="0.676" ry="0.676" transform="translate(37.232 37.232)"/><ellipse class="gz" cx="0.676" cy="0.676" rx="0.676" ry="0.676" transform="translate(44.678 29.786)"/><path class="ha" d="M415.881,258.767a.676.676,0,1,0-.956,0A.678.678,0,0,0,415.881,258.767Z" transform="translate(-362.602 -235.273)"/><path class="hb" d="M410.079,252.965a.675.675,0,1,0-.955,0A.674.674,0,0,0,410.079,252.965Z" transform="translate(-349.355 -236.918)"/><path class="hc" d="M404.277,247.163a.675.675,0,1,0-.955,0A.674.674,0,0,0,404.277,247.163Z" transform="translate(-336.106 -238.563)"/><path class="hd" d="M398.475,241.362a.676.676,0,1,0-.956,0A.675.675,0,0,0,398.475,241.362Z" transform="translate(-322.858 -240.207)"/></g><g transform="translate(142.237 142.237)"><path class="he" d="M450.661,305.212a.676.676,0,1,0-.956,0A.678.678,0,0,0,450.661,305.212Z" transform="translate(-449.506 -229.594)"/><path class="hf" d="M444.858,299.41a.676.676,0,1,0-.955,0A.675.675,0,0,0,444.858,299.41Z" transform="translate(-436.258 -231.239)"/><path class="hg" d="M439.056,293.608a.676.676,0,1,0-.956,0A.674.674,0,0,0,439.056,293.608Z" transform="translate(-423.009 -232.883)"/><path class="hh" d="M433.256,287.806a.676.676,0,1,0-.956,0A.676.676,0,0,0,433.256,287.806Z" transform="translate(-409.762 -234.528)"/><path class="hi" d="M427.453,282a.676.676,0,1,0-.955,0A.675.675,0,0,0,427.453,282Z" transform="translate(-396.514 -236.173)"/><path class="hj" d="M421.651,276.2a.676.676,0,1,0-.956,0A.675.675,0,0,0,421.651,276.2Z" transform="translate(-383.266 -237.817)"/><ellipse class="hk" cx="0.676" cy="0.676" rx="0.676" ry="0.676" transform="translate(44.678 29.786)"/><path class="hl" d="M410.049,264.6a.676.676,0,1,0-.956,0A.678.678,0,0,0,410.049,264.6Z" transform="translate(-356.77 -241.107)"/><path class="hm" d="M404.246,258.8a.676.676,0,1,0-.955,0A.675.675,0,0,0,404.246,258.8Z" transform="translate(-343.521 -242.751)"/><path class="hn" d="M398.444,253a.676.676,0,1,0-.956,0A.674.674,0,0,0,398.444,253Z" transform="translate(-330.273 -244.396)"/><path class="ho" d="M392.644,247.194a.676.676,0,1,0-.956,0A.676.676,0,0,0,392.644,247.194Z" transform="translate(-317.026 -246.04)"/></g><g transform="translate(149.724 149.724)"><path class="hp" d="M444.827,311.044a.675.675,0,1,0-.955,0A.674.674,0,0,0,444.827,311.044Z" transform="translate(-443.673 -235.427)"/><ellipse class="hq" cx="0.676" cy="0.676" rx="0.676" ry="0.676" transform="translate(7.446 67.017)"/><path class="hr" d="M433.225,299.441a.676.676,0,1,0-.956,0A.678.678,0,0,0,433.225,299.441Z" transform="translate(-417.178 -238.716)"/><path class="hs" d="M427.422,293.639a.675.675,0,1,0-.955,0A.674.674,0,0,0,427.422,293.639Z" transform="translate(-403.93 -240.361)"/><ellipse class="ht" cx="0.676" cy="0.676" rx="0.676" ry="0.676" transform="translate(29.785 44.678)"/><path class="hu" d="M415.819,282.036a.676.676,0,1,0-.956,0A.678.678,0,0,0,415.819,282.036Z" transform="translate(-377.433 -243.65)"/><path class="hv" d="M410.018,276.234a.676.676,0,1,0-.956,0A.678.678,0,0,0,410.018,276.234Z" transform="translate(-364.185 -245.295)"/><path class="hw" d="M404.215,270.432a.675.675,0,1,0-.955,0A.674.674,0,0,0,404.215,270.432Z" transform="translate(-350.937 -246.94)"/><path class="hx" d="M398.413,264.631a.676.676,0,1,0-.956,0A.675.675,0,0,0,398.413,264.631Z" transform="translate(-337.689 -248.584)"/><path class="hy" d="M392.613,258.829a.676.676,0,1,0-.956,0A.678.678,0,0,0,392.613,258.829Z" transform="translate(-324.442 -250.229)"/><path class="hz" d="M386.81,253.027a.675.675,0,1,0-.955,0A.674.674,0,0,0,386.81,253.027Z" transform="translate(-311.193 -251.873)"/></g><g transform="translate(157.21 157.21)"><path class="ia" d="M438.994,316.877a.676.676,0,1,0-.956,0A.676.676,0,0,0,438.994,316.877Z" transform="translate(-437.84 -241.26)"/><ellipse class="ib" cx="0.676" cy="0.676" rx="0.676" ry="0.676" transform="translate(7.446 67.017)"/><ellipse class="ic" cx="0.676" cy="0.676" rx="0.676" ry="0.676" transform="translate(14.893 59.571)"/><path class="id" d="M421.589,299.472a.676.676,0,1,0-.955,0A.676.676,0,0,0,421.589,299.472Z" transform="translate(-398.096 -246.194)"/><path class="ie" d="M415.788,293.67a.676.676,0,1,0-.956,0A.676.676,0,0,0,415.788,293.67Z" transform="translate(-384.849 -247.838)"/><ellipse class="if" cx="0.676" cy="0.676" rx="0.676" ry="0.676" transform="translate(37.232 37.232)"/><path class="ig" d="M404.184,282.067a.676.676,0,1,0-.955,0A.676.676,0,0,0,404.184,282.067Z" transform="translate(-358.352 -251.128)"/><ellipse class="ih" cx="0.676" cy="0.676" rx="0.676" ry="0.676" transform="translate(52.124 22.339)"/><path class="ii" d="M392.582,270.463a.676.676,0,1,0-.956,0A.676.676,0,0,0,392.582,270.463Z" transform="translate(-331.857 -254.417)"/><ellipse class="ij" cx="0.676" cy="0.676" rx="0.676" ry="0.676" transform="translate(67.017 7.446)"/><path class="ik" d="M380.977,258.86a.676.676,0,1,0-.955,0A.676.676,0,0,0,380.977,258.86Z" transform="translate(-305.36 -257.706)"/></g><g transform="translate(164.696 164.696)"><path class="il" d="M433.162,322.71a.676.676,0,1,0-.956,0A.678.678,0,0,0,433.162,322.71Z" transform="translate(-432.008 -247.092)"/><path class="im" d="M427.36,316.908a.676.676,0,1,0-.955,0A.676.676,0,0,0,427.36,316.908Z" transform="translate(-418.761 -248.737)"/><path class="in" d="M421.558,311.106a.675.675,0,1,0-.955,0A.674.674,0,0,0,421.558,311.106Z" transform="translate(-405.512 -250.381)"/><path class="io" d="M415.757,305.3a.676.676,0,1,0-.956,0A.678.678,0,0,0,415.757,305.3Z" transform="translate(-392.264 -252.026)"/><ellipse class="ip" cx="0.676" cy="0.676" rx="0.676" ry="0.676" transform="translate(29.785 44.679)"/><ellipse class="iq" cx="0.676" cy="0.676" rx="0.676" ry="0.676" transform="translate(37.231 37.232)"/><path class="ir" d="M398.351,287.9a.676.676,0,1,0-.956,0A.674.674,0,0,0,398.351,287.9Z" transform="translate(-352.52 -256.96)"/><path class="is" d="M392.551,282.1a.676.676,0,1,0-.956,0A.678.678,0,0,0,392.551,282.1Z" transform="translate(-339.273 -258.604)"/><path class="it" d="M386.748,276.3a.676.676,0,1,0-.955,0A.675.675,0,0,0,386.748,276.3Z" transform="translate(-326.024 -260.249)"/><path class="iu" d="M380.946,270.494a.675.675,0,1,0-.955,0A.674.674,0,0,0,380.946,270.494Z" transform="translate(-312.775 -261.894)"/><path class="iv" d="M375.145,264.693a.676.676,0,1,0-.956,0A.678.678,0,0,0,375.145,264.693Z" transform="translate(-299.528 -263.538)"/></g><g transform="translate(172.182 172.182)"><path class="iw" d="M427.329,328.543a.676.676,0,1,0-.955,0A.676.676,0,0,0,427.329,328.543Z" transform="translate(-426.176 -252.925)"/><ellipse class="ix" cx="0.676" cy="0.676" rx="0.676" ry="0.676" transform="translate(7.446 67.017)"/><path class="iy" d="M415.725,316.939a.676.676,0,1,0-.956,0A.675.675,0,0,0,415.725,316.939Z" transform="translate(-399.678 -256.214)"/><path class="iz" d="M409.925,311.137a.676.676,0,1,0-.956,0A.676.676,0,0,0,409.925,311.137Z" transform="translate(-386.431 -257.859)"/><ellipse class="ja" cx="0.676" cy="0.676" rx="0.676" ry="0.676" transform="translate(29.786 44.678)"/><path class="jb" d="M398.32,299.534a.676.676,0,1,0-.956,0A.675.675,0,0,0,398.32,299.534Z" transform="translate(-359.934 -261.148)"/><ellipse class="jc" cx="0.676" cy="0.676" rx="0.676" ry="0.676" transform="translate(44.678 29.786)"/><path class="jd" d="M386.717,287.931a.676.676,0,1,0-.955,0A.676.676,0,0,0,386.717,287.931Z" transform="translate(-333.439 -264.438)"/><ellipse class="je" cx="0.676" cy="0.676" rx="0.676" ry="0.676" transform="translate(59.571 14.893)"/><path class="jf" d="M375.114,276.327a.676.676,0,1,0-.956,0A.678.678,0,0,0,375.114,276.327Z" transform="translate(-306.943 -267.727)"/><path class="jg" d="M369.313,270.525a.676.676,0,1,0-.956,0A.676.676,0,0,0,369.313,270.525Z" transform="translate(-293.695 -269.371)"/></g><g transform="translate(179.668 179.669)"><path class="jh" d="M421.5,334.375a.675.675,0,1,0-.955,0A.674.674,0,0,0,421.5,334.375Z" transform="translate(-420.342 -258.758)"/><path class="ji" d="M415.694,328.574a.676.676,0,1,0-.956,0A.675.675,0,0,0,415.694,328.574Z" transform="translate(-407.094 -260.403)"/><path class="jj" d="M409.894,322.772a.676.676,0,1,0-.956,0A.678.678,0,0,0,409.894,322.772Z" transform="translate(-393.847 -262.047)"/><path class="jk" d="M404.091,316.97a.676.676,0,1,0-.955,0A.675.675,0,0,0,404.091,316.97Z" transform="translate(-380.599 -263.692)"/><path class="jl" d="M398.289,311.168a.676.676,0,1,0-.956,0A.674.674,0,0,0,398.289,311.168Z" transform="translate(-367.35 -265.337)"/><ellipse class="jm" cx="0.676" cy="0.676" rx="0.676" ry="0.676" transform="translate(37.232 37.232)"/><path class="jn" d="M386.686,299.565a.676.676,0,1,0-.955,0A.675.675,0,0,0,386.686,299.565Z" transform="translate(-340.855 -268.626)"/><path class="jo" d="M380.884,293.763a.675.675,0,1,0-.955,0A.674.674,0,0,0,380.884,293.763Z" transform="translate(-327.606 -270.271)"/><path class="jp" d="M375.082,287.962a.676.676,0,1,0-.956,0A.675.675,0,0,0,375.082,287.962Z" transform="translate(-314.358 -271.915)"/><path class="jq" d="M369.282,282.16a.676.676,0,1,0-.956,0A.678.678,0,0,0,369.282,282.16Z" transform="translate(-301.111 -273.56)"/><path class="jr" d="M363.479,276.358a.675.675,0,1,0-.955,0A.674.674,0,0,0,363.479,276.358Z" transform="translate(-287.862 -275.204)"/></g><g transform="translate(187.155 187.154)"><path class="js" d="M415.663,340.208a.676.676,0,1,0-.956,0A.675.675,0,0,0,415.663,340.208Z" transform="translate(-414.509 -264.591)"/><path class="jt" d="M409.863,334.406a.676.676,0,1,0-.956,0A.676.676,0,0,0,409.863,334.406Z" transform="translate(-401.262 -266.235)"/><ellipse class="ju" cx="0.676" cy="0.676" rx="0.676" ry="0.676" transform="translate(14.893 59.571)"/><ellipse class="jv" cx="0.676" cy="0.676" rx="0.676" ry="0.676" transform="translate(22.339 52.124)"/><path class="jw" d="M392.457,317a.676.676,0,1,0-.956,0A.676.676,0,0,0,392.457,317Z" transform="translate(-361.518 -271.169)"/><path class="jx" d="M386.656,311.2a.676.676,0,1,0-.956,0A.676.676,0,0,0,386.656,311.2Z" transform="translate(-348.27 -272.814)"/><path class="jy" d="M380.853,305.4a.676.676,0,1,0-.955,0A.676.676,0,0,0,380.853,305.4Z" transform="translate(-335.021 -274.459)"/><path class="jz" d="M375.051,299.6a.676.676,0,1,0-.956,0A.675.675,0,0,0,375.051,299.6Z" transform="translate(-321.773 -276.103)"/><path class="ka" d="M369.251,293.794a.676.676,0,1,0-.956,0A.676.676,0,0,0,369.251,293.794Z" transform="translate(-308.526 -277.748)"/><ellipse class="kb" cx="0.676" cy="0.676" rx="0.676" ry="0.676" transform="translate(67.017 7.446)"/><ellipse class="kc" cx="0.676" cy="0.676" rx="0.676" ry="0.676" transform="translate(74.463 0)"/></g></g><path class="kd" d="M0,0H84.417V84.417H0Z" transform="translate(59.692 217.699) rotate(-135)"/></g></svg>