<svg width="500" height="83" viewBox="0 0 500 83" fill="none" xmlns="http://www.w3.org/2000/svg">
<g clip-path="url(#clip0_1_3404)">
<path d="M0 25.3287C1.21816 25.3425 2.43631 25.3669 3.65562 25.3669C6.50143 25.3727 9.348 25.38 12.1946 25.3581C12.7013 25.3543 12.8547 25.5047 12.8452 26.011C12.818 27.7715 12.8348 29.5358 12.8348 31.2978V32.0249C12.8911 32.0498 12.9474 32.0739 13.0036 32.0992C13.1364 31.9235 13.2788 31.7547 13.4009 31.5714C15.3374 28.6892 17.7611 26.3582 21.1185 25.2606C27.3111 23.2349 33.9503 25.308 36.8428 33.0398C38.2546 36.8152 38.5685 40.7365 38.2925 44.7017C38.0223 48.5751 37.2079 52.3532 35.219 55.7458C32.3219 60.6889 27.9698 63.0475 22.228 62.5393C18.975 62.2511 16.1874 60.8087 13.8295 58.553C13.5702 58.2775 13.3274 57.9869 13.1024 57.6827C13.0285 57.7248 12.955 57.7658 12.8812 57.8075V75.1177H6.39427C6.37896 74.9405 6.35025 74.7695 6.35025 74.5988C6.36301 60.9315 6.37347 47.2643 6.38164 33.5971C6.38593 32.5598 6.3044 31.524 6.13785 30.5002C5.84776 28.7616 5.00083 27.9361 3.27253 27.6188C2.42898 27.4702 1.57714 27.3734 0.72178 27.3287C0.276309 27.3011 0.137389 27.1419 0.133179 26.7164C0.110423 26.2967 0.0659724 25.8785 0 25.4634V25.3287ZM12.8364 44.7143C12.8364 47.9895 12.8237 51.264 12.8567 54.5388C12.8671 54.7182 12.9132 54.8937 12.9925 55.055C13.0718 55.2163 13.1825 55.3601 13.3182 55.4779C15.7572 57.287 18.4109 58.6567 21.4611 59.0635C23.8243 59.3797 26.0026 58.9342 27.7918 57.222C29.2078 55.8679 30.0081 54.1622 30.5171 52.3145C31.7439 47.7451 31.9098 42.9557 31.0019 38.3124C30.5607 35.9013 29.8022 33.5978 28.3728 31.5634C26.4474 28.8228 23.8258 27.8174 20.647 28.7175C17.4411 29.6261 14.965 31.5955 13.0312 34.2668C12.8913 34.5186 12.8272 34.8053 12.8463 35.0927C12.8318 38.3005 12.8364 41.5072 12.8364 44.7143Z" fill="#0065FF"/>
<path d="M190.214 10.6775V8.67139H203.045V32.0135C203.943 30.9358 204.709 29.8806 205.609 28.9583C209.627 24.8484 214.469 23.5384 219.98 25.083C223.481 26.0643 225.734 28.6012 227.349 31.7448C228.634 34.3656 229.361 37.2244 229.485 40.1406C229.769 44.5073 229.419 48.8047 227.76 52.9074C226.408 56.2545 224.373 59.0873 221.193 60.9274C216.029 63.9155 209.138 63.1731 204.579 59.1975C204.137 58.8114 203.733 58.382 203.292 57.9962C203.149 57.8673 202.966 57.7913 202.773 57.7808C202.697 57.7808 202.594 58.0582 202.561 58.222C202.325 59.4161 202.116 60.6159 201.863 61.8068C201.825 61.9921 201.61 62.2806 201.472 62.2829C199.805 62.3158 198.138 62.3047 196.382 62.3047V61.5175C196.382 46.7169 196.377 31.9172 196.367 17.1181C196.333 15.7015 196.226 14.2876 196.047 12.8819C196.023 12.5029 195.869 12.1437 195.611 11.8649C195.353 11.5861 195.007 11.4046 194.631 11.3511C193.418 11.1173 192.193 10.9428 190.971 10.7495C190.734 10.712 190.486 10.7028 190.214 10.6775ZM203.063 44.7767C203.063 48.052 203.057 51.3279 203.076 54.6035C203.074 54.7398 203.099 54.8752 203.15 55.0016C203.201 55.1281 203.277 55.243 203.373 55.3399C205.77 57.0858 208.36 58.4528 211.322 58.9128C216.127 59.6591 219.589 57.8079 221.259 53.1622C222.046 50.8049 222.452 48.3375 222.464 45.8525C222.564 42.4606 222.434 39.084 221.538 35.7824C221.006 33.8187 220.212 31.9786 218.664 30.5875C216.53 28.6698 213.981 28.4202 211.295 28.9311C208.079 29.5435 205.64 31.4023 203.552 33.8218C203.207 34.204 203.027 34.7068 203.051 35.2209C203.075 38.4058 203.063 41.5911 203.063 44.7767Z" fill="#253858"/>
<path d="M264.492 59.5139C264.511 59.76 264.53 60.0034 264.55 60.2472C264.688 61.9954 264.698 62.0459 262.963 62.3903C261.93 62.6183 260.873 62.7166 259.815 62.6827C257.084 62.5262 255.522 60.8408 254.636 58.3999C254.467 57.936 254.345 57.4553 254.179 56.9073C253.458 57.5376 252.79 58.1561 252.087 58.7301C249.821 60.5805 247.345 62.008 244.422 62.553C239.693 63.4359 234.911 61.3234 232.77 57.396C231.454 54.9399 231.15 52.0667 231.924 49.3896C232.697 46.7126 234.485 44.4437 236.908 43.0671C239.342 41.7113 242.04 40.895 244.817 40.6736C247.145 40.4333 249.493 40.3893 251.833 40.2622C252.098 40.2477 252.363 40.2603 252.71 40.2603C252.615 37.1749 252.999 34.1416 252.05 31.1963C251.168 28.4588 249.061 26.9276 246.183 27.0604C245.042 27.1053 243.911 27.297 242.819 27.6306C240.325 28.4209 239.097 30.2632 238.89 32.83C238.854 33.2747 238.829 33.721 238.797 34.2078H234.281V33.3601C234.281 31.5996 234.268 29.8354 234.297 28.0745C234.301 27.9435 234.335 27.8152 234.396 27.699C234.456 27.5829 234.543 27.4819 234.648 27.4036C239.278 25.4013 244.076 24.1751 249.174 24.5395C251.165 24.6223 253.11 25.1697 254.853 26.138C257.402 27.6359 258.663 29.9712 259.075 32.8082C259.234 33.9473 259.313 35.096 259.312 36.2461C259.335 41.4869 259.285 46.7273 259.343 51.9681C259.359 53.6999 259.514 55.4276 259.806 57.1346C260.092 58.7879 261.045 59.61 262.509 59.7175C263.175 59.7085 263.838 59.6403 264.492 59.5139ZM252.701 42.2921C249.54 42.276 246.493 42.3832 243.637 43.7246C240.078 45.397 238.439 48.1112 238.59 52.0408C238.637 53.0342 238.891 54.0068 239.337 54.8958C239.783 55.7848 240.41 56.5706 241.178 57.2027C241.946 57.8347 242.838 58.2989 243.796 58.5654C244.754 58.8319 245.757 58.8948 246.741 58.75C248.766 58.4282 250.53 57.4905 252.247 56.4266C252.402 56.3434 252.528 56.2159 252.61 56.0603C252.693 55.9048 252.727 55.7282 252.708 55.5533C252.694 51.5349 252.7 47.5164 252.7 43.4961C252.702 43.1383 252.701 42.7778 252.701 42.2936V42.2921Z" fill="#253858"/>
<path d="M350.091 34.2273H345.645C345.625 34.036 345.594 33.8664 345.593 33.6942C345.59 31.8189 345.579 29.9437 345.607 28.0684C345.611 27.9378 345.644 27.8096 345.704 27.6936C345.764 27.5777 345.85 27.4768 345.955 27.3987C350.588 25.3929 355.386 24.1457 360.481 24.5582C361.851 24.67 363.202 24.9528 364.501 25.4002C368.035 26.6248 369.852 29.2954 370.383 32.9062C370.501 33.8002 370.555 34.7015 370.545 35.6032C370.558 41.1616 370.518 46.7197 370.573 52.2781C370.584 53.8563 370.743 55.4299 371.049 56.9781C371.52 59.2935 372.86 60.0647 375.163 59.5855C375.337 59.5472 375.512 59.5178 375.763 59.4707C375.83 60.2128 375.91 60.9189 375.944 61.6273C375.934 61.7067 375.904 61.7823 375.857 61.8474C375.81 61.9125 375.748 61.965 375.676 62.0004C373.878 62.5852 372.051 62.9832 370.156 62.5634C368.097 62.1068 366.854 60.7195 366.091 58.8411C365.847 58.238 365.676 57.6042 365.449 56.9119C364.764 57.5135 364.111 58.1182 363.425 58.6819C361.147 60.5553 358.668 62.085 355.702 62.5362C351.122 63.2323 347.238 61.9805 344.48 58.0811C341.7 54.1503 341.832 46.5999 348.412 42.9381C350.788 41.6647 353.401 40.895 356.088 40.6771C358.463 40.4383 360.857 40.3924 363.242 40.2645C363.441 40.2531 363.64 40.2626 363.804 40.2626C363.865 40.1734 363.91 40.1375 363.909 40.1019C363.863 37.757 363.939 35.3999 363.725 33.0696C363.516 30.7963 362.659 28.7378 360.425 27.6593C358.499 26.7289 356.465 26.7852 354.495 27.4745C351.101 28.6608 350.34 30.3405 350.094 33.7627C350.083 33.8905 350.091 34.0226 350.091 34.2273ZM363.899 42.2929C361.027 42.2737 358.217 42.3583 355.554 43.4487C351.945 44.9274 349.894 47.4694 349.848 51.5414C349.799 55.9257 353.745 59.4634 358.063 58.7481C360.041 58.4202 361.764 57.5043 363.45 56.4844C363.617 56.3967 363.752 56.2609 363.84 56.0948C363.928 55.9287 363.964 55.74 363.943 55.5533C363.927 51.3768 363.934 47.2 363.931 43.0223C363.931 42.8026 363.912 42.5834 363.899 42.2929Z" fill="#253858"/>
<path d="M326.358 40.2225C326.225 37.1554 326.702 34.0934 325.694 31.1282C324.766 28.4006 322.727 27.0145 319.85 27.0214C318.336 27.0067 316.842 27.36 315.495 28.0508C313.773 28.936 312.922 30.3854 312.649 32.2342C312.554 32.8756 312.511 33.5247 312.44 34.209H308.072C308.041 34.0647 308.02 33.9182 308.01 33.7708C308.006 31.8504 307.993 29.9292 308.025 28.0091C308.037 27.879 308.079 27.7534 308.148 27.6422C308.216 27.531 308.31 27.4372 308.421 27.3681C311.962 25.8323 315.627 24.74 319.503 24.5238C321.622 24.3542 323.754 24.5256 325.818 25.0313C329.961 26.1434 332.481 29.109 332.84 33.3873C332.925 34.3973 332.963 35.4138 332.967 36.4268C332.99 42.2562 332.978 48.0856 333.026 53.9165C333.052 54.9534 333.183 55.9849 333.419 56.995C333.894 59.1764 335.171 59.992 337.372 59.6219C337.593 59.5836 337.813 59.5327 338.16 59.4612C338.231 60.2813 338.299 61.0712 338.371 61.8986C336.148 62.6258 333.934 63.1838 331.673 62.2748C329.306 61.3246 328.467 59.2055 327.868 56.9353C326.828 57.7998 325.859 58.6697 324.823 59.4524C322.459 61.2377 319.857 62.4838 316.852 62.7012C310.851 63.1352 306.207 59.3069 305.385 54.3708C304.559 49.4093 306.64 44.8414 311.759 42.4452C314.241 41.3452 316.899 40.6971 319.608 40.5317C321.651 40.3606 323.707 40.3461 325.757 40.2607C325.931 40.2519 326.107 40.2393 326.358 40.2225ZM326.345 42.2891C323.286 42.2891 320.318 42.3656 317.534 43.6232C314.083 45.1808 312.217 47.7683 312.239 51.667C312.238 52.6959 312.459 53.7129 312.887 54.6485C313.316 55.5841 313.941 56.4163 314.72 57.088C315.5 57.7598 316.415 58.2555 317.403 58.541C318.392 58.8266 319.43 58.8955 320.448 58.7428C322.407 58.4332 324.112 57.527 325.78 56.5151C325.968 56.4236 326.123 56.2774 326.226 56.0958C326.329 55.9142 326.374 55.7058 326.357 55.4978C326.335 51.3405 326.345 47.1831 326.345 43.0258V42.2891Z" fill="#253858"/>
<path d="M58.9423 62.5641C50.3233 62.6407 43.7446 57.2721 41.9352 48.6811C40.6921 42.7755 41.3515 37.1233 44.6566 31.9766C47.4783 27.5836 51.6115 25.2123 56.7968 24.6719C60.6936 24.2647 64.4154 24.83 67.8188 26.8438C72.0133 29.3245 74.4779 33.1098 75.6616 37.7509C77.1542 43.6098 76.6004 49.2735 73.5364 54.543C70.8609 59.142 66.792 61.762 61.5041 62.4597C61.2607 62.5056 61.0151 62.5389 60.7682 62.5595C60.1612 62.5726 59.5519 62.5641 58.9423 62.5641ZM69.6198 42.8639C69.523 41.9423 69.422 40.2963 69.1644 38.6752C68.6581 35.4788 67.6382 32.4673 65.6182 29.8698C62.609 26.0011 57.6862 25.2613 53.9395 28.1477C52.2259 29.5324 50.918 31.3542 50.1538 33.4206C48.0378 38.658 47.755 44.0625 48.8492 49.5597C49.4508 52.5831 50.5511 55.3937 52.5959 57.77C55.3422 60.9617 59.7953 61.695 63.2332 59.4902C64.9083 58.3604 66.2485 56.8005 67.1131 54.9743C68.9428 51.4017 69.5287 47.5505 69.6183 42.8631L69.6198 42.8639Z" fill="#0065FF"/>
<path d="M278.321 59.4037H302.257V61.8741H270.372C270.353 60.7861 270.295 59.8216 271.023 58.8166C278.482 48.5147 285.904 38.1857 293.289 27.8296C293.375 27.7106 293.454 27.5858 293.609 27.3566H292.782C288.196 27.3593 283.611 27.3497 279.025 27.373C278.107 27.3776 277.186 27.5081 276.266 27.5778C275.967 27.5827 275.681 27.6989 275.464 27.9036C275.246 28.1083 275.113 28.3868 275.09 28.6846C274.995 29.3535 274.942 30.0276 274.93 30.703C274.904 31.5319 274.923 32.3624 274.923 33.2288H271.334V25.3198H301.322C301.44 26.4626 301.336 27.4213 300.608 28.4263C293.279 38.543 285.986 48.6868 278.731 58.8576C278.629 59.0007 278.519 59.1393 278.321 59.4037Z" fill="#253858"/>
<path d="M378.301 27.1913V25.3314H391.148V31.9522C394.516 26.8017 398.831 23.6631 405.349 24.7213V34.7796H401.721C401.59 33.7777 401.496 32.7513 401.318 31.7406C401.032 30.1163 400.775 29.9089 399.123 29.9392C396.129 29.9958 393.946 31.5201 392.15 33.7846C391.453 34.6348 391.091 35.7116 391.135 36.8107C391.197 42.2317 391.146 47.6531 391.173 53.0738C391.18 54.4225 391.31 55.7727 391.42 57.1186C391.522 58.3701 392.188 59.1829 393.454 59.3735C394.631 59.5496 395.82 59.6533 397.005 59.7773C397.403 59.819 397.804 59.8247 398.225 59.8489V61.8837H378.273C378.249 61.3025 378.258 60.7203 378.3 60.1401C378.316 60.0012 378.659 59.8251 378.871 59.7938C379.983 59.6273 381.107 59.5259 382.219 59.3563C383.459 59.165 384.206 58.4566 384.302 57.1657C384.397 55.9066 384.538 54.6463 384.543 53.3868C384.567 46.8591 384.566 40.3314 384.539 33.8037C384.531 32.4107 384.361 31.0165 384.217 29.6284C384.197 29.2268 384.039 28.8445 383.77 28.5455C383.501 28.2466 383.138 28.0492 382.741 27.9866C381.293 27.6946 379.83 27.4615 378.301 27.1913Z" fill="#253858"/>
<path d="M75.9861 10.5325V8.7399C76.2426 8.72651 76.463 8.70546 76.6834 8.70546C80.4098 8.70546 84.137 8.72152 87.8627 8.68785C88.5252 8.68211 88.6369 8.91747 88.6377 9.50646C88.6443 17.6589 88.664 25.8118 88.6966 33.9653C88.7221 42.9084 88.7476 51.851 88.7732 60.793C88.7755 61.7934 88.7732 61.7942 87.7816 61.795C85.7972 61.795 83.8125 61.795 81.7578 61.795C81.7424 61.5271 81.7195 61.3124 81.7195 61.0962C81.7478 56.1723 81.7681 51.2495 81.8113 46.3263C81.8427 42.8054 81.915 39.2822 81.9545 35.7598C82.0283 29.1684 82.1041 22.5759 82.1458 15.9834C82.1397 15.1489 82.0454 14.3174 81.8645 13.5027C81.768 12.9049 81.4886 12.3518 81.0648 11.9194C80.6409 11.4869 80.0935 11.1964 79.4979 11.0878C78.3593 10.8436 77.194 10.7189 75.9861 10.5325Z" fill="#0065FF"/>
<path d="M184.466 25.3705C183.729 26.7762 182.969 28.0781 182.344 29.4429C178.705 37.3935 175.085 45.3526 171.482 53.3203C168.854 59.1088 166.251 64.9091 163.598 70.6868C162.631 72.7952 161.257 74.5281 158.75 74.8583C157.786 74.9746 156.815 75.0258 155.844 75.0114C153.924 75.0026 152.006 74.9425 150.086 74.8932C149.683 74.8828 149.282 74.8289 148.892 74.7967C148.64 73.7408 148.716 73.6145 149.696 73.6452C150.958 73.6834 152.221 73.7523 153.481 73.8365C155.513 74.0187 157.558 73.6583 159.406 72.7921C160.558 72.2923 161.488 71.3874 162.018 70.2486C162.762 68.5364 163.387 66.7729 164.066 65.0327C164.401 64.1724 164.698 63.2925 165.099 62.4644C165.197 62.2799 165.25 62.0746 165.253 61.8657C165.256 61.6567 165.209 61.45 165.115 61.2631C161.314 52.1801 157.519 43.0935 153.73 34.0032C153.236 32.8168 152.791 31.6094 152.237 30.4513C151.404 28.6989 150.111 27.5045 148.072 27.2982C147.933 27.2844 147.814 27.0303 147.694 26.8772C147.672 26.8493 147.689 26.7888 147.69 26.744C147.714 25.0632 147.483 25.3839 149.022 25.3743C152.117 25.3552 155.212 25.3686 158.307 25.3686H159.147C159.147 26.1956 159.192 26.9568 159.137 27.7119C159.074 29.159 159.361 30.6 159.973 31.9129C162.948 38.9968 165.912 46.0857 168.864 53.1795C168.948 53.3789 169.045 53.5725 169.174 53.8523C169.275 53.7341 169.365 53.6074 169.445 53.4738C172.473 46.6321 175.547 39.8112 178.495 32.9335C179.459 30.6832 180.105 28.2967 180.861 25.9599C180.876 25.863 180.91 25.7702 180.962 25.687C181.014 25.6039 181.083 25.5321 181.163 25.4759C181.243 25.4197 181.334 25.3804 181.43 25.3601C181.526 25.3399 181.625 25.3393 181.722 25.3582C182.621 25.3973 183.516 25.3705 184.466 25.3705Z" fill="#0065FF"/>
<path d="M143.976 57.925C143.976 58.7329 144 59.4558 143.96 60.1749C143.948 60.2844 143.911 60.3897 143.852 60.4826C143.793 60.5755 143.713 60.6536 143.619 60.7107C138.587 62.599 133.439 63.4111 128.188 61.8309C122.774 60.2032 119.19 56.5043 117.283 51.2681C114.852 44.5822 115.208 38.0341 119.044 31.9273C121.813 27.5192 125.996 25.2368 131.142 24.6796C135.367 24.2203 139.442 25.1388 143.517 26.0516C143.875 26.1319 143.977 26.3283 143.977 26.6715C143.967 29.179 143.967 31.6864 143.977 34.1937C143.979 34.6342 143.818 34.7903 143.379 34.7781C142.476 34.7532 141.572 34.7436 140.669 34.7815C140.144 34.8029 139.988 34.6376 139.946 34.1003C139.886 33.1109 139.737 32.129 139.499 31.1668C138.551 27.6429 136.196 26.3971 132.672 26.5942C128.766 26.8124 126.252 29.0485 124.573 32.3915C123.467 34.7171 122.815 37.2319 122.651 39.8015C122.299 43.5628 122.726 47.3563 123.905 50.9451C125.4 55.4902 128.379 58.4439 133.176 59.3341C136.595 59.9686 139.907 59.4539 143.134 58.2438C143.384 58.1492 143.635 58.0543 143.976 57.925Z" fill="#0065FF"/>
<path d="M97.6691 27.2674V25.4197H110.298C110.404 37.5236 110.51 49.6003 110.616 61.7386H103.63C103.63 61.2028 103.626 60.6448 103.63 60.0876C103.678 54.9159 103.728 49.7439 103.778 44.5715C103.813 40.6866 103.859 36.8025 103.867 32.9169C103.867 32.1053 103.79 31.2955 103.638 30.4982C103.306 28.7378 102.456 27.9299 100.699 27.6057C100.212 27.5158 99.7201 27.4442 99.2279 27.3895C98.7357 27.3347 98.2424 27.311 97.6691 27.2674Z" fill="#0065FF"/>
<path d="M110.3 12.1296V18.4615H103.941V12.1296H110.3Z" fill="#0065FF"/>
<path d="M494.068 42.3491C494.068 50.2408 491.728 57.9553 487.344 64.517C482.96 71.0787 476.728 76.193 469.437 79.2131C462.146 82.2332 454.123 83.0235 446.383 81.4839C438.643 79.9444 431.534 76.1443 425.953 70.5641C420.373 64.9838 416.573 57.8742 415.033 50.1342C413.494 42.3941 414.284 34.3714 417.304 27.0805C420.324 19.7895 425.438 13.5579 432 9.17356C438.562 4.78923 446.276 2.44914 454.168 2.44922C464.75 2.44932 474.899 6.65307 482.381 14.1357C489.864 21.6184 494.068 31.767 494.068 42.3491Z" fill="#0065FF"/>
<path d="M439.812 52.5028L442.512 51.7802C442.978 53.4568 442.821 55.2457 442.07 56.8155C441.304 58.3118 440.008 59.47 438.436 60.0651C436.331 60.9325 434.355 60.9415 432.509 60.0919C430.664 59.2422 429.212 57.5328 428.154 54.9636C427.506 53.4819 427.176 51.881 427.184 50.2639C427.194 48.8687 427.673 47.5174 428.543 46.4265C429.41 45.3418 430.542 44.4992 431.83 43.9799C433.5 43.291 435.04 43.1507 436.451 43.5589C437.924 44.0151 439.178 44.9967 439.975 46.3171L437.602 47.7522C437.069 46.9245 436.282 46.2917 435.359 45.9485C434.523 45.6795 433.617 45.7267 432.813 46.0813C432.2 46.3118 431.647 46.6767 431.194 47.1493C430.74 47.6218 430.399 48.19 430.194 48.8119C429.76 50.0915 429.964 51.7499 430.804 53.7871C431.654 55.8538 432.668 57.1921 433.846 57.8021C434.409 58.1027 435.033 58.2706 435.67 58.2929C436.308 58.3152 436.942 58.1913 437.524 57.9307C438.48 57.5711 439.26 56.8555 439.7 55.9337C440.128 55.0255 440.165 53.8818 439.812 52.5028Z" fill="white"/>
<path d="M442.785 48.8715C441.613 46.024 441.537 43.5882 442.556 41.5641C443.429 39.8622 444.901 38.5437 446.689 37.8626C447.636 37.4326 448.663 37.2054 449.703 37.1956C450.744 37.1859 451.775 37.3938 452.73 37.806C454.643 38.6392 456.103 40.2771 457.108 42.7195C457.924 44.6989 458.269 46.3782 458.141 47.7575C458.022 49.1176 457.498 50.4107 456.637 51.4697C455.758 52.5657 454.612 53.4167 453.309 53.9405C451.155 54.8271 449.131 54.8534 447.235 54.0193C445.339 53.1853 443.856 51.4694 442.785 48.8715ZM445.464 47.7686C446.275 49.7388 447.312 51.0368 448.575 51.6626C449.169 51.9588 449.82 52.1242 450.483 52.1476C451.146 52.1711 451.806 52.0521 452.42 51.7987C453.033 51.5453 453.585 51.1634 454.038 50.6786C454.491 50.1939 454.835 49.6176 455.047 48.9886C455.501 47.6502 455.312 45.9719 454.481 43.9537C453.698 42.0517 452.673 40.7888 451.404 40.165C450.811 39.8697 450.162 39.7046 449.5 39.6806C448.839 39.6566 448.179 39.7743 447.567 40.0259C446.954 40.2775 446.402 40.6571 445.948 41.1392C445.494 41.6214 445.148 42.1951 444.934 42.8217C444.478 44.1484 444.656 45.7971 445.467 47.7678L445.464 47.7686Z" fill="white"/>
<path d="M463.422 49.3691L457.088 33.9874L459.42 33.0272L460.309 35.1856C460.482 34.232 460.886 33.3354 461.487 32.5748C462.129 31.763 462.976 31.1364 463.94 30.7592C464.907 30.3136 465.982 30.1589 467.035 30.3141C467.952 30.4836 468.784 30.9594 469.395 31.6636C469.873 29.3673 471.087 27.8171 473.036 27.0129C474.562 26.385 475.909 26.3244 477.077 26.8311C478.246 27.3378 479.192 28.47 479.917 30.2277L484.265 40.7865L481.672 41.8539L477.682 32.1638C477.405 31.3896 477.006 30.6645 476.501 30.016C476.137 29.6248 475.651 29.3685 475.123 29.2889C474.534 29.1952 473.931 29.273 473.386 29.5131C472.881 29.7041 472.421 29.9968 472.033 30.3733C471.646 30.7498 471.341 31.2019 471.136 31.7015C470.718 32.7156 470.835 34.0142 471.487 35.597L475.167 44.5336L472.56 45.6052L468.444 35.6116C467.968 34.4535 467.398 33.6722 466.734 33.2675C466.07 32.8629 465.256 32.8593 464.29 33.2568C463.569 33.5487 462.945 34.0398 462.492 34.6728C462.024 35.3279 461.793 36.1222 461.836 36.9258C461.941 38.0984 462.247 39.2442 462.74 40.3135L466.026 48.2941L463.422 49.3691Z" fill="white"/>
<path d="M491.775 2.80217C492.345 2.70042 492.923 2.65186 493.501 2.65712C494.462 2.65712 495.082 2.83278 495.516 3.22582C495.696 3.39461 495.838 3.59992 495.933 3.82801C496.027 4.0561 496.072 4.30173 496.064 4.54847C496.069 4.9473 495.943 5.33683 495.706 5.6577C495.469 5.97857 495.134 6.21317 494.751 6.32575V6.35675C495.287 6.54275 495.609 7.03875 495.774 7.76206C495.895 8.41467 496.075 9.05509 496.31 9.6756H495.38C495.172 9.1372 495.017 8.5801 494.915 8.01196C494.709 7.0506 494.337 6.68895 493.52 6.65795H492.673V9.6756H491.774L491.775 2.80217ZM492.674 5.97443H493.593C494.554 5.97443 495.162 5.44744 495.162 4.6518C495.162 3.75282 494.511 3.35978 493.56 3.35059C493.262 3.34216 492.963 3.36978 492.671 3.43287L492.674 5.97443Z" fill="black"/>
<path d="M493.877 12.2466C492.666 12.2466 491.482 11.8875 490.475 11.2147C489.468 10.5418 488.683 9.58549 488.219 8.46661C487.756 7.34772 487.635 6.11652 487.871 4.92871C488.107 3.74091 488.69 2.64984 489.547 1.79348C490.403 0.937115 491.494 0.35393 492.682 0.117661C493.87 -0.118609 495.101 0.00265312 496.22 0.466112C497.339 0.929572 498.295 1.71441 498.968 2.72138C499.641 3.72836 500 4.91224 500 6.12332C499.998 7.74673 499.352 9.30311 498.204 10.451C497.056 11.599 495.5 12.2447 493.877 12.2466ZM493.877 0.765418C492.817 0.765418 491.781 1.07966 490.9 1.66839C490.019 2.25712 489.332 3.09391 488.927 4.07294C488.521 5.05196 488.415 6.12926 488.622 7.16859C488.828 8.20792 489.339 9.16261 490.088 9.91193C490.837 10.6612 491.792 11.1715 492.831 11.3783C493.871 11.585 494.948 11.4789 495.927 11.0734C496.906 10.6679 497.743 9.98111 498.332 9.10001C498.92 8.21891 499.234 7.18301 499.234 6.12332C499.233 4.70278 498.668 3.34086 497.664 2.33639C496.659 1.33192 495.297 0.766937 493.877 0.765418Z" fill="black"/>
</g>
<defs>
<clipPath id="clip0_1_3404">
<rect width="500" height="82.2503" fill="white"/>
</clipPath>
</defs>
</svg>
