<svg id="Group_99816" data-name="Group 99816" xmlns="http://www.w3.org/2000/svg" width="39.249" height="113.818" viewBox="0 0 39.249 113.818">
  <path id="Path_150201" data-name="Path 150201" d="M-15386.539,774.688l-3.258,1.3-3.751,2.616-2.2,2.448-1.316,2.35-.937,2.815-.393,4.359.757,6.38,1.89,5.73,2.777,6.366h17.807l.424-4.572-.424-15.384v-.331l.97.676,3.548,1.566,1.98-.43,1.425-1.136V785.71l-2.621-4.656-3.488-4.351-5.677-4.112-.268-1.2-.4-.547-.115-.822-.12-4.51-6.439-.439-.172,2.454-1.409.536-.278.323-.143.662.143.6.445.584h1.242v3.281l.172,1.054Z" transform="translate(15406.163 -742.655)" fill="#fff"/>
  <g id="Group_99815" data-name="Group 99815" transform="translate(0 0)">
    <path id="Path_150164" data-name="Path 150164" d="M342.881,117.412a5.256,5.256,0,0,0-2.418.574,3.73,3.73,0,0,0-5.071-1.83,5.889,5.889,0,0,0-4.869-2.761,4.9,4.9,0,0,0-2.852,3.988,3.638,3.638,0,0,0-.588-.052,3.741,3.741,0,0,0-1.233,7.273,4.269,4.269,0,0,0-.315,1.605c0,2.627,2.411,4.775,5.45,4.923a5.3,5.3,0,0,0,2.374-2.273A4.611,4.611,0,0,0,335.023,130c2.428.894,3.711.306,4.671-.308a3.84,3.84,0,0,0,2.019-3.273,3.426,3.426,0,0,0-.237-1.248,5.452,5.452,0,0,0,1.4.185,5.342,5.342,0,0,0,2.009-.386c-.038-.158.369-.348.639-.317a3.841,3.841,0,0,0,2.018-3.271C347.547,119.191,345.458,117.412,342.881,117.412Z" transform="translate(-319.96 -113.273)" fill="#ff8727"/>
    <g id="Group_99810" data-name="Group 99810" transform="translate(2.997 18.915)">
      <path id="Path_150165" data-name="Path 150165" d="M347.851,606.876l15.926.023-3.4,46.6h-9.306l2.671-35.806-10.35,37.536H337.6l9.513-44.023s.814.089,2.06-1.153l-.865-1.193Z" transform="translate(-335.402 -562.751)" fill="#6876f7"/>
      <path id="Path_150166" data-name="Path 150166" d="M330.675,986.134l.823,2.424h-6.251l.494-2.424Z" transform="translate(-324.619 -893.656)" fill="#404040"/>
      <path id="Path_150167" data-name="Path 150167" d="M453.723,972.564l6.23,4.154h-9.933l.308-4.154Z" transform="translate(-433.484 -881.816)" fill="#404040"/>
      <path id="Path_150168" data-name="Path 150168" d="M493.1,312.091c0,.169.084.305.189.305s.189-.137.189-.305-.085-.306-.189-.306S493.1,311.922,493.1,312.091Z" transform="translate(-471.068 -305.283)" fill="#404040"/>
      <path id="Path_150169" data-name="Path 150169" d="M472.563,312.091c0,.169.085.305.189.305s.189-.137.189-.305-.084-.306-.189-.306S472.563,311.922,472.563,312.091Z" transform="translate(-453.154 -305.283)" fill="#404040"/>
      <g id="Group_99783" data-name="Group 99783" transform="translate(19.813 11.628)">
        <path id="Path_150170" data-name="Path 150170" d="M476.495,352.326h-.654a.114.114,0,0,1,0-.228h.654a2.645,2.645,0,0,0,.727-.1.114.114,0,0,1,.063.219A2.872,2.872,0,0,1,476.495,352.326Z" transform="translate(-475.727 -351.992)" fill="#404040"/>
      </g>
      <g id="Group_99784" data-name="Group 99784" transform="translate(23.188 4.22)">
        <path id="Path_150171" data-name="Path 150171" d="M502.312,299.3h-.017a.114.114,0,0,1-.1-.13,2.675,2.675,0,0,0,.03-.4V294a.114.114,0,1,1,.228,0v4.761a2.906,2.906,0,0,1-.033.436A.114.114,0,0,1,502.312,299.3Z" transform="translate(-502.198 -293.888)" fill="#404040"/>
      </g>
      <g id="Group_99785" data-name="Group 99785" transform="translate(16.484 8.025)">
        <path id="Path_150172" data-name="Path 150172" d="M452.69,331.167a2.1,2.1,0,0,1-1.225-.4,4.439,4.439,0,0,1-1.848-3.612l.009-3.31a.118.118,0,0,1,.115-.114.114.114,0,0,1,.114.115l-.009,3.31a4.21,4.21,0,0,0,1.753,3.426,1.879,1.879,0,0,0,2.948-1.212v-.726a.114.114,0,1,1,.228,0v.735a.117.117,0,0,1,0,.019,2.113,2.113,0,0,1-2.082,1.766Z" transform="translate(-449.617 -323.735)" fill="#404040"/>
      </g>
      <g id="Group_99786" data-name="Group 99786" transform="translate(14.678 6.068)">
        <path id="Path_150173" data-name="Path 150173" d="M436.915,311.19a1.616,1.616,0,0,1-1.044-.322,1.335,1.335,0,0,1-.411-1.151,1.349,1.349,0,0,1,.528-1.127,1.806,1.806,0,0,1,1.434-.1.114.114,0,0,1-.075.215,1.606,1.606,0,0,0-1.232.071,1.139,1.139,0,0,0-.427.949,1.123,1.123,0,0,0,.33.966,1.8,1.8,0,0,0,1.342.225.114.114,0,0,1,.049.223A2.5,2.5,0,0,1,436.915,311.19Z" transform="translate(-435.457 -308.385)" fill="#404040"/>
      </g>
      <g id="Group_99787" data-name="Group 99787" transform="translate(21.143 6.258)">
        <path id="Path_150174" data-name="Path 150174" d="M486.279,312.637a.114.114,0,0,1-.068-.205l.5-.378a.3.3,0,0,0,.043-.446l-.405-.45a.115.115,0,0,1-.029-.082l.05-1.1a.112.112,0,0,1,.119-.109.114.114,0,0,1,.109.119l-.048,1.052.374.415a.531.531,0,0,1-.076.781l-.5.378A.114.114,0,0,1,486.279,312.637Z" transform="translate(-486.165 -309.869)" fill="#404040"/>
      </g>
      <g id="Group_99788" data-name="Group 99788" transform="translate(19.044 5.373)">
        <path id="Path_150175" data-name="Path 150175" d="M470.785,303.443a.114.114,0,0,1-.092-.047.645.645,0,0,0-.831-.148.114.114,0,1,1-.1-.205.872.872,0,0,1,1.115.219.114.114,0,0,1-.092.181Z" transform="translate(-469.698 -302.934)" fill="#404040"/>
      </g>
      <g id="Group_99789" data-name="Group 99789" transform="translate(21.516 5.46)">
        <path id="Path_150176" data-name="Path 150176" d="M490.19,304.033a.113.113,0,0,1-.08-.033.645.645,0,0,0-.844-.013.114.114,0,1,1-.131-.186.872.872,0,0,1,1.136.038.114.114,0,0,1-.081.195Z" transform="translate(-489.087 -303.61)" fill="#404040"/>
      </g>
      <g id="Group_99790" data-name="Group 99790" transform="translate(15.048 6.54)">
        <path id="Path_150177" data-name="Path 150177" d="M438.469,313.25h-.015a.114.114,0,0,1-.1-.128,1.186,1.186,0,0,1,.464-.888.982.982,0,0,1,.747-.12.114.114,0,0,1-.06.22.761.761,0,0,0-.562.092.977.977,0,0,0-.362.726A.114.114,0,0,1,438.469,313.25Z" transform="translate(-438.355 -312.086)" fill="#404040"/>
      </g>
      <g id="Group_99791" data-name="Group 99791" transform="translate(15.259 6.869)">
        <path id="Path_150178" data-name="Path 150178" d="M440.929,315.863a.114.114,0,0,1-.111-.087,1.42,1.42,0,0,0-.737-.9.114.114,0,0,1,.091-.209,1.626,1.626,0,0,1,.868,1.051.114.114,0,0,1-.084.138A.117.117,0,0,1,440.929,315.863Z" transform="translate(-440.013 -314.661)" fill="#404040"/>
      </g>
      <g id="Group_99792" data-name="Group 99792" transform="translate(15.557 43.903)">
        <path id="Path_150179" data-name="Path 150179" d="M451.772,651.968h-9.306a.114.114,0,0,1-.114-.122l2.671-35.806a.114.114,0,0,1,.027-.065l2.725-3.226a.114.114,0,0,1,.174.147l-2.7,3.2-2.659,35.647h9.077l3.39-46.5a.115.115,0,0,1,.122-.105.114.114,0,0,1,.105.122l-3.4,46.6A.114.114,0,0,1,451.772,651.968Z" transform="translate(-442.352 -605.139)" fill="#404040"/>
      </g>
      <g id="Group_99793" data-name="Group 99793" transform="translate(0 47.147)">
        <path id="Path_150180" data-name="Path 150180" d="M328.321,675.893h-7.878a.114.114,0,0,1-.111-.139l9.98-45.088a.114.114,0,0,1,.223.049l-9.949,44.949h7.649l10.327-37.453a.114.114,0,0,1,.22.061l-10.35,37.536A.114.114,0,0,1,328.321,675.893Z" transform="translate(-320.329 -630.578)" fill="#404040"/>
      </g>
      <g id="Group_99794" data-name="Group 99794" transform="translate(9.718 43.884)">
        <path id="Path_150181" data-name="Path 150181" d="M397.236,609.68q-.28,0-.575-.021a.114.114,0,0,1-.106-.122.116.116,0,0,1,.122-.106,4.681,4.681,0,0,0,3.707-1.071,4.84,4.84,0,0,0,1.323-3.256.114.114,0,0,1,.112-.116.116.116,0,0,1,.116.112,4.992,4.992,0,0,1-1.394,3.426A4.625,4.625,0,0,1,397.236,609.68Z" transform="translate(-396.555 -604.987)" fill="#404040"/>
      </g>
      <g id="Group_99795" data-name="Group 99795" transform="translate(25.645 43.884)">
        <path id="Path_150182" data-name="Path 150182" d="M523.884,609.632a.114.114,0,0,1-.053-.013c-2.432-1.279-2.357-4.489-2.356-4.521a.112.112,0,0,1,.117-.11.114.114,0,0,1,.11.118c0,.031-.071,3.1,2.234,4.312a.114.114,0,0,1-.053.215Z" transform="translate(-521.474 -604.987)" fill="#404040"/>
      </g>
      <g id="Group_99796" data-name="Group 99796" transform="translate(4.699 27.418)">
        <path id="Path_150183" data-name="Path 150183" d="M357.3,476.333a.114.114,0,0,1,0-.228l6.88-.268a.114.114,0,0,1,.009.228l-6.88.268Z" transform="translate(-357.182 -475.837)" fill="#404040"/>
      </g>
      <g id="Group_99797" data-name="Group 99797" transform="translate(4.845 26.506)">
        <path id="Path_150184" data-name="Path 150184" d="M358.4,468.895a.065.065,0,0,1,0-.13l6.975-.077h0a.065.065,0,0,1,0,.13l-6.975.076Z" transform="translate(-358.332 -468.688)" fill="#fff"/>
      </g>
      <g id="Group_99798" data-name="Group 99798" transform="translate(11.177 24.015)">
        <path id="Path_150185" data-name="Path 150185" d="M410.6,472.415a.114.114,0,0,1-.092-.047l-.865-1.193a.113.113,0,0,1-.018-.037c-.033-.122-3.312-12.348-.456-21.914a.114.114,0,0,1,.219.065c-2.782,9.322.3,21.206.452,21.769l.852,1.175a.114.114,0,0,1-.092.181Z" transform="translate(-407.997 -449.144)" fill="#404040"/>
      </g>
      <g id="Group_99799" data-name="Group 99799" transform="translate(4.706 13.027)">
        <path id="Path_150186" data-name="Path 150186" d="M362.625,397.31a.114.114,0,0,1-.1-.06,54.581,54.581,0,0,1-3.447-8.336c-1.4-4.369-2.717-10.646-1.092-15.739a14.907,14.907,0,0,1,6.71-8.249,17.174,17.174,0,0,1,4.7-1.962.114.114,0,1,1,.047.223,16.938,16.938,0,0,0-4.642,1.938,14.681,14.681,0,0,0-6.6,8.118c-1.606,5.035-.293,11.26,1.091,15.6a54.34,54.34,0,0,0,3.431,8.3.114.114,0,0,1-.1.168Z" transform="translate(-357.237 -362.962)" fill="#404040"/>
      </g>
      <g id="Group_99800" data-name="Group 99800" transform="translate(12.335 21.24)">
        <path id="Path_150187" data-name="Path 150187" d="M433.122,450.251h0l-15.927,0a.114.114,0,0,1,0-.228h0l15.812,0c-.01-.794.011-1.823.034-3,.1-5.1.268-13.624-1.762-19.488a.114.114,0,1,1,.215-.075c2.043,5.9,1.875,14.456,1.774,19.567-.024,1.238-.045,2.307-.032,3.113a.114.114,0,0,1-.114.116Z" transform="translate(-417.081 -427.379)" fill="#404040"/>
      </g>
      <g id="Group_99801" data-name="Group 99801" transform="translate(19.597 9.791)">
        <path id="Path_150188" data-name="Path 150188" d="M474.631,338.028a.113.113,0,0,1-.059-.016,2.18,2.18,0,0,0-.454-.208.114.114,0,0,1,.071-.217,2.406,2.406,0,0,1,.5.229.114.114,0,0,1-.059.212Z" transform="translate(-474.04 -337.581)" fill="#404040"/>
      </g>
      <g id="Group_99802" data-name="Group 99802" transform="translate(21.958 13.101)">
        <path id="Path_150189" data-name="Path 150189" d="M500.345,375.281a.114.114,0,0,1-.105-.071c-.029-.071-2.969-7.113-7.647-11.465a.114.114,0,0,1,.155-.167c4.715,4.387,7.673,11.474,7.7,11.545a.114.114,0,0,1-.105.158Z" transform="translate(-492.556 -363.548)" fill="#404040"/>
      </g>
      <g id="Group_99803" data-name="Group 99803" transform="translate(24.072 10.822)">
        <path id="Path_150190" data-name="Path 150190" d="M518.206,364.386a6.2,6.2,0,0,1-2.542-.633,12.382,12.382,0,0,1-2.558-1.608.114.114,0,0,1,.148-.174c.043.037,4.345,3.654,6.946,1.5a3.046,3.046,0,0,0,.87-2.669c-.263-3.908-4.43-10.291-11.885-14.928a.114.114,0,1,1,.12-.194,32.133,32.133,0,0,1,8.761,7.868,14.963,14.963,0,0,1,3.231,7.239,2.984,2.984,0,0,1-3.092,3.6Z" transform="translate(-509.132 -345.666)" fill="#404040"/>
      </g>
      <g id="Group_99808" data-name="Group 99808" transform="translate(20.509 9.215)">
        <g id="Group_99804" data-name="Group 99804" transform="translate(0 0.297)">
          <path id="Path_150191" data-name="Path 150191" d="M483.087,337.461a.113.113,0,0,1-.055-.014l-1.507-.83a.65.65,0,0,1-.273-.849.65.65,0,0,1,.9-.289l2.031,1.118a.114.114,0,0,1-.11.2l-2.031-1.118a.421.421,0,1,0-.407.738l1.507.83a.114.114,0,0,1-.055.214Z" transform="translate(-481.19 -335.398)" fill="#404040"/>
        </g>
        <g id="Group_99805" data-name="Group 99805" transform="translate(2.378)">
          <path id="Path_150192" data-name="Path 150192" d="M501.137,334.9a.114.114,0,0,1-.1-.054,3.37,3.37,0,0,1-.3-1.416.14.14,0,0,0-.092-.126.142.142,0,0,0-.155.035,2.209,2.209,0,0,0-.426,1.089.114.114,0,1,1-.227-.024,2.4,2.4,0,0,1,.489-1.224.372.372,0,0,1,.639.239,3.054,3.054,0,0,0,.267,1.307.114.114,0,0,1-.1.174Z" transform="translate(-499.838 -333.065)" fill="#404040"/>
        </g>
        <g id="Group_99806" data-name="Group 99806" transform="translate(0.733 1.856)">
          <path id="Path_150193" data-name="Path 150193" d="M487.77,348.916a.112.112,0,0,1-.049-.011l-.474-.224a.537.537,0,0,1-.234-.757l.02-.034a.534.534,0,0,1,.722-.2.114.114,0,1,1-.11.2.307.307,0,0,0-.415.114l-.02.034a.309.309,0,0,0,.135.435l.474.224a.114.114,0,0,1-.049.217Z" transform="translate(-486.94 -347.625)" fill="#404040"/>
        </g>
        <g id="Group_99807" data-name="Group 99807" transform="translate(0.309 2.626)">
          <path id="Path_150194" data-name="Path 150194" d="M484.868,355.15a.114.114,0,0,1-.052-.012l-.909-.463a.536.536,0,0,1-.223-.742.538.538,0,0,1,.7-.221l.538.254a.114.114,0,0,1-.1.206l-.538-.254a.309.309,0,0,0-.4.127.308.308,0,0,0,.128.426l.909.463a.114.114,0,0,1-.052.216Z" transform="translate(-483.614 -353.662)" fill="#404040"/>
        </g>
      </g>
      <g id="Group_99809" data-name="Group 99809" transform="translate(26.827 21.1)">
        <path id="Path_150195" data-name="Path 150195" d="M530.855,427.276a.114.114,0,0,1-.066-.207l1.08-.767a.114.114,0,0,1,.132.186l-1.08.767A.112.112,0,0,1,530.855,427.276Z" transform="translate(-530.741 -426.28)" fill="#404040"/>
      </g>
      <path id="Path_150196" data-name="Path 150196" d="M450.177,264.49a2.43,2.43,0,0,0-3.661-3.11,29.39,29.39,0,0,1-4.11.607,1.512,1.512,0,0,0-1.14,2.046,5.647,5.647,0,0,1,.413,1.668c.052.711.125,1.4.125,1.4a1.534,1.534,0,0,1,.87.388l.115-1.243a1.4,1.4,0,0,1,1.72-1.256c.414.106.812.322,1.252.441a17.849,17.849,0,0,0,2.343.223,2.425,2.425,0,0,0,1.847-.852A1.2,1.2,0,0,0,450.177,264.49Z" transform="translate(-425.754 -260.788)" fill="#404040"/>
    </g>
    <g id="Group_99811" data-name="Group 99811" transform="translate(14.805 21.798)">
      <path id="Path_150197" data-name="Path 150197" d="M414.3,286.119a1.359,1.359,0,1,1,1.359-1.359A1.36,1.36,0,0,1,414.3,286.119Zm0-2.489a1.131,1.131,0,1,0,1.131,1.131A1.132,1.132,0,0,0,414.3,283.63Z" transform="translate(-412.943 -283.402)" fill="#404040"/>
    </g>
    <g id="Group_99812" data-name="Group 99812" transform="translate(13.227 19.322)">
      <path id="Path_150198" data-name="Path 150198" d="M401.469,265.785a.9.9,0,1,1,.9-.9A.9.9,0,0,1,401.469,265.785Zm0-1.578a.675.675,0,1,0,.675.675A.676.676,0,0,0,401.469,264.207Z" transform="translate(-400.566 -263.979)" fill="#404040"/>
    </g>
    <g id="Group_99813" data-name="Group 99813" transform="translate(0)">
      <path id="Path_150199" data-name="Path 150199" d="M304.918,131.084c-3.255,0-5.9-2.264-5.9-5.046a4.364,4.364,0,0,1,.281-1.538,3.855,3.855,0,0,1,1.381-7.454,3.66,3.66,0,0,1,.484.034c.239-2.616,2.8-4.647,5.887-4.647.115,0,.228,0,.341.009a6.041,6.041,0,0,1,4.909,2.727,3.809,3.809,0,0,1,1.61-.356,3.86,3.86,0,0,1,3.469,2.179,5.406,5.406,0,0,1,2.364-.534c2.635,0,4.779,1.834,4.779,4.088a3.955,3.955,0,0,1-2.074,3.369,4.829,4.829,0,0,1-.654.324,5.429,5.429,0,0,1-2.052.395,5.565,5.565,0,0,1-1.226-.137,3.521,3.521,0,0,1,.172,1.087,3.955,3.955,0,0,1-2.076,3.371,5.316,5.316,0,0,1-2.7.717,5.386,5.386,0,0,1-2.068-.4,4.783,4.783,0,0,1-1.593-1.058,5.489,5.489,0,0,1-2.349,2.182A6.656,6.656,0,0,1,304.918,131.084Zm-4.242-13.81a3.627,3.627,0,0,0-1.195,7.051.114.114,0,0,1,.068.15,4.144,4.144,0,0,0-.307,1.562c0,2.656,2.546,4.818,5.676,4.818a6.428,6.428,0,0,0,2.877-.665,5.218,5.218,0,0,0,2.324-2.224.114.114,0,0,1,.086-.061.113.113,0,0,1,.1.036,4.516,4.516,0,0,0,1.622,1.117,5.158,5.158,0,0,0,1.981.385,5.088,5.088,0,0,0,2.588-.686,3.73,3.73,0,0,0,1.963-3.175,3.313,3.313,0,0,0-.229-1.207.114.114,0,0,1,.136-.152,5.341,5.341,0,0,0,1.375.181,5.205,5.205,0,0,0,1.966-.378,4.647,4.647,0,0,0,.623-.309,3.73,3.73,0,0,0,1.962-3.173c0-2.128-2.042-3.86-4.551-3.86a5.154,5.154,0,0,0-2.365.562.114.114,0,0,1-.157-.055,3.631,3.631,0,0,0-3.311-2.152,3.589,3.589,0,0,0-1.6.378.114.114,0,0,1-.15-.046,5.787,5.787,0,0,0-4.776-2.7c-.109-.005-.219-.009-.33-.009-3.018,0-5.508,2-5.669,4.557a.114.114,0,0,1-.131.105A3.686,3.686,0,0,0,300.676,117.274Z" transform="translate(-296.819 -112.433)" fill="#404040"/>
    </g>
    <g id="Group_99814" data-name="Group 99814" transform="translate(10.039 4.83)">
      <path id="Path_150200" data-name="Path 150200" d="M376.725,156.348l-.013-.336a2.848,2.848,0,0,1,.762-2.028,2.38,2.38,0,0,0,.749-1.344c0-.452-.3-.749-.943-.775a2.44,2.44,0,0,0-1.279.387l-.439-1.408a4.431,4.431,0,0,1,2.157-.53c1.705,0,2.48.943,2.48,2.015a3.21,3.21,0,0,1-1.1,2.17,2.221,2.221,0,0,0-.659,1.615v.233Zm-.336,1.783a1.156,1.156,0,1,1,1.15,1.176A1.12,1.12,0,0,1,376.389,158.131Z" transform="translate(-375.562 -150.315)" fill="#fff"/>
    </g>
  </g>
</svg>
