<svg id="question_answer_black_24dp" xmlns="http://www.w3.org/2000/svg" width="21.683" height="21.683" viewBox="0 0 21.683 21.683">
  <path id="Path_150202" data-name="Path 150202" d="M0,0H21.683V21.683H0Z" fill="none"/>
  <path id="Path_150203" data-name="Path 150203" d="M19.165,5.614H17.359v8.131H5.614v1.807a.906.906,0,0,0,.9.9h9.938l3.614,3.614V6.517A.906.906,0,0,0,19.165,5.614Zm-3.614,5.421V2.9a.906.906,0,0,0-.9-.9H2.9a.906.906,0,0,0-.9.9V15.552l3.614-3.614h9.034A.906.906,0,0,0,15.552,11.034Z" transform="translate(-0.193 -0.193)" fill="#4557ff"/>
</svg>
