<svg xmlns="http://www.w3.org/2000/svg" width="31.018" height="32.767" viewBox="0 0 31.018 32.767"><defs><style>.a{fill:#253858;}.b{fill:#fdb4b4;}</style></defs><g transform="translate(-299.999 -283)"><g transform="translate(-27 -1)"><g transform="translate(358.018 284) rotate(90)"><g transform="translate(0 0)"><path class="a" d="M28.225,18.206a15.408,15.408,0,0,0-10.967-4.543.674.674,0,1,0,0,1.349A14.161,14.161,0,1,1,3.1,29.172v-.758l.6.6a.674.674,0,1,0,.954-.954L2.9,26.309a.674.674,0,0,0-.954,0L.2,28.058a.674.674,0,0,0,.954.954l.6-.6v.758A15.509,15.509,0,0,0,28.225,40.139a15.509,15.509,0,0,0,0-21.933Z" transform="translate(-0.001 -13.663)"/></g></g><path class="b" d="M17492.918-4862.894v7.433l4.285,4.887,2.221,1.177,5.27-3.144,2.273-6.93-.719-3.423-6.084-1.953Z" transform="translate(-17157 5158)"/></g><g transform="translate(87 -7)"><g transform="translate(221 298)"><path class="a" d="M13.568,23.66a.612.612,0,0,1-.245-.05C13.023,23.485,6,20.448,6,14.245V8.973a.633.633,0,0,1,.429-.6l6.938-2.342a.632.632,0,0,1,.4,0l6.938,2.342a.633.633,0,0,1,.429.6v5.271c0,6.2-7.023,9.24-7.324,9.366A.633.633,0,0,1,13.568,23.66ZM7.261,9.426v4.819c0,4.774,5.115,7.516,6.307,8.091,1.191-.576,6.307-3.328,6.307-8.091V9.426L13.568,7.3Z" transform="translate(-6 -6)"/></g><g transform="translate(224.784 303.676)"><path class="a" d="M12.154,16.176h-.035a.633.633,0,0,1-.458-.236L9.138,12.786A.631.631,0,1,1,10.123,12l2.083,2.6,3.917-3.917a.631.631,0,1,1,.892.892L12.6,15.991A.623.623,0,0,1,12.154,16.176Z" transform="translate(-9 -10.5)"/></g></g></g></svg>