<svg xmlns="http://www.w3.org/2000/svg" xmlns:xlink="http://www.w3.org/1999/xlink" width="270.674" height="259.676" viewBox="0 0 270.674 259.676"><defs><style>.a{opacity:0.46;}.b{fill:#ddfbef;}.c{fill:#ffe380;}.d{fill:url(#a);}.e{fill:url(#b);}.f{fill:url(#c);}.g{fill:url(#d);}.h{fill:url(#e);}.i{fill:url(#f);}.j{fill:url(#g);}.k{fill:url(#h);}.l{fill:url(#i);}.m{fill:url(#j);}.n{fill:url(#k);}.o{fill:url(#l);}.p{fill:url(#m);}.q{fill:url(#n);}.r{fill:url(#o);}.s{fill:url(#p);}.t{fill:url(#q);}.u{fill:url(#r);}.v{fill:url(#s);}.w{fill:url(#t);}.x{fill:url(#u);}.y{fill:url(#v);}.z{fill:url(#w);}.aa{fill:url(#x);}.ab{fill:url(#y);}.ac{fill:url(#z);}.ad{fill:url(#aa);}.ae{fill:url(#ab);}.af{fill:url(#ac);}.ag{fill:url(#ad);}.ah{fill:url(#ae);}.ai{fill:url(#af);}.aj{fill:url(#ag);}.ak{fill:url(#ah);}.al{fill:url(#ai);}.am{fill:url(#aj);}.an{fill:url(#ak);}.ao{fill:url(#al);}.ap{fill:url(#am);}.aq{fill:url(#an);}.ar{fill:url(#ao);}.as{fill:url(#ap);}.at{fill:url(#aq);}.au{fill:url(#ar);}.av{fill:url(#as);}.aw{fill:url(#at);}.ax{fill:url(#au);}.ay{fill:url(#av);}.az{fill:url(#aw);}.ba{fill:url(#ax);}.bb{fill:url(#ay);}.bc{fill:url(#az);}.bd{fill:url(#ba);}.be{fill:url(#bb);}.bf{fill:url(#bc);}.bg{fill:url(#bd);}.bh{fill:url(#be);}.bi{fill:url(#bf);}.bj{fill:url(#bg);}.bk{fill:url(#bh);}.bl{fill:url(#bi);}.bm{fill:url(#bj);}.bn{fill:url(#bk);}.bo{fill:url(#bl);}.bp{fill:url(#bm);}.bq{fill:url(#bn);}.br{fill:url(#bo);}.bs{fill:url(#bp);}.bt{fill:url(#bq);}.bu{fill:url(#br);}.bv{fill:url(#bs);}.bw{fill:url(#bt);}.bx{fill:url(#bu);}.by{fill:url(#bv);}.bz{fill:url(#bw);}.ca{fill:url(#bx);}.cb{fill:url(#by);}.cc{fill:url(#bz);}.cd{fill:url(#ca);}.ce{fill:url(#cb);}.cf{fill:url(#cc);}.cg{fill:url(#cd);}.ch{fill:url(#ce);}.ci{fill:url(#cf);}.cj{fill:url(#cg);}.ck{fill:url(#ch);}.cl{fill:url(#ci);}.cm{fill:url(#cj);}.cn{fill:url(#ck);}.co{fill:url(#cl);}.cp{fill:url(#cm);}.cq{fill:url(#cn);}.cr{fill:url(#co);}.cs{fill:url(#cp);}.ct{fill:url(#cq);}.cu{fill:url(#cr);}.cv{fill:url(#cs);}.cw{fill:url(#ct);}.cx{fill:url(#cu);}.cy{fill:url(#cv);}.cz{fill:url(#cw);}.da{fill:url(#cx);}.db{fill:url(#cy);}.dc{fill:url(#cz);}.dd{fill:url(#da);}.de{fill:url(#db);}.df{fill:url(#dc);}.dg{fill:url(#dd);}.dh{fill:url(#de);}.di{fill:url(#df);}.dj{fill:url(#dg);}.dk{fill:url(#dh);}.dl{fill:url(#di);}.dm{fill:url(#dj);}.dn{fill:url(#dk);}.do{fill:url(#dl);}.dp{fill:url(#dm);}.dq{fill:url(#dn);}.dr{fill:url(#do);}.ds{fill:url(#dp);}.dt{fill:url(#dq);}.du{fill:url(#dr);}.dv{fill:url(#ds);}.dw{fill:url(#dt);}.dx{fill:url(#du);}.dy{fill:url(#dv);}.dz{fill:url(#dw);}.ea{fill:url(#dx);}.eb{fill:url(#dy);}.ec{fill:url(#dz);}.ed{fill:url(#ea);}.ee{fill:url(#eb);}.ef{fill:url(#ec);}.eg{fill:url(#ed);}.eh{fill:url(#ee);}.ei{fill:url(#ef);}.ej{fill:url(#eg);}.ek{fill:url(#eh);}.el{fill:url(#ei);}.em{fill:url(#ej);}.en{fill:url(#ek);}.eo{fill:url(#el);}.ep{fill:url(#em);}.eq{fill:url(#en);}.er{fill:url(#eo);}.es{fill:url(#ep);}.et{fill:url(#eq);}.eu{fill:url(#er);}.ev{fill:url(#es);}.ew{fill:url(#et);}.ex{fill:url(#eu);}.ey{fill:url(#ev);}.ez{fill:url(#ew);}.fa{fill:url(#ex);}.fb{fill:url(#ey);}.fc{fill:url(#ez);}.fd{fill:url(#fa);}.fe{fill:url(#fb);}.ff{fill:url(#fc);}.fg{fill:url(#fd);}.fh{fill:url(#fe);}.fi{fill:url(#ff);}.fj{fill:url(#fg);}.fk{fill:url(#fh);}.fl{fill:url(#fi);}.fm{fill:url(#fj);}.fn{fill:url(#fk);}.fo{fill:url(#fl);}.fp{fill:url(#fm);}.fq{fill:url(#fn);}.fr{fill:url(#fo);}.fs{fill:url(#fp);}.ft{fill:url(#fq);}.fu{fill:url(#fr);}.fv{fill:url(#fs);}.fw{fill:url(#ft);}.fx{fill:url(#fu);}.fy{fill:url(#fv);}.fz{fill:url(#fw);}.ga{fill:url(#fx);}.gb{fill:url(#fy);}.gc{fill:url(#fz);}.gd{fill:url(#ga);}.ge{fill:url(#gb);}.gf{fill:url(#gc);}.gg{fill:url(#gd);}.gh{fill:url(#ge);}.gi{fill:url(#gf);}.gj{fill:url(#gg);}.gk{fill:url(#gh);}.gl{fill:url(#gi);}.gm{fill:url(#gj);}.gn{fill:url(#gk);}.go{fill:url(#gl);}.gp{fill:url(#gm);}.gq{fill:url(#gn);}.gr{fill:url(#go);}.gs{fill:url(#gp);}.gt{fill:url(#gq);}.gu{fill:url(#gr);}.gv{fill:url(#gs);}.gw{fill:url(#gt);}.gx{fill:url(#gu);}.gy{fill:url(#gv);}.gz{fill:url(#gw);}.ha{fill:url(#gx);}.hb{fill:url(#gy);}.hc{fill:url(#gz);}.hd{fill:url(#ha);}.he{fill:url(#hb);}.hf{fill:url(#hc);}.hg{fill:url(#hd);}.hh{fill:url(#he);}.hi{fill:url(#hf);}.hj{fill:url(#hg);}.hk{fill:url(#hh);}.hl{fill:url(#hi);}.hm{fill:url(#hj);}.hn{fill:url(#hk);}.ho{fill:url(#hl);}.hp{fill:url(#hm);}.hq{fill:url(#hn);}.hr{fill:url(#ho);}.hs{fill:url(#hp);}.ht{fill:url(#hq);}.hu{fill:url(#hr);}.hv{fill:url(#hs);}.hw{fill:url(#ht);}.hx{fill:url(#hu);}.hy{fill:url(#hv);}.hz{fill:url(#hw);}.ia{fill:url(#hx);}.ib{fill:url(#hy);}.ic{fill:url(#hz);}.id{fill:url(#ia);}.ie{fill:url(#ib);}.if{fill:url(#ic);}.ig{fill:url(#id);}.ih{fill:url(#ie);}.ii{fill:url(#if);}.ij{fill:url(#ig);}.ik{fill:url(#ih);}.il{fill:url(#ii);}.im{fill:url(#ij);}.in{fill:url(#ik);}.io{fill:url(#il);}.ip{fill:url(#im);}.iq{fill:url(#in);}.ir{fill:url(#io);}.is{fill:url(#ip);}.it{fill:url(#iq);}.iu{fill:url(#ir);}.iv{fill:url(#is);}.iw{fill:url(#it);}.ix{fill:url(#iu);}.iy{fill:url(#iv);}.iz{fill:url(#iw);}.ja{fill:url(#ix);}.jb{fill:url(#iy);}.jc{fill:url(#iz);}.jd{fill:url(#ja);}.je{fill:url(#jb);}.jf{fill:url(#jc);}.jg{fill:url(#jd);}.jh{fill:url(#je);}.ji{fill:url(#jf);}.jj{fill:url(#jg);}.jk{fill:url(#jh);}.jl{fill:url(#ji);}.jm{fill:url(#jj);}.jn{fill:url(#jk);}.jo{fill:url(#jl);}.jp{fill:url(#jm);}.jq{fill:url(#jn);}.jr{fill:url(#jo);}.js{fill:url(#jp);}.jt{fill:url(#jq);}.ju{fill:url(#jr);}.jv{fill:url(#js);}.jw{fill:url(#jt);}.jx{fill:url(#ju);}.jy{fill:url(#jv);}.jz{fill:url(#jw);}.ka{fill:url(#jx);}.kb{fill:url(#jy);}.kc{fill:url(#jz);}.kd{fill:#ffdad1;opacity:0.5;}</style><linearGradient id="a" x1="19.39" y1="-18.53" x2="128.654" y2="-128.601" gradientUnits="objectBoundingBox"><stop offset="0" stop-color="#ff40a0"/><stop offset="1" stop-color="#5f42aa"/></linearGradient><linearGradient id="b" x1="19.411" y1="-18.564" x2="128.674" y2="-128.713" xlink:href="#a"/><linearGradient id="c" x1="19.427" y1="-18.571" x2="128.666" y2="-128.641" xlink:href="#a"/><linearGradient id="d" x1="19.449" y1="-18.597" x2="128.688" y2="-128.695" xlink:href="#a"/><linearGradient id="e" x1="19.472" y1="-18.618" x2="128.73" y2="-128.711" xlink:href="#a"/><linearGradient id="f" x1="19.49" y1="-18.634" x2="128.728" y2="-128.704" xlink:href="#a"/><linearGradient id="g" x1="19.514" y1="-18.66" x2="128.772" y2="-128.753" xlink:href="#a"/><linearGradient id="h" x1="19.536" y1="-18.677" x2="128.8" y2="-128.748" xlink:href="#a"/><linearGradient id="i" x1="19.557" y1="-18.712" x2="128.821" y2="-128.861" xlink:href="#a"/><linearGradient id="j" x1="19.575" y1="-18.721" x2="128.823" y2="-128.807" xlink:href="#a"/><linearGradient id="k" x1="19.594" y1="-18.745" x2="128.831" y2="-128.842" xlink:href="#a"/><linearGradient id="l" x1="13.872" y1="-12.973" x2="123.134" y2="-123.067" xlink:href="#a"/><linearGradient id="m" x1="13.892" y1="-12.995" x2="123.15" y2="-123.088" xlink:href="#a"/><linearGradient id="n" x1="13.911" y1="-13.022" x2="123.149" y2="-123.172" xlink:href="#a"/><linearGradient id="o" x1="13.935" y1="-13.037" x2="123.198" y2="-123.132" xlink:href="#a"/><linearGradient id="p" x1="13.952" y1="-13.058" x2="123.191" y2="-123.153" xlink:href="#a"/><linearGradient id="q" x1="13.983" y1="-13.076" x2="123.297" y2="-123.145" xlink:href="#a"/><linearGradient id="r" x1="13.997" y1="-13.097" x2="123.261" y2="-123.166" xlink:href="#a"/><linearGradient id="s" x1="14.018" y1="-13.121" x2="123.28" y2="-123.214" xlink:href="#a"/><linearGradient id="t" x1="14.038" y1="-13.142" x2="123.299" y2="-123.235" xlink:href="#a"/><linearGradient id="u" x1="14.056" y1="-13.17" x2="123.292" y2="-123.319" xlink:href="#a"/><linearGradient id="v" x1="14.081" y1="-13.184" x2="123.344" y2="-123.279" xlink:href="#a"/><linearGradient id="w" x1="8.352" y1="-7.412" x2="117.59" y2="-117.481" xlink:href="#a"/><linearGradient id="x" x1="8.373" y1="-7.435" x2="117.612" y2="-117.531" xlink:href="#a"/><linearGradient id="y" x1="8.396" y1="-7.454" x2="117.659" y2="-117.525" xlink:href="#a"/><linearGradient id="z" x1="8.416" y1="-7.477" x2="117.673" y2="-117.57" xlink:href="#a"/><linearGradient id="aa" x1="8.442" y1="-7.498" x2="117.764" y2="-117.596" xlink:href="#a"/><linearGradient id="ab" x1="8.458" y1="-7.519" x2="117.715" y2="-117.612" xlink:href="#a"/><linearGradient id="ac" x1="8.479" y1="-7.538" x2="117.747" y2="-117.605" xlink:href="#a"/><linearGradient id="ad" x1="8.497" y1="-7.559" x2="117.73" y2="-117.628" xlink:href="#a"/><linearGradient id="ae" x1="8.519" y1="-7.582" x2="117.758" y2="-117.678" xlink:href="#a"/><linearGradient id="af" x1="8.541" y1="-7.603" x2="117.802" y2="-117.696" xlink:href="#a"/><linearGradient id="ag" x1="8.562" y1="-7.624" x2="117.823" y2="-117.717" xlink:href="#a"/><linearGradient id="ah" x1="2.835" y1="-1.855" x2="112.073" y2="-112.003" xlink:href="#a"/><linearGradient id="ai" x1="2.857" y1="-1.875" x2="112.114" y2="-111.968" xlink:href="#a"/><linearGradient id="aj" x1="2.877" y1="-1.896" x2="112.136" y2="-111.988" xlink:href="#a"/><linearGradient id="ak" x1="2.9" y1="-1.916" x2="112.222" y2="-111.987" xlink:href="#a"/><linearGradient id="al" x1="2.919" y1="-1.937" x2="112.157" y2="-112.006" xlink:href="#a"/><linearGradient id="am" x1="2.94" y1="-1.959" x2="112.202" y2="-112.052" xlink:href="#a"/><linearGradient id="an" x1="2.961" y1="-1.98" x2="112.222" y2="-112.073" xlink:href="#a"/><linearGradient id="ao" x1="2.981" y1="-2.002" x2="112.219" y2="-112.15" xlink:href="#a"/><linearGradient id="ap" x1="3.003" y1="-2.022" x2="112.261" y2="-112.114" xlink:href="#a"/><linearGradient id="aq" x1="3.023" y1="-2.043" x2="112.288" y2="-112.139" xlink:href="#a"/><linearGradient id="ar" x1="3.046" y1="-2.064" x2="112.358" y2="-112.134" xlink:href="#a"/><linearGradient id="as" x1="-2.682" y1="3.706" x2="106.582" y2="-106.388" xlink:href="#a"/><linearGradient id="at" x1="-2.662" y1="3.687" x2="106.601" y2="-106.461" xlink:href="#a"/><linearGradient id="au" x1="-2.642" y1="3.664" x2="106.674" y2="-106.408" xlink:href="#a"/><linearGradient id="av" x1="-2.619" y1="3.643" x2="106.621" y2="-106.452" xlink:href="#a"/><linearGradient id="aw" x1="-2.599" y1="3.622" x2="106.657" y2="-106.471" xlink:href="#a"/><linearGradient id="ax" x1="-2.578" y1="3.601" x2="106.681" y2="-106.491" xlink:href="#a"/><linearGradient id="ay" x1="-2.557" y1="3.58" x2="106.704" y2="-106.513" xlink:href="#a"/><linearGradient id="az" x1="-2.536" y1="3.559" x2="106.728" y2="-106.536" xlink:href="#a"/><linearGradient id="ba" x1="-2.516" y1="3.54" x2="106.747" y2="-106.608" xlink:href="#a"/><linearGradient id="bb" x1="-2.496" y1="3.517" x2="106.817" y2="-106.555" xlink:href="#a"/><linearGradient id="bc" x1="-2.473" y1="3.496" x2="106.76" y2="-106.6" xlink:href="#a"/><linearGradient id="bd" x1="-8.2" y1="9.266" x2="101.058" y2="-100.827" xlink:href="#a"/><linearGradient id="be" x1="-8.178" y1="9.244" x2="101.063" y2="-100.836" xlink:href="#a"/><linearGradient id="bf" x1="-8.157" y1="9.229" x2="101.088" y2="-100.925" xlink:href="#a"/><linearGradient id="bg" x1="-8.137" y1="9.203" x2="101.12" y2="-100.89" xlink:href="#a"/><linearGradient id="bh" x1="-8.115" y1="9.183" x2="101.124" y2="-100.915" xlink:href="#a"/><linearGradient id="bi" x1="-8.096" y1="9.161" x2="101.165" y2="-100.932" xlink:href="#a"/><linearGradient id="bj" x1="-8.075" y1="9.139" x2="101.186" y2="-100.931" xlink:href="#a"/><linearGradient id="bk" x1="-8.054" y1="9.119" x2="101.206" y2="-100.975" xlink:href="#a"/><linearGradient id="bl" x1="-8.037" y1="9.096" x2="101.275" y2="-100.976" xlink:href="#a"/><linearGradient id="bm" x1="-8.01" y1="9.081" x2="101.224" y2="-101.067" xlink:href="#a"/><linearGradient id="bn" x1="-7.991" y1="9.056" x2="101.269" y2="-101.037" xlink:href="#a"/><linearGradient id="bo" x1="-13.715" y1="14.823" x2="95.523" y2="-95.246" xlink:href="#a"/><linearGradient id="bp" x1="-13.694" y1="14.806" x2="95.544" y2="-95.289" xlink:href="#a"/><linearGradient id="bq" x1="-13.676" y1="14.784" x2="95.581" y2="-95.309" xlink:href="#a"/><linearGradient id="br" x1="-13.656" y1="14.763" x2="95.605" y2="-95.33" xlink:href="#a"/><linearGradient id="bs" x1="-13.642" y1="14.739" x2="95.673" y2="-95.33" xlink:href="#a"/><linearGradient id="bt" x1="-13.614" y1="14.722" x2="95.648" y2="-95.374" xlink:href="#a"/><linearGradient id="bu" x1="-13.593" y1="14.697" x2="95.665" y2="-95.372" xlink:href="#a"/><linearGradient id="bv" x1="-13.57" y1="14.677" x2="95.671" y2="-95.4" xlink:href="#a"/><linearGradient id="bw" x1="-13.548" y1="14.658" x2="95.688" y2="-95.436" xlink:href="#a"/><linearGradient id="bx" x1="-13.53" y1="14.637" x2="95.73" y2="-95.456" xlink:href="#a"/><linearGradient id="by" x1="-13.507" y1="14.623" x2="95.732" y2="-95.526" xlink:href="#a"/><linearGradient id="bz" x1="-19.232" y1="20.382" x2="90.007" y2="-89.688" xlink:href="#a"/><linearGradient id="ca" x1="-19.216" y1="20.362" x2="90.048" y2="-89.709" xlink:href="#a"/><linearGradient id="cb" x1="-19.194" y1="20.344" x2="90.066" y2="-89.749" xlink:href="#a"/><linearGradient id="cc" x1="-19.173" y1="20.323" x2="90.087" y2="-89.77" xlink:href="#a"/><linearGradient id="cd" x1="-19.149" y1="20.313" x2="90.091" y2="-89.841" xlink:href="#a"/><linearGradient id="ce" x1="-19.131" y1="20.282" x2="90.125" y2="-89.813" xlink:href="#a"/><linearGradient id="cf" x1="-19.106" y1="20.261" x2="90.126" y2="-89.836" xlink:href="#a"/><linearGradient id="cg" x1="-19.085" y1="20.235" x2="90.15" y2="-89.835" xlink:href="#a"/><linearGradient id="ch" x1="-19.07" y1="20.214" x2="90.194" y2="-89.855" xlink:href="#a"/><linearGradient id="ci" x1="-19.048" y1="20.197" x2="90.212" y2="-89.896" xlink:href="#a"/><linearGradient id="cj" x1="-19.027" y1="20.176" x2="90.233" y2="-89.917" xlink:href="#a"/><linearGradient id="ck" x1="-24.753" y1="25.946" x2="84.504" y2="-84.147" xlink:href="#a"/><linearGradient id="cl" x1="-24.729" y1="25.921" x2="84.513" y2="-84.156" xlink:href="#a"/><linearGradient id="cm" x1="-24.726" y1="25.901" x2="84.594" y2="-84.177" xlink:href="#a"/><linearGradient id="cn" x1="-24.691" y1="25.883" x2="84.569" y2="-84.21" xlink:href="#a"/><linearGradient id="co" x1="-24.67" y1="25.857" x2="84.589" y2="-84.213" xlink:href="#a"/><linearGradient id="cp" x1="-24.65" y1="25.841" x2="84.611" y2="-84.252" xlink:href="#a"/><linearGradient id="cq" x1="-24.623" y1="25.821" x2="84.615" y2="-84.274" xlink:href="#a"/><linearGradient id="cr" x1="-24.608" y1="25.799" x2="84.653" y2="-84.294" xlink:href="#a"/><linearGradient id="cs" x1="-24.581" y1="25.791" x2="84.653" y2="-84.357" xlink:href="#a"/><linearGradient id="ct" x1="-24.578" y1="25.752" x2="84.734" y2="-84.319" xlink:href="#a"/><linearGradient id="cu" x1="-24.539" y1="25.736" x2="84.694" y2="-84.358" xlink:href="#a"/><linearGradient id="cv" x1="-30.273" y1="31.507" x2="78.991" y2="-78.588" xlink:href="#a"/><linearGradient id="cw" x1="-30.266" y1="31.486" x2="79.047" y2="-78.61" xlink:href="#a"/><linearGradient id="cx" x1="-30.222" y1="31.48" x2="79.009" y2="-78.668" xlink:href="#a"/><linearGradient id="cy" x1="-30.21" y1="31.437" x2="79.053" y2="-78.633" xlink:href="#a"/><linearGradient id="cz" x1="-30.188" y1="31.422" x2="79.071" y2="-78.671" xlink:href="#a"/><linearGradient id="da" x1="-30.167" y1="31.401" x2="79.092" y2="-78.692" xlink:href="#a"/><linearGradient id="db" x1="-30.147" y1="31.38" x2="79.114" y2="-78.713" xlink:href="#a"/><linearGradient id="dc" x1="-30.127" y1="31.36" x2="79.137" y2="-78.735" xlink:href="#a"/><linearGradient id="dd" x1="-30.12" y1="31.339" x2="79.193" y2="-78.757" xlink:href="#a"/><linearGradient id="de" x1="-30.076" y1="31.332" x2="79.155" y2="-78.816" xlink:href="#a"/><linearGradient id="df" x1="-30.064" y1="31.29" x2="79.199" y2="-78.78" xlink:href="#a"/><linearGradient id="dg" x1="-35.807" y1="37.059" x2="73.506" y2="-73.012" xlink:href="#a"/><linearGradient id="dh" x1="-35.769" y1="37.045" x2="73.492" y2="-73.048" xlink:href="#a"/><linearGradient id="di" x1="-35.748" y1="37.024" x2="73.512" y2="-73.069" xlink:href="#a"/><linearGradient id="dj" x1="-35.72" y1="37.021" x2="73.518" y2="-73.126" xlink:href="#a"/><linearGradient id="dk" x1="-35.699" y1="36.974" x2="73.54" y2="-73.095" xlink:href="#a"/><linearGradient id="dl" x1="-35.687" y1="36.963" x2="73.578" y2="-73.135" xlink:href="#a"/><linearGradient id="dm" x1="-35.665" y1="36.94" x2="73.596" y2="-73.153" xlink:href="#a"/><linearGradient id="dn" x1="-35.661" y1="36.912" x2="73.652" y2="-73.159" xlink:href="#a"/><linearGradient id="do" x1="-35.622" y1="36.898" x2="73.636" y2="-73.195" xlink:href="#a"/><linearGradient id="dp" x1="-35.603" y1="36.878" x2="73.66" y2="-73.218" xlink:href="#a"/><linearGradient id="dq" x1="-35.574" y1="36.874" x2="73.664" y2="-73.273" xlink:href="#a"/><linearGradient id="dr" x1="-41.301" y1="42.62" x2="67.942" y2="-67.457" xlink:href="#a"/><linearGradient id="ds" x1="-41.288" y1="42.596" x2="67.976" y2="-67.473" xlink:href="#a"/><linearGradient id="dt" x1="-41.258" y1="42.585" x2="67.981" y2="-67.51" xlink:href="#a"/><linearGradient id="du" x1="-41.244" y1="42.563" x2="68.014" y2="-67.53" xlink:href="#a"/><linearGradient id="dv" x1="-41.224" y1="42.563" x2="68.036" y2="-67.585" xlink:href="#a"/><linearGradient id="dw" x1="-41.203" y1="42.521" x2="68.057" y2="-67.572" xlink:href="#a"/><linearGradient id="dx" x1="-41.203" y1="42.502" x2="68.111" y2="-67.595" xlink:href="#a"/><linearGradient id="dy" x1="-41.152" y1="42.47" x2="68.083" y2="-67.6" xlink:href="#a"/><linearGradient id="dz" x1="-41.142" y1="42.449" x2="68.122" y2="-67.62" xlink:href="#a"/><linearGradient id="ea" x1="-41.12" y1="42.437" x2="68.141" y2="-67.656" xlink:href="#a"/><linearGradient id="eb" x1="-41.099" y1="42.416" x2="68.162" y2="-67.677" xlink:href="#a"/><linearGradient id="ec" x1="-46.827" y1="48.189" x2="62.437" y2="-61.91" xlink:href="#a"/><linearGradient id="ed" x1="-46.805" y1="48.166" x2="62.456" y2="-61.929" xlink:href="#a"/><linearGradient id="ee" x1="-46.806" y1="48.135" x2="62.505" y2="-61.936" xlink:href="#a"/><linearGradient id="ef" x1="-46.762" y1="48.125" x2="62.496" y2="-61.972" xlink:href="#a"/><linearGradient id="eg" x1="-46.741" y1="48.092" x2="62.516" y2="-61.978" xlink:href="#a"/><linearGradient id="eh" x1="-46.709" y1="48.105" x2="62.523" y2="-62.043" xlink:href="#a"/><linearGradient id="ei" x1="-46.693" y1="48.054" x2="62.55" y2="-62.025" xlink:href="#a"/><linearGradient id="ej" x1="-46.681" y1="48.041" x2="62.583" y2="-62.057" xlink:href="#a"/><linearGradient id="ek" x1="-46.659" y1="48.018" x2="62.602" y2="-62.075" xlink:href="#a"/><linearGradient id="el" x1="-46.66" y1="47.988" x2="62.651" y2="-62.083" xlink:href="#a"/><linearGradient id="em" x1="-46.615" y1="47.977" x2="62.642" y2="-62.119" xlink:href="#a"/><linearGradient id="en" x1="-52.332" y1="53.749" x2="56.904" y2="-56.349" xlink:href="#a"/><linearGradient id="eo" x1="-52.347" y1="53.727" x2="56.964" y2="-56.371" xlink:href="#a"/><linearGradient id="ep" x1="-52.288" y1="53.694" x2="56.944" y2="-56.379" xlink:href="#a"/><linearGradient id="eq" x1="-52.28" y1="53.671" x2="56.979" y2="-56.397" xlink:href="#a"/><linearGradient id="er" x1="-52.26" y1="53.662" x2="57" y2="-56.431" xlink:href="#a"/><linearGradient id="es" x1="-52.228" y1="53.63" x2="57.01" y2="-56.441" xlink:href="#a"/><linearGradient id="et" x1="-52.218" y1="53.62" x2="57.042" y2="-56.473" xlink:href="#a"/><linearGradient id="eu" x1="-52.185" y1="53.6" x2="57.05" y2="-56.495" xlink:href="#a"/><linearGradient id="ev" x1="-52.201" y1="53.579" x2="57.11" y2="-56.516" xlink:href="#a"/><linearGradient id="ew" x1="-52.157" y1="53.549" x2="57.107" y2="-56.528" xlink:href="#a"/><linearGradient id="ex" x1="-52.134" y1="53.524" x2="57.125" y2="-56.544" xlink:href="#a"/><linearGradient id="ey" x1="-57.889" y1="59.335" x2="51.423" y2="-50.812" xlink:href="#a"/><linearGradient id="ez" x1="-57.825" y1="59.286" x2="51.407" y2="-50.809" xlink:href="#a"/><linearGradient id="fa" x1="-57.821" y1="59.266" x2="51.442" y2="-50.831" xlink:href="#a"/><linearGradient id="fb" x1="-57.787" y1="59.231" x2="51.451" y2="-50.84" xlink:href="#a"/><linearGradient id="fc" x1="-57.766" y1="59.21" x2="51.472" y2="-50.86" xlink:href="#a"/><linearGradient id="fd" x1="-57.759" y1="59.202" x2="51.505" y2="-50.893" xlink:href="#a"/><linearGradient id="fe" x1="-57.736" y1="59.18" x2="51.524" y2="-50.913" xlink:href="#a"/><linearGradient id="ff" x1="-57.714" y1="59.159" x2="51.544" y2="-50.934" xlink:href="#a"/><linearGradient id="fg" x1="-57.679" y1="59.139" x2="51.553" y2="-50.956" xlink:href="#a"/><linearGradient id="fh" x1="-57.675" y1="59.117" x2="51.588" y2="-50.977" xlink:href="#a"/><linearGradient id="fi" x1="-57.641" y1="59.125" x2="51.597" y2="-51.023" xlink:href="#a"/><linearGradient id="fj" x1="-63.38" y1="64.867" x2="45.881" y2="-45.228" xlink:href="#a"/><linearGradient id="fk" x1="-63.36" y1="64.829" x2="45.903" y2="-45.236" xlink:href="#a"/><linearGradient id="fl" x1="-63.325" y1="64.825" x2="45.913" y2="-45.27" xlink:href="#a"/><linearGradient id="fm" x1="-63.317" y1="64.804" x2="45.944" y2="-45.291" xlink:href="#a"/><linearGradient id="fn" x1="-63.297" y1="64.814" x2="45.966" y2="-45.334" xlink:href="#a"/><linearGradient id="fo" x1="-63.275" y1="64.761" x2="45.985" y2="-45.332" xlink:href="#a"/><linearGradient id="fp" x1="-63.285" y1="64.743" x2="46.028" y2="-45.355" xlink:href="#a"/><linearGradient id="fq" x1="-63.232" y1="64.719" x2="46.026" y2="-45.374" xlink:href="#a"/><linearGradient id="fr" x1="-63.214" y1="64.684" x2="46.049" y2="-45.384" xlink:href="#a"/><linearGradient id="fs" x1="-63.179" y1="64.679" x2="46.059" y2="-45.417" xlink:href="#a"/><linearGradient id="ft" x1="-63.171" y1="64.656" x2="46.09" y2="-45.437" xlink:href="#a"/><linearGradient id="fu" x1="-68.899" y1="70.429" x2="40.364" y2="-39.669" xlink:href="#a"/><linearGradient id="fv" x1="-68.863" y1="70.39" x2="40.376" y2="-39.679" xlink:href="#a"/><linearGradient id="fw" x1="-68.839" y1="70.367" x2="40.396" y2="-39.699" xlink:href="#a"/><linearGradient id="fx" x1="-68.835" y1="70.362" x2="40.426" y2="-39.729" xlink:href="#a"/><linearGradient id="fy" x1="-68.814" y1="70.343" x2="40.447" y2="-39.752" xlink:href="#a"/><linearGradient id="fz" x1="-68.825" y1="70.355" x2="40.486" y2="-39.791" xlink:href="#a"/><linearGradient id="ga" x1="-68.772" y1="70.3" x2="40.488" y2="-39.793" xlink:href="#a"/><linearGradient id="gb" x1="-68.753" y1="70.28" x2="40.51" y2="-39.815" xlink:href="#a"/><linearGradient id="gc" x1="-68.729" y1="70.258" x2="40.529" y2="-39.835" xlink:href="#a"/><linearGradient id="gd" x1="-68.71" y1="70.237" x2="40.551" y2="-39.856" xlink:href="#a"/><linearGradient id="ge" x1="-68.693" y1="70.222" x2="40.575" y2="-39.881" xlink:href="#a"/><linearGradient id="gf" x1="-74.415" y1="75.987" x2="34.845" y2="-34.107" xlink:href="#a"/><linearGradient id="gg" x1="-74.43" y1="75.969" x2="34.882" y2="-34.13" xlink:href="#a"/><linearGradient id="gh" x1="-74.371" y1="75.93" x2="34.886" y2="-34.143" xlink:href="#a"/><linearGradient id="gi" x1="-74.351" y1="75.907" x2="34.907" y2="-34.162" xlink:href="#a"/><linearGradient id="gj" x1="-74.314" y1="75.902" x2="34.92" y2="-34.191" xlink:href="#a"/><linearGradient id="gk" x1="-74.294" y1="75.862" x2="34.942" y2="-34.204" xlink:href="#a"/><linearGradient id="gl" x1="-74.29" y1="75.861" x2="34.97" y2="-34.233" xlink:href="#a"/><linearGradient id="gm" x1="-74.269" y1="75.839" x2="34.991" y2="-34.254" xlink:href="#a"/><linearGradient id="gn" x1="-74.284" y1="75.821" x2="35.028" y2="-34.277" xlink:href="#a"/><linearGradient id="go" x1="-74.225" y1="75.78" x2="35.032" y2="-34.289" xlink:href="#a"/><linearGradient id="gp" x1="-74.205" y1="75.761" x2="35.053" y2="-34.31" xlink:href="#a"/><linearGradient id="gq" x1="-79.933" y1="81.547" x2="29.327" y2="-28.547" xlink:href="#a"/><linearGradient id="gr" x1="-79.91" y1="81.508" x2="29.347" y2="-28.562" xlink:href="#a"/><linearGradient id="gs" x1="-79.892" y1="81.508" x2="29.369" y2="-28.591" xlink:href="#a"/><linearGradient id="gt" x1="-79.852" y1="81.468" x2="29.383" y2="-28.605" xlink:href="#a"/><linearGradient id="gu" x1="-79.833" y1="81.447" x2="29.405" y2="-28.625" xlink:href="#a"/><linearGradient id="gv" x1="-79.829" y1="81.442" x2="29.432" y2="-28.653" xlink:href="#a"/><linearGradient id="gw" x1="-79.808" y1="81.421" x2="29.453" y2="-28.674" xlink:href="#a"/><linearGradient id="gx" x1="-79.825" y1="81.438" x2="29.487" y2="-28.708" xlink:href="#a"/><linearGradient id="gy" x1="-79.764" y1="81.379" x2="29.494" y2="-28.716" xlink:href="#a"/><linearGradient id="gz" x1="-79.746" y1="81.359" x2="29.515" y2="-28.737" xlink:href="#a"/><linearGradient id="ha" x1="-79.712" y1="81.325" x2="29.531" y2="-28.754" xlink:href="#a"/><linearGradient id="hb" x1="-85.429" y1="87.087" x2="23.803" y2="-22.982" xlink:href="#a"/><linearGradient id="hc" x1="-85.432" y1="87.126" x2="23.831" y2="-23.019" xlink:href="#a"/><linearGradient id="hd" x1="-85.392" y1="87.068" x2="23.846" y2="-23.03" xlink:href="#a"/><linearGradient id="he" x1="-85.371" y1="87.047" x2="23.867" y2="-23.051" xlink:href="#a"/><linearGradient id="hf" x1="-85.37" y1="87.006" x2="23.894" y2="-23.067" xlink:href="#a"/><linearGradient id="hg" x1="-85.327" y1="86.985" x2="23.908" y2="-23.088" xlink:href="#a"/><linearGradient id="hh" x1="-85.326" y1="86.981" x2="23.935" y2="-23.114" xlink:href="#a"/><linearGradient id="hi" x1="-85.288" y1="86.946" x2="23.951" y2="-23.131" xlink:href="#a"/><linearGradient id="hj" x1="-85.283" y1="86.978" x2="23.976" y2="-23.166" xlink:href="#a"/><linearGradient id="hk" x1="-85.246" y1="86.918" x2="23.992" y2="-23.176" xlink:href="#a"/><linearGradient id="hl" x1="-85.225" y1="86.897" x2="24.013" y2="-23.198" xlink:href="#a"/><linearGradient id="hm" x1="-90.971" y1="92.669" x2="18.292" y2="-17.428" xlink:href="#a"/><linearGradient id="hn" x1="-90.948" y1="92.647" x2="18.312" y2="-17.448" xlink:href="#a"/><linearGradient id="ho" x1="-90.909" y1="92.668" x2="18.33" y2="-17.478" xlink:href="#a"/><linearGradient id="hp" x1="-90.909" y1="92.604" x2="18.355" y2="-17.49" xlink:href="#a"/><linearGradient id="hq" x1="-90.884" y1="92.582" x2="18.375" y2="-17.511" xlink:href="#a"/><linearGradient id="hr" x1="-90.907" y1="92.608" x2="18.404" y2="-17.541" xlink:href="#a"/><linearGradient id="hs" x1="-90.823" y1="92.523" x2="18.413" y2="-17.55" xlink:href="#a"/><linearGradient id="ht" x1="-90.825" y1="92.522" x2="18.438" y2="-17.575" xlink:href="#a"/><linearGradient id="hu" x1="-90.784" y1="92.478" x2="18.455" y2="-17.591" xlink:href="#a"/><linearGradient id="hv" x1="-90.763" y1="92.521" x2="18.476" y2="-17.625" xlink:href="#a"/><linearGradient id="hw" x1="-90.763" y1="92.459" x2="18.501" y2="-17.638" xlink:href="#a"/><linearGradient id="hx" x1="-96.468" y1="98.208" x2="12.771" y2="-11.865" xlink:href="#a"/><linearGradient id="hy" x1="-96.465" y1="98.205" x2="12.794" y2="-11.888" xlink:href="#a"/><linearGradient id="hz" x1="-96.443" y1="98.184" x2="12.815" y2="-11.909" xlink:href="#a"/><linearGradient id="ia" x1="-96.422" y1="98.139" x2="12.836" y2="-11.927" xlink:href="#a"/><linearGradient id="ib" x1="-96.45" y1="98.142" x2="12.863" y2="-11.951" xlink:href="#a"/><linearGradient id="ic" x1="-96.383" y1="98.123" x2="12.878" y2="-11.972" xlink:href="#a"/><linearGradient id="id" x1="-96.363" y1="98.145" x2="12.899" y2="-11.999" xlink:href="#a"/><linearGradient id="ie" x1="-96.341" y1="98.08" x2="12.92" y2="-12.014" xlink:href="#a"/><linearGradient id="if" x1="-96.298" y1="98.063" x2="12.938" y2="-12.036" xlink:href="#a"/><linearGradient id="ig" x1="-96.299" y1="98.038" x2="12.961" y2="-12.057" xlink:href="#a"/><linearGradient id="ih" x1="-96.279" y1="97.992" x2="12.982" y2="-12.074" xlink:href="#a"/><linearGradient id="ii" x1="-102.052" y1="103.835" x2="7.259" y2="-6.31" xlink:href="#a"/><linearGradient id="ij" x1="-101.981" y1="103.743" x2="7.276" y2="-6.327" xlink:href="#a"/><linearGradient id="ik" x1="-101.961" y1="103.749" x2="7.297" y2="-6.35" xlink:href="#a"/><linearGradient id="il" x1="-101.991" y1="103.705" x2="7.321" y2="-6.369" xlink:href="#a"/><linearGradient id="im" x1="-101.922" y1="103.704" x2="7.339" y2="-6.391" xlink:href="#a"/><linearGradient id="in" x1="-101.9" y1="103.681" x2="7.36" y2="-6.412" xlink:href="#a"/><linearGradient id="io" x1="-101.866" y1="103.665" x2="7.38" y2="-6.434" xlink:href="#a"/><linearGradient id="ip" x1="-101.831" y1="103.688" x2="7.4" y2="-6.457" xlink:href="#a"/><linearGradient id="iq" x1="-101.835" y1="103.596" x2="7.422" y2="-6.474" xlink:href="#a"/><linearGradient id="ir" x1="-101.815" y1="103.602" x2="7.443" y2="-6.497" xlink:href="#a"/><linearGradient id="is" x1="-101.845" y1="103.557" x2="7.468" y2="-6.516" xlink:href="#a"/><linearGradient id="it" x1="-107.527" y1="109.327" x2="1.738" y2="-0.747" xlink:href="#a"/><linearGradient id="iu" x1="-107.501" y1="109.326" x2="1.759" y2="-0.768" xlink:href="#a"/><linearGradient id="iv" x1="-107.458" y1="109.282" x2="1.779" y2="-0.789" xlink:href="#a"/><linearGradient id="iw" x1="-107.446" y1="109.296" x2="1.8" y2="-0.81" xlink:href="#a"/><linearGradient id="ix" x1="-107.439" y1="109.264" x2="1.821" y2="-0.831" xlink:href="#a"/><linearGradient id="iy" x1="-107.394" y1="109.221" x2="1.842" y2="-0.852" xlink:href="#a"/><linearGradient id="iz" x1="-107.398" y1="109.222" x2="1.863" y2="-0.873" xlink:href="#a"/><linearGradient id="ja" x1="-107.374" y1="109.172" x2="1.884" y2="-0.894" xlink:href="#a"/><linearGradient id="jb" x1="-107.355" y1="109.179" x2="1.905" y2="-0.915" xlink:href="#a"/><linearGradient id="jc" x1="-107.389" y1="109.135" x2="1.926" y2="-0.936" xlink:href="#a"/><linearGradient id="jd" x1="-107.293" y1="109.141" x2="1.946" y2="-0.957" xlink:href="#a"/><linearGradient id="je" x1="-113.047" y1="114.917" x2="-3.781" y2="4.813" xlink:href="#a"/><linearGradient id="jf" x1="-112.997" y1="114.86" x2="-3.759" y2="4.791" xlink:href="#a"/><linearGradient id="jg" x1="-112.976" y1="114.919" x2="-3.738" y2="4.773" xlink:href="#a"/><linearGradient id="jh" x1="-112.989" y1="114.826" x2="-3.718" y2="4.749" xlink:href="#a"/><linearGradient id="ji" x1="-112.932" y1="114.828" x2="-3.696" y2="4.729" xlink:href="#a"/><linearGradient id="jj" x1="-112.937" y1="114.803" x2="-3.676" y2="4.708" xlink:href="#a"/><linearGradient id="jk" x1="-112.916" y1="114.759" x2="-3.655" y2="4.686" xlink:href="#a"/><linearGradient id="jl" x1="-112.895" y1="114.764" x2="-3.634" y2="4.666" xlink:href="#a"/><linearGradient id="jm" x1="-112.851" y1="114.713" x2="-3.613" y2="4.644" xlink:href="#a"/><linearGradient id="jn" x1="-112.83" y1="114.771" x2="-3.591" y2="4.626" xlink:href="#a"/><linearGradient id="jo" x1="-112.836" y1="114.701" x2="-3.572" y2="4.603" xlink:href="#a"/><linearGradient id="jp" x1="-118.535" y1="120.444" x2="-9.296" y2="10.371" xlink:href="#a"/><linearGradient id="jq" x1="-118.514" y1="120.45" x2="-9.275" y2="10.352" xlink:href="#a"/><linearGradient id="jr" x1="-118.517" y1="120.426" x2="-9.256" y2="10.331" xlink:href="#a"/><linearGradient id="js" x1="-118.496" y1="120.405" x2="-9.236" y2="10.31" xlink:href="#a"/><linearGradient id="jt" x1="-118.531" y1="120.384" x2="-9.219" y2="10.289" xlink:href="#a"/><linearGradient id="ju" x1="-118.427" y1="120.363" x2="-9.192" y2="10.268" xlink:href="#a"/><linearGradient id="jv" x1="-118.443" y1="120.32" x2="-9.174" y2="10.245" xlink:href="#a"/><linearGradient id="jw" x1="-118.389" y1="120.297" x2="-9.15" y2="10.224" xlink:href="#a"/><linearGradient id="jx" x1="-118.368" y1="120.303" x2="-9.129" y2="10.205" xlink:href="#a"/><linearGradient id="jy" x1="-118.371" y1="120.279" x2="-9.11" y2="10.184" xlink:href="#a"/><linearGradient id="jz" x1="-118.35" y1="120.258" x2="-9.09" y2="10.163" xlink:href="#a"/></defs><g class="a" transform="translate(144.234 328.65) rotate(-135)"><circle class="b" cx="39.808" cy="39.808" r="39.808" transform="translate(199.339 106.21)"/><circle class="c" cx="15.816" cy="15.816" r="15.816" transform="translate(0 97.545)"/><g transform="translate(12.583 0)"><g transform="translate(0 190.023)"><path class="d" d="M561.5,193.436a.686.686,0,1,1-.969,0A.686.686,0,0,1,561.5,193.436Z" transform="translate(-560.328 -193.235)"/><path class="e" d="M555.7,187.635a.686.686,0,1,1-.97,0A.686.686,0,0,1,555.7,187.635Z" transform="translate(-546.966 -179.873)"/><path class="f" d="M549.9,181.834a.686.686,0,1,1-.971,0A.686.686,0,0,1,549.9,181.834Z" transform="translate(-533.603 -166.511)"/><path class="g" d="M544.1,176.032a.686.686,0,1,1-.971,0A.687.687,0,0,1,544.1,176.032Z" transform="translate(-520.242 -153.149)"/><circle class="h" cx="0.686" cy="0.686" r="0.686" transform="translate(30.242 30.242)"/><path class="i" d="M532.491,164.429a.687.687,0,1,1-.971,0A.686.686,0,0,1,532.491,164.429Z" transform="translate(-493.517 -126.425)"/><circle class="j" cx="0.686" cy="0.686" r="0.686" transform="translate(45.363 45.363)"/><path class="k" d="M520.887,152.824a.686.686,0,1,1-.969,0A.686.686,0,0,1,520.887,152.824Z" transform="translate(-466.793 -99.7)"/><path class="l" d="M515.085,147.023a.686.686,0,1,1-.97,0A.686.686,0,0,1,515.085,147.023Z" transform="translate(-453.43 -86.338)"/><path class="m" d="M509.284,141.222a.687.687,0,1,1-.971,0A.686.686,0,0,1,509.284,141.222Z" transform="translate(-440.068 -72.976)"/><path class="n" d="M503.483,135.42a.686.686,0,1,1-.971,0A.687.687,0,0,1,503.483,135.42Z" transform="translate(-426.707 -59.614)"/></g><g transform="translate(7.601 182.422)"><path class="o" d="M555.666,199.27a.686.686,0,1,1-.969,0A.684.684,0,0,1,555.666,199.27Z" transform="translate(-554.495 -199.068)"/><circle class="p" cx="0.686" cy="0.686" r="0.686" transform="translate(7.56 7.56)"/><path class="q" d="M544.064,187.666a.687.687,0,1,1-.971,0A.688.688,0,0,1,544.064,187.666Z" transform="translate(-527.772 -172.344)"/><path class="r" d="M538.261,181.865a.686.686,0,1,1-.969,0A.684.684,0,0,1,538.261,181.865Z" transform="translate(-514.409 -158.982)"/><path class="s" d="M532.459,176.063a.686.686,0,1,1-.971,0A.684.684,0,0,1,532.459,176.063Z" transform="translate(-501.047 -145.619)"/><path class="t" d="M526.658,170.26a.686.686,0,1,1-.971,0A.688.688,0,0,1,526.658,170.26Z" transform="translate(-487.685 -132.257)"/><path class="u" d="M520.856,164.46a.686.686,0,1,1-.97,0A.686.686,0,0,1,520.856,164.46Z" transform="translate(-474.323 -118.896)"/><path class="v" d="M515.054,158.658a.686.686,0,1,1-.97,0A.684.684,0,0,1,515.054,158.658Z" transform="translate(-460.96 -105.533)"/><circle class="w" cx="0.686" cy="0.686" r="0.686" transform="translate(60.484 60.484)"/><path class="x" d="M503.452,147.054a.686.686,0,1,1-.971,0A.688.688,0,0,1,503.452,147.054Z" transform="translate(-434.237 -78.809)"/><path class="y" d="M497.649,141.253a.686.686,0,1,1-.97,0A.684.684,0,0,1,497.649,141.253Z" transform="translate(-420.874 -65.447)"/></g><g transform="translate(15.202 174.821)"><path class="z" d="M549.834,205.1a.686.686,0,1,1-.971,0A.686.686,0,0,1,549.834,205.1Z" transform="translate(-548.662 -204.901)"/><path class="aa" d="M544.033,199.3a.686.686,0,1,1-.971,0A.686.686,0,0,1,544.033,199.3Z" transform="translate(-535.301 -191.539)"/><path class="ab" d="M538.23,193.5a.686.686,0,1,1-.969,0A.686.686,0,0,1,538.23,193.5Z" transform="translate(-521.938 -178.176)"/><circle class="ac" cx="0.686" cy="0.686" r="0.686" transform="translate(22.681 22.682)"/><path class="ad" d="M526.628,181.9a.686.686,0,1,1-.971,0A.687.687,0,0,1,526.628,181.9Z" transform="translate(-495.214 -151.452)"/><circle class="ae" cx="0.686" cy="0.686" r="0.686" transform="translate(37.802 37.803)"/><path class="af" d="M515.023,170.291a.686.686,0,1,1-.97,0A.686.686,0,0,1,515.023,170.291Z" transform="translate(-468.49 -124.727)"/><path class="ag" d="M509.222,164.491a.687.687,0,1,1-.971,0A.686.686,0,0,1,509.222,164.491Z" transform="translate(-455.127 -111.366)"/><path class="ah" d="M503.421,158.689a.686.686,0,1,1-.971,0A.687.687,0,0,1,503.421,158.689Z" transform="translate(-441.766 -98.003)"/><circle class="ai" cx="0.686" cy="0.686" r="0.686" transform="translate(68.044 68.045)"/><circle class="aj" cx="0.686" cy="0.686" r="0.686" transform="translate(75.605 75.605)"/></g><g transform="translate(22.802 167.221)"><path class="ak" d="M544,210.935a.687.687,0,1,1-.971,0A.688.688,0,0,1,544,210.935Z" transform="translate(-542.83 -210.734)"/><circle class="al" cx="0.686" cy="0.686" r="0.686" transform="translate(7.561 7.56)"/><circle class="am" cx="0.686" cy="0.686" r="0.686" transform="translate(15.121 15.121)"/><path class="an" d="M526.6,193.529a.686.686,0,1,1-.971,0A.688.688,0,0,1,526.6,193.529Z" transform="translate(-502.743 -170.647)"/><path class="ao" d="M520.8,187.729a.686.686,0,1,1-.971,0A.688.688,0,0,1,520.8,187.729Z" transform="translate(-489.381 -157.286)"/><path class="ap" d="M514.992,181.927a.686.686,0,1,1-.969,0A.684.684,0,0,1,514.992,181.927Z" transform="translate(-476.018 -143.924)"/><circle class="aq" cx="0.686" cy="0.686" r="0.686" transform="translate(45.363 45.363)"/><path class="ar" d="M503.39,170.323a.686.686,0,1,1-.971,0A.688.688,0,0,1,503.39,170.323Z" transform="translate(-449.295 -117.199)"/><circle class="as" cx="0.686" cy="0.686" r="0.686" transform="translate(60.484 60.483)"/><path class="at" d="M491.785,158.72a.686.686,0,1,1-.969,0A.684.684,0,0,1,491.785,158.72Z" transform="translate(-422.57 -90.475)"/><path class="au" d="M485.984,152.917a.686.686,0,1,1-.971,0A.688.688,0,0,1,485.984,152.917Z" transform="translate(-409.208 -77.112)"/></g><g transform="translate(30.404 159.62)"><path class="av" d="M538.168,216.768a.686.686,0,1,1-.969,0A.684.684,0,0,1,538.168,216.768Z" transform="translate(-536.997 -216.566)"/><path class="aw" d="M532.366,210.966a.686.686,0,1,1-.97,0A.686.686,0,0,1,532.366,210.966Z" transform="translate(-523.635 -203.205)"/><path class="ax" d="M526.565,205.165a.686.686,0,1,1-.971,0A.688.688,0,0,1,526.565,205.165Z" transform="translate(-510.273 -189.843)"/><path class="ay" d="M520.764,199.363a.686.686,0,1,1-.971,0A.687.687,0,0,1,520.764,199.363Z" transform="translate(-496.911 -176.48)"/><circle class="az" cx="0.686" cy="0.686" r="0.686" transform="translate(30.242 30.242)"/><circle class="ba" cx="0.686" cy="0.686" r="0.686" transform="translate(37.802 37.802)"/><circle class="bb" cx="0.686" cy="0.686" r="0.686" transform="translate(45.363 45.363)"/><path class="bc" d="M497.556,176.156a.686.686,0,1,1-.97,0A.684.684,0,0,1,497.556,176.156Z" transform="translate(-443.462 -123.031)"/><path class="bd" d="M491.754,170.354a.686.686,0,1,1-.97,0A.686.686,0,0,1,491.754,170.354Z" transform="translate(-430.099 -109.669)"/><path class="be" d="M485.953,164.553a.686.686,0,1,1-.971,0A.688.688,0,0,1,485.953,164.553Z" transform="translate(-416.738 -96.307)"/><path class="bf" d="M480.152,158.751a.686.686,0,1,1-.971,0A.687.687,0,0,1,480.152,158.751Z" transform="translate(-403.376 -82.945)"/></g><g transform="translate(38.005 152.018)"><circle class="bg" cx="0.686" cy="0.686" r="0.686" transform="translate(0)"/><path class="bh" d="M526.534,216.8a.686.686,0,1,1-.971,0A.686.686,0,0,1,526.534,216.8Z" transform="translate(-517.802 -209.037)"/><path class="bi" d="M520.733,211a.687.687,0,1,1-.971,0A.688.688,0,0,1,520.733,211Z" transform="translate(-504.441 -195.675)"/><circle class="bj" cx="0.686" cy="0.686" r="0.686" transform="translate(22.681 22.681)"/><path class="bk" d="M509.129,199.394a.686.686,0,1,1-.971,0A.684.684,0,0,1,509.129,199.394Z" transform="translate(-477.715 -168.95)"/><circle class="bl" cx="0.686" cy="0.686" r="0.686" transform="translate(37.802 37.802)"/><path class="bm" d="M497.525,187.791a.686.686,0,1,1-.97,0A.686.686,0,0,1,497.525,187.791Z" transform="translate(-450.992 -142.227)"/><path class="bn" d="M491.723,181.989a.686.686,0,1,1-.969,0A.684.684,0,0,1,491.723,181.989Z" transform="translate(-437.629 -128.864)"/><path class="bo" d="M485.922,176.186a.687.687,0,1,1-.971,0A.688.688,0,0,1,485.922,176.186Z" transform="translate(-424.267 -115.502)"/><path class="bp" d="M480.121,170.385a.686.686,0,1,1-.971,0A.688.688,0,0,1,480.121,170.385Z" transform="translate(-410.905 -102.14)"/><circle class="bq" cx="0.686" cy="0.686" r="0.686" transform="translate(75.605 75.605)"/></g><g transform="translate(45.606 144.417)"><path class="br" d="M526.5,228.434a.686.686,0,1,1-.971,0A.686.686,0,0,1,526.5,228.434Z" transform="translate(-525.332 -228.232)"/><path class="bs" d="M520.7,222.632a.686.686,0,1,1-.971,0A.687.687,0,0,1,520.7,222.632Z" transform="translate(-511.97 -214.87)"/><circle class="bt" cx="0.686" cy="0.686" r="0.686" transform="translate(15.121 15.121)"/><circle class="bu" cx="0.686" cy="0.686" r="0.686" transform="translate(22.681 22.682)"/><path class="bv" d="M503.3,205.227a.686.686,0,1,1-.971,0A.688.688,0,0,1,503.3,205.227Z" transform="translate(-471.883 -174.783)"/><path class="bw" d="M497.494,199.425a.686.686,0,1,1-.97,0A.684.684,0,0,1,497.494,199.425Z" transform="translate(-458.522 -161.421)"/><path class="bx" d="M491.692,193.622a.686.686,0,1,1-.97,0A.686.686,0,0,1,491.692,193.622Z" transform="translate(-445.159 -148.058)"/><path class="by" d="M485.891,187.822a.686.686,0,1,1-.971,0A.686.686,0,0,1,485.891,187.822Z" transform="translate(-431.796 -134.697)"/><path class="bz" d="M480.09,182.02a.686.686,0,1,1-.971,0A.687.687,0,0,1,480.09,182.02Z" transform="translate(-418.435 -121.334)"/><circle class="ca" cx="0.686" cy="0.686" r="0.686" transform="translate(68.044 68.045)"/><path class="cb" d="M468.486,170.416a.686.686,0,1,1-.971,0A.686.686,0,0,1,468.486,170.416Z" transform="translate(-391.71 -94.61)"/></g><g transform="translate(53.206 136.817)"><path class="cc" d="M520.671,234.265a.686.686,0,1,1-.971,0A.688.688,0,0,1,520.671,234.265Z" transform="translate(-519.499 -234.064)"/><path class="cd" d="M514.868,228.465a.686.686,0,1,1-.969,0A.686.686,0,0,1,514.868,228.465Z" transform="translate(-506.136 -220.703)"/><circle class="ce" cx="0.686" cy="0.686" r="0.686" transform="translate(15.121 15.121)"/><circle class="cf" cx="0.686" cy="0.686" r="0.686" transform="translate(22.682 22.681)"/><path class="cg" d="M497.464,211.059a.686.686,0,1,1-.971,0A.688.688,0,0,1,497.464,211.059Z" transform="translate(-466.05 -180.616)"/><path class="ch" d="M491.661,205.258a.686.686,0,1,1-.969,0A.684.684,0,0,1,491.661,205.258Z" transform="translate(-452.688 -167.254)"/><path class="ci" d="M485.86,199.456a.686.686,0,1,1-.971,0A.684.684,0,0,1,485.86,199.456Z" transform="translate(-439.325 -153.892)"/><path class="cj" d="M480.059,193.653a.687.687,0,1,1-.971,0A.688.688,0,0,1,480.059,193.653Z" transform="translate(-425.964 -140.529)"/><path class="ck" d="M474.256,187.853a.686.686,0,1,1-.97,0A.686.686,0,0,1,474.256,187.853Z" transform="translate(-412.601 -127.168)"/><circle class="cl" cx="0.686" cy="0.686" r="0.686" transform="translate(68.045 68.044)"/><circle class="cm" cx="0.686" cy="0.686" r="0.686" transform="translate(75.605 75.604)"/></g><g transform="translate(60.807 129.216)"><circle class="cn" cx="0.686" cy="0.686" r="0.686" transform="translate(0)"/><path class="co" d="M509.036,234.3a.686.686,0,1,1-.971,0A.686.686,0,0,1,509.036,234.3Z" transform="translate(-500.304 -226.535)"/><path class="cp" d="M503.234,228.5a.686.686,0,1,1-.971,0A.688.688,0,0,1,503.234,228.5Z" transform="translate(-486.942 -213.174)"/><circle class="cq" cx="0.686" cy="0.686" r="0.686" transform="translate(22.682 22.682)"/><path class="cr" d="M491.63,216.891a.686.686,0,1,1-.97,0A.686.686,0,0,1,491.63,216.891Z" transform="translate(-460.217 -186.448)"/><circle class="cs" cx="0.686" cy="0.686" r="0.686" transform="translate(37.802 37.802)"/><path class="ct" d="M480.028,205.289a.686.686,0,1,1-.971,0A.687.687,0,0,1,480.028,205.289Z" transform="translate(-433.494 -159.725)"/><circle class="cu" cx="0.686" cy="0.686" r="0.686" transform="translate(52.923 52.923)"/><path class="cv" d="M468.423,193.685a.686.686,0,1,1-.971,0A.686.686,0,0,1,468.423,193.685Z" transform="translate(-406.769 -133)"/><path class="cw" d="M462.622,187.884a.686.686,0,1,1-.971,0A.688.688,0,0,1,462.622,187.884Z" transform="translate(-393.406 -119.638)"/><path class="cx" d="M456.821,182.082a.686.686,0,1,1-.971,0A.686.686,0,0,1,456.821,182.082Z" transform="translate(-380.045 -106.276)"/></g><g transform="translate(68.409 121.615)"><path class="cy" d="M509,245.932a.686.686,0,1,1-.97,0A.684.684,0,0,1,509,245.932Z" transform="translate(-507.833 -245.73)"/><path class="cz" d="M503.2,240.13a.686.686,0,1,1-.971,0A.687.687,0,0,1,503.2,240.13Z" transform="translate(-494.472 -232.368)"/><path class="da" d="M497.4,234.328a.686.686,0,1,1-.971,0A.688.688,0,0,1,497.4,234.328Z" transform="translate(-481.11 -219.006)"/><path class="db" d="M491.6,228.527a.686.686,0,1,1-.969,0A.686.686,0,0,1,491.6,228.527Z" transform="translate(-467.747 -205.644)"/><ellipse class="dc" cx="0.686" cy="0.686" rx="0.686" ry="0.686" transform="translate(30.242 30.242)"/><circle class="dd" cx="0.686" cy="0.686" r="0.686" transform="translate(37.802 37.802)"/><circle class="de" cx="0.686" cy="0.686" r="0.686" transform="translate(45.363 45.363)"/><path class="df" d="M468.392,205.32a.686.686,0,1,1-.969,0A.684.684,0,0,1,468.392,205.32Z" transform="translate(-414.298 -152.195)"/><path class="dg" d="M462.591,199.518a.686.686,0,1,1-.971,0A.687.687,0,0,1,462.591,199.518Z" transform="translate(-400.936 -138.832)"/><path class="dh" d="M456.79,193.716a.687.687,0,1,1-.971,0A.688.688,0,0,1,456.79,193.716Z" transform="translate(-387.574 -125.471)"/><path class="di" d="M450.987,187.915a.686.686,0,1,1-.97,0A.686.686,0,0,1,450.987,187.915Z" transform="translate(-374.212 -112.109)"/></g><g transform="translate(76.009 114.013)"><path class="dj" d="M503.172,251.765a.686.686,0,1,1-.971,0A.688.688,0,0,1,503.172,251.765Z" transform="translate(-502.001 -251.563)"/><circle class="dk" cx="0.686" cy="0.686" r="0.686" transform="translate(7.56 7.561)"/><circle class="dl" cx="0.686" cy="0.686" r="0.686" transform="translate(15.121 15.121)"/><path class="dm" d="M485.767,234.359a.686.686,0,1,1-.971,0A.686.686,0,0,1,485.767,234.359Z" transform="translate(-461.914 -211.476)"/><path class="dn" d="M479.966,228.558a.687.687,0,1,1-.971,0A.688.688,0,0,1,479.966,228.558Z" transform="translate(-448.553 -198.114)"/><path class="do" d="M474.163,222.756a.686.686,0,1,1-.97,0A.684.684,0,0,1,474.163,222.756Z" transform="translate(-435.19 -184.752)"/><circle class="dp" cx="0.686" cy="0.686" r="0.686" transform="translate(45.363 45.363)"/><path class="dq" d="M462.56,211.153a.686.686,0,1,1-.971,0A.688.688,0,0,1,462.56,211.153Z" transform="translate(-408.466 -158.028)"/><circle class="dr" cx="0.686" cy="0.686" r="0.686" transform="translate(60.483 60.484)"/><path class="ds" d="M450.956,199.549a.686.686,0,1,1-.97,0A.684.684,0,0,1,450.956,199.549Z" transform="translate(-381.741 -131.302)"/><path class="dt" d="M445.155,193.747a.686.686,0,1,1-.971,0A.686.686,0,0,1,445.155,193.747Z" transform="translate(-368.379 -117.941)"/></g><g transform="translate(83.61 106.413)"><path class="du" d="M497.34,257.6a.686.686,0,1,1-.971,0A.688.688,0,0,1,497.34,257.6Z" transform="translate(-496.168 -257.395)"/><path class="dv" d="M491.537,251.8a.686.686,0,1,1-.969,0A.686.686,0,0,1,491.537,251.8Z" transform="translate(-482.806 -244.034)"/><path class="dw" d="M485.736,245.994a.686.686,0,1,1-.971,0A.684.684,0,0,1,485.736,245.994Z" transform="translate(-469.443 -230.672)"/><circle class="dx" cx="0.686" cy="0.686" r="0.686" transform="translate(22.682 22.681)"/><path class="dy" d="M474.132,234.39a.686.686,0,1,1-.969,0A.686.686,0,0,1,474.132,234.39Z" transform="translate(-442.719 -203.947)"/><circle class="dz" cx="0.686" cy="0.686" r="0.686" transform="translate(37.803 37.802)"/><path class="ea" d="M462.529,222.787a.686.686,0,1,1-.971,0A.687.687,0,0,1,462.529,222.787Z" transform="translate(-415.995 -177.223)"/><path class="eb" d="M456.728,216.984a.686.686,0,1,1-.971,0A.688.688,0,0,1,456.728,216.984Z" transform="translate(-402.633 -163.86)"/><path class="ec" d="M450.925,211.184a.686.686,0,1,1-.97,0A.686.686,0,0,1,450.925,211.184Z" transform="translate(-389.27 -150.499)"/><circle class="ed" cx="0.686" cy="0.686" r="0.686" transform="translate(68.045 68.044)"/><circle class="ee" cx="0.686" cy="0.686" r="0.686" transform="translate(75.605 75.604)"/></g><g transform="translate(91.211 98.812)"><path class="ef" d="M491.506,263.43a.686.686,0,1,1-.97,0A.684.684,0,0,1,491.506,263.43Z" transform="translate(-490.335 -263.228)"/><circle class="eg" cx="0.686" cy="0.686" r="0.686" transform="translate(7.561 7.56)"/><path class="eh" d="M479.9,251.827a.687.687,0,1,1-.971,0A.688.688,0,0,1,479.9,251.827Z" transform="translate(-463.611 -236.505)"/><path class="ei" d="M474.1,246.025a.686.686,0,1,1-.97,0A.684.684,0,0,1,474.1,246.025Z" transform="translate(-450.249 -223.142)"/><path class="ej" d="M468.3,240.222a.686.686,0,1,1-.97,0A.686.686,0,0,1,468.3,240.222Z" transform="translate(-436.886 -209.78)"/><path class="ek" d="M462.5,234.421a.687.687,0,1,1-.971,0A.686.686,0,0,1,462.5,234.421Z" transform="translate(-423.524 -196.418)"/><path class="el" d="M456.7,228.62a.686.686,0,1,1-.971,0A.688.688,0,0,1,456.7,228.62Z" transform="translate(-410.163 -183.056)"/><path class="em" d="M450.894,222.818a.686.686,0,1,1-.97,0A.684.684,0,0,1,450.894,222.818Z" transform="translate(-396.8 -169.693)"/><circle class="en" cx="0.686" cy="0.686" r="0.686" transform="translate(60.484 60.484)"/><path class="eo" d="M439.291,211.214a.687.687,0,1,1-.971,0A.688.688,0,0,1,439.291,211.214Z" transform="translate(-370.075 -142.969)"/><path class="ep" d="M433.489,205.413a.686.686,0,1,1-.97,0A.684.684,0,0,1,433.489,205.413Z" transform="translate(-356.714 -129.607)"/></g><g transform="translate(98.812 91.211)"><path class="eq" d="M485.674,269.263a.686.686,0,1,1-.971,0A.684.684,0,0,1,485.674,269.263Z" transform="translate(-484.502 -269.061)"/><path class="er" d="M479.872,263.461a.686.686,0,1,1-.971,0A.687.687,0,0,1,479.872,263.461Z" transform="translate(-471.14 -255.699)"/><path class="es" d="M474.071,257.658a.687.687,0,1,1-.971,0A.688.688,0,0,1,474.071,257.658Z" transform="translate(-457.778 -242.336)"/><path class="et" d="M468.268,251.858a.686.686,0,1,1-.969,0A.686.686,0,0,1,468.268,251.858Z" transform="translate(-444.416 -228.975)"/><circle class="eu" cx="0.686" cy="0.686" r="0.686" transform="translate(30.242 30.242)"/><path class="ev" d="M456.666,240.253a.686.686,0,1,1-.971,0A.688.688,0,0,1,456.666,240.253Z" transform="translate(-417.692 -202.25)"/><circle class="ew" cx="0.686" cy="0.686" r="0.686" transform="translate(45.363 45.363)"/><path class="ex" d="M445.062,228.651a.686.686,0,1,1-.971,0A.684.684,0,0,1,445.062,228.651Z" transform="translate(-390.967 -175.526)"/><path class="ey" d="M439.26,222.849a.686.686,0,1,1-.971,0A.687.687,0,0,1,439.26,222.849Z" transform="translate(-377.605 -162.163)"/><path class="ez" d="M433.458,217.046a.686.686,0,1,1-.97,0A.686.686,0,0,1,433.458,217.046Z" transform="translate(-364.243 -148.801)"/><path class="fa" d="M427.656,211.246a.686.686,0,1,1-.969,0A.686.686,0,0,1,427.656,211.246Z" transform="translate(-350.88 -135.44)"/></g><g transform="translate(106.413 83.611)"><path class="fb" d="M479.841,275.095a.686.686,0,1,1-.971,0A.688.688,0,0,1,479.841,275.095Z" transform="translate(-478.67 -274.894)"/><path class="fc" d="M474.04,269.294a.686.686,0,1,1-.971,0A.686.686,0,0,1,474.04,269.294Z" transform="translate(-465.308 -261.533)"/><path class="fd" d="M468.237,263.492a.686.686,0,1,1-.97,0A.684.684,0,0,1,468.237,263.492Z" transform="translate(-451.946 -248.17)"/><path class="fe" d="M462.435,257.689a.686.686,0,1,1-.971,0A.686.686,0,0,1,462.435,257.689Z" transform="translate(-438.583 -234.807)"/><path class="ff" d="M456.635,251.889a.686.686,0,1,1-.971,0A.688.688,0,0,1,456.635,251.889Z" transform="translate(-425.222 -221.446)"/><path class="fg" d="M450.832,246.087a.686.686,0,1,1-.97,0A.684.684,0,0,1,450.832,246.087Z" transform="translate(-411.86 -208.084)"/><circle class="fh" cx="0.686" cy="0.686" r="0.686" transform="translate(45.362 45.362)"/><circle class="fi" cx="0.686" cy="0.686" r="0.686" transform="translate(52.923 52.923)"/><path class="fj" d="M433.428,228.682a.686.686,0,1,1-.971,0A.687.687,0,0,1,433.428,228.682Z" transform="translate(-371.773 -167.997)"/><path class="fk" d="M427.625,222.88a.686.686,0,1,1-.969,0A.684.684,0,0,1,427.625,222.88Z" transform="translate(-358.41 -154.635)"/><path class="fl" d="M421.824,217.078a.686.686,0,1,1-.971,0A.686.686,0,0,1,421.824,217.078Z" transform="translate(-345.048 -141.273)"/></g><g transform="translate(114.014 76.009)"><circle class="fm" cx="0.686" cy="0.686" r="0.686" transform="translate(0)"/><path class="fn" d="M468.206,275.127a.686.686,0,1,1-.969,0A.686.686,0,0,1,468.206,275.127Z" transform="translate(-459.475 -267.365)"/><path class="fo" d="M462.4,269.325a.686.686,0,1,1-.971,0A.684.684,0,0,1,462.4,269.325Z" transform="translate(-446.112 -254.003)"/><circle class="fp" cx="0.686" cy="0.686" r="0.686" transform="translate(22.681 22.681)"/><path class="fq" d="M450.8,257.721a.686.686,0,1,1-.969,0A.686.686,0,0,1,450.8,257.721Z" transform="translate(-419.389 -227.278)"/><circle class="fr" cx="0.686" cy="0.686" r="0.686" transform="translate(37.802 37.802)"/><path class="fs" d="M439.2,246.118a.686.686,0,1,1-.971,0A.687.687,0,0,1,439.2,246.118Z" transform="translate(-392.664 -200.554)"/><circle class="ft" cx="0.686" cy="0.686" r="0.686" transform="translate(52.923 52.923)"/><path class="fu" d="M427.594,234.515a.686.686,0,1,1-.97,0A.686.686,0,0,1,427.594,234.515Z" transform="translate(-365.94 -173.83)"/><path class="fv" d="M421.793,228.713a.686.686,0,1,1-.971,0A.684.684,0,0,1,421.793,228.713Z" transform="translate(-352.577 -160.467)"/><circle class="fw" cx="0.686" cy="0.686" r="0.686" transform="translate(75.605 75.605)"/></g><g transform="translate(121.615 68.409)"><path class="fx" d="M468.175,286.761a.686.686,0,1,1-.97,0A.684.684,0,0,1,468.175,286.761Z" transform="translate(-467.004 -286.559)"/><path class="fy" d="M462.374,280.958a.687.687,0,1,1-.971,0A.686.686,0,0,1,462.374,280.958Z" transform="translate(-453.642 -273.197)"/><path class="fz" d="M456.573,275.158a.686.686,0,1,1-.971,0A.688.688,0,0,1,456.573,275.158Z" transform="translate(-440.281 -259.836)"/><path class="ga" d="M450.77,269.356a.686.686,0,1,1-.97,0A.684.684,0,0,1,450.77,269.356Z" transform="translate(-426.918 -246.473)"/><circle class="gb" cx="0.686" cy="0.686" r="0.686" transform="translate(30.242 30.242)"/><path class="gc" d="M439.167,257.751a.687.687,0,1,1-.971,0A.688.688,0,0,1,439.167,257.751Z" transform="translate(-400.194 -219.749)"/><circle class="gd" cx="0.686" cy="0.686" r="0.686" transform="translate(45.363 45.363)"/><path class="ge" d="M427.563,246.149a.686.686,0,1,1-.97,0A.684.684,0,0,1,427.563,246.149Z" transform="translate(-373.469 -193.024)"/><circle class="gf" cx="0.686" cy="0.686" r="0.686" transform="translate(60.484 60.484)"/><circle class="gg" cx="0.686" cy="0.686" r="0.686" transform="translate(68.044 68.044)"/><path class="gh" d="M410.158,228.744a.686.686,0,1,1-.97,0A.684.684,0,0,1,410.158,228.744Z" transform="translate(-333.383 -152.938)"/></g><g transform="translate(129.216 60.808)"><circle class="gi" cx="0.686" cy="0.686" r="0.686" transform="translate(0)"/><path class="gj" d="M456.541,286.792a.686.686,0,1,1-.971,0A.687.687,0,0,1,456.541,286.792Z" transform="translate(-447.809 -279.03)"/><path class="gk" d="M450.739,280.989a.686.686,0,1,1-.97,0A.686.686,0,0,1,450.739,280.989Z" transform="translate(-434.448 -265.667)"/><path class="gl" d="M444.937,275.189a.686.686,0,1,1-.97,0A.686.686,0,0,1,444.937,275.189Z" transform="translate(-421.085 -252.306)"/><path class="gm" d="M439.136,269.387a.686.686,0,1,1-.971,0A.684.684,0,0,1,439.136,269.387Z" transform="translate(-407.722 -238.944)"/><path class="gn" d="M433.335,263.584a.686.686,0,1,1-.971,0A.688.688,0,0,1,433.335,263.584Z" transform="translate(-394.361 -225.581)"/><ellipse class="go" cx="0.686" cy="0.686" rx="0.686" ry="0.686" transform="translate(45.363 45.363)"/><circle class="gp" cx="0.686" cy="0.686" r="0.686" transform="translate(52.923 52.923)"/><path class="gq" d="M415.929,246.18a.686.686,0,1,1-.971,0A.687.687,0,0,1,415.929,246.18Z" transform="translate(-354.274 -185.495)"/><path class="gr" d="M410.127,240.377a.686.686,0,1,1-.97,0A.686.686,0,0,1,410.127,240.377Z" transform="translate(-340.912 -172.132)"/><path class="gs" d="M404.325,234.577a.686.686,0,1,1-.969,0A.686.686,0,0,1,404.325,234.577Z" transform="translate(-327.55 -158.771)"/></g><g transform="translate(136.816 53.207)"><circle class="gt" cx="0.686" cy="0.686" r="0.686" transform="translate(0)"/><path class="gu" d="M450.708,292.625a.686.686,0,1,1-.97,0A.686.686,0,0,1,450.708,292.625Z" transform="translate(-441.977 -284.863)"/><path class="gv" d="M444.906,286.823a.686.686,0,1,1-.97,0A.684.684,0,0,1,444.906,286.823Z" transform="translate(-428.614 -271.5)"/><path class="gw" d="M439.1,281.02a.686.686,0,1,1-.971,0A.686.686,0,0,1,439.1,281.02Z" transform="translate(-415.252 -258.138)"/><path class="gx" d="M433.3,275.22a.686.686,0,1,1-.971,0A.688.688,0,0,1,433.3,275.22Z" transform="translate(-401.891 -244.777)"/><circle class="gy" cx="0.686" cy="0.686" r="0.686" transform="translate(37.802 37.802)"/><circle class="gz" cx="0.686" cy="0.686" r="0.686" transform="translate(45.363 45.363)"/><path class="ha" d="M415.9,257.814a.686.686,0,1,1-.971,0A.688.688,0,0,1,415.9,257.814Z" transform="translate(-361.803 -204.689)"/><path class="hb" d="M410.1,252.013a.686.686,0,1,1-.97,0A.684.684,0,0,1,410.1,252.013Z" transform="translate(-348.442 -191.328)"/><path class="hc" d="M404.294,246.211a.686.686,0,1,1-.97,0A.684.684,0,0,1,404.294,246.211Z" transform="translate(-335.079 -177.965)"/><path class="hd" d="M398.492,240.408a.686.686,0,1,1-.971,0A.686.686,0,0,1,398.492,240.408Z" transform="translate(-321.716 -164.602)"/></g><g transform="translate(144.417 45.606)"><path class="he" d="M450.678,304.258a.686.686,0,1,1-.971,0A.688.688,0,0,1,450.678,304.258Z" transform="translate(-449.506 -304.057)"/><path class="hf" d="M444.875,298.457a.686.686,0,1,1-.97,0A.686.686,0,0,1,444.875,298.457Z" transform="translate(-436.143 -290.695)"/><path class="hg" d="M439.074,292.656a.686.686,0,1,1-.971,0A.684.684,0,0,1,439.074,292.656Z" transform="translate(-422.781 -277.334)"/><path class="hh" d="M433.273,286.854a.686.686,0,1,1-.971,0A.687.687,0,0,1,433.273,286.854Z" transform="translate(-409.42 -263.971)"/><path class="hi" d="M427.47,281.051a.686.686,0,1,1-.97,0A.686.686,0,0,1,427.47,281.051Z" transform="translate(-396.057 -250.608)"/><path class="hj" d="M421.669,275.251a.686.686,0,1,1-.971,0A.686.686,0,0,1,421.669,275.251Z" transform="translate(-382.695 -237.247)"/><circle class="hk" cx="0.686" cy="0.686" r="0.686" transform="translate(45.363 45.363)"/><path class="hl" d="M410.066,263.646a.686.686,0,1,1-.971,0A.688.688,0,0,1,410.066,263.646Z" transform="translate(-355.971 -210.522)"/><path class="hm" d="M404.263,257.845a.686.686,0,1,1-.969,0A.686.686,0,0,1,404.263,257.845Z" transform="translate(-342.608 -197.16)"/><path class="hn" d="M398.462,252.044a.686.686,0,1,1-.971,0A.684.684,0,0,1,398.462,252.044Z" transform="translate(-329.246 -183.798)"/><path class="ho" d="M392.661,246.242a.686.686,0,1,1-.971,0A.687.687,0,0,1,392.661,246.242Z" transform="translate(-315.885 -170.436)"/></g><g transform="translate(152.018 38.005)"><path class="hp" d="M444.844,310.092a.686.686,0,1,1-.97,0A.684.684,0,0,1,444.844,310.092Z" transform="translate(-443.673 -309.89)"/><circle class="hq" cx="0.686" cy="0.686" r="0.686" transform="translate(7.56 7.56)"/><path class="hr" d="M433.242,298.487a.687.687,0,1,1-.971,0A.688.688,0,0,1,433.242,298.487Z" transform="translate(-416.95 -283.166)"/><path class="hs" d="M427.439,292.687a.686.686,0,1,1-.97,0A.684.684,0,0,1,427.439,292.687Z" transform="translate(-403.587 -269.804)"/><circle class="ht" cx="0.686" cy="0.686" r="0.686" transform="translate(30.242 30.242)"/><path class="hu" d="M415.836,281.082a.686.686,0,1,1-.971,0A.688.688,0,0,1,415.836,281.082Z" transform="translate(-376.863 -243.08)"/><path class="hv" d="M410.035,275.282a.686.686,0,1,1-.971,0A.688.688,0,0,1,410.035,275.282Z" transform="translate(-363.501 -229.718)"/><path class="hw" d="M404.232,269.48a.686.686,0,1,1-.97,0A.684.684,0,0,1,404.232,269.48Z" transform="translate(-350.138 -216.355)"/><path class="hx" d="M398.431,263.677a.686.686,0,1,1-.971,0A.686.686,0,0,1,398.431,263.677Z" transform="translate(-336.776 -202.993)"/><path class="hy" d="M392.63,257.876a.686.686,0,1,1-.971,0A.688.688,0,0,1,392.63,257.876Z" transform="translate(-323.414 -189.63)"/><path class="hz" d="M386.827,252.075a.686.686,0,1,1-.97,0A.684.684,0,0,1,386.827,252.075Z" transform="translate(-310.052 -176.269)"/></g><g transform="translate(159.619 30.404)"><path class="ia" d="M439.012,315.925a.686.686,0,1,1-.971,0A.686.686,0,0,1,439.012,315.925Z" transform="translate(-437.84 -315.723)"/><circle class="ib" cx="0.686" cy="0.686" r="0.686" transform="translate(7.56 7.561)"/><circle class="ic" cx="0.686" cy="0.686" r="0.686" transform="translate(15.121 15.121)"/><path class="id" d="M421.606,298.52a.686.686,0,1,1-.97,0A.686.686,0,0,1,421.606,298.52Z" transform="translate(-397.754 -275.637)"/><path class="ie" d="M415.805,292.718a.686.686,0,1,1-.971,0A.687.687,0,0,1,415.805,292.718Z" transform="translate(-384.392 -262.274)"/><circle class="if" cx="0.686" cy="0.686" r="0.686" transform="translate(37.802 37.803)"/><path class="ig" d="M404.2,281.114a.686.686,0,1,1-.97,0A.686.686,0,0,1,404.2,281.114Z" transform="translate(-357.668 -235.55)"/><circle class="ih" cx="0.686" cy="0.686" r="0.686" transform="translate(52.923 52.924)"/><path class="ii" d="M392.6,269.511a.686.686,0,1,1-.971,0A.687.687,0,0,1,392.6,269.511Z" transform="translate(-330.944 -208.825)"/><circle class="ij" cx="0.686" cy="0.686" r="0.686" transform="translate(68.044 68.045)"/><path class="ik" d="M380.994,257.908a.686.686,0,1,1-.97,0A.686.686,0,0,1,380.994,257.908Z" transform="translate(-304.218 -182.102)"/></g><g transform="translate(167.22 22.803)"><path class="il" d="M433.179,321.757a.686.686,0,1,1-.971,0A.688.688,0,0,1,433.179,321.757Z" transform="translate(-432.008 -321.556)"/><path class="im" d="M427.377,315.956a.686.686,0,1,1-.97,0A.686.686,0,0,1,427.377,315.956Z" transform="translate(-418.646 -308.194)"/><path class="in" d="M421.575,310.154a.686.686,0,1,1-.97,0A.684.684,0,0,1,421.575,310.154Z" transform="translate(-405.284 -294.832)"/><path class="io" d="M415.774,304.351a.687.687,0,1,1-.971,0A.688.688,0,0,1,415.774,304.351Z" transform="translate(-391.922 -281.469)"/><circle class="ip" cx="0.686" cy="0.686" r="0.686" transform="translate(30.241 30.241)"/><circle class="iq" cx="0.686" cy="0.686" r="0.686" transform="translate(37.802 37.802)"/><path class="ir" d="M398.368,286.947a.686.686,0,1,1-.971,0A.684.684,0,0,1,398.368,286.947Z" transform="translate(-351.835 -241.383)"/><path class="is" d="M392.568,281.145a.687.687,0,1,1-.971,0A.688.688,0,0,1,392.568,281.145Z" transform="translate(-338.474 -228.021)"/><path class="it" d="M386.765,275.344a.686.686,0,1,1-.97,0A.686.686,0,0,1,386.765,275.344Z" transform="translate(-325.111 -214.659)"/><path class="iu" d="M380.963,269.542a.686.686,0,1,1-.97,0A.684.684,0,0,1,380.963,269.542Z" transform="translate(-311.748 -201.296)"/><path class="iv" d="M375.163,263.739a.687.687,0,1,1-.971,0A.688.688,0,0,1,375.163,263.739Z" transform="translate(-298.387 -187.934)"/></g><g transform="translate(174.821 15.202)"><path class="iw" d="M427.346,327.589a.686.686,0,1,1-.97,0A.686.686,0,0,1,427.346,327.589Z" transform="translate(-426.175 -327.388)"/><circle class="ix" cx="0.686" cy="0.686" r="0.686" transform="translate(7.561 7.561)"/><path class="iy" d="M415.743,315.987a.687.687,0,1,1-.971,0A.686.686,0,0,1,415.743,315.987Z" transform="translate(-399.45 -300.664)"/><path class="iz" d="M409.942,310.185a.686.686,0,1,1-.971,0A.687.687,0,0,1,409.942,310.185Z" transform="translate(-386.089 -287.302)"/><circle class="ja" cx="0.686" cy="0.686" r="0.686" transform="translate(30.242 30.242)"/><path class="jb" d="M398.338,298.582a.686.686,0,1,1-.971,0A.686.686,0,0,1,398.338,298.582Z" transform="translate(-359.364 -260.578)"/><circle class="jc" cx="0.686" cy="0.686" r="0.686" transform="translate(45.363 45.363)"/><path class="jd" d="M386.734,286.977a.686.686,0,1,1-.97,0A.686.686,0,0,1,386.734,286.977Z" transform="translate(-332.64 -233.853)"/><circle class="je" cx="0.686" cy="0.686" r="0.686" transform="translate(60.484 60.484)"/><path class="jf" d="M375.131,275.375a.686.686,0,1,1-.971,0A.688.688,0,0,1,375.131,275.375Z" transform="translate(-305.915 -207.129)"/><path class="jg" d="M369.33,269.573a.686.686,0,1,1-.971,0A.687.687,0,0,1,369.33,269.573Z" transform="translate(-292.554 -193.767)"/></g><g transform="translate(182.422 7.601)"><path class="jh" d="M421.513,333.423a.686.686,0,1,1-.97,0A.684.684,0,0,1,421.513,333.423Z" transform="translate(-420.342 -333.221)"/><path class="ji" d="M415.712,327.62a.686.686,0,1,1-.971,0A.686.686,0,0,1,415.712,327.62Z" transform="translate(-406.98 -319.859)"/><path class="jj" d="M409.911,321.819a.687.687,0,1,1-.971,0A.688.688,0,0,1,409.911,321.819Z" transform="translate(-393.619 -306.497)"/><path class="jk" d="M404.108,316.018a.686.686,0,1,1-.969,0A.686.686,0,0,1,404.108,316.018Z" transform="translate(-380.256 -293.135)"/><path class="jl" d="M398.307,310.216a.686.686,0,1,1-.971,0A.684.684,0,0,1,398.307,310.216Z" transform="translate(-366.894 -279.772)"/><circle class="jm" cx="0.686" cy="0.686" r="0.686" transform="translate(37.802 37.802)"/><path class="jn" d="M386.7,298.613a.686.686,0,1,1-.97,0A.686.686,0,0,1,386.7,298.613Z" transform="translate(-340.17 -253.049)"/><path class="jo" d="M380.9,292.811a.686.686,0,1,1-.97,0A.684.684,0,0,1,380.9,292.811Z" transform="translate(-326.807 -239.686)"/><path class="jp" d="M375.1,287.008a.686.686,0,1,1-.971,0A.686.686,0,0,1,375.1,287.008Z" transform="translate(-313.444 -226.324)"/><path class="jq" d="M369.3,281.207a.686.686,0,1,1-.971,0A.688.688,0,0,1,369.3,281.207Z" transform="translate(-300.083 -212.962)"/><path class="jr" d="M363.5,275.406a.686.686,0,1,1-.969,0A.684.684,0,0,1,363.5,275.406Z" transform="translate(-286.721 -199.6)"/></g><g transform="translate(190.023)"><path class="js" d="M415.681,339.255a.686.686,0,1,1-.971,0A.686.686,0,0,1,415.681,339.255Z" transform="translate(-414.51 -339.054)"/><path class="jt" d="M409.88,333.454a.686.686,0,1,1-.971,0A.686.686,0,0,1,409.88,333.454Z" transform="translate(-401.148 -325.692)"/><circle class="ju" cx="0.686" cy="0.686" r="0.686" transform="translate(15.121 15.121)"/><circle class="jv" cx="0.686" cy="0.686" r="0.686" transform="translate(22.681 22.682)"/><path class="jw" d="M392.474,316.049a.686.686,0,1,1-.971,0A.687.687,0,0,1,392.474,316.049Z" transform="translate(-361.061 -285.605)"/><path class="jx" d="M386.673,310.247a.686.686,0,1,1-.971,0A.687.687,0,0,1,386.673,310.247Z" transform="translate(-347.699 -272.242)"/><path class="jy" d="M380.87,304.444a.686.686,0,1,1-.97,0A.686.686,0,0,1,380.87,304.444Z" transform="translate(-334.337 -258.88)"/><path class="jz" d="M375.069,298.643a.686.686,0,1,1-.971,0A.686.686,0,0,1,375.069,298.643Z" transform="translate(-320.974 -245.519)"/><path class="ka" d="M369.268,292.842a.686.686,0,1,1-.971,0A.687.687,0,0,1,369.268,292.842Z" transform="translate(-307.613 -232.156)"/><circle class="kb" cx="0.686" cy="0.686" r="0.686" transform="translate(68.044 68.045)"/><circle class="kc" cx="0.686" cy="0.686" r="0.686" transform="translate(75.604 75.605)"/></g></g><path class="kd" d="M69.487,0,92.65,40.043,69.487,80.087H23.162L0,40.043,23.162,0Z" transform="translate(146.367 134.926) rotate(180)"/></g></svg>