<svg xmlns="http://www.w3.org/2000/svg" width="19.44" height="19.44" viewBox="0 0 19.44 19.44"><defs><style>.a{fill:#ededed;}.b{fill:#55cd6c;}.c{fill:#fefefe;}</style></defs><g transform="translate(-20 -604)"><path class="a" d="M0,19.44l1.341-4.86A9.668,9.668,0,0,1,9.687,0,9.764,9.764,0,0,1,19.44,9.653,9.879,9.879,0,0,1,9.687,19.44,9.757,9.757,0,0,1,4.961,18.1Z" transform="translate(20 604)"/><path class="b" d="M47.691,58.819l.3.168a7.958,7.958,0,0,0,4.19,1.24,8.126,8.126,0,0,0,8.044-8.111,8.044,8.044,0,0,0-16.088,0,8.12,8.12,0,0,0,1.24,4.324l.2.3-.771,2.815Z" transform="translate(-22.341 561.538)"/><path class="c" d="M131.891,135.1l-.637-.034a.761.761,0,0,0-.536.2,2.777,2.777,0,0,0-.938,1.441,4.359,4.359,0,0,0,1.006,3.419,10.157,10.157,0,0,0,5.5,3.989,2.723,2.723,0,0,0,2.279-.268,1.978,1.978,0,0,0,.871-1.274l.1-.469a.337.337,0,0,0-.168-.369l-2.112-.972a.32.32,0,0,0-.4.1l-.838,1.073a.261.261,0,0,1-.268.067,6.514,6.514,0,0,1-3.519-3.017.253.253,0,0,1,.034-.268l.8-.9a.413.413,0,0,0,.067-.335l-.972-2.179a.292.292,0,0,0-.268-.2" transform="translate(-104.785 473.512)"/></g></svg>