<svg xmlns="http://www.w3.org/2000/svg" xmlns:xlink="http://www.w3.org/1999/xlink" width="34" height="34" viewBox="0 0 34 34"><defs><style>.a,.d{fill:#fff;}.a{stroke:#707070;}.b{clip-path:url(#a);}.c{fill:#2a3d5c;}.e{fill:#a99aff;}</style><clipPath id="a"><rect class="a" width="34" height="34" transform="translate(708 555)"/></clipPath></defs><g class="b" transform="translate(-708 -555)"><g transform="translate(-2595 -1142)"><path class="c" d="M4.118,18.872v-3.7h-2.5a.712.712,0,0,1-.71-.71V2.911a.712.712,0,0,1,.71-.71h8.733a.7.7,0,0,1,.675.5L11.4,3.891,26.52.021A.7.7,0,0,1,27.372.5L28.053,2.7a.711.711,0,0,1-.426.873l-4.736,1.8V9.2a1.844,1.844,0,0,1,1.143,2.67l3.877,2.286a.608.608,0,0,0,.312.085h0a.173.173,0,0,1,.17.17v7.455a.712.712,0,0,1-.71.71H17.2a.712.712,0,0,1-.71-.71V14.406a.173.173,0,0,1,.17-.17h0a.608.608,0,0,0,.312-.085l3.87-2.286a1.817,1.817,0,0,1-.227-.873h.916a.946.946,0,0,0,.1.4l.817-.483.817.483a.925.925,0,0,0-.817-1.335H21.99V5.73L13.043,9.145l.653,2.073a.66.66,0,0,1,.035.206l.014,3.025a.717.717,0,0,1-.7.717h-2.5v3.7h3.408a.712.712,0,0,1,.71.71v2.286a.712.712,0,0,1-.71.71H.71a.712.712,0,0,1-.71-.71V19.582a.712.712,0,0,1,.71-.71ZM26.25,14.236,23.41,12.56a1.775,1.775,0,0,1-1.931,0l-2.84,1.676Zm.987-11.375L26.64.88,11.715,4.764l-.035.007,1.093,3.486ZM12.823,14.236V11.531L10.2,3.124H1.825V14.236Zm-3.2.93H5.041v3.7h4.58Z" transform="translate(3306 1703.001)"/><path class="c" d="M5.23,6.36H9.824a.707.707,0,0,1,.682.518l1.7,5.993a.708.708,0,0,1-.49.873.6.6,0,0,1-.192.028H5.23a.712.712,0,0,1-.71-.71V7.07A.712.712,0,0,1,5.23,6.36Z" transform="translate(3304.689 1701.156)"/><path class="d" d="M24.517,27.843h9.365a.712.712,0,0,0,.71-.71V22.07a.712.712,0,0,0-.71-.71H25.22a.712.712,0,0,0-.71.71l.007,5.773Z" transform="translate(3298.893 1696.807)"/><path class="e" d="M1.29,29.733H14.113V27.88H1.29Z" transform="translate(3305.626 1694.916)"/><path class="e" d="M24.517,28.283h9.365a.712.712,0,0,0,.71-.71V22.88a14.1,14.1,0,0,0-5.247,1.086A17.416,17.416,0,0,0,24.51,27.1l.007,1.179Z" transform="translate(3298.893 1696.366)"/><path class="e" d="M6.51,13.222h4.161a.712.712,0,0,0,.71-.71.6.6,0,0,0-.028-.192L10.188,8.188a.707.707,0,0,0-.682-.518h-3a.712.712,0,0,0-.71.71v4.132A.708.708,0,0,0,6.51,13.222Z" transform="translate(3304.318 1700.777)"/></g></g></svg>