<svg xmlns="http://www.w3.org/2000/svg" xmlns:xlink="http://www.w3.org/1999/xlink" width="34" height="34" viewBox="0 0 34 34"><defs><style>.a{fill:#fff;}.b{clip-path:url(#a);}.c,.j{fill:none;}.c{stroke:#2a3d5c;}.d,.f{fill:#cef9ff;}.e{fill:#2a3d5c;}.f,.g{stroke:#60c0ce;stroke-width:0.8px;}.g{fill:#afe5ed;}.h,.i{stroke:none;}.i{fill:#2a3d5c;}</style><clipPath id="a"><rect class="a" width="34" height="34" transform="translate(693 539)"/></clipPath></defs><g class="b" transform="translate(-693 -539)"><g transform="translate(-1945 -742.149)"><path class="c" d="M615.882,895.5v-4.177l-2.351-2.351" transform="translate(2034.893 395.938)"/><path class="c" d="M714.128,930.086v-4.159" transform="translate(1940.4 359.966)"/><path class="c" d="M778,914.585v-2.277l3.153-2.943" transform="translate(1880.966 376.854)"/><path class="c" d="M818,1008.946h2.614l1.505-1.505" transform="translate(1842.143 284.371)"/><path class="c" d="M820.289,1073.456h2.887l2.978-1.476" transform="translate(1841.388 223.275)"/><path class="c" d="M822.311,1159.109h4.918l1.318,1.318" transform="translate(1837.415 141.731)"/><path class="c" d="M778,1206v3.538h3.3" transform="translate(1880.966 95.764)"/><path class="c" d="M713,1206v3.918l3.139,2.093" transform="translate(1941.8 97.846)"/><path class="c" d="M617.117,1206v3.589l-2.228,2.254" transform="translate(2033.621 96.458)"/><path class="c" d="M535.449,1156.76h-2.482l-2.076,3.043" transform="translate(2112.93 143.235)"/><path class="c" d="M511.87,1061.857h-3.176l-3,2.63" transform="translate(2135.815 234.136)"/><path class="c" d="M546.618,1006.686h-2.14l-1.653-1.66" transform="translate(2102.455 285.938)"/><g class="d" transform="translate(2647.244 1289.596)"><path class="h" d="M 7.284561157226562 14.06912136077881 C 3.543541193008423 14.06912136077881 0.5000011324882507 11.02558135986328 0.5000011324882507 7.284561157226562 C 0.5000011324882507 3.543541193008423 3.543541193008423 0.5000011324882507 7.284561157226562 0.5000011324882507 C 11.02558135986328 0.5000011324882507 14.06912136077881 3.543541193008423 14.06912136077881 7.284561157226562 C 14.06912136077881 11.02558135986328 11.02558135986328 14.06912136077881 7.284561157226562 14.06912136077881 Z"/><path class="i" d="M 7.284561157226562 1.000000953674316 C 3.819241523742676 1.000000953674316 1.000000953674316 3.819241523742676 1.000000953674316 7.284561157226562 C 1.000000953674316 10.74988174438477 3.819241523742676 13.56912136077881 7.284561157226562 13.56912136077881 C 10.74988174438477 13.56912136077881 13.56912136077881 10.74988174438477 13.56912136077881 7.284561157226562 C 13.56912136077881 3.819241523742676 10.74988174438477 1.000000953674316 7.284561157226562 1.000000953674316 M 7.284561157226562 9.5367431640625e-07 C 11.30771064758301 9.5367431640625e-07 14.56912136077881 3.261410713195801 14.56912136077881 7.284561157226562 C 14.56912136077881 11.30771064758301 11.30771064758301 14.56912136077881 7.284561157226562 14.56912136077881 C 3.261410713195801 14.56912136077881 9.5367431640625e-07 11.30771064758301 9.5367431640625e-07 7.284561157226562 C 9.5367431640625e-07 3.261410713195801 3.261410713195801 9.5367431640625e-07 7.284561157226562 9.5367431640625e-07 Z"/></g><circle class="e" cx="1.041" cy="1.041" r="1.041" transform="translate(2664.745 1301.493)"/><circle class="e" cx="1.041" cy="1.041" r="1.041" transform="translate(2660.582 1304.268)"/><circle class="e" cx="1.041" cy="1.041" r="1.041" transform="translate(2666.826 1293.862)"/><circle class="e" cx="1.041" cy="1.041" r="1.041" transform="translate(2661.276 1284.843)"/><circle class="e" cx="1.041" cy="1.041" r="1.041" transform="translate(2663.357 1290.393)"/><circle class="e" cx="1.041" cy="1.041" r="1.041" transform="translate(2653.488 1284.843)"/><circle class="e" cx="1.041" cy="1.041" r="1.041" transform="translate(2647.938 1284.149)"/><circle class="e" cx="1.041" cy="1.041" r="1.041" transform="translate(2644.469 1290.393)"/><circle class="e" cx="1.041" cy="1.041" r="1.041" transform="translate(2643.081 1301.493)"/><circle class="e" cx="1.041" cy="1.041" r="1.041" transform="translate(2641 1297.331)"/><circle class="e" cx="1.041" cy="1.041" r="1.041" transform="translate(2647.938 1307.043)"/><circle class="e" cx="1.041" cy="1.041" r="1.041" transform="translate(2656.957 1309.125)"/><g transform="translate(2651.753 1292.474)"><g transform="translate(0 0)"><g transform="translate(0 0)"><g class="f" transform="translate(0.617)"><rect class="h" width="4.317" height="6.783" rx="2.158"/><rect class="j" x="0.4" y="0.4" width="3.517" height="5.983" rx="1.758"/></g><g class="g" transform="translate(1.85 1.233)"><rect class="h" width="1.85" height="4.317" rx="0.925"/><rect class="j" x="0.4" y="0.4" width="1.05" height="3.517" rx="0.525"/></g><g class="f" transform="translate(0 3.7)"><circle class="h" cx="2.775" cy="2.775" r="2.775"/><circle class="j" cx="2.775" cy="2.775" r="2.375"/></g><g class="g" transform="translate(1.233 4.933)"><circle class="h" cx="1.542" cy="1.542" r="1.542"/><circle class="j" cx="1.542" cy="1.542" r="1.142"/></g></g><circle class="g" cx="0.202" cy="0.202" r="0.202" transform="translate(2.651 6.316)"/></g></g></g></g></svg>