<svg xmlns="http://www.w3.org/2000/svg" xmlns:xlink="http://www.w3.org/1999/xlink" width="34" height="34" viewBox="0 0 34 34"><defs><style>.a{fill:#fff;}.b{clip-path:url(#a);}.c{fill:#a99aff;}.d{fill:#2a3d5c;}.e{fill:none;}</style><clipPath id="a"><rect class="a" width="34" height="34" transform="translate(513 355)"/></clipPath></defs><g class="b" transform="translate(-513 -355)"><g transform="translate(-21 111)"><path class="c" d="M508.782,5352.205l1.387-.393,1.189.393.3,1.938-.161,1.39,1.937.516.988,1,.221.345v2.17l-.853.337-8.149-.138.288-3.258,1.979-.769.872-.206-.566-1.39v-1.5Z" transform="translate(31.922 -5086.297)"/><path class="c" d="M508.782,5352.205l1.387-.393,1.189.393.75,1.271-.609,2.058,1.937.516.988,1,.221.345v2.17l-.853.337-8.149-.138.288-3.258,1.979-.769.872-.206-.566-1.39.2-1.324Z" transform="translate(40.922 -5086.297)"/><path class="c" d="M508.772,5352.205l1.387-.393,1.189.393.3,1.938-.161,1.39,1.938.516.988,1,.221.345v2.17l-.853.337-8.149-.138-.068-1.8.356-1.454,1.979-.769.872-.206-.566-1.39v-1.5Z" transform="translate(50.329 -5086.297)"/><g transform="translate(537 249)"><g transform="translate(4.586)"><path class="d" d="M-5.972-4.5H-17.5V-5.619a3.037,3.037,0,0,1,3.034-3.034H-12.3l.261.814-.492,2.22.792.6.763-.6-.465-2.22.263-.814h2.167A3.037,3.037,0,0,1-5.972-5.619Zm-7.173-7.513a3.608,3.608,0,0,0,2.441-.947l1.2.707v.86a2.308,2.308,0,0,1-2.274,2.265,2.217,2.217,0,0,1-2.167-2.265v-.62Zm3.711,2.627h-.232A3.283,3.283,0,0,0-8.87-11.6V-12.98a2.739,2.739,0,0,0-2.905-3.027c-1.844,0-2.831,1.182-2.831,3.027V-11.6a3.241,3.241,0,0,0,.731,2.221h-.232a3.807,3.807,0,0,0-4.114,3.764v1.347a.561.561,0,0,0,.562.562h5.493v.966H-20.7a.562.562,0,0,0-.562.562V-1.2c0,.311.157.562.467.562s.406-.252.406-.562V-1.93h8.218V-1.2c0,.311.122.562.433.562s.4-.252.4-.562V-1.93h6.387c.31,0,.562.058.562-.253a.562.562,0,0,0-.562-.562H-11.33V-3.71H-5.8a.561.561,0,0,0,.562-.562V-5.619c0-2.292-1.906-3.764-4.2-3.764" transform="translate(21.257 16.007)"/></g><g transform="translate(11.859 0.656)"><path class="c" d="M-.879,0C.841,0,1.13,1.2,1.288,2.269L.3,1.687a.56.56,0,0,0-.715.124A2.49,2.49,0,0,1-2.331,2.7h-.8V2.594C-3.13,1.371-2.788,0-.879,0" transform="translate(3.13)"/></g><g transform="translate(20.433 13.262)"><path class="d" d="M-1.016,0h-2.6V.817h2.342V1.55c0,.311.077.56.388.56s.431-.25.431-.56V.562A.562.562,0,0,0-1.016,0" transform="translate(3.615)"/></g><path class="e" d="M0-34.791H28.132V-9.774H0Z" transform="translate(0 34.791)"/><g transform="translate(0 16.125)"><path class="d" d="M-7.458-3.192V-4.727a2.169,2.169,0,0,1,2.185-2h1.62v2.244c0,.311.1.567.41.567s.352-.256.352-.567V-6.724h1.713a2,2,0,0,1,2,2v1.534Zm2.747-6.019A1.488,1.488,0,0,1-3.226-10.7,1.488,1.488,0,0,1-1.74-9.212V-8.7A1.487,1.487,0,0,1-3.226-7.215,1.487,1.487,0,0,1-4.711-8.7ZM-16.644-3.192V-4.727a2.144,2.144,0,0,1,2.159-2h1.64v2.244c0,.311.1.562.413.562s.4-.251.4-.562V-6.724h1.639a2.14,2.14,0,0,1,2.154,2v1.534Zm2.72-6.019A1.488,1.488,0,0,1-12.438-10.7a1.488,1.488,0,0,1,1.486,1.486V-8.7a1.487,1.487,0,0,1-1.486,1.485A1.487,1.487,0,0,1-13.924-8.7Zm-3.547,6.019H-25.7V-4.727a2,2,0,0,1,2-2h1.562v2.244c0,.311.1.551.409.551s.4-.24.4-.551V-6.724H-19.6a2.12,2.12,0,0,1,2.133,2Zm-5.666-6.019A1.488,1.488,0,0,1-21.652-10.7a1.488,1.488,0,0,1,1.486,1.486V-8.7a1.487,1.487,0,0,1-1.486,1.485A1.487,1.487,0,0,1-23.137-8.7Zm21.8,1.66a2.639,2.639,0,0,0,.3-1.434,2.2,2.2,0,0,0-2.191-2.377A2.139,2.139,0,0,0-5.415-8.986a2.771,2.771,0,0,0,.328,1.434A3.679,3.679,0,0,0-7.833-6.217a3.71,3.71,0,0,0-2.761-1.335,2.886,2.886,0,0,0,.347-1.434,2.18,2.18,0,0,0-2.195-2.377,2.173,2.173,0,0,0-2.146,2.377,2.646,2.646,0,0,0,.3,1.434,3.708,3.708,0,0,0-2.76,1.335,3.778,3.778,0,0,0-2.794-1.335,2.393,2.393,0,0,0,.379-1.434,2.169,2.169,0,0,0-2.2-2.377A2.171,2.171,0,0,0-23.84-8.986a2.76,2.76,0,0,0,.319,1.434,2.878,2.878,0,0,0-3.027,2.825v1.694a.562.562,0,0,0,.562.562H1.022a.561.561,0,0,0,.562-.562V-4.727A2.787,2.787,0,0,0-1.337-7.552" transform="translate(26.548 11.363)"/></g></g></g></g></svg>