<svg xmlns="http://www.w3.org/2000/svg" xmlns:xlink="http://www.w3.org/1999/xlink" width="34" height="34" viewBox="0 0 34 34"><defs><style>.a{fill:#fff;}.b{clip-path:url(#a);}.c{fill:#253858;stroke:#fff;stroke-width:0.5px;}.d{fill:#ffc3c3;}.e{fill:none;}</style><clipPath id="a"><rect class="a" width="34" height="34" transform="translate(308 251)"/></clipPath></defs><g class="b" transform="translate(-308 -251)"><g transform="translate(-2545 -1488.57)"><g transform="translate(2859 1742.57)"><path class="c" d="M-.008-3.223.013-3.5c.338-4.2,2.39-6.831,4.2-9.152C5.887-14.8,7.334-16.658,7.334-19.4a.585.585,0,0,1,.334-.522.636.636,0,0,1,.64.044,14.929,14.929,0,0,1,5.776,7.959,24.834,24.834,0,0,1,.633,5.949c2.509-.51,3.078-4.089,3.084-4.127a.591.591,0,0,1,.32-.435.638.638,0,0,1,.558-.01c.132.06,3.23,1.562,3.41,7.554.013.2.013.4.013.6A10.84,10.84,0,0,1,11.026,8.172,10.84,10.84,0,0,1-.05-2.387c0-.292.021-.564.042-.836" transform="translate(0.05 19.984)"/></g><g transform="translate(2866.384 1760.325)"><path class="a" d="M-.687-1.811c2.036,0,3.811-1.159,3.811-3.227,0-.07,0-.142-.005-.228a4.57,4.57,0,0,0-.388-1.864A2.24,2.24,0,0,1,.7-5.726a.6.6,0,0,1-.615-.586A11.21,11.21,0,0,0-.153-8.981,5.568,5.568,0,0,0-1.4-11.229,7.473,7.473,0,0,1-2.667-9.011,6.533,6.533,0,0,0-4.245-5.349c-.008.1-.015.2-.015.311,0,2.067,1.537,3.227,3.573,3.227" transform="translate(4.26 11.229)"/></g><path class="d" d="M-1.215-4.823A3.8,3.8,0,0,1-2.24-7.253a2.192,2.192,0,0,1,0-.62A8.759,8.759,0,0,1-.425-11.938a13.251,13.251,0,0,0,1.157-1.8c.106-.179.335-.65.543-.75a.765.765,0,0,1,.734,0,5.277,5.277,0,0,1,1.713,2.9,9.276,9.276,0,0,1,.249,2.211c0,.756.71-.027.9-.329.21-.245.435-.7.927-.7s1.057.523,1.329,2.442c.005.092.006.186.006.278a4.427,4.427,0,0,1-.881,2.868c3.863-1.313,6.357-5.588,6.357-9.349,0-.175.013-.478,0-.673a8.438,8.438,0,0,0-2.494-6.078c-.536,1.833-1.521,4.282-4.317,4.5a.586.586,0,0,1-.616-.586A27.771,27.771,0,0,0,4.341-23.6,12.1,12.1,0,0,0-.192-29.907c-.343,2.513-2.042,4.85-3.552,6.786-1.793,2.3-3.411,4.616-3.721,8.469l-.021.281a4.319,4.319,0,0,0-.039.75c.442,4.857,2.856,6.832,6.311,8.8" transform="translate(2867.599 1773.946)"/><path class="e" d="M0-33.57H22.153V-5.414H0Z" transform="translate(2859 1776.14)"/></g></g></svg>