<svg xmlns="http://www.w3.org/2000/svg" xmlns:xlink="http://www.w3.org/1999/xlink" width="34" height="34" viewBox="0 0 34 34"><defs><style>.a,.f{fill:#fff;}.b{clip-path:url(#a);}.c,.e,.g{fill:#b6f4b4;}.d,.h{fill:none;}.d,.e,.f,.h{stroke:#2a3d5c;}.d{stroke-width:1.3px;}.e,.f,.h{stroke-linecap:round;stroke-linejoin:round;}.e,.f{stroke-width:1.125px;}.e,.f,.g{fill-rule:evenodd;}.h{stroke-width:1.4px;}</style><clipPath id="a"><rect class="a" width="34" height="34" transform="translate(99 252)"/></clipPath></defs><g class="b" transform="translate(-99 -252)"><g transform="translate(-184 33.526)"><path class="c" d="M77.428,5240.6s-1.693-6.717,7.175-7.282,2.38-3.772,2.38-3.772l-2.8-2.088-3.8.7-3.486,4.187-.547,3.709Z" transform="translate(210.654 -5004.979)"/><g transform="translate(287 222.911)"><g transform="translate(0)"><path class="d" d="M20.351-.35a6.662,6.662,0,0,0-6.086,4.374.539.539,0,0,1-1.012,0A6.47,6.47,0,0,0,7.333-.35C3.84-.35,1.046,2.742.693,7c0,.021-.007.042-.007.055A7.922,7.922,0,0,0,.914,9.8,12.673,12.673,0,0,0,4.54,16.2l9.226,8.866,9.386-8.873a12.673,12.673,0,0,0,3.625-6.4,7.936,7.936,0,0,0,.229-2.738" transform="translate(-0.653 0.35)"/></g><path class="e" d="M4.33,8.6a3.255,3.255,0,0,0-.4,1.012,2.286,2.286,0,0,0,.125.943c.2.929.423,1.858.652,2.78.035.132,0,.173-.146.173-.638-.007-2.738,0-3.369,0a.23.23,0,0,1-.243-.18Q.344,11.661-.259,10a.6.6,0,0,1,.028-.367A1.423,1.423,0,0,1,1.19,8.59Z" transform="translate(7.144 4.612)"/><path class="e" d="M11.734,8.6c.672.028,2.807-.062,3.466.049a1.4,1.4,0,0,1,1.116,1.227.4.4,0,0,1-.042.18c-.4,1.074-.79,2.149-1.171,3.223a.3.3,0,0,1-.34.229c-.6-.007-2.676-.007-3.279,0-.187,0-.187-.055-.153-.2.256-1.081.513-2.163.749-3.244a1.834,1.834,0,0,0-.263-1.241C11.8,8.756,11.727,8.7,11.734,8.6Z" transform="translate(3.587 4.613)"/><path class="f" d="M7.81,13.929H5.9c-.194,0-.312-.042-.36-.263-.3-1.338-.631-3.008-.936-4.339A1.753,1.753,0,0,1,6.327,7.448c1,0,2-.014,2.995.007a1.737,1.737,0,0,1,1.712,1.761,8.967,8.967,0,0,1-.243,1.1c-.236,1.005-.471,2.357-.693,3.362-.042.2-.152.25-.34.25H7.81Z" transform="translate(5.653 4.964)"/><path class="g" d="M8.014,14.522H6.226c-.18,0-.18-.076-.229-.277-.263-1.2-.43-2.676-.707-3.875a6.482,6.482,0,0,0,2.724.6,6.935,6.935,0,0,0,2.773-.6c-.035.333-.506,3.008-.7,3.916-.042.18-.028.25-.284.236Z" transform="translate(5.435 4.066)"/><path class="e" d="M2.5,5.039A2.166,2.166,0,0,1,.247,3.05,2.077,2.077,0,0,1,2.036.88a2.168,2.168,0,0,1,1.58.277c.076.049.166.083.146.215-.125.811.534,1.012,1.005,1.678.111.153-.319.8-.416.95A2.248,2.248,0,0,1,2.5,5.039Z" transform="translate(6.985 6.992)"/><path class="e" d="M15.624,2.816a2.115,2.115,0,0,1-1.9,2.19,2.195,2.195,0,0,1-2.19-1.054c-.076-.1-.818-.721-.728-.818.478-.672,1.47-.936,1.338-1.754-.021-.125.049-.166.132-.222A2.255,2.255,0,0,1,13.434.84,2.133,2.133,0,0,1,15.624,2.816Z" transform="translate(3.745 6.99)"/><path class="e" d="M7.714-1.38a2.648,2.648,0,0,1,2.7,2.558,2.668,2.668,0,0,1-2.7,2.537A2.666,2.666,0,0,1,4.99,1.192,2.66,2.66,0,0,1,7.714-1.38Z" transform="translate(5.527 7.671)"/><path class="h" d="M30.63,4.84h5.608" transform="translate(-9.851 -1.242)"/><path class="h" d="M34.67.69V6.443" transform="translate(-11.09 0.031)"/></g></g></g></svg>