<svg xmlns="http://www.w3.org/2000/svg" xmlns:xlink="http://www.w3.org/1999/xlink" width="34" height="34" viewBox="0 0 34 34"><defs><style>.a,.d{fill:#fff;}.b{clip-path:url(#a);}.c,.e,.h{fill:#afe5ed;}.c,.d,.f,.h{stroke:#2a3d5c;}.c,.d,.f{stroke-linecap:round;stroke-linejoin:round;}.c,.d,.e{fill-rule:evenodd;}.f{fill:none;}.g{fill:#b3bac5;}</style><clipPath id="a"><rect class="a" width="34" height="34" transform="translate(303 362)"/></clipPath></defs><g class="b" transform="translate(-303 -362)"><g transform="translate(-2810 -1318)"><path class="c" d="M4.644,12.963a3.736,3.736,0,0,0-.523,1.258,2.654,2.654,0,0,0,.159,1.166c.265,1.152.556,2.3.848,3.451.04.166,0,.212-.192.212-.828-.007-3.577,0-4.4,0a.308.308,0,0,1-.318-.219C-.31,17.454-.84,16.083-1.363,14.705a.766.766,0,0,1,.033-.457,1.9,1.9,0,0,1,1.868-1.3Z" transform="translate(3122.927 1691.198)"/><path class="c" d="M15.058,12.975c.874.04,3.669-.079,4.537.06a1.773,1.773,0,0,1,1.457,1.523.535.535,0,0,1-.053.225c-.517,1.331-1.033,2.663-1.53,4a.389.389,0,0,1-.437.285c-.788-.013-3.5-.013-4.285,0-.245,0-.245-.073-.2-.245.338-1.345.669-2.682.98-4.034a2.221,2.221,0,0,0-.344-1.543C15.137,13.167,15.045,13.1,15.058,12.975Z" transform="translate(3117.554 1691.193)"/><path class="d" d="M9.5,18.833H7.005c-.258,0-.411-.053-.477-.331-.384-1.656-.821-3.033-1.225-4.689a2.172,2.172,0,0,1,1.755-2.265,2.081,2.081,0,0,1,.5-.06c1.3,0,2.61-.013,3.921.007a2.206,2.206,0,0,1,2.239,2.186,10.967,10.967,0,0,1-.311,1.364c-.3,1.252-.616,2.225-.9,3.484-.06.252-.205.3-.444.3Z" transform="translate(3120.679 1691.693)"/><path class="e" d="M9.726,19.724H7.381c-.238,0-.238-.093-.3-.344-.344-1.49-.715-2.629-1.073-4.12A10.014,10.014,0,0,0,9.726,16a10.32,10.32,0,0,0,3.755-.742c-.046.411-.795,3.04-1.053,4.166-.053.225-.033.3-.364.291H9.726Z" transform="translate(3120.429 1690.418)"/><path class="c" d="M2.29,8.109A2.8,2.8,0,0,1-.664,5.639,2.626,2.626,0,0,1,1.681,2.95a2.94,2.94,0,0,1,2.066.338c.1.06.212.106.185.265-.166,1.007.7,1.258,1.325,2.08.139.192-.417.994-.543,1.179A3,3,0,0,1,2.29,8.109Z" transform="translate(3122.685 1694.595)"/><path class="c" d="M20.114,5.341A2.67,2.67,0,0,1,17.63,8.056a2.922,2.922,0,0,1-2.861-1.3c-.1-.126-1.066-.9-.954-1.013.623-.841,1.921-1.159,1.755-2.179-.026-.152.066-.205.172-.278A2.993,2.993,0,0,1,17.26,2.89,2.748,2.748,0,0,1,20.114,5.341Z" transform="translate(3117.796 1694.595)"/><path class="c" d="M9.4.01A3.394,3.394,0,0,1,12.94,3.189,3.41,3.41,0,0,1,9.4,6.335,3.417,3.417,0,0,1,5.84,3.2,3.4,3.4,0,0,1,9.4.01Z" transform="translate(3120.486 1695.567)"/><path class="f" d="M16.29.01V1" transform="translate(3113.42 1684.99)"/><path class="f" d="M17.93,11.047c.4-.8,1.921-1.424,3.7-1.424,2.106,0,4.239.8,4.239,1.848a10.926,10.926,0,0,0-5.921-8.524A12.972,12.972,0,0,0,8.71,2.6" transform="translate(3115.98 1684.49)"/><path class="f" d="M6.141,11.6c-.4-.828-1.921-1.464-3.7-1.464-2.106,0-3.828.921-3.828,2A11.484,11.484,0,0,1,1.3,6.025a9.873,9.873,0,0,1,4-2.855" transform="translate(3119.39 1683.923)"/><path class="g" d="M14.156,1.49c-2.172,0-3.961,4.073-4.186,9.3a.246.246,0,0,0,.166.219.344.344,0,0,0,.311-.04,6.126,6.126,0,0,1,3.709-1.013A6.1,6.1,0,0,1,17.865,11a.325.325,0,0,0,.311.04.228.228,0,0,0,.166-.219C18.123,5.683,16.408,1.669,14.3,1.5,14.249,1.5,14.2,1.49,14.156,1.49Z" transform="translate(3115.554 1684.49)"/><path class="h" d="M14.156,1.49c-1.766,0-3.279,2.692-3.944,6.763a22.589,22.589,0,0,0-.242,2.536.246.246,0,0,0,.166.219.344.344,0,0,0,.311-.04,6.126,6.126,0,0,1,3.709-1.013A6.1,6.1,0,0,1,17.865,11a.325.325,0,0,0,.311.04.228.228,0,0,0,.166-.219C18.123,5.683,16.408,1.669,14.3,1.5,14.249,1.5,14.2,1.49,14.156,1.49Z" transform="translate(3115.554 1684.49)"/></g></g></svg>