<svg xmlns="http://www.w3.org/2000/svg" xmlns:xlink="http://www.w3.org/1999/xlink" width="32" height="32" viewBox="0 0 32 32"><defs><style>.a,.c{fill:#fff;}.b{clip-path:url(#a);}.c,.f{fill-rule:evenodd;}.d,.e,.g{fill:none;}.d,.g{stroke:#2a3d5c;}.f{fill:#b6f4b4;}.g{stroke-linecap:round;stroke-linejoin:round;}</style><clipPath id="a"><rect class="a" width="32" height="32" transform="translate(304 576)"/></clipPath></defs><g class="b" transform="translate(-304 -576)"><g transform="translate(-3165 -1166.98)"><g transform="translate(3485.286 1751.971)"><path class="c" d="M-.28,0-.905,2.572,5.949,4.313,6.575,1.74Z" transform="translate(0.905)"/></g><g transform="translate(3485.286 1751.971)"><path class="d" d="M-.28,0-.905,2.572,5.949,4.313,6.575,1.74Z" transform="translate(0.905)"/></g><g transform="translate(3492.733 1758.137)"><path class="c" d="M-.264,0-.851,2.406l2.34.6L2.077.6Z" transform="translate(0.851)"/></g><g transform="translate(3492.733 1758.137)"><path class="d" d="M-.264,0-.851,2.406l2.34.6L2.077.6Z" transform="translate(0.851)"/></g><g transform="translate(3495.353 1762.736)"><path class="c" d="M-.224,0l-.5,2.042,1.983.5.5-2.041Z" transform="translate(0.723)"/></g><g transform="translate(3495.353 1762.736)"><path class="d" d="M-.224,0l-.5,2.042,1.983.5.5-2.041Z" transform="translate(0.723)"/></g><path class="e" d="M0-28.98H27.376v20H0Z" transform="translate(3471 1777.96)"/><g transform="translate(3481.023 1755.307)"><path class="f" d="M-.468,0-1.511,4.295,8.152,6.747,9.194,2.453Z" transform="translate(1.511)"/></g><g transform="translate(3481.023 1755.307)"><path class="d" d="M-.468,0-1.511,4.295,8.152,6.747,9.194,2.453Z" transform="translate(1.511)"/></g><g transform="translate(3472.933 1752.43)"><path class="c" d="M-.608,0-1.962,5.556l3.237.823L2.629.823Z" transform="translate(1.962)"/></g><g transform="translate(3472.933 1752.43)"><path class="d" d="M-.608,0-1.962,5.556l3.237.823L2.629.823Z" transform="translate(1.962)"/></g><g transform="translate(3475.577 1749.526)"><path class="a" d="M0-1.212,1.233-.9l.658-2.7L.658-3.911Z" transform="translate(0 3.911)"/></g><g transform="translate(3475.576 1749.527)"><path class="d" d="M-.3,0-.954,2.7.28,3.012.939.314Z" transform="translate(0.954)"/></g><g transform="translate(3472.918 1763.026)"><path class="f" d="M-.6-1.928-1.931-6.182q5.224-.273,8.256,1.337c3.032,1.611,4.365,2.778,5.506,2.778.791,0,4.714-1.687,5-1.759q1.334-.333,1.113,0l-.459.808q-1.406,0-5.659,2.453-6.061-2.8-8.1-2.8A8.263,8.263,0,0,0-.6-1.928" transform="translate(1.931 6.221)"/></g><g transform="translate(3471.877 1757.835)"><path class="g" d="M-1.128-4.04l-2.511-9L3.8-11.143,5.2-9.407,14.68-6.994l1.593-1.327,2.511.639L16.356-4.676" transform="translate(3.639 13.037)"/></g><g transform="translate(3471.449 1765.832)"><path class="g" d="M0-1.212a22.8,22.8,0,0,1,5.673-2.41c1.644-.276,3.067-.7,5.1.617q3.063,1.793,4.469,1.793c1.405,0,2.538-1.32,4.13-2.02a3.449,3.449,0,0,1,4.445,1.607" transform="translate(0 3.912)"/></g><path class="e" d="M0-28.98H27.376v20H0Z" transform="translate(3471 1777.96)"/></g></g></svg>