<svg xmlns="http://www.w3.org/2000/svg" xmlns:xlink="http://www.w3.org/1999/xlink" width="34" height="34" viewBox="0 0 34 34"><defs><style>.a{fill:#fff;}.b{clip-path:url(#a);}.c{fill:#fdb4b4;}.d{fill:rgba(0,0,0,0);}.d,.e{stroke:#253858;stroke-width:0.9px;}.e{fill:none;}.f{fill:#253858;}.g{fill:#ffebec;}.h{fill:#fda2a2;}</style><clipPath id="a"><rect class="a" width="34" height="34" transform="translate(494 544)"/></clipPath></defs><g class="b" transform="translate(-494 -544)"><g transform="translate(-21.653 -66.531)"><path class="c" d="M819.653,816.949l5.429-.54a35.567,35.567,0,0,1,3.492-1.456c.753-.239,1.306.522,2.016,1,.275.162.7.093,1.522.461a6.592,6.592,0,0,0,4.868,0l.339-2.1h-4.08l-3.558-1.56-1.107-1.22-1.93,1.743-5.359,1.037-1.633-.175Z" transform="translate(-300 -198)"/><path class="d" d="M194.029,34.562c-3.311,3.479-8.81,2.693-8.81,2.693v9.428c0,5.555,8.81,9.427,8.81,9.427s8.812-3.873,8.812-9.427V37.255S197.342,38.041,194.029,34.562Z" transform="translate(334.63 579.012)"/><path class="e" d="M214.483,62.672c-2.357,2.478-6.276,1.919-6.276,1.919V71.3c0,3.958,6.276,6.713,6.276,6.713s6.276-2.758,6.276-6.713V64.59S216.84,65.15,214.483,62.672Z" transform="translate(314.178 554.003)"/><path class="f" d="M232.568,106.049,230,103.9l.682-.816,1.684,1.407,2.76-3.913.87.613Z" transform="translate(295.925 520.6)"/><circle class="g" cx="8.911" cy="8.911" r="8.911" transform="translate(528.56 623.109)"/><g transform="translate(531.526 626.077)"><g transform="translate(0 0)"><path class="h" d="M146.5,265.143a.222.222,0,1,0,.222.223A.223.223,0,0,0,146.5,265.143Z" transform="translate(-142.768 -258.782)"/><path class="h" d="M327.419,392.354a.819.819,0,0,1-.359-.344c-.12-.235-.286-.579-.449-.97a3.931,3.931,0,0,1-.573.332c.284.371.507.707.625.89a.732.732,0,0,1,.108.451.439.439,0,1,0,.816-.193.428.428,0,0,0-.171-.168Z" transform="translate(-318.21 -381.658)"/><path class="h" d="M119.463,392.037a.731.731,0,0,1-.336.318.439.439,0,1,0,.577.613.43.43,0,0,0,.059-.231.816.816,0,0,1,.119-.483c.144-.223.358-.538.615-.874a3.961,3.961,0,0,1-.573-.332c-.167.4-.337.753-.459.988Z" transform="translate(-116.025 -381.666)"/><path class="h" d="M119.12,32.723a.816.816,0,0,1,.359.344c.12.235.286.579.449.97a3.954,3.954,0,0,1,.573-.332c-.267-.348-.483-.667-.625-.89a.732.732,0,0,1-.108-.45.439.439,0,1,0-.816.193A.429.429,0,0,0,119.12,32.723Z" transform="translate(-116.029 -31.136)"/><path class="h" d="M327.066,33.055a.733.733,0,0,1,.337-.318.439.439,0,1,0-.576-.613.43.43,0,0,0-.06.231.816.816,0,0,1-.119.483c-.144.222-.359.538-.615.874a3.959,3.959,0,0,1,.573.332C326.774,33.638,326.944,33.291,327.066,33.055Z" transform="translate(-318.202 -31.144)"/><circle class="h" cx="0.659" cy="0.659" r="0.659" transform="translate(4.834 4.166)"/><path class="h" d="M1.967,238.279c-.009-.11-.014-.223-.014-.331s.005-.222.014-.331c-.434.057-.816.084-1.084.1a.733.733,0,0,1-.445-.132.439.439,0,0,0-.578.652.45.45,0,0,0,.565.09.823.823,0,0,1,.478-.139c.263.013.644.04,1.062.095Z" transform="translate(0.248 -231.807)"/><circle class="h" cx="0.22" cy="0.22" r="0.22" transform="translate(7.687 5.263)"/><path class="h" d="M422.082,237.991a.451.451,0,0,0-.565-.09.816.816,0,0,1-.478.139c-.263-.014-.644-.042-1.062-.1q.014.164.014.331c0,.111-.005.223-.014.331.463-.06.865-.086,1.084-.1a.742.742,0,0,1,.445.132.439.439,0,0,0,.578-.651Z" transform="translate(-409.89 -232.134)"/><path class="h" d="M42.381,8.692a.42.42,0,0,0-.237-.058.791.791,0,0,1-.474-.117c-.348-.222-.676-.458-.978-.694a.445.445,0,0,1-.142-.487,3.521,3.521,0,0,0,0-2.229.441.441,0,0,1,.142-.488c.392-.307.755-.552.991-.7a.742.742,0,0,1,.453-.108.45.45,0,0,0,.316-.11.439.439,0,1,0-.678-.536.816.816,0,0,1-.34.356c-.227.115-.776.357-1.083.491a.44.44,0,0,1-.505-.115A3.5,3.5,0,0,0,37.925,2.78a.439.439,0,0,1-.354-.38c-.039-.341-.105-.951-.116-1.2a.729.729,0,0,1,.132-.439.439.439,0,1,0-.808-.242.429.429,0,0,0,.066.231.8.8,0,0,1,.138.475c-.013.252-.079.848-.116,1.181a.439.439,0,0,1-.352.38,3.5,3.5,0,0,0-1.922,1.112.439.439,0,0,1-.5.115c-.314-.136-.873-.382-1.1-.5a.734.734,0,0,1-.319-.337.44.44,0,1,0-.612.579.425.425,0,0,0,.236.058.784.784,0,0,1,.474.117c.349.222.677.459.978.694a.445.445,0,0,1,.142.489,3.521,3.521,0,0,0,0,2.225.441.441,0,0,1-.142.488c-.392.307-.755.553-.991.7a.742.742,0,0,1-.452.108.445.445,0,0,0-.316.11.439.439,0,0,0,.509.71.432.432,0,0,0,.169-.173A.816.816,0,0,1,33,8.923c.227-.115.776-.357,1.083-.491A.437.437,0,0,1,34.26,8.4a.445.445,0,0,1,.332.148,3.5,3.5,0,0,0,1.923,1.118.439.439,0,0,1,.353.38c.039.34.1.947.116,1.2a.736.736,0,0,1-.132.441.439.439,0,1,0,.8.243.429.429,0,0,0-.066-.231.8.8,0,0,1-.138-.474c.016-.323.054-.816.136-1.347a.223.223,0,0,1,.183-.188,3.486,3.486,0,0,0,2.073-1.138.439.439,0,0,1,.505-.115c.314.136.875.383,1.1.5a.732.732,0,0,1,.317.337.441.441,0,1,0,.613-.579ZM34.806,7.317a.659.659,0,1,1,.659-.659.659.659,0,0,1-.659.659ZM35.465,4.9a1.1,1.1,0,1,1,1.1,1.1,1.1,1.1,0,0,1-1.1-1.1Zm1.975,4.17a1.315,1.315,0,1,1,.931-.385,1.316,1.316,0,0,1-.931.385Zm1.536-2.853a.657.657,0,1,1,.466-.192.659.659,0,0,1-.466.192Z" transform="translate(-31.069 -0.078)"/><path class="h" d="M229.449,283.429a.878.878,0,1,0,.878.878A.878.878,0,0,0,229.449,283.429Z" transform="translate(-223.079 -276.63)"/></g></g></g></g></svg>