<svg xmlns="http://www.w3.org/2000/svg" xmlns:xlink="http://www.w3.org/1999/xlink" width="32" height="32" viewBox="0 0 32 32"><defs><style>.a{fill:#fff;}.b{clip-path:url(#a);}.c{fill:#ffddbc;}.d{fill:#2a3d5c;}.e{fill:none;}</style><clipPath id="a"><rect class="a" width="32" height="32" transform="translate(96 591)"/></clipPath></defs><g class="b" transform="translate(-96 -591)"><g transform="translate(-161.536 -24.939)"><rect class="c" width="3" height="9" transform="translate(262 626)"/><rect class="c" width="3" height="14" transform="translate(260 621)"/><g transform="translate(-3132.464 -1082.027)"><g transform="translate(3403.876 1712.857)"><path class="c" d="M-.338-3.393H3.236a.862.862,0,0,0,.849-.874v-1.6a.983.983,0,0,0-.011-.145l-.838-5.176a.852.852,0,0,0-.837-.73l-2.736.072a.862.862,0,0,0-.848.874v6.709a.862.862,0,0,0,.848.874" transform="translate(1.186 11.922)"/></g><g transform="translate(3412.536 1715.292)"><path class="c" d="M-1.631,0-3.977,4.99l-1.752.7,1.242,1.4h2.856L.462,4.99l.43-2.53L-.278.365Z" transform="translate(5.729)"/></g><g transform="translate(3394.011 1703.114)"><path class="d" d="M-8.41-7.531a3.447,3.447,0,0,1-2.118-.732l1.573-.682,1.64-3.862.424-1.005.127-.295A3.478,3.478,0,0,1-4.94-11.028a3.487,3.487,0,0,1-3.47,3.5m-.022-8.393a1.133,1.133,0,0,0,.452-.24l.54,1.466-.054.129Zm-4.716-6.991.574-.356A1.663,1.663,0,0,0-12-23.882l3.618,6.311a.577.577,0,0,1,.054.446.555.555,0,0,1-.28.344.537.537,0,0,1-.7-.191Zm-7.434,3.576L-22.241-12.5h-2.464l2.721-8.011,8.139-4.955.022-.011,0,.005a.765.765,0,0,1,.209-.087.8.8,0,0,1,.71.179.806.806,0,0,1,.153.187l.059.1a.847.847,0,0,1-.32,1.068Zm.369,7.713v3.06h-5.515A.431.431,0,0,1-26.152-9v-2.185a.431.431,0,0,1,.424-.438ZM-19.364-16a.431.431,0,0,1,.424-.438h3.1a.43.43,0,0,1,.418.366l.725,4.48v3.024h-4.667Zm1.7,9.18h-5.94v-.874h5.94Zm2.132.875a2.193,2.193,0,0,0,0,2.623h-10.2a2.193,2.193,0,0,0,0-2.623Zm8.886-9.072-.813-2.2a1.462,1.462,0,0,0-.188-.8l-4.314-7.521c-.014-.029-.023-.059-.039-.087a1.718,1.718,0,0,0-.31-.378,1.537,1.537,0,0,0-1.5-.4,1.622,1.622,0,0,0-.464.184L-22.683-21.1l-2.922,8.6h-.122A1.293,1.293,0,0,0-27-11.187V-9a1.293,1.293,0,0,0,1.273,1.312h1.273v.874h-2.97A2.154,2.154,0,0,0-29.546-4.63a2.154,2.154,0,0,0,2.121,2.185H-13.85A2.154,2.154,0,0,0-11.728-4.63,2.155,2.155,0,0,0-13.85-6.817h-2.969v-.874h2.969v-3.934l-.735-4.587a1.281,1.281,0,0,0-1.255-1.1h-3.1A1.293,1.293,0,0,0-20.213-16v3.5h-1.153l1.522-6.275,5.967-3.689,3.867,5.975a1.391,1.391,0,0,0,.436.421l1.684,2.432L-9.6-9.614l-2.429,1.049.408.458A4.3,4.3,0,0,0-8.411-6.658a4.348,4.348,0,0,0,4.319-4.372,4.346,4.346,0,0,0-2.556-3.984" transform="translate(29.546 26.457)"/></g><g transform="translate(3394.859 1723.629)"><path class="c" d="M0-.522A1.292,1.292,0,0,1,1.273-1.833,1.292,1.292,0,0,1,2.546-.522,1.292,1.292,0,0,1,1.273.79,1.292,1.292,0,0,1,0-.522" transform="translate(0 1.833)"/></g><g transform="translate(3408.435 1723.629)"><path class="c" d="M-1.013-.522A1.292,1.292,0,0,1-2.285.79,1.292,1.292,0,0,1-3.558-.522,1.292,1.292,0,0,1-2.285-1.833,1.292,1.292,0,0,1-1.013-.522" transform="translate(3.558 1.833)"/></g><path class="d" d="M.778-34.406H2.723v13.256H.778Zm0-1.6a.391.391,0,0,1,.388-.393h.778a.39.39,0,0,0,.388-.392.391.391,0,0,1,.389-.392H5.057v.784A.391.391,0,0,1,4.668-36H3.112a.391.391,0,0,0-.389.393.391.391,0,0,1-.389.392H.778ZM3.5-20.475V-34.828a.391.391,0,0,0-.117-.278c.019-.037.035-.075.05-.114H4.668A1.173,1.173,0,0,0,5.835-36.4v-1.177a.391.391,0,0,0-.389-.392H2.723a1.169,1.169,0,0,0-1.1.785H1.167A1.171,1.171,0,0,0,0-36v15.529Z" transform="translate(3392 1737.932)"/><path class="d" d="M4.569-28.332H6.514v8.77H4.569Zm0-1.564a.39.39,0,0,1,.389-.392h.778a.391.391,0,0,0,.389-.393.39.39,0,0,1,.388-.392H8.848v.785a.391.391,0,0,1-.389.392H6.9a.391.391,0,0,0-.389.393.39.39,0,0,1-.388.392H4.569ZM7.292-18.737v-9.981A.391.391,0,0,0,7.175-29a1.144,1.144,0,0,0,.05-.114H8.459a1.173,1.173,0,0,0,1.167-1.177v-1.177a.391.391,0,0,0-.389-.392H6.514a1.17,1.17,0,0,0-1.1.785H4.958A1.172,1.172,0,0,0,3.791-29.9v11.159Z" transform="translate(3390.921 1736.194)"/><path class="e" d="M0-37.966H27.464v27.159H0Z" transform="translate(3392 1737.932)"/></g></g></g></svg>