<svg xmlns="http://www.w3.org/2000/svg" xmlns:xlink="http://www.w3.org/1999/xlink" width="34" height="34" viewBox="0 0 34 34"><defs><style>.a{fill:#fff;stroke:#707070;}.b{clip-path:url(#a);}.c{fill:#b4d4f4;}.d{fill:#2a3d5c;stroke:#2a3d5c;stroke-width:0.2px;}.e{fill:#deebff;}</style><clipPath id="a"><rect class="a" width="34" height="34" transform="translate(510 472)"/></clipPath></defs><g class="b" transform="translate(-510 -472)"><g transform="translate(474 86.528)"><rect class="c" width="11" height="16" transform="translate(49 398)"/><path class="d" d="M3.785.871V-.53A.475.475,0,0,1,4.262-1H8.994a.475.475,0,0,1,.477.47v1.4H27.935a.47.47,0,1,1,0,.939H26.512v8.93a.471.471,0,0,1-.477.47.47.47,0,1,0,.477.47h.946a1.382,1.382,0,0,1-.363.932l1.217,1.608-.007.007a.442.442,0,0,1,.1.278v1.878a.486.486,0,0,1-.135.334l-.946.939a.474.474,0,0,1-.334.135H25.1a.474.474,0,0,1-.334-.135l-.946-.939a.474.474,0,0,1-.135-.334V14.5a.442.442,0,0,1,.1-.278l-.007-.007,1.217-1.608a1.4,1.4,0,0,1,.583-2.263V1.811H9.471V2.992a.471.471,0,0,1-.477.47H7.1V24.843H9.94V6.037h.946V7.916h2.839V6.976h.946v.939h2.839v-.47h.946v.47H21.3v-1.4H15.142V5.568H21.3V3.689h.946V24.843H28.4v.939H0v-.939H6.155V3.461H4.262a.475.475,0,0,1-.477-.47V1.811H.477a.47.47,0,1,1,0-.939H3.785Zm7.1,7.991v4.7h2.839v-4.7Zm3.785,0V12.9l1.089-1.067A.474.474,0,0,1,16.1,11.7h1.423V8.862Zm3.793,0v.783H21.3V8.862ZM21.3,24.843V10.584H18.465v1.587a.471.471,0,0,1-.477.47h-1.7L14.53,14.362a.474.474,0,0,1-.334.135H10.887V24.843Z" transform="translate(39 389.471)"/><path class="e" d="M35.972,18.81l-.712.939h1.893l-.712-.939Z" transform="translate(28.829 383.757)"/><path class="c" d="M34.59,22.667l.676.662h1.5l.669-.662V21.45H34.59Z" transform="translate(29.022 382.996)"/><path class="c" d="M10.363.24H6.67v2.6h3.693Z" transform="translate(37.076 389.113)"/></g></g></svg>