<svg xmlns="http://www.w3.org/2000/svg" xmlns:xlink="http://www.w3.org/1999/xlink" width="34" height="34" viewBox="0 0 34 34"><defs><style>.a,.g,.i{fill:#fff;}.a{stroke:#707070;}.b,.h,.l{fill:none;}.c{clip-path:url(#a);}.d,.j{fill:#b6f4b4;}.e{clip-path:url(#b);}.f{fill:#253858;}.g,.j{fill-rule:evenodd;}.h,.l{stroke:#253858;}.h{stroke-linecap:round;}.k{fill:#deebff;}</style><clipPath id="a"><rect class="a" width="34" height="34" transform="translate(721 352)"/></clipPath><clipPath id="b"><path class="b" d="M0-35.071H27.985V-9.856H0Z" transform="translate(0 35.071)"/></clipPath></defs><g class="c" transform="translate(-721 -352)"><g transform="translate(31.934 204.606)"><rect class="d" width="12" height="24" transform="translate(699 152)"/><g transform="translate(692.066 186.465)"><g class="e" transform="translate(0 -35.071)"><path class="f" d="M1-24.446H6.086v13.577H1Zm18.456-9.641h.673a.5.5,0,0,0,.5-.492.5.5,0,0,0-.5-.492H5.412a.5.5,0,0,0-.5.492.5.5,0,0,0,.5.492h.673v6.772a.5.5,0,0,0,.5.492.5.5,0,0,0,.5-.492v-6.772H18.456v23.218H7.083V-27.577a.5.5,0,0,0-.5-.492.5.5,0,0,0-.5.492v2.148H.5a.5.5,0,0,0-.5.492v14.561a.5.5,0,0,0,.5.492H22.657a.5.5,0,0,0,.5-.492.5.5,0,0,0-.5-.492h-3.2Z" transform="translate(0 35.071)"/><g transform="translate(10.823 11.919)"><path class="g" d="M-.427,0H14.336a1.091,1.091,0,0,1,1.091,1.091c0,.02,0,.041,0,.061l-.2,3.5-.8,2.375v4.929a1.091,1.091,0,0,1-1.092,1.091H.637A1.091,1.091,0,0,1-.455,11.958V7.482L-1.518,4.655V1.091A1.092,1.092,0,0,1-.427,0" transform="translate(1.518)"/></g><g transform="translate(12.131 11.808)"><path class="h" d="M0,0H14.33a1.086,1.086,0,0,1,.784.339,1.184,1.184,0,0,1,.325.818v3.2A1.133,1.133,0,0,1,14.33,5.508H12.882"/></g><g transform="translate(10.823 11.808)"><path class="h" d="M-6.035,0h-14.33a1.087,1.087,0,0,0-.784.339,1.184,1.184,0,0,0-.325.818v3.2a1.134,1.134,0,0,0,1.109,1.156h1.337" transform="translate(21.474)"/></g><g transform="translate(17.313 17.304)"><path class="h" d="M-1.464,0-5.21.013" transform="translate(5.21)"/></g><g transform="translate(16.282 9.744)"><path class="i" d="M0-.807c-.024-.1,0-.687,0-.786v-.2a1.059,1.059,0,0,1,1.035-1.08H4.975A1.058,1.058,0,0,1,6.01-1.791v.2c0,.1-.051.69-.078.786Z" transform="translate(0.016 2.871)"/></g><g transform="translate(16.282 9.744)"><path class="h" d="M0-.807c-.024-.1,0-.687,0-.786v-.2a1.059,1.059,0,0,1,1.035-1.08H4.975A1.058,1.058,0,0,1,6.01-1.791v.2c0,.1-.051.69-.078.786Z" transform="translate(0.016 2.871)"/></g><g transform="translate(11.574 20.499)"><path class="j" d="M-6.033,0V2.735A1.54,1.54,0,0,1-7.54,4.3H-19.946a1.469,1.469,0,0,1-1.073-.451,1.6,1.6,0,0,1-.446-1.114V0a24.881,24.881,0,0,0,7.76.955A24.024,24.024,0,0,0-6.033,0" transform="translate(21.465)"/></g><g transform="translate(11.573 17.304)"><path class="h" d="M-6.006,0a1.5,1.5,0,0,1,.068.441V5.93A1.541,1.541,0,0,1-7.447,7.5H-19.852a1.47,1.47,0,0,1-1.073-.452,1.6,1.6,0,0,1-.446-1.114V.441A1.518,1.518,0,0,1-21.311,0" transform="translate(21.372)"/></g><g transform="translate(14.6 15.93)"><path class="k" d="M-.108,0h1.28a.276.276,0,0,1,.276.276v2.2a.276.276,0,0,1-.276.276H-.108a.276.276,0,0,1-.276-.276V.276A.276.276,0,0,1-.108,0" transform="translate(0.384)"/></g><g transform="translate(14.6 15.93)"><path class="l" d="M-.108,0h1.28a.276.276,0,0,1,.276.276v2.2a.276.276,0,0,1-.276.276H-.108a.276.276,0,0,1-.276-.276V.276A.276.276,0,0,1-.108,0Z" transform="translate(0.384)"/></g><g transform="translate(22.229 15.93)"><path class="k" d="M-.108,0h1.28a.276.276,0,0,1,.276.276v2.2a.276.276,0,0,1-.276.276H-.108a.276.276,0,0,1-.276-.276V.276A.276.276,0,0,1-.108,0" transform="translate(0.384)"/></g><g transform="translate(22.229 15.93)"><path class="l" d="M-.108,0h1.28a.276.276,0,0,1,.276.276v2.2a.276.276,0,0,1-.276.276H-.108a.276.276,0,0,1-.276-.276V.276A.276.276,0,0,1-.108,0Z" transform="translate(0.384)"/></g></g></g></g></g></svg>