<svg xmlns="http://www.w3.org/2000/svg" xmlns:xlink="http://www.w3.org/1999/xlink" width="34" height="34" viewBox="0 0 34 34"><defs><style>.a{fill:#fff;}.b{clip-path:url(#a);}.c{clip-path:url(#b);}.d{fill:#b4d4f4;}.e,.f{fill:#2a3d5c;}.e{stroke:#2a3d5d;stroke-width:0.3px;}.g{fill:none;stroke:#2a3d5c;stroke-linecap:round;stroke-linejoin:round;stroke-width:1.2px;}</style><clipPath id="a"><rect class="a" width="34" height="34" transform="translate(93 357)"/></clipPath><clipPath id="b"><rect class="a" width="29" height="29" transform="translate(100 363)"/></clipPath></defs><g class="b" transform="translate(-93 -357)"><g class="c" transform="translate(-4 -3)"><g transform="translate(101.706 365.559)"><path class="d" d="M92.6,5285.98a2.461,2.461,0,0,0,0,3.257l.772.966H94v-.966l-.626-1.628L94,5285.98l6.367,6.107.321,4.8,1.613-.462.291-4.333-1.08-2.164h-.824l1.9-1.892,1.952,1.5,1.484.676.316-.966-3.465-3.806-2.842,2.6-2.268-2.051-.888-1.48,1.6-.5,1.317-1.949-.674-.811-.643.811-.707,1.137-3.471.945Z" transform="translate(-81.97 -5280.462)"/><g transform="translate(0 0)"><path class="e" d="M15.987,5.979l-3.668-3.61a.356.356,0,0,0-.507,0L9.183,4.959,6.772,2.586A3.212,3.212,0,0,0,9.542-.575V-.64A1.074,1.074,0,0,0,8.458-1.7,1.074,1.074,0,0,0,7.375-.64,1.141,1.141,0,0,1,6.233.489,5.347,5.347,0,0,0,4.38.816a2.121,2.121,0,0,0-1.353-2.7A2.18,2.18,0,0,0,.275-.55a2.121,2.121,0,0,0,1.353,2.7,2.335,2.335,0,0,0,.552.109l-.1.109a3.829,3.829,0,0,0,0,5.47l.135.135A1.136,1.136,0,0,0,3.8,7.967,1.1,1.1,0,0,0,3.8,6.4l-.135-.128a1.634,1.634,0,0,1-.224-2.059L8.458,9.153H5.573a.357.357,0,0,0-.359.353.353.353,0,0,0,.359.353h3.6l.366.359V13.4a1.462,1.462,0,0,0,.192.712H7.368a.353.353,0,1,0,0,.705h3.61A1.432,1.432,0,0,0,12.422,13.4v-4.4a.354.354,0,0,0-.1-.25L10.773,7.229l1.3-1.27L14.038,7.9a1.39,1.39,0,0,0,1.95,0A1.34,1.34,0,0,0,15.987,5.979ZM15.468,7.4a.65.65,0,0,1-.462.186.682.682,0,0,1-.468-.192L12.313,5.209a.356.356,0,0,0-.507,0L10,6.985a.348.348,0,0,0,0,.5L11.7,9.159v4.252a.718.718,0,0,1-1.436,0V10.076a.354.354,0,0,0-.1-.25L3.668,3.433a.356.356,0,0,0-.507,0,2.338,2.338,0,0,0,0,3.341l.135.135a.391.391,0,0,1,0,.564.4.4,0,0,1-.289.115.43.43,0,0,1-.289-.115l-.135-.135a3.132,3.132,0,0,1,0-4.47L2.9,2.554a4.738,4.738,0,0,1,3.335-1.36A1.857,1.857,0,0,0,8.1-.64a.353.353,0,0,1,.359-.353.357.357,0,0,1,.359.353v.058A2.511,2.511,0,0,1,6.291,1.906a.357.357,0,0,0-.359.353v.359a.354.354,0,0,0,.1.25L8.92,5.709a.356.356,0,0,0,.507,0l2.629-2.591,3.412,3.36A.639.639,0,0,1,15.468,7.4Z" transform="translate(8.683 1.997)"/><path class="d" d="M1.29.537a1.443,1.443,0,0,1,2.886,0,1.443,1.443,0,0,1-2.886,0Z" transform="translate(8.278 1.597)"/><path class="f" d="M8.557,23.13H7.839a.353.353,0,1,0,0,.705h.718a.353.353,0,1,0,0-.705Z" transform="translate(6.058 -7.016)"/><path class="f" d="M5.747,15.38H5.029a.357.357,0,0,0-.359.353.353.353,0,0,0,.359.353h.718a.353.353,0,1,0,0-.705Z" transform="translate(7.065 -4.236)"/><path class="g" d="M.6,14.64H5.358v4.252h4.823v3.938h4.451v4.226h7.394" transform="translate(-0.6 -3.971)"/></g></g></g></g></svg>