<svg xmlns="http://www.w3.org/2000/svg" xmlns:xlink="http://www.w3.org/1999/xlink" width="34" height="34" viewBox="0 0 34 34"><defs><style>.a{fill:#fff;}.b{clip-path:url(#a);}.c{fill:#ffddbc;}.d{fill:#4494ff;}.e{fill:#253858;}.f{fill:none;}</style><clipPath id="a"><rect class="a" width="34" height="34" transform="translate(509 251)"/></clipPath></defs><g class="b" transform="translate(-509 -251)"><g transform="translate(433 -28)"><rect class="c" width="10" height="23" transform="translate(87 286.21)"/><g transform="translate(92.23 288.973)"><path class="d" d="M-.178-1.156a.468.468,0,0,0,.467-.467V-3.711a.468.468,0,0,0-.467-.468.468.468,0,0,0-.467.468v2.087a.467.467,0,0,0,.467.467" transform="translate(0.645 4.179)"/></g><path class="e" d="M.934-22.989h4.76v12.9H.934ZM18.2-32.151h.63a.467.467,0,0,0,.467-.467.467.467,0,0,0-.467-.467H5.064a.468.468,0,0,0-.467.467.468.468,0,0,0,.467.467h.63v6.434a.468.468,0,0,0,.467.468.467.467,0,0,0,.467-.468v-6.434h10.64v22.061H6.627V-25.966a.466.466,0,0,0-.467-.467.467.467,0,0,0-.467.467v2.041H.467A.468.468,0,0,0,0-23.457V-9.622a.467.467,0,0,0,.467.467H21.2a.467.467,0,0,0,.466-.467.467.467,0,0,0-.466-.467h-3Z" transform="translate(80 319.364)"/><g transform="translate(90.849 282)"><path class="e" d="M-.011-4.52,0-4.715A11.538,11.538,0,0,1,2.91-11.166c1.16-1.515,2.161-2.824,2.161-4.755a.412.412,0,0,1,.231-.368.431.431,0,0,1,.442.031,10.515,10.515,0,0,1,4,5.611,17.777,17.777,0,0,1,.438,4.194c1.737-.36,2.13-2.882,2.134-2.91a.415.415,0,0,1,.222-.307.435.435,0,0,1,.386-.007c.091.043,2.236,1.1,2.361,5.325.008.14.009.281.009.422A7.566,7.566,0,0,1,7.626,3.512,7.566,7.566,0,0,1-.04-3.931c0-.205.014-.4.029-.589" transform="translate(0.04 16.335)"/></g><g transform="translate(95.96 294.013)"><path class="a" d="M-.978-2.681A2.6,2.6,0,0,0,1.578-5.323c0-.051,0-.1,0-.162A3.248,3.248,0,0,0,1.305-6.8,1.55,1.55,0,0,1-.1-5.809a.419.419,0,0,1-.426-.413A8.033,8.033,0,0,0-.69-8.1a3.947,3.947,0,0,0-.861-1.585,5.291,5.291,0,0,1-.879,1.564A4.645,4.645,0,0,0-3.522-5.543c-.005.072-.011.142-.011.22A2.6,2.6,0,0,0-.978-2.681" transform="translate(3.533 9.688)"/></g><path class="c" d="M-1.578-6.6a3.476,3.476,0,0,1-.715-2.1c0-.1.006-.188.018-.357a5.335,5.335,0,0,1,1.239-2.92,3.233,3.233,0,0,0,.847-1.936.412.412,0,0,1,.237-.37.432.432,0,0,1,.446.041A4.82,4.82,0,0,1,2.23-11.675a7.37,7.37,0,0,1,.179,1.468A1.934,1.934,0,0,0,2.8-11.1a.413.413,0,0,1,.226-.31.437.437,0,0,1,.391,0c.108.053,1.05.578,1.1,2.508,0,.066,0,.132,0,.2a3.472,3.472,0,0,1-.716,2.1,6.622,6.622,0,0,0,4.123-6.075c0-.124,0-.247-.009-.386A6.1,6.1,0,0,0,6.5-17.311c-.372,1.293-1.346,2.981-3.253,2.981a.419.419,0,0,1-.426-.413A17.938,17.938,0,0,0,2.4-19.19,9.78,9.78,0,0,0-.644-23.852a9.332,9.332,0,0,1-2.275,4.434A10.715,10.715,0,0,0-5.659-13.4l-.014.2c-.014.171-.027.344-.027.528A6.624,6.624,0,0,0-1.578-6.6" transform="translate(97.402 307.08)"/><path class="f" d="M0-39H26.182v28.208H0Z" transform="translate(80 321)"/></g></g></svg>