<svg xmlns="http://www.w3.org/2000/svg" xmlns:xlink="http://www.w3.org/1999/xlink" width="34" height="34" viewBox="0 0 34 34"><defs><style>.a{fill:#fff;}.b{clip-path:url(#a);}.c,.f,.g{fill:#ffddbc;}.d{fill:#253858;}.e{fill:none;stroke-linecap:round;}.e,.g{stroke:#253858;stroke-width:0.8px;}.f{fill-rule:evenodd;}</style><clipPath id="a"><rect class="a" width="34" height="34" transform="translate(104 480)"/></clipPath></defs><g class="b" transform="translate(-104 -480)"><g transform="translate(72.934 16)"><path class="c" d="M25.234,5553.672l2.917,3.985v3.926L11.2,5558.167v-4.211l.729-.284Z" transform="translate(32 -5084)"/><path class="c" d="M0,0,14.028.672Z" transform="translate(43 469)"/><path class="d" d="M17.948,3.952l-3.556-4.5A.389.389,0,0,0,14.086-.7H1.035A1.2,1.2,0,0,0-.15.524v7.6H.64V.524a.4.4,0,0,1,.4-.408H13.685V3.378A1.2,1.2,0,0,0,14.87,4.6H17.24V22.8a.4.4,0,0,1-.4.408H1.035A.394.394,0,0,1,.691,23l-.682.408a1.185,1.185,0,0,0,1.026.612H16.852A1.2,1.2,0,0,0,18.037,22.8V4.207A.4.4,0,0,0,17.948,3.952Zm-3.467-.574V.855L16.8,3.786H14.876A.4.4,0,0,1,14.481,3.378Z" transform="translate(42.897 469.7)"/><path class="e" d="M2,2.63H17.014a1.153,1.153,0,0,1,.822.35,1.213,1.213,0,0,1,.338.841V7.11A1.179,1.179,0,0,1,17.014,8.3H15.5" transform="translate(35.436 477.286)"/><path class="e" d="M16.023,2.63H1.01a1.153,1.153,0,0,0-.822.35,1.213,1.213,0,0,0-.338.841V7.11A1.179,1.179,0,0,0,1.01,8.3h1.4" transform="translate(36.216 477.286)"/><path class="e" d="M14.445,11.51l-3.925.013" transform="translate(32.345 474.065)"/><path class="e" d="M8.878.919A1.183,1.183,0,0,1,8.84.613v-.2A1.1,1.1,0,0,1,9.923-.7h4.136A1.1,1.1,0,0,1,15.142.409v.2a1.174,1.174,0,0,1-.045.3" transform="translate(32.955 478.494)"/><path class="f" d="M17.251,16.68V19.5a1.6,1.6,0,0,1-1.58,1.612H2.677a1.52,1.52,0,0,1-1.122-.465A1.63,1.63,0,0,1,1.09,19.5V16.68a26.507,26.507,0,0,0,8.131.981A25.509,25.509,0,0,0,17.251,16.68Z" transform="translate(35.766 472.189)"/><path class="e" d="M17.18,11.51a1.559,1.559,0,0,1,.07.452v5.652a1.6,1.6,0,0,1-1.58,1.612H2.677a1.52,1.52,0,0,1-1.122-.465,1.63,1.63,0,0,1-.465-1.147V11.962a1.553,1.553,0,0,1,.064-.452" transform="translate(35.766 474.065)"/><path class="g" d="M6.334,9.29H7.7a.272.272,0,0,1,.274.274v2.275a.272.272,0,0,1-.274.274H6.334a.272.272,0,0,1-.274-.274V9.57A.277.277,0,0,1,6.334,9.29Z" transform="translate(33.963 474.87)"/><path class="g" d="M18.874,9.29h1.37a.272.272,0,0,1,.274.274v2.275a.272.272,0,0,1-.274.274h-1.37a.272.272,0,0,1-.274-.274V9.57A.282.282,0,0,1,18.874,9.29Z" transform="translate(29.415 474.87)"/></g></g></svg>