<svg xmlns="http://www.w3.org/2000/svg" xmlns:xlink="http://www.w3.org/1999/xlink" width="34" height="34" viewBox="0 0 34 34"><defs><style>.a{fill:#fff;}.b{clip-path:url(#a);}.c{fill:#a99aff;}.d{fill:#253858;}.e{fill:#deebff;}</style><clipPath id="a"><rect class="a" width="34" height="34" transform="translate(722 253)"/></clipPath></defs><g class="b" transform="translate(-722 -253)"><g transform="translate(648.241 -92)"><path class="c" d="M3.06,17.035V12.617a1.392,1.392,0,0,0,.181.008,2.988,2.988,0,0,0,2.468-1.3,2.987,2.987,0,0,0,4.937,0,2.972,2.972,0,0,0,4.921,0,2.978,2.978,0,0,0,2.468,1.3c.063,0,.118-.008.173-.008v4.41Z" transform="translate(75.874 357.136)"/><g transform="translate(76.759 350)"><path class="d" d="M18.526,2.4a.448.448,0,0,0-.065-.231L15.633-2.769a.476.476,0,0,0-.4-.231H2.788a.461.461,0,0,0-.4.238L-.445,2.181a.5.5,0,0,0-.065.231A2.716,2.716,0,0,0,1.121,4.895v8.154a.467.467,0,0,0,.469.462H16.419a.467.467,0,0,0,.469-.462v-8.1a.107.107,0,0,0-.007-.051A2.712,2.712,0,0,0,18.526,2.4ZM3.062-2.069H14.954L17.17,1.8H.854Zm9.98,4.792a1.8,1.8,0,0,1-3.536,0Zm-12.578,0H4A1.786,1.786,0,0,1,2.232,4.187,1.78,1.78,0,0,1,.464,2.722Zm1.6,9.857V5.118a1.277,1.277,0,0,0,.166.007A2.743,2.743,0,0,0,4.5,3.928a2.742,2.742,0,0,0,4.532,0,2.728,2.728,0,0,0,4.517,0,2.733,2.733,0,0,0,2.266,1.2c.058,0,.108-.007.159-.007V12.58Z" transform="translate(0.51 11.237)"/><path class="c" d="M10.466,4.62a1.927,1.927,0,0,1-3.8,0Z" transform="translate(-1.489 9.116)"/><path class="e" d="M22.028,6.215a1.929,1.929,0,0,1-1.9-1.595h3.8A1.936,1.936,0,0,1,22.028,6.215Z" transform="translate(-5.236 9.116)"/><path class="d" d="M15.724,8.277l-.014.2a11.923,11.923,0,0,1-2.988,6.653c-1.191,1.566-2.223,2.908-2.223,4.9a.442.442,0,0,1-.238.382.432.432,0,0,1-.455-.036A10.863,10.863,0,0,1,5.7,14.591a18.461,18.461,0,0,1-.447-4.323c-1.782.375-2.187,2.973-2.194,3a.437.437,0,0,1-.231.318.451.451,0,0,1-.4.007C2.338,13.552.137,12.462.007,8.1,0,7.96,0,7.815,0,7.671A7.788,7.788,0,0,1,7.88,0a7.788,7.788,0,0,1,7.88,7.671A5.473,5.473,0,0,1,15.724,8.277Z" transform="translate(28.15 20.463) rotate(180)"/><path class="a" d="M2.627,0A2.678,2.678,0,0,0,0,2.728v.166A3.445,3.445,0,0,0,.274,4.25,1.586,1.586,0,0,1,1.717,3.233a.43.43,0,0,1,.44.426A8.544,8.544,0,0,0,2.324,5.6a4.034,4.034,0,0,0,.888,1.631,5.394,5.394,0,0,1,.9-1.609A4.77,4.77,0,0,0,5.232,2.959a2.185,2.185,0,0,0,.014-.224A2.669,2.669,0,0,0,2.627,0Z" transform="translate(22.897 19.611) rotate(180)"/><path class="c" d="M9.771,0a3.593,3.593,0,0,1,.736,2.165c0,.1-.007.195-.022.368a5.473,5.473,0,0,1-1.27,3.009,3.343,3.343,0,0,0-.873,2,.427.427,0,0,1-.245.382.447.447,0,0,1-.462-.043A5.008,5.008,0,0,1,5.852,5.232a7.722,7.722,0,0,1-.18-1.515,1.984,1.984,0,0,0-.4.916.424.424,0,0,1-.231.318.443.443,0,0,1-.4,0c-.108-.058-1.082-.6-1.133-2.583a1.891,1.891,0,0,1-.007-.2A3.577,3.577,0,0,1,4.236,0,6.823,6.823,0,0,0,0,6.264c0,.13,0,.253.007.4a6.262,6.262,0,0,0,1.465,4.38c.382-1.335,1.386-3.074,3.341-3.074a.43.43,0,0,1,.44.426,18.611,18.611,0,0,0,.426,4.582,10.079,10.079,0,0,0,3.132,4.806,9.585,9.585,0,0,1,2.338-4.568c1.277-1.674,2.6-3.4,2.814-6.206l.014-.2c.014-.18.029-.354.029-.541A6.823,6.823,0,0,0,9.771,0Z" transform="translate(27.277 19.056) rotate(180)"/></g></g></g></svg>