<svg xmlns="http://www.w3.org/2000/svg" xmlns:xlink="http://www.w3.org/1999/xlink" width="34" height="34" viewBox="0 0 34 34"><defs><style>.a,.f{fill:#fff;}.b{clip-path:url(#a);}.c,.d{fill:none;}.c,.d,.f,.g{stroke:#253858;}.d,.f,.g{stroke-linecap:round;stroke-linejoin:round;}.e,.g{fill:#fdb4b4;}.e,.f,.g{fill-rule:evenodd;}</style><clipPath id="a"><rect class="a" width="34" height="34" transform="translate(303 471)"/></clipPath></defs><g class="b" transform="translate(-303 -471)"><g transform="translate(-896.435 -5739)"><g transform="translate(1207.436 6213)"><g transform="translate(0 0)"><g transform="translate(0 0)"><path class="c" d="M-5.2,28.1H7.678v-13.2H9.1V27.222c0,.635.379.932,1.08.932.718,0,1.179-.305,1.179-.808V15.353a2.62,2.62,0,0,0-.726-2.21,2.555,2.555,0,0,0-.693-.47,2.879,2.879,0,0,0-1-.148c-.553-.025-.635-.033-.924-.058q-1.509-.124-10.631,0c-2.087-.049-3.406.272-3.942.891A3.835,3.835,0,0,0-7.44,15.9V23.65c.016.231.033.256.107.264.313.016.874.016,1.674,0l.47-.008v4.2Z" transform="translate(7.44 -0.153)"/><path class="d" d="M-.385,5.73A3.984,3.984,0,0,0-.55,6.86a4.09,4.09,0,0,0,4.1,4.082h0a4.1,4.1,0,0,0,4.1-4.082,4.2,4.2,0,0,0-.157-1.13" transform="translate(6.232 1.016)"/><path class="e" d="M-2.4,4.428H8.856q.334-1.534-.99-1.534A3.841,3.841,0,0,0,4.873-1.065L4.048,1.442V-1.643a1.456,1.456,0,0,0-.833-.247,1.521,1.521,0,0,0-.841.247V1.384L1.59-1.065Q-1.367.258-1.371,2.894C-2.261,3.19-2.6,3.7-2.4,4.428Z" transform="translate(6.567 2.352)"/><path class="d" d="M-1.921,2.482C-1.806.692-.709-.677,1.3-1.576l.462-.206.049.165v-.371l.214-.14A1.976,1.976,0,0,1,3.118-2.45a1.857,1.857,0,0,1,1.08.33l.2.132v.478l.074-.223L4.9-1.6A4.229,4.229,0,0,1,8.2,2.375c.882.181,1.245.932,1,2.045l-.082.355H-2.845l-.091-.33A1.555,1.555,0,0,1-1.921,2.482Z" transform="translate(6.664 2.45)"/><path class="f" d="M-1.541,12.385l2.557,8.5,2.656.19c1.006.124,1.509.586,1.509,1.377a1.347,1.347,0,0,1-1.262,1.427H-4.79V12.608A12.292,12.292,0,0,1-1.541,12.385Z" transform="translate(6.976 -0.146)"/><path class="g" d="M-1.541,12.385,2.9,23.882H-4.79V12.608A12.292,12.292,0,0,1-1.541,12.385Z" transform="translate(6.976 -0.146)"/></g></g></g></g></g></svg>